%TF.GenerationSoftware,KiCad,Pcbnew,9.0.7-1.fc42*%
%TF.CreationDate,2026-02-03T17:10:45+01:00*%
%TF.ProjectId,air_sensor,6169725f-7365-46e7-936f-722e6b696361,rev?*%
%TF.SameCoordinates,Original*%
%TF.FileFunction,Copper,L2,Bot*%
%TF.FilePolarity,Positive*%
%FSLAX46Y46*%
G04 Gerber Fmt 4.6, Leading zero omitted, Abs format (unit mm)*
G04 Created by KiCad (PCBNEW 9.0.7-1.fc42) date 2026-02-03 17:10:45*
%MOMM*%
%LPD*%
G01*
G04 APERTURE LIST*
G04 Aperture macros list*
%AMRoundRect*
0 Rectangle with rounded corners*
0 $1 Rounding radius*
0 $2 $3 $4 $5 $6 $7 $8 $9 X,Y pos of 4 corners*
0 Add a 4 corners polygon primitive as box body*
4,1,4,$2,$3,$4,$5,$6,$7,$8,$9,$2,$3,0*
0 Add four circle primitives for the rounded corners*
1,1,$1+$1,$2,$3*
1,1,$1+$1,$4,$5*
1,1,$1+$1,$6,$7*
1,1,$1+$1,$8,$9*
0 Add four rect primitives between the rounded corners*
20,1,$1+$1,$2,$3,$4,$5,0*
20,1,$1+$1,$4,$5,$6,$7,0*
20,1,$1+$1,$6,$7,$8,$9,0*
20,1,$1+$1,$8,$9,$2,$3,0*%
G04 Aperture macros list end*
%TA.AperFunction,ComponentPad*%
%ADD10C,3.000000*%
%TD*%
%TA.AperFunction,ComponentPad*%
%ADD11C,4.500000*%
%TD*%
%TA.AperFunction,ComponentPad*%
%ADD12RoundRect,0.250000X-0.500000X-0.500000X0.500000X-0.500000X0.500000X0.500000X-0.500000X0.500000X0*%
%TD*%
%TA.AperFunction,ComponentPad*%
%ADD13C,1.500000*%
%TD*%
%TA.AperFunction,ComponentPad*%
%ADD14C,1.905000*%
%TD*%
%TA.AperFunction,ComponentPad*%
%ADD15C,1.600000*%
%TD*%
%TA.AperFunction,ViaPad*%
%ADD16C,0.600000*%
%TD*%
%TA.AperFunction,Conductor*%
%ADD17C,0.200000*%
%TD*%
G04 APERTURE END LIST*
D10*
%TO.P,O1,1,Vsensor+*%
%TO.N,Net-(O1-Vsensor+)*%
X163400000Y-112400000D03*
%TO.P,O1,2,Vsensor-*%
%TO.N,GND*%
X156700000Y-119100000D03*
%TO.P,O1,3*%
%TO.N,unconnected-(O1-Pad3)*%
X170100000Y-119100000D03*
%TD*%
D11*
%TO.P,REF\u002A\u002A,*%
%TO.N,*%
X97000000Y-63000000D03*
%TD*%
%TO.P,REF\u002A\u002A,*%
%TO.N,*%
X182000000Y-63150000D03*
%TD*%
D12*
%TO.P,D1,1,K*%
%TO.N,GND*%
X177960000Y-106500000D03*
D13*
%TO.P,D1,2,A*%
%TO.N,Net-(D1-A)*%
X180500000Y-106500000D03*
%TD*%
D11*
%TO.P,REF\u002A\u002A,*%
%TO.N,*%
X97000000Y-128000000D03*
%TD*%
%TO.P,REF\u002A\u002A,*%
%TO.N,*%
X182100000Y-127800000D03*
%TD*%
D14*
%TO.P,S5,1,HD*%
%TO.N,unconnected-(S5-HD-Pad1)*%
X172140000Y-69420000D03*
%TO.P,S5,2,NC*%
%TO.N,unconnected-(S5-NC-Pad2)*%
X172140000Y-71960000D03*
%TO.P,S5,3,TX*%
%TO.N,CO2_TX*%
X172140000Y-74500000D03*
%TO.P,S5,4,RX*%
%TO.N,C02_RX*%
X172140000Y-77040000D03*
%TO.P,S5,5,NC*%
%TO.N,unconnected-(S5-NC-Pad5)*%
X172140000Y-79580000D03*
%TO.P,S5,6,PWM*%
%TO.N,unconnected-(S5-PWM-Pad6)*%
X142600000Y-71960000D03*
%TO.P,S5,7,NC*%
%TO.N,unconnected-(S5-NC-Pad7)*%
X142600000Y-74500000D03*
%TO.P,S5,8,GND*%
%TO.N,GND*%
X142600000Y-77040000D03*
%TO.P,S5,9,VIN*%
%TO.N,5V*%
X142600000Y-79580000D03*
%TD*%
D15*
%TO.P,J1,1,VCC*%
%TO.N,3V3*%
X172837500Y-98640000D03*
%TO.P,J1,2,GND*%
%TO.N,GND*%
X172837500Y-96100000D03*
%TO.P,J1,3,UPDI*%
%TO.N,UPDI*%
X172837500Y-93560000D03*
%TD*%
D14*
%TO.P,G2,1,3V3*%
%TO.N,3V3*%
X96000000Y-92960000D03*
%TO.P,G2,2,5V*%
%TO.N,5V*%
X96000000Y-95500000D03*
%TO.P,G2,3,GND*%
%TO.N,GND*%
X96000000Y-98000000D03*
%TO.P,G2,4,SDA*%
%TO.N,SDA*%
X96000000Y-100540000D03*
%TO.P,G2,5,SCL*%
%TO.N,SCL*%
X96000000Y-103080000D03*
%TD*%
D16*
%TO.N,3V3*%
X96362500Y-114299400D03*
%TO.N,GND*%
X149000000Y-92500000D03*
X154971800Y-105882700D03*
%TO.N,02_A*%
X147000000Y-117000000D03*
X155668600Y-93829000D03*
%TO.N,5V*%
X99337500Y-79590600D03*
X137500000Y-66000000D03*
%TO.N,SCL*%
X164953200Y-100596900D03*
X164000000Y-102069800D03*
%TO.N,NH3_VAL*%
X135037500Y-68021000D03*
X139801200Y-95805000D03*
%TO.N,CO2_TX*%
X170737500Y-114299400D03*
%TO.N,C02_RX*%
X170737500Y-103500000D03*
%TO.N,AT_GAS_RX*%
X138935000Y-96435000D03*
X132775300Y-114000000D03*
%TO.N,AT_GAS_TX*%
X164393800Y-105431000D03*
X165897200Y-96234400D03*
%TD*%
D17*
%TO.N,3V3*%
X94715800Y-94244200D02*
X94715800Y-112652700D01*
X96000000Y-92960000D02*
X94715800Y-94244200D01*
X94715800Y-112652700D02*
X96362500Y-114299400D01*
%TO.N,GND*%
X149000000Y-92500000D02*
X147976400Y-91476400D01*
X177960000Y-101222500D02*
X177960000Y-106500000D01*
X154971800Y-117371800D02*
X154971800Y-105882700D01*
X147976400Y-91476400D02*
X147976400Y-82416400D01*
X172837500Y-96100000D02*
X177960000Y-101222500D01*
X156700000Y-119100000D02*
X154971800Y-117371800D01*
X147976400Y-82416400D02*
X142600000Y-77040000D01*
%TO.N,02_A*%
X147000000Y-117000000D02*
X147000000Y-102497600D01*
X147000000Y-102497600D02*
X155668600Y-93829000D01*
%TO.N,5V*%
X138012500Y-66512500D02*
X138012500Y-74992500D01*
X99337500Y-92162500D02*
X96000000Y-95500000D01*
X138012500Y-74992500D02*
X142600000Y-79580000D01*
X99337500Y-79590600D02*
X99337500Y-92162500D01*
X137500000Y-66000000D02*
X138012500Y-66512500D01*
%TO.N,SCL*%
X164543900Y-101525900D02*
X164543900Y-101006200D01*
X164543900Y-101006200D02*
X164953200Y-100596900D01*
X164000000Y-102069800D02*
X164543900Y-101525900D01*
%TO.N,NH3_VAL*%
X139801200Y-95805000D02*
X135037500Y-91041300D01*
X135037500Y-91041300D02*
X135037500Y-68021000D01*
%TO.N,CO2_TX*%
X173427300Y-86303400D02*
X173427300Y-75787300D01*
X173427300Y-75787300D02*
X172140000Y-74500000D01*
X170737500Y-114299400D02*
X171662300Y-113374600D01*
X171662300Y-88068400D02*
X173427300Y-86303400D01*
X171662300Y-113374600D02*
X171662300Y-88068400D01*
%TO.N,C02_RX*%
X170737500Y-78442500D02*
X172140000Y-77040000D01*
X170737500Y-103500000D02*
X170737500Y-78442500D01*
%TO.N,AT_GAS_RX*%
X135768600Y-111006700D02*
X132775300Y-114000000D01*
X135768600Y-99601400D02*
X135768600Y-111006700D01*
X138935000Y-96435000D02*
X135768600Y-99601400D01*
%TO.N,AT_GAS_TX*%
X166132800Y-96470000D02*
X166132800Y-96867200D01*
X166500000Y-97234400D02*
X166500000Y-103324800D01*
X164393800Y-105431000D02*
X164217500Y-105254700D01*
X165897200Y-96234400D02*
X166132800Y-96470000D01*
X164217500Y-105254700D02*
X164393800Y-105431000D01*
X166500000Y-103324800D02*
X164393800Y-105431000D01*
X166132800Y-96867200D02*
X166500000Y-97234400D01*
%TD*%
M02*
