%TF.GenerationSoftware,KiCad,Pcbnew,9.0.7-1.fc42*%
%TF.CreationDate,2026-02-03T17:10:45+01:00*%
%TF.ProjectId,air_sensor,6169725f-7365-46e7-936f-722e6b696361,rev?*%
%TF.SameCoordinates,Original*%
%TF.FileFunction,Copper,L1,Top*%
%TF.FilePolarity,Positive*%
%FSLAX46Y46*%
G04 Gerber Fmt 4.6, Leading zero omitted, Abs format (unit mm)*
G04 Created by KiCad (PCBNEW 9.0.7-1.fc42) date 2026-02-03 17:10:45*
%MOMM*%
%LPD*%
G01*
G04 APERTURE LIST*
G04 Aperture macros list*
%AMRoundRect*
0 Rectangle with rounded corners*
0 $1 Rounding radius*
0 $2 $3 $4 $5 $6 $7 $8 $9 X,Y pos of 4 corners*
0 Add a 4 corners polygon primitive as box body*
4,1,4,$2,$3,$4,$5,$6,$7,$8,$9,$2,$3,0*
0 Add four circle primitives for the rounded corners*
1,1,$1+$1,$2,$3*
1,1,$1+$1,$4,$5*
1,1,$1+$1,$6,$7*
1,1,$1+$1,$8,$9*
0 Add four rect primitives between the rounded corners*
20,1,$1+$1,$2,$3,$4,$5,0*
20,1,$1+$1,$4,$5,$6,$7,0*
20,1,$1+$1,$6,$7,$8,$9,0*
20,1,$1+$1,$8,$9,$2,$3,0*%
G04 Aperture macros list end*
%TA.AperFunction,SMDPad,CuDef*%
%ADD10RoundRect,0.250000X0.325000X0.650000X-0.325000X0.650000X-0.325000X-0.650000X0.325000X-0.650000X0*%
%TD*%
%TA.AperFunction,SMDPad,CuDef*%
%ADD11RoundRect,0.142500X-0.357500X0.332500X-0.357500X-0.332500X0.357500X-0.332500X0.357500X0.332500X0*%
%TD*%
%TA.AperFunction,SMDPad,CuDef*%
%ADD12RoundRect,0.090000X0.560000X-0.210000X0.560000X0.210000X-0.560000X0.210000X-0.560000X-0.210000X0*%
%TD*%
%TA.AperFunction,SMDPad,CuDef*%
%ADD13RoundRect,0.090000X-0.210000X-0.560000X0.210000X-0.560000X0.210000X0.560000X-0.210000X0.560000X0*%
%TD*%
%TA.AperFunction,SMDPad,CuDef*%
%ADD14RoundRect,0.082500X0.667500X-0.192500X0.667500X0.192500X-0.667500X0.192500X-0.667500X-0.192500X0*%
%TD*%
%TA.AperFunction,SMDPad,CuDef*%
%ADD15RoundRect,0.142500X0.332500X0.357500X-0.332500X0.357500X-0.332500X-0.357500X0.332500X-0.357500X0*%
%TD*%
%TA.AperFunction,SMDPad,CuDef*%
%ADD16RoundRect,0.142500X-0.332500X-0.357500X0.332500X-0.357500X0.332500X0.357500X-0.332500X0.357500X0*%
%TD*%
%TA.AperFunction,ComponentPad*%
%ADD17C,3.000000*%
%TD*%
%TA.AperFunction,SMDPad,CuDef*%
%ADD18RoundRect,0.142500X0.357500X-0.332500X0.357500X0.332500X-0.357500X0.332500X-0.357500X-0.332500X0*%
%TD*%
%TA.AperFunction,SMDPad,CuDef*%
%ADD19RoundRect,0.090000X-0.947500X-0.210000X0.947500X-0.210000X0.947500X0.210000X-0.947500X0.210000X0*%
%TD*%
%TA.AperFunction,SMDPad,CuDef*%
%ADD20RoundRect,0.088500X-0.949000X-0.206500X0.949000X-0.206500X0.949000X0.206500X-0.949000X0.206500X0*%
%TD*%
%TA.AperFunction,SMDPad,CuDef*%
%ADD21RoundRect,0.091500X-0.946000X-0.213500X0.946000X-0.213500X0.946000X0.213500X-0.946000X0.213500X0*%
%TD*%
%TA.AperFunction,ComponentPad*%
%ADD22C,4.500000*%
%TD*%
%TA.AperFunction,ComponentPad*%
%ADD23RoundRect,0.250000X-0.500000X-0.500000X0.500000X-0.500000X0.500000X0.500000X-0.500000X0.500000X0*%
%TD*%
%TA.AperFunction,ComponentPad*%
%ADD24C,1.500000*%
%TD*%
%TA.AperFunction,SMDPad,CuDef*%
%ADD25RoundRect,0.090000X0.797500X0.210000X-0.797500X0.210000X-0.797500X-0.210000X0.797500X-0.210000X0*%
%TD*%
%TA.AperFunction,ComponentPad*%
%ADD26C,1.905000*%
%TD*%
%TA.AperFunction,ComponentPad*%
%ADD27C,1.600000*%
%TD*%
%TA.AperFunction,SMDPad,CuDef*%
%ADD28RoundRect,0.150000X-0.750000X0.350000X-0.750000X-0.350000X0.750000X-0.350000X0.750000X0.350000X0*%
%TD*%
%TA.AperFunction,ViaPad*%
%ADD29C,0.600000*%
%TD*%
%TA.AperFunction,Conductor*%
%ADD30C,0.200000*%
%TD*%
G04 APERTURE END LIST*
D10*
%TO.P,C16,1*%
%TO.N,GND*%
X148475000Y-119910000D03*
%TO.P,C16,2*%
%TO.N,02_A*%
X145525000Y-119910000D03*
%TD*%
D11*
%TO.P,C18,1*%
%TO.N,3V3*%
X153000000Y-92200000D03*
%TO.P,C18,2*%
%TO.N,GND*%
X153000000Y-93800000D03*
%TD*%
D12*
%TO.P,M1,1,A*%
%TO.N,NO2_VAL*%
X115560000Y-74000000D03*
%TO.P,M1,2,B*%
%TO.N,GND*%
X115560000Y-72750000D03*
%TO.P,M1,3,C*%
%TO.N,Net-(M1-C)*%
X115560000Y-71500000D03*
D13*
%TO.P,M1,4,D*%
%TO.N,NH3_VAL*%
X116510000Y-69560000D03*
%TO.P,M1,5,E*%
%TO.N,Net-(M1-E)*%
X119050000Y-69560000D03*
D12*
%TO.P,M1,6,F*%
%TO.N,GND*%
X120000000Y-71500000D03*
%TO.P,M1,7,G*%
%TO.N,Net-(M1-E)*%
X120000000Y-72750000D03*
%TO.P,M1,8,H*%
%TO.N,CO_VAL*%
X120000000Y-74000000D03*
D13*
%TO.P,M1,9,J*%
%TO.N,GND*%
X119050000Y-75940000D03*
%TO.P,M1,10,K*%
%TO.N,Net-(M1-K)*%
X116510000Y-75940000D03*
%TD*%
D14*
%TO.P,U9,1,1OE*%
%TO.N,GND*%
X117400000Y-117000000D03*
%TO.P,U9,2,1A*%
%TO.N,CO2_TX*%
X117400000Y-115730000D03*
%TO.P,U9,3,1Y*%
%TO.N,AT_GAS_RX*%
X117400000Y-114460000D03*
%TO.P,U9,4,2OE*%
%TO.N,GND*%
X117400000Y-113190000D03*
%TO.P,U9,5,2A*%
%TO.N,AT_GAS_TX*%
X117400000Y-111920000D03*
%TO.P,U9,6,2Y*%
%TO.N,C02_RX*%
X117400000Y-110650000D03*
%TO.P,U9,7,GND*%
%TO.N,GND*%
X117400000Y-109380000D03*
%TO.P,U9,8,3Y*%
%TO.N,unconnected-(U9-3Y-Pad8)*%
X112000000Y-109390000D03*
%TO.P,U9,9,3A*%
%TO.N,unconnected-(U9-3A-Pad9)*%
X112000000Y-110660000D03*
%TO.P,U9,10,3OE*%
%TO.N,unconnected-(U9-3OE-Pad10)*%
X112000000Y-111930000D03*
%TO.P,U9,11,4Y*%
%TO.N,unconnected-(U9-4Y-Pad11)*%
X112000000Y-113200000D03*
%TO.P,U9,12,4A*%
%TO.N,unconnected-(U9-4A-Pad12)*%
X112000000Y-114460000D03*
%TO.P,U9,13,4OE*%
%TO.N,unconnected-(U9-4OE-Pad13)*%
X112000000Y-115730000D03*
%TO.P,U9,14,VCC*%
%TO.N,3V3*%
X112000000Y-117000000D03*
%TD*%
D15*
%TO.P,C15,1*%
%TO.N,Net-(A1-OUT_A)*%
X140800000Y-114700000D03*
%TO.P,C15,2*%
%TO.N,Net-(A1--IN_A)*%
X139200000Y-114700000D03*
%TD*%
D16*
%TO.P,R12,1*%
%TO.N,5V*%
X117200000Y-66500000D03*
%TO.P,R12,2*%
%TO.N,Net-(M1-E)*%
X118800000Y-66500000D03*
%TD*%
D17*
%TO.P,O1,1,Vsensor+*%
%TO.N,Net-(O1-Vsensor+)*%
X163400000Y-112400000D03*
%TO.P,O1,2,Vsensor-*%
%TO.N,GND*%
X156700000Y-119100000D03*
%TO.P,O1,3*%
%TO.N,unconnected-(O1-Pad3)*%
X170100000Y-119100000D03*
%TD*%
D18*
%TO.P,C32,1*%
%TO.N,5V*%
X137000000Y-78800000D03*
%TO.P,C32,2*%
%TO.N,GND*%
X137000000Y-77200000D03*
%TD*%
D19*
%TO.P,U6,1,VDD*%
%TO.N,3V3*%
X158000000Y-92000000D03*
%TO.P,U6,2,PA4*%
%TO.N,02_A*%
X158000000Y-93270000D03*
%TO.P,U6,3,PA5*%
%TO.N,CO_VAL*%
X158000000Y-94540000D03*
D20*
%TO.P,U6,4,PA6*%
%TO.N,NH3_VAL*%
X158000000Y-95805000D03*
D19*
%TO.P,U6,5,PA7*%
%TO.N,NO2_VAL*%
X158000000Y-97070000D03*
%TO.P,U6,6,TOSC1/PB3*%
%TO.N,unconnected-(U6-TOSC1{slash}PB3-Pad6)*%
X158000000Y-98340000D03*
D20*
%TO.P,U6,7,TOSC2/PB2*%
%TO.N,STATUS_LED*%
X158000000Y-99605000D03*
D19*
%TO.P,U6,8,PB1*%
%TO.N,SDA*%
X163925000Y-99610000D03*
%TO.P,U6,9,PB0*%
%TO.N,SCL*%
X163925000Y-98340000D03*
%TO.P,U6,10,PA0/RST/UPDI*%
%TO.N,UPDI*%
X163925000Y-97070000D03*
%TO.P,U6,11,PA1*%
%TO.N,AT_GAS_TX*%
X163925000Y-95800000D03*
%TO.P,U6,12,PA2*%
%TO.N,AT_GAS_RX*%
X163925000Y-94530000D03*
%TO.P,U6,13,PA3/EXTCLK*%
%TO.N,unconnected-(U6-PA3{slash}EXTCLK-Pad13)*%
X163925000Y-93260000D03*
D21*
%TO.P,U6,14,GND*%
%TO.N,GND*%
X163925000Y-91995000D03*
%TD*%
D11*
%TO.P,C13,1*%
%TO.N,GND*%
X131500000Y-113200000D03*
%TO.P,C13,2*%
%TO.N,3V3*%
X131500000Y-114800000D03*
%TD*%
D22*
%TO.P,REF\u002A\u002A,*%
%TO.N,*%
X97000000Y-63000000D03*
%TD*%
%TO.P,REF\u002A\u002A,*%
%TO.N,*%
X182000000Y-63150000D03*
%TD*%
D11*
%TO.P,R1,1*%
%TO.N,GND*%
X144000000Y-106700000D03*
%TO.P,R1,2*%
%TO.N,Net-(O1-Vsensor+)*%
X144000000Y-108300000D03*
%TD*%
D23*
%TO.P,D1,1,K*%
%TO.N,GND*%
X177960000Y-106500000D03*
D24*
%TO.P,D1,2,A*%
%TO.N,Net-(D1-A)*%
X180500000Y-106500000D03*
%TD*%
D25*
%TO.P,A1,1,OUT_A*%
%TO.N,Net-(A1-OUT_A)*%
X134100000Y-110590000D03*
%TO.P,A1,2,-IN_A*%
%TO.N,Net-(A1--IN_A)*%
X134100000Y-109320000D03*
%TO.P,A1,3,+IN_A*%
%TO.N,Net-(A1-+IN_A)*%
X134100000Y-108050000D03*
%TO.P,A1,4,-Vs*%
%TO.N,GND*%
X134100000Y-106780000D03*
%TO.P,A1,5,+IN_B*%
%TO.N,unconnected-(A1-+IN_B-Pad5)*%
X128475000Y-106780000D03*
%TO.P,A1,6,-IN_B*%
%TO.N,unconnected-(A1--IN_B-Pad6)*%
X128475000Y-108050000D03*
%TO.P,A1,7,OUT_B*%
%TO.N,unconnected-(A1-OUT_B-Pad7)*%
X128475000Y-109320000D03*
%TO.P,A1,8,+Vs*%
%TO.N,3V3*%
X128475000Y-110590000D03*
%TD*%
D15*
%TO.P,R10,1*%
%TO.N,Net-(M1-C)*%
X111800000Y-71500000D03*
%TO.P,R10,2*%
%TO.N,5V*%
X110200000Y-71500000D03*
%TD*%
%TO.P,R4,1*%
%TO.N,02_A*%
X142300000Y-119700000D03*
%TO.P,R4,2*%
%TO.N,Net-(A1-OUT_A)*%
X140700000Y-119700000D03*
%TD*%
%TO.P,R2,1*%
%TO.N,Net-(O1-Vsensor+)*%
X140800000Y-106700000D03*
%TO.P,R2,2*%
%TO.N,Net-(A1-+IN_A)*%
X139200000Y-106700000D03*
%TD*%
D22*
%TO.P,REF\u002A\u002A,*%
%TO.N,*%
X97000000Y-128000000D03*
%TD*%
D15*
%TO.P,R5,1*%
%TO.N,Net-(A1-OUT_A)*%
X140800000Y-112700000D03*
%TO.P,R5,2*%
%TO.N,Net-(A1--IN_A)*%
X139200000Y-112700000D03*
%TD*%
D11*
%TO.P,C23,1*%
%TO.N,GND*%
X122000000Y-109200000D03*
%TO.P,C23,2*%
%TO.N,3V3*%
X122000000Y-110800000D03*
%TD*%
D22*
%TO.P,REF\u002A\u002A,*%
%TO.N,*%
X182100000Y-127800000D03*
%TD*%
D15*
%TO.P,R3,1*%
%TO.N,GND*%
X140800000Y-108700000D03*
%TO.P,R3,2*%
%TO.N,Net-(A1--IN_A)*%
X139200000Y-108700000D03*
%TD*%
D26*
%TO.P,S5,1,HD*%
%TO.N,unconnected-(S5-HD-Pad1)*%
X172140000Y-69420000D03*
%TO.P,S5,2,NC*%
%TO.N,unconnected-(S5-NC-Pad2)*%
X172140000Y-71960000D03*
%TO.P,S5,3,TX*%
%TO.N,CO2_TX*%
X172140000Y-74500000D03*
%TO.P,S5,4,RX*%
%TO.N,C02_RX*%
X172140000Y-77040000D03*
%TO.P,S5,5,NC*%
%TO.N,unconnected-(S5-NC-Pad5)*%
X172140000Y-79580000D03*
%TO.P,S5,6,PWM*%
%TO.N,unconnected-(S5-PWM-Pad6)*%
X142600000Y-71960000D03*
%TO.P,S5,7,NC*%
%TO.N,unconnected-(S5-NC-Pad7)*%
X142600000Y-74500000D03*
%TO.P,S5,8,GND*%
%TO.N,GND*%
X142600000Y-77040000D03*
%TO.P,S5,9,VIN*%
%TO.N,5V*%
X142600000Y-79580000D03*
%TD*%
D15*
%TO.P,R11,1*%
%TO.N,Net-(M1-K)*%
X111800000Y-76000000D03*
%TO.P,R11,2*%
%TO.N,5V*%
X110200000Y-76000000D03*
%TD*%
D27*
%TO.P,J1,1,VCC*%
%TO.N,3V3*%
X172837500Y-98640000D03*
%TO.P,J1,2,GND*%
%TO.N,GND*%
X172837500Y-96100000D03*
%TO.P,J1,3,UPDI*%
%TO.N,UPDI*%
X172837500Y-93560000D03*
%TD*%
D28*
%TO.P,C12,1*%
%TO.N,Net-(O1-Vsensor+)*%
X147000000Y-106700000D03*
%TO.P,C12,2*%
%TO.N,GND*%
X147000000Y-108300000D03*
%TD*%
D16*
%TO.P,R6,1*%
%TO.N,STATUS_LED*%
X178700000Y-110500000D03*
%TO.P,R6,2*%
%TO.N,Net-(D1-A)*%
X180300000Y-110500000D03*
%TD*%
D26*
%TO.P,G2,1,3V3*%
%TO.N,3V3*%
X96000000Y-92960000D03*
%TO.P,G2,2,5V*%
%TO.N,5V*%
X96000000Y-95500000D03*
%TO.P,G2,3,GND*%
%TO.N,GND*%
X96000000Y-98000000D03*
%TO.P,G2,4,SDA*%
%TO.N,SDA*%
X96000000Y-100540000D03*
%TO.P,G2,5,SCL*%
%TO.N,SCL*%
X96000000Y-103080000D03*
%TD*%
D11*
%TO.P,C14,1*%
%TO.N,GND*%
X134500000Y-113200000D03*
%TO.P,C14,2*%
%TO.N,3V3*%
X134500000Y-114800000D03*
%TD*%
D29*
%TO.N,3V3*%
X96362500Y-114299400D03*
%TO.N,GND*%
X149000000Y-92500000D03*
X154971800Y-105882700D03*
%TO.N,02_A*%
X147000000Y-117000000D03*
X155668600Y-93829000D03*
%TO.N,5V*%
X99337500Y-79590600D03*
X137500000Y-66000000D03*
%TO.N,SCL*%
X164953200Y-100596900D03*
X164000000Y-102069800D03*
%TO.N,NH3_VAL*%
X135037500Y-68021000D03*
X139801200Y-95805000D03*
%TO.N,CO2_TX*%
X170737500Y-114299400D03*
%TO.N,C02_RX*%
X170737500Y-103500000D03*
%TO.N,AT_GAS_RX*%
X138935000Y-96435000D03*
X132775300Y-114000000D03*
%TO.N,AT_GAS_TX*%
X164393800Y-105431000D03*
X165897200Y-96234400D03*
%TD*%
D30*
%TO.N,Net-(A1-+IN_A)*%
X137850000Y-108050000D02*
X139200000Y-106700000D01*
X134100000Y-108050000D02*
X137850000Y-108050000D01*
%TO.N,3V3*%
X134028400Y-111395400D02*
X135323100Y-112690100D01*
X116674500Y-116423000D02*
X116315200Y-116063700D01*
X174406200Y-92897700D02*
X174406200Y-96110200D01*
X118452000Y-116626200D02*
X118248800Y-116423000D01*
X128475000Y-110590000D02*
X129280400Y-111395400D01*
X158000000Y-92000000D02*
X158637600Y-91362400D01*
X158637600Y-91362400D02*
X172870900Y-91362400D01*
X135323100Y-113976900D02*
X134500000Y-114800000D01*
X174406200Y-96110200D02*
X172837500Y-97678900D01*
X112000000Y-117000000D02*
X112592700Y-117592700D01*
X129280400Y-111395400D02*
X134028400Y-111395400D01*
X100718900Y-97678900D02*
X172837500Y-97678900D01*
X99063100Y-117000000D02*
X112000000Y-117000000D01*
X131204900Y-115095100D02*
X131500000Y-114800000D01*
X116631000Y-115095100D02*
X131204900Y-115095100D01*
X118452000Y-117354800D02*
X118452000Y-116626200D01*
X118248800Y-116423000D02*
X116674500Y-116423000D01*
X153000000Y-92200000D02*
X153200000Y-92000000D01*
X112592700Y-117592700D02*
X118214100Y-117592700D01*
X134500000Y-114800000D02*
X131500000Y-114800000D01*
X153200000Y-92000000D02*
X158000000Y-92000000D01*
X122000000Y-110800000D02*
X122210000Y-110590000D01*
X118214100Y-117592700D02*
X118452000Y-117354800D01*
X116315200Y-116063700D02*
X116315200Y-115410900D01*
X122210000Y-110590000D02*
X128475000Y-110590000D01*
X172870900Y-91362400D02*
X174406200Y-92897700D01*
X96000000Y-92960000D02*
X100718900Y-97678900D01*
X172837500Y-97678900D02*
X172837500Y-98640000D01*
X116315200Y-115410900D02*
X116631000Y-115095100D01*
X96362500Y-114299400D02*
X99063100Y-117000000D01*
X135323100Y-112690100D02*
X135323100Y-113976900D01*
%TO.N,GND*%
X121081500Y-112497000D02*
X121163100Y-112415400D01*
X134998500Y-105881500D02*
X141316300Y-105881500D01*
X173982100Y-93062300D02*
X172914800Y-91995000D01*
X134100000Y-106780000D02*
X134998500Y-105881500D01*
X121163100Y-110036900D02*
X122000000Y-109200000D01*
X145600000Y-108300000D02*
X144000000Y-106700000D01*
X116338000Y-112261900D02*
X116974800Y-112898700D01*
X141638400Y-107861600D02*
X141638400Y-106700000D01*
X141638400Y-106700000D02*
X144000000Y-106700000D01*
X153456300Y-93343700D02*
X153000000Y-93343700D01*
X122000000Y-109200000D02*
X123783500Y-107416500D01*
X141316300Y-105881500D02*
X141638400Y-106203600D01*
X120771400Y-73375000D02*
X119217600Y-73375000D01*
X172837500Y-96100000D02*
X173982100Y-94955400D01*
X117400000Y-109380000D02*
X117206300Y-109380000D01*
X137000000Y-77200000D02*
X132953000Y-73153000D01*
X155589100Y-106500000D02*
X177960000Y-106500000D01*
X115913500Y-114536400D02*
X115913500Y-116230000D01*
X117206300Y-109380000D02*
X116338000Y-110248300D01*
X94688600Y-99311400D02*
X94688600Y-103547500D01*
X132953000Y-73153000D02*
X120993400Y-73153000D01*
X154143500Y-92656500D02*
X153456300Y-93343700D01*
X115913500Y-116230000D02*
X116683500Y-117000000D01*
X120993400Y-72369100D02*
X120993400Y-73153000D01*
X115032200Y-107012200D02*
X117400000Y-109380000D01*
X117400000Y-112898700D02*
X118211100Y-112898700D01*
X120124300Y-71500000D02*
X120993400Y-72369100D01*
X121163100Y-112415400D02*
X130715400Y-112415400D01*
X149843700Y-93343700D02*
X149000000Y-92500000D01*
X94688600Y-103547500D02*
X98153300Y-107012200D01*
X117851300Y-74741300D02*
X119050000Y-75940000D01*
X120993400Y-73153000D02*
X120771400Y-73375000D01*
X153000000Y-93343700D02*
X149843700Y-93343700D01*
X117400000Y-113190000D02*
X117400000Y-112898700D01*
X118446500Y-112663300D02*
X118612800Y-112497000D01*
X148475000Y-119910000D02*
X155890000Y-119910000D01*
X116683500Y-117000000D02*
X117400000Y-117000000D01*
X120000000Y-71500000D02*
X120124300Y-71500000D01*
X144000000Y-106700000D02*
X144817300Y-105882700D01*
X163263500Y-92656500D02*
X154143500Y-92656500D01*
X118612800Y-112497000D02*
X121081500Y-112497000D01*
X117259900Y-113190000D02*
X115913500Y-114536400D01*
X154971800Y-105882700D02*
X155589100Y-106500000D01*
X147000000Y-108300000D02*
X145600000Y-108300000D01*
X155890000Y-119910000D02*
X156700000Y-119100000D01*
X119217600Y-73375000D02*
X117851300Y-74741300D01*
X115560000Y-72750000D02*
X115860000Y-72750000D01*
X123783500Y-107416500D02*
X133463500Y-107416500D01*
X96000000Y-98000000D02*
X94688600Y-99311400D01*
X163925000Y-91995000D02*
X163263500Y-92656500D01*
X142440000Y-77200000D02*
X142600000Y-77040000D01*
X118446500Y-112663300D02*
X118612800Y-112497000D01*
X137000000Y-77200000D02*
X142440000Y-77200000D01*
X116338000Y-110248300D02*
X116338000Y-112261900D01*
X116974800Y-112898700D02*
X117400000Y-112898700D01*
X153000000Y-93343700D02*
X153000000Y-93800000D01*
X118211100Y-112898700D02*
X118446500Y-112663300D01*
X117400000Y-113190000D02*
X117259900Y-113190000D01*
X130715400Y-112415400D02*
X131500000Y-113200000D01*
X141638400Y-106203600D02*
X141638400Y-106700000D01*
X140800000Y-108700000D02*
X141638400Y-107861600D01*
X144817300Y-105882700D02*
X154971800Y-105882700D01*
X172914800Y-91995000D02*
X163925000Y-91995000D01*
X115860000Y-72750000D02*
X117851300Y-74741300D01*
X121163100Y-112415400D02*
X121163100Y-110036900D01*
X134500000Y-113200000D02*
X131500000Y-113200000D01*
X173982100Y-94955400D02*
X173982100Y-93062300D01*
X133463500Y-107416500D02*
X134100000Y-106780000D01*
X98153300Y-107012200D02*
X115032200Y-107012200D01*
%TO.N,Net-(A1-OUT_A)*%
X138647700Y-115534900D02*
X135842400Y-112729600D01*
X139965100Y-115534900D02*
X139965100Y-118965100D01*
X135842400Y-112729600D02*
X135842400Y-112332400D01*
X135842400Y-112332400D02*
X134100000Y-110590000D01*
X140800000Y-114700000D02*
X139965100Y-115534900D01*
X139965100Y-118965100D02*
X140700000Y-119700000D01*
X140800000Y-114700000D02*
X140800000Y-112700000D01*
X139965100Y-115534900D02*
X138647700Y-115534900D01*
%TO.N,Net-(A1--IN_A)*%
X138580000Y-109320000D02*
X139200000Y-108700000D01*
X139200000Y-114700000D02*
X139200000Y-112700000D01*
X134100000Y-109320000D02*
X138580000Y-109320000D01*
X139200000Y-112700000D02*
X139200000Y-109940000D01*
X139200000Y-109940000D02*
X138580000Y-109320000D01*
%TO.N,Net-(O1-Vsensor+)*%
X142778700Y-109521300D02*
X144000000Y-108300000D01*
X151753100Y-112400000D02*
X148203800Y-108850700D01*
X147159700Y-106700000D02*
X148203800Y-107744100D01*
X147952200Y-109102300D02*
X144802300Y-109102300D01*
X148203800Y-107744100D02*
X148203800Y-108850700D01*
X140000000Y-107500000D02*
X140000000Y-109231600D01*
X163400000Y-112400000D02*
X151753100Y-112400000D01*
X140800000Y-106700000D02*
X140000000Y-107500000D01*
X140289700Y-109521300D02*
X142778700Y-109521300D01*
X144802300Y-109102300D02*
X144000000Y-108300000D01*
X140000000Y-109231600D02*
X140289700Y-109521300D01*
X148203800Y-108850700D02*
X147952200Y-109102300D01*
X147000000Y-106700000D02*
X147159700Y-106700000D01*
%TO.N,02_A*%
X145315000Y-119700000D02*
X142300000Y-119700000D01*
X145525000Y-119910000D02*
X145315000Y-119700000D01*
X155668600Y-93829000D02*
X157441000Y-93829000D01*
X157441000Y-93829000D02*
X158000000Y-93270000D01*
X147000000Y-117000000D02*
X145525000Y-118475000D01*
X145525000Y-118475000D02*
X145525000Y-119910000D01*
%TO.N,5V*%
X141820000Y-78800000D02*
X142600000Y-79580000D01*
X115200000Y-66500000D02*
X117200000Y-66500000D01*
X136628600Y-65128600D02*
X118166600Y-65128600D01*
X137000000Y-78800000D02*
X141820000Y-78800000D01*
X110200000Y-71500000D02*
X115200000Y-66500000D01*
X137500000Y-66000000D02*
X136628600Y-65128600D01*
X117200000Y-66095200D02*
X117200000Y-66500000D01*
X118166600Y-65128600D02*
X117200000Y-66095200D01*
X102928100Y-76000000D02*
X99337500Y-79590600D01*
X110200000Y-76000000D02*
X110200000Y-71500000D01*
X110200000Y-76000000D02*
X102928100Y-76000000D01*
%TO.N,SDA*%
X97565400Y-98974600D02*
X163289600Y-98974600D01*
X96000000Y-100540000D02*
X97565400Y-98974600D01*
X163289600Y-98974600D02*
X163925000Y-99610000D01*
%TO.N,SCL*%
X164425800Y-98340000D02*
X165339600Y-99253800D01*
X165339600Y-100210500D02*
X164953200Y-100596900D01*
X164000000Y-102069800D02*
X163243600Y-102826200D01*
X163243600Y-102826200D02*
X96253800Y-102826200D01*
X164953200Y-100596900D02*
X165339600Y-100210500D01*
X96253800Y-102826200D02*
X96000000Y-103080000D01*
X165339600Y-100210500D02*
X164953200Y-100596900D01*
X165339600Y-99253800D02*
X165339600Y-100210500D01*
X163925000Y-98340000D02*
X164425800Y-98340000D01*
%TO.N,UPDI*%
X169327500Y-97070000D02*
X172837500Y-93560000D01*
X163925000Y-97070000D02*
X169327500Y-97070000D01*
%TO.N,Net-(M1-C)*%
X111800000Y-71500000D02*
X115560000Y-71500000D01*
%TO.N,Net-(M1-E)*%
X119040600Y-71881600D02*
X119040600Y-69569400D01*
X118800000Y-69310000D02*
X118800000Y-66500000D01*
X119050000Y-69560000D02*
X118800000Y-69310000D01*
X119909000Y-72750000D02*
X119040600Y-71881600D01*
X119040600Y-69569400D02*
X119050000Y-69560000D01*
X120000000Y-72750000D02*
X119909000Y-72750000D01*
%TO.N,NO2_VAL*%
X118448000Y-76893000D02*
X138625000Y-97070000D01*
X115560000Y-74000000D02*
X115897100Y-74000000D01*
X118448000Y-76550900D02*
X118448000Y-76893000D01*
X138625000Y-97070000D02*
X158000000Y-97070000D01*
X115897100Y-74000000D02*
X118448000Y-76550900D01*
%TO.N,Net-(M1-K)*%
X116510000Y-75940000D02*
X111860000Y-75940000D01*
X111860000Y-75940000D02*
X111800000Y-76000000D01*
%TO.N,NH3_VAL*%
X116510000Y-69560000D02*
X118000000Y-68070000D01*
X158000000Y-95805000D02*
X139801200Y-95805000D01*
X118000000Y-65921600D02*
X118254700Y-65666900D01*
X118254700Y-65666900D02*
X132683400Y-65666900D01*
X118000000Y-68070000D02*
X118000000Y-65921600D01*
X132683400Y-65666900D02*
X135037500Y-68021000D01*
%TO.N,CO_VAL*%
X141001600Y-95001600D02*
X120000000Y-74000000D01*
X157538400Y-95001600D02*
X141001600Y-95001600D01*
X158000000Y-94540000D02*
X157538400Y-95001600D01*
%TO.N,CO2_TX*%
X141163700Y-120585700D02*
X141500000Y-120249400D01*
X141500000Y-120249400D02*
X141500000Y-119171700D01*
X140266800Y-120585700D02*
X141163700Y-120585700D01*
X117400000Y-115730000D02*
X135411100Y-115730000D01*
X135411100Y-115730000D02*
X140266800Y-120585700D01*
X146372300Y-114299400D02*
X170737500Y-114299400D01*
X141500000Y-119171700D02*
X146372300Y-114299400D01*
%TO.N,C02_RX*%
X170265100Y-104815600D02*
X170737500Y-104343200D01*
X123449200Y-104815600D02*
X170265100Y-104815600D01*
X170737500Y-104343200D02*
X170737500Y-103500000D01*
X117614800Y-110650000D02*
X123449200Y-104815600D01*
X117400000Y-110650000D02*
X117614800Y-110650000D01*
%TO.N,AT_GAS_RX*%
X117860000Y-114000000D02*
X132775300Y-114000000D01*
X160928400Y-96435000D02*
X162833400Y-94530000D01*
X117400000Y-114460000D02*
X117860000Y-114000000D01*
X138935000Y-96435000D02*
X160928400Y-96435000D01*
X162833400Y-94530000D02*
X163925000Y-94530000D01*
%TO.N,AT_GAS_TX*%
X165897200Y-96234400D02*
X164359400Y-96234400D01*
X164223300Y-105260500D02*
X164393800Y-105431000D01*
X117630400Y-111920000D02*
X124289900Y-105260500D01*
X164359400Y-96234400D02*
X163925000Y-95800000D01*
X124289900Y-105260500D02*
X164223300Y-105260500D01*
X117400000Y-111920000D02*
X117630400Y-111920000D01*
%TO.N,Net-(D1-A)*%
X180500000Y-106500000D02*
X180300000Y-106700000D01*
X180300000Y-106700000D02*
X180300000Y-110500000D01*
%TO.N,STATUS_LED*%
X159864800Y-101469800D02*
X158000000Y-99605000D01*
X179049600Y-105748500D02*
X174770900Y-101469800D01*
X178700000Y-110500000D02*
X179049600Y-110150400D01*
X179049600Y-110150400D02*
X179049600Y-105748500D01*
X174770900Y-101469800D02*
X159864800Y-101469800D01*
%TD*%
M02*
