%TF.GenerationSoftware,KiCad,Pcbnew,9.0.7-1.fc42*%
%TF.CreationDate,2026-02-03T17:10:45+01:00*%
%TF.ProjectId,air_sensor,6169725f-7365-46e7-936f-722e6b696361,rev?*%
%TF.SameCoordinates,Original*%
%TF.FileFunction,Soldermask,Top*%
%TF.FilePolarity,Negative*%
%FSLAX46Y46*%
G04 Gerber Fmt 4.6, Leading zero omitted, Abs format (unit mm)*
G04 Created by KiCad (PCBNEW 9.0.7-1.fc42) date 2026-02-03 17:10:45*
%MOMM*%
%LPD*%
G01*
G04 APERTURE LIST*
G04 Aperture macros list*
%AMRoundRect*
0 Rectangle with rounded corners*
0 $1 Rounding radius*
0 $2 $3 $4 $5 $6 $7 $8 $9 X,Y pos of 4 corners*
0 Add a 4 corners polygon primitive as box body*
4,1,4,$2,$3,$4,$5,$6,$7,$8,$9,$2,$3,0*
0 Add four circle primitives for the rounded corners*
1,1,$1+$1,$2,$3*
1,1,$1+$1,$4,$5*
1,1,$1+$1,$6,$7*
1,1,$1+$1,$8,$9*
0 Add four rect primitives between the rounded corners*
20,1,$1+$1,$2,$3,$4,$5,0*
20,1,$1+$1,$4,$5,$6,$7,0*
20,1,$1+$1,$6,$7,$8,$9,0*
20,1,$1+$1,$8,$9,$2,$3,0*%
G04 Aperture macros list end*
%ADD10RoundRect,0.250000X0.325000X0.650000X-0.325000X0.650000X-0.325000X-0.650000X0.325000X-0.650000X0*%
%ADD11RoundRect,0.142500X-0.357500X0.332500X-0.357500X-0.332500X0.357500X-0.332500X0.357500X0.332500X0*%
%ADD12RoundRect,0.090000X0.560000X-0.210000X0.560000X0.210000X-0.560000X0.210000X-0.560000X-0.210000X0*%
%ADD13RoundRect,0.090000X-0.210000X-0.560000X0.210000X-0.560000X0.210000X0.560000X-0.210000X0.560000X0*%
%ADD14RoundRect,0.082500X0.667500X-0.192500X0.667500X0.192500X-0.667500X0.192500X-0.667500X-0.192500X0*%
%ADD15RoundRect,0.142500X0.332500X0.357500X-0.332500X0.357500X-0.332500X-0.357500X0.332500X-0.357500X0*%
%ADD16RoundRect,0.142500X-0.332500X-0.357500X0.332500X-0.357500X0.332500X0.357500X-0.332500X0.357500X0*%
%ADD17C,3.000000*%
%ADD18RoundRect,0.142500X0.357500X-0.332500X0.357500X0.332500X-0.357500X0.332500X-0.357500X-0.332500X0*%
%ADD19RoundRect,0.090000X-0.947500X-0.210000X0.947500X-0.210000X0.947500X0.210000X-0.947500X0.210000X0*%
%ADD20RoundRect,0.088500X-0.949000X-0.206500X0.949000X-0.206500X0.949000X0.206500X-0.949000X0.206500X0*%
%ADD21RoundRect,0.091500X-0.946000X-0.213500X0.946000X-0.213500X0.946000X0.213500X-0.946000X0.213500X0*%
%ADD22C,4.500000*%
%ADD23RoundRect,0.250000X-0.500000X-0.500000X0.500000X-0.500000X0.500000X0.500000X-0.500000X0.500000X0*%
%ADD24C,1.500000*%
%ADD25RoundRect,0.090000X0.797500X0.210000X-0.797500X0.210000X-0.797500X-0.210000X0.797500X-0.210000X0*%
%ADD26C,1.905000*%
%ADD27C,1.600000*%
%ADD28RoundRect,0.150000X-0.750000X0.350000X-0.750000X-0.350000X0.750000X-0.350000X0.750000X0.350000X0*%
G04 APERTURE END LIST*
D10*
%TO.C,C16*%
X148475000Y-119910000D03*
X145525000Y-119910000D03*
%TD*%
D11*
%TO.C,C18*%
X153000000Y-92200000D03*
X153000000Y-93800000D03*
%TD*%
D12*
%TO.C,M1*%
X115560000Y-74000000D03*
X115560000Y-72750000D03*
X115560000Y-71500000D03*
D13*
X116510000Y-69560000D03*
X119050000Y-69560000D03*
D12*
X120000000Y-71500000D03*
X120000000Y-72750000D03*
X120000000Y-74000000D03*
D13*
X119050000Y-75940000D03*
X116510000Y-75940000D03*
%TD*%
D14*
%TO.C,U9*%
X117400000Y-117000000D03*
X117400000Y-115730000D03*
X117400000Y-114460000D03*
X117400000Y-113190000D03*
X117400000Y-111920000D03*
X117400000Y-110650000D03*
X117400000Y-109380000D03*
X112000000Y-109390000D03*
X112000000Y-110660000D03*
X112000000Y-111930000D03*
X112000000Y-113200000D03*
X112000000Y-114460000D03*
X112000000Y-115730000D03*
X112000000Y-117000000D03*
%TD*%
D15*
%TO.C,C15*%
X140800000Y-114700000D03*
X139200000Y-114700000D03*
%TD*%
D16*
%TO.C,R12*%
X117200000Y-66500000D03*
X118800000Y-66500000D03*
%TD*%
D17*
%TO.C,O1*%
X163400000Y-112400000D03*
X156700000Y-119100000D03*
X170100000Y-119100000D03*
%TD*%
D18*
%TO.C,C32*%
X137000000Y-78800000D03*
X137000000Y-77200000D03*
%TD*%
D19*
%TO.C,U6*%
X158000000Y-92000000D03*
X158000000Y-93270000D03*
X158000000Y-94540000D03*
D20*
X158000000Y-95805000D03*
D19*
X158000000Y-97070000D03*
X158000000Y-98340000D03*
D20*
X158000000Y-99605000D03*
D19*
X163925000Y-99610000D03*
X163925000Y-98340000D03*
X163925000Y-97070000D03*
X163925000Y-95800000D03*
X163925000Y-94530000D03*
X163925000Y-93260000D03*
D21*
X163925000Y-91995000D03*
%TD*%
D11*
%TO.C,C13*%
X131500000Y-113200000D03*
X131500000Y-114800000D03*
%TD*%
D22*
%TO.C,REF\u002A\u002A*%
X97000000Y-63000000D03*
%TD*%
%TO.C,REF\u002A\u002A*%
X182000000Y-63150000D03*
%TD*%
D11*
%TO.C,R1*%
X144000000Y-106700000D03*
X144000000Y-108300000D03*
%TD*%
D23*
%TO.C,D1*%
X177960000Y-106500000D03*
D24*
X180500000Y-106500000D03*
%TD*%
D25*
%TO.C,A1*%
X134100000Y-110590000D03*
X134100000Y-109320000D03*
X134100000Y-108050000D03*
X134100000Y-106780000D03*
X128475000Y-106780000D03*
X128475000Y-108050000D03*
X128475000Y-109320000D03*
X128475000Y-110590000D03*
%TD*%
D15*
%TO.C,R10*%
X111800000Y-71500000D03*
X110200000Y-71500000D03*
%TD*%
%TO.C,R4*%
X142300000Y-119700000D03*
X140700000Y-119700000D03*
%TD*%
%TO.C,R2*%
X140800000Y-106700000D03*
X139200000Y-106700000D03*
%TD*%
D22*
%TO.C,REF\u002A\u002A*%
X97000000Y-128000000D03*
%TD*%
D15*
%TO.C,R5*%
X140800000Y-112700000D03*
X139200000Y-112700000D03*
%TD*%
D11*
%TO.C,C23*%
X122000000Y-109200000D03*
X122000000Y-110800000D03*
%TD*%
D22*
%TO.C,REF\u002A\u002A*%
X182100000Y-127800000D03*
%TD*%
D15*
%TO.C,R3*%
X140800000Y-108700000D03*
X139200000Y-108700000D03*
%TD*%
D26*
%TO.C,S5*%
X172140000Y-69420000D03*
X172140000Y-71960000D03*
X172140000Y-74500000D03*
X172140000Y-77040000D03*
X172140000Y-79580000D03*
X142600000Y-71960000D03*
X142600000Y-74500000D03*
X142600000Y-77040000D03*
X142600000Y-79580000D03*
%TD*%
D15*
%TO.C,R11*%
X111800000Y-76000000D03*
X110200000Y-76000000D03*
%TD*%
D27*
%TO.C,J1*%
X172837500Y-98640000D03*
X172837500Y-96100000D03*
X172837500Y-93560000D03*
%TD*%
D28*
%TO.C,C12*%
X147000000Y-106700000D03*
X147000000Y-108300000D03*
%TD*%
D16*
%TO.C,R6*%
X178700000Y-110500000D03*
X180300000Y-110500000D03*
%TD*%
D26*
%TO.C,G2*%
X96000000Y-92960000D03*
X96000000Y-95500000D03*
X96000000Y-98000000D03*
X96000000Y-100540000D03*
X96000000Y-103080000D03*
%TD*%
D11*
%TO.C,C14*%
X134500000Y-113200000D03*
X134500000Y-114800000D03*
%TD*%
M02*
