%TF.GenerationSoftware,KiCad,Pcbnew,9.0.8-1.fc42*%
%TF.CreationDate,2026-04-08T13:35:32+02:00*%
%TF.ProjectId,atmosphere,61746d6f-7370-4686-9572-652e6b696361,rev?*%
%TF.SameCoordinates,Original*%
%TF.FileFunction,Drillmap*%
%TF.FilePolarity,Positive*%
%FSLAX45Y45*%
G04 Gerber Fmt 4.5, Leading zero omitted, Abs format (unit mm)*
G04 Created by KiCad (PCBNEW 9.0.8-1.fc42) date 2026-04-08 13:35:32*
%MOMM*%
%LPD*%
G01*
G04 APERTURE LIST*
%ADD10C,0.050000*%
%ADD11C,0.200000*%
G04 APERTURE END LIST*
D10*
X11200000Y-6600000D02*
X20700000Y-6600000D01*
X20700000Y-14100000D01*
X11200000Y-14100000D01*
X11200000Y-6600000D01*
D11*
X11458277Y-14413984D02*
X11458277Y-14213984D01*
X11458277Y-14213984D02*
X11505896Y-14213984D01*
X11505896Y-14213984D02*
X11534467Y-14223508D01*
X11534467Y-14223508D02*
X11553515Y-14242555D01*
X11553515Y-14242555D02*
X11563039Y-14261603D01*
X11563039Y-14261603D02*
X11572562Y-14299698D01*
X11572562Y-14299698D02*
X11572562Y-14328269D01*
X11572562Y-14328269D02*
X11563039Y-14366365D01*
X11563039Y-14366365D02*
X11553515Y-14385412D01*
X11553515Y-14385412D02*
X11534467Y-14404460D01*
X11534467Y-14404460D02*
X11505896Y-14413984D01*
X11505896Y-14413984D02*
X11458277Y-14413984D01*
X11658277Y-14413984D02*
X11658277Y-14280650D01*
X11658277Y-14318746D02*
X11667801Y-14299698D01*
X11667801Y-14299698D02*
X11677324Y-14290174D01*
X11677324Y-14290174D02*
X11696372Y-14280650D01*
X11696372Y-14280650D02*
X11715420Y-14280650D01*
X11782086Y-14413984D02*
X11782086Y-14280650D01*
X11782086Y-14213984D02*
X11772562Y-14223508D01*
X11772562Y-14223508D02*
X11782086Y-14233031D01*
X11782086Y-14233031D02*
X11791610Y-14223508D01*
X11791610Y-14223508D02*
X11782086Y-14213984D01*
X11782086Y-14213984D02*
X11782086Y-14233031D01*
X11905896Y-14413984D02*
X11886848Y-14404460D01*
X11886848Y-14404460D02*
X11877324Y-14385412D01*
X11877324Y-14385412D02*
X11877324Y-14213984D01*
X12010658Y-14413984D02*
X11991610Y-14404460D01*
X11991610Y-14404460D02*
X11982086Y-14385412D01*
X11982086Y-14385412D02*
X11982086Y-14213984D01*
X12239229Y-14413984D02*
X12239229Y-14213984D01*
X12239229Y-14213984D02*
X12305896Y-14356841D01*
X12305896Y-14356841D02*
X12372562Y-14213984D01*
X12372562Y-14213984D02*
X12372562Y-14413984D01*
X12553515Y-14413984D02*
X12553515Y-14309222D01*
X12553515Y-14309222D02*
X12543991Y-14290174D01*
X12543991Y-14290174D02*
X12524943Y-14280650D01*
X12524943Y-14280650D02*
X12486848Y-14280650D01*
X12486848Y-14280650D02*
X12467801Y-14290174D01*
X12553515Y-14404460D02*
X12534467Y-14413984D01*
X12534467Y-14413984D02*
X12486848Y-14413984D01*
X12486848Y-14413984D02*
X12467801Y-14404460D01*
X12467801Y-14404460D02*
X12458277Y-14385412D01*
X12458277Y-14385412D02*
X12458277Y-14366365D01*
X12458277Y-14366365D02*
X12467801Y-14347317D01*
X12467801Y-14347317D02*
X12486848Y-14337793D01*
X12486848Y-14337793D02*
X12534467Y-14337793D01*
X12534467Y-14337793D02*
X12553515Y-14328269D01*
X12648753Y-14280650D02*
X12648753Y-14480650D01*
X12648753Y-14290174D02*
X12667801Y-14280650D01*
X12667801Y-14280650D02*
X12705896Y-14280650D01*
X12705896Y-14280650D02*
X12724943Y-14290174D01*
X12724943Y-14290174D02*
X12734467Y-14299698D01*
X12734467Y-14299698D02*
X12743991Y-14318746D01*
X12743991Y-14318746D02*
X12743991Y-14375888D01*
X12743991Y-14375888D02*
X12734467Y-14394936D01*
X12734467Y-14394936D02*
X12724943Y-14404460D01*
X12724943Y-14404460D02*
X12705896Y-14413984D01*
X12705896Y-14413984D02*
X12667801Y-14413984D01*
X12667801Y-14413984D02*
X12648753Y-14404460D01*
X12829705Y-14394936D02*
X12839229Y-14404460D01*
X12839229Y-14404460D02*
X12829705Y-14413984D01*
X12829705Y-14413984D02*
X12820182Y-14404460D01*
X12820182Y-14404460D02*
X12829705Y-14394936D01*
X12829705Y-14394936D02*
X12829705Y-14413984D01*
X12829705Y-14290174D02*
X12839229Y-14299698D01*
X12839229Y-14299698D02*
X12829705Y-14309222D01*
X12829705Y-14309222D02*
X12820182Y-14299698D01*
X12820182Y-14299698D02*
X12829705Y-14290174D01*
X12829705Y-14290174D02*
X12829705Y-14309222D01*
M02*
