%TF.GenerationSoftware,KiCad,Pcbnew,9.0.8-1.fc42*%
%TF.CreationDate,2026-04-08T13:35:32+02:00*%
%TF.ProjectId,atmosphere,61746d6f-7370-4686-9572-652e6b696361,rev?*%
%TF.SameCoordinates,Original*%
%TF.FileFunction,Drillmap*%
%TF.FilePolarity,Positive*%
%FSLAX45Y45*%
G04 Gerber Fmt 4.5, Leading zero omitted, Abs format (unit mm)*
G04 Created by KiCad (PCBNEW 9.0.8-1.fc42) date 2026-04-08 13:35:32*
%MOMM*%
%LPD*%
G01*
G04 APERTURE LIST*
%ADD10C,0.050000*%
%ADD11C,0.200000*%
%ADD12C,0.100000*%
%ADD13C,0.320000*%
%ADD14C,0.600000*%
G04 APERTURE END LIST*
D10*
X11200000Y-6600000D02*
X20700000Y-6600000D01*
X20700000Y-14100000D01*
X11200000Y-14100000D01*
X11200000Y-6600000D01*
D11*
D12*
X11285000Y-10035000D02*
X11315000Y-10065000D01*
X11315000Y-10035000D02*
X11285000Y-10065000D01*
X11510000Y-7535000D02*
X11540000Y-7565000D01*
X11540000Y-7535000D02*
X11510000Y-7565000D01*
X11510000Y-12610000D02*
X11540000Y-12640000D01*
X11540000Y-12610000D02*
X11510000Y-12640000D01*
X11560000Y-11685000D02*
X11590000Y-11715000D01*
X11590000Y-11685000D02*
X11560000Y-11715000D01*
X11585000Y-8860000D02*
X11615000Y-8890000D01*
X11615000Y-8860000D02*
X11585000Y-8890000D01*
X11810000Y-9660000D02*
X11840000Y-9690000D01*
X11840000Y-9660000D02*
X11810000Y-9690000D01*
X12035000Y-11360000D02*
X12065000Y-11390000D01*
X12065000Y-11360000D02*
X12035000Y-11390000D01*
X12135000Y-11485000D02*
X12165000Y-11515000D01*
X12165000Y-11485000D02*
X12135000Y-11515000D01*
X12160000Y-11135000D02*
X12190000Y-11165000D01*
X12190000Y-11135000D02*
X12160000Y-11165000D01*
X12185000Y-9660000D02*
X12215000Y-9690000D01*
X12215000Y-9660000D02*
X12185000Y-9690000D01*
X12285000Y-11260000D02*
X12315000Y-11290000D01*
X12315000Y-11260000D02*
X12285000Y-11290000D01*
X12560000Y-9660000D02*
X12590000Y-9690000D01*
X12590000Y-9660000D02*
X12560000Y-9690000D01*
X12810000Y-11785000D02*
X12840000Y-11815000D01*
X12840000Y-11785000D02*
X12810000Y-11815000D01*
X12910000Y-11660000D02*
X12940000Y-11690000D01*
X12940000Y-11660000D02*
X12910000Y-11690000D01*
X13335000Y-11710000D02*
X13365000Y-11740000D01*
X13365000Y-11710000D02*
X13335000Y-11740000D01*
X13585000Y-11835000D02*
X13615000Y-11865000D01*
X13615000Y-11835000D02*
X13585000Y-11865000D01*
X20025000Y-11714000D02*
X20055000Y-11744000D01*
X20055000Y-11714000D02*
X20025000Y-11744000D01*
X20025000Y-11964000D02*
X20055000Y-11994000D01*
X20055000Y-11964000D02*
X20025000Y-11994000D01*
X20185000Y-12710000D02*
X20215000Y-12740000D01*
X20215000Y-12710000D02*
X20185000Y-12740000D01*
X20510000Y-12410000D02*
X20540000Y-12440000D01*
X20540000Y-12410000D02*
X20510000Y-12440000D01*
X20510000Y-12535000D02*
X20540000Y-12565000D01*
X20540000Y-12535000D02*
X20510000Y-12565000D01*
X20236000Y-10775000D02*
G75*
G02*
X20156000Y-10775000I-40000J0D01*
G01*
X20156000Y-10775000D02*
G75*
G02*
X20236000Y-10775000I40000J0D01*
G01*
X20490000Y-10775000D02*
G75*
G02*
X20410000Y-10775000I-40000J0D01*
G01*
X20410000Y-10775000D02*
G75*
G02*
X20490000Y-10775000I40000J0D01*
G01*
X11500000Y-9796000D02*
X11500000Y-9896000D01*
X11450000Y-9846000D02*
X11550000Y-9846000D01*
X11500000Y-10050000D02*
X11500000Y-10150000D01*
X11450000Y-10100000D02*
X11550000Y-10100000D01*
X11500000Y-10300000D02*
X11500000Y-10400000D01*
X11450000Y-10350000D02*
X11550000Y-10350000D01*
X11500000Y-10554000D02*
X11500000Y-10654000D01*
X11450000Y-10604000D02*
X11550000Y-10604000D01*
X11500000Y-10808000D02*
X11500000Y-10908000D01*
X11450000Y-10858000D02*
X11550000Y-10858000D01*
X11892000Y-12700000D02*
X11892000Y-12800000D01*
X11842000Y-12750000D02*
X11942000Y-12750000D01*
X12146000Y-12700000D02*
X12146000Y-12800000D01*
X12096000Y-12750000D02*
X12196000Y-12750000D01*
X12350000Y-6896000D02*
X12350000Y-6996000D01*
X12300000Y-6946000D02*
X12400000Y-6946000D01*
X12350000Y-7150000D02*
X12350000Y-7250000D01*
X12300000Y-7200000D02*
X12400000Y-7200000D01*
X12350000Y-7400000D02*
X12350000Y-7500000D01*
X12300000Y-7450000D02*
X12400000Y-7450000D01*
X12350000Y-7654000D02*
X12350000Y-7754000D01*
X12300000Y-7704000D02*
X12400000Y-7704000D01*
X12350000Y-7908000D02*
X12350000Y-8008000D01*
X12300000Y-7958000D02*
X12400000Y-7958000D01*
X12350000Y-8162000D02*
X12350000Y-8262000D01*
X12300000Y-8212000D02*
X12400000Y-8212000D01*
X12350000Y-8416000D02*
X12350000Y-8516000D01*
X12300000Y-8466000D02*
X12400000Y-8466000D01*
X12400000Y-12700000D02*
X12400000Y-12800000D01*
X12350000Y-12750000D02*
X12450000Y-12750000D01*
D13*
X11813138Y-7213138D02*
X11813138Y-6986862D01*
X11586862Y-6986862D01*
X11586862Y-7213138D01*
X11813138Y-7213138D01*
X11813138Y-13713138D02*
X11813138Y-13486862D01*
X11586862Y-13486862D01*
X11586862Y-13713138D01*
X11813138Y-13713138D01*
X20313138Y-7213138D02*
X20313138Y-6986862D01*
X20086862Y-6986862D01*
X20086862Y-7213138D01*
X20313138Y-7213138D01*
X20313138Y-13713138D02*
X20313138Y-13486862D01*
X20086862Y-13486862D01*
X20086862Y-13713138D01*
X20313138Y-13713138D01*
D14*
X19500000Y-10100000D02*
X19800000Y-9800000D01*
X19500000Y-9500000D01*
X19200000Y-9800000D01*
X19500000Y-10100000D01*
D11*
X11458277Y-14413984D02*
X11458277Y-14213984D01*
X11458277Y-14213984D02*
X11505896Y-14213984D01*
X11505896Y-14213984D02*
X11534467Y-14223508D01*
X11534467Y-14223508D02*
X11553515Y-14242555D01*
X11553515Y-14242555D02*
X11563039Y-14261603D01*
X11563039Y-14261603D02*
X11572562Y-14299698D01*
X11572562Y-14299698D02*
X11572562Y-14328269D01*
X11572562Y-14328269D02*
X11563039Y-14366365D01*
X11563039Y-14366365D02*
X11553515Y-14385412D01*
X11553515Y-14385412D02*
X11534467Y-14404460D01*
X11534467Y-14404460D02*
X11505896Y-14413984D01*
X11505896Y-14413984D02*
X11458277Y-14413984D01*
X11658277Y-14413984D02*
X11658277Y-14280650D01*
X11658277Y-14318746D02*
X11667801Y-14299698D01*
X11667801Y-14299698D02*
X11677324Y-14290174D01*
X11677324Y-14290174D02*
X11696372Y-14280650D01*
X11696372Y-14280650D02*
X11715420Y-14280650D01*
X11782086Y-14413984D02*
X11782086Y-14280650D01*
X11782086Y-14213984D02*
X11772562Y-14223508D01*
X11772562Y-14223508D02*
X11782086Y-14233031D01*
X11782086Y-14233031D02*
X11791610Y-14223508D01*
X11791610Y-14223508D02*
X11782086Y-14213984D01*
X11782086Y-14213984D02*
X11782086Y-14233031D01*
X11905896Y-14413984D02*
X11886848Y-14404460D01*
X11886848Y-14404460D02*
X11877324Y-14385412D01*
X11877324Y-14385412D02*
X11877324Y-14213984D01*
X12010658Y-14413984D02*
X11991610Y-14404460D01*
X11991610Y-14404460D02*
X11982086Y-14385412D01*
X11982086Y-14385412D02*
X11982086Y-14213984D01*
X12239229Y-14413984D02*
X12239229Y-14213984D01*
X12239229Y-14213984D02*
X12305896Y-14356841D01*
X12305896Y-14356841D02*
X12372562Y-14213984D01*
X12372562Y-14213984D02*
X12372562Y-14413984D01*
X12553515Y-14413984D02*
X12553515Y-14309222D01*
X12553515Y-14309222D02*
X12543991Y-14290174D01*
X12543991Y-14290174D02*
X12524943Y-14280650D01*
X12524943Y-14280650D02*
X12486848Y-14280650D01*
X12486848Y-14280650D02*
X12467801Y-14290174D01*
X12553515Y-14404460D02*
X12534467Y-14413984D01*
X12534467Y-14413984D02*
X12486848Y-14413984D01*
X12486848Y-14413984D02*
X12467801Y-14404460D01*
X12467801Y-14404460D02*
X12458277Y-14385412D01*
X12458277Y-14385412D02*
X12458277Y-14366365D01*
X12458277Y-14366365D02*
X12467801Y-14347317D01*
X12467801Y-14347317D02*
X12486848Y-14337793D01*
X12486848Y-14337793D02*
X12534467Y-14337793D01*
X12534467Y-14337793D02*
X12553515Y-14328269D01*
X12648753Y-14280650D02*
X12648753Y-14480650D01*
X12648753Y-14290174D02*
X12667801Y-14280650D01*
X12667801Y-14280650D02*
X12705896Y-14280650D01*
X12705896Y-14280650D02*
X12724943Y-14290174D01*
X12724943Y-14290174D02*
X12734467Y-14299698D01*
X12734467Y-14299698D02*
X12743991Y-14318746D01*
X12743991Y-14318746D02*
X12743991Y-14375888D01*
X12743991Y-14375888D02*
X12734467Y-14394936D01*
X12734467Y-14394936D02*
X12724943Y-14404460D01*
X12724943Y-14404460D02*
X12705896Y-14413984D01*
X12705896Y-14413984D02*
X12667801Y-14413984D01*
X12667801Y-14413984D02*
X12648753Y-14404460D01*
X12829705Y-14394936D02*
X12839229Y-14404460D01*
X12839229Y-14404460D02*
X12829705Y-14413984D01*
X12829705Y-14413984D02*
X12820182Y-14404460D01*
X12820182Y-14404460D02*
X12829705Y-14394936D01*
X12829705Y-14394936D02*
X12829705Y-14413984D01*
X12829705Y-14290174D02*
X12839229Y-14299698D01*
X12839229Y-14299698D02*
X12829705Y-14309222D01*
X12829705Y-14309222D02*
X12820182Y-14299698D01*
X12820182Y-14299698D02*
X12829705Y-14290174D01*
X12829705Y-14290174D02*
X12829705Y-14309222D01*
D12*
X11167500Y-14727500D02*
X11197500Y-14757500D01*
X11197500Y-14727500D02*
X11167500Y-14757500D01*
D11*
X11496372Y-14633984D02*
X11515420Y-14633984D01*
X11515420Y-14633984D02*
X11534467Y-14643508D01*
X11534467Y-14643508D02*
X11543991Y-14653031D01*
X11543991Y-14653031D02*
X11553515Y-14672079D01*
X11553515Y-14672079D02*
X11563039Y-14710174D01*
X11563039Y-14710174D02*
X11563039Y-14757793D01*
X11563039Y-14757793D02*
X11553515Y-14795888D01*
X11553515Y-14795888D02*
X11543991Y-14814936D01*
X11543991Y-14814936D02*
X11534467Y-14824460D01*
X11534467Y-14824460D02*
X11515420Y-14833984D01*
X11515420Y-14833984D02*
X11496372Y-14833984D01*
X11496372Y-14833984D02*
X11477324Y-14824460D01*
X11477324Y-14824460D02*
X11467801Y-14814936D01*
X11467801Y-14814936D02*
X11458277Y-14795888D01*
X11458277Y-14795888D02*
X11448753Y-14757793D01*
X11448753Y-14757793D02*
X11448753Y-14710174D01*
X11448753Y-14710174D02*
X11458277Y-14672079D01*
X11458277Y-14672079D02*
X11467801Y-14653031D01*
X11467801Y-14653031D02*
X11477324Y-14643508D01*
X11477324Y-14643508D02*
X11496372Y-14633984D01*
X11648753Y-14814936D02*
X11658277Y-14824460D01*
X11658277Y-14824460D02*
X11648753Y-14833984D01*
X11648753Y-14833984D02*
X11639229Y-14824460D01*
X11639229Y-14824460D02*
X11648753Y-14814936D01*
X11648753Y-14814936D02*
X11648753Y-14833984D01*
X11724943Y-14633984D02*
X11848753Y-14633984D01*
X11848753Y-14633984D02*
X11782086Y-14710174D01*
X11782086Y-14710174D02*
X11810658Y-14710174D01*
X11810658Y-14710174D02*
X11829705Y-14719698D01*
X11829705Y-14719698D02*
X11839229Y-14729222D01*
X11839229Y-14729222D02*
X11848753Y-14748269D01*
X11848753Y-14748269D02*
X11848753Y-14795888D01*
X11848753Y-14795888D02*
X11839229Y-14814936D01*
X11839229Y-14814936D02*
X11829705Y-14824460D01*
X11829705Y-14824460D02*
X11810658Y-14833984D01*
X11810658Y-14833984D02*
X11753515Y-14833984D01*
X11753515Y-14833984D02*
X11734467Y-14824460D01*
X11734467Y-14824460D02*
X11724943Y-14814936D01*
X11972562Y-14633984D02*
X11991610Y-14633984D01*
X11991610Y-14633984D02*
X12010658Y-14643508D01*
X12010658Y-14643508D02*
X12020182Y-14653031D01*
X12020182Y-14653031D02*
X12029705Y-14672079D01*
X12029705Y-14672079D02*
X12039229Y-14710174D01*
X12039229Y-14710174D02*
X12039229Y-14757793D01*
X12039229Y-14757793D02*
X12029705Y-14795888D01*
X12029705Y-14795888D02*
X12020182Y-14814936D01*
X12020182Y-14814936D02*
X12010658Y-14824460D01*
X12010658Y-14824460D02*
X11991610Y-14833984D01*
X11991610Y-14833984D02*
X11972562Y-14833984D01*
X11972562Y-14833984D02*
X11953515Y-14824460D01*
X11953515Y-14824460D02*
X11943991Y-14814936D01*
X11943991Y-14814936D02*
X11934467Y-14795888D01*
X11934467Y-14795888D02*
X11924943Y-14757793D01*
X11924943Y-14757793D02*
X11924943Y-14710174D01*
X11924943Y-14710174D02*
X11934467Y-14672079D01*
X11934467Y-14672079D02*
X11943991Y-14653031D01*
X11943991Y-14653031D02*
X11953515Y-14643508D01*
X11953515Y-14643508D02*
X11972562Y-14633984D01*
X12163039Y-14633984D02*
X12182086Y-14633984D01*
X12182086Y-14633984D02*
X12201134Y-14643508D01*
X12201134Y-14643508D02*
X12210658Y-14653031D01*
X12210658Y-14653031D02*
X12220182Y-14672079D01*
X12220182Y-14672079D02*
X12229705Y-14710174D01*
X12229705Y-14710174D02*
X12229705Y-14757793D01*
X12229705Y-14757793D02*
X12220182Y-14795888D01*
X12220182Y-14795888D02*
X12210658Y-14814936D01*
X12210658Y-14814936D02*
X12201134Y-14824460D01*
X12201134Y-14824460D02*
X12182086Y-14833984D01*
X12182086Y-14833984D02*
X12163039Y-14833984D01*
X12163039Y-14833984D02*
X12143991Y-14824460D01*
X12143991Y-14824460D02*
X12134467Y-14814936D01*
X12134467Y-14814936D02*
X12124943Y-14795888D01*
X12124943Y-14795888D02*
X12115420Y-14757793D01*
X12115420Y-14757793D02*
X12115420Y-14710174D01*
X12115420Y-14710174D02*
X12124943Y-14672079D01*
X12124943Y-14672079D02*
X12134467Y-14653031D01*
X12134467Y-14653031D02*
X12143991Y-14643508D01*
X12143991Y-14643508D02*
X12163039Y-14633984D01*
X12315420Y-14833984D02*
X12315420Y-14700650D01*
X12315420Y-14719698D02*
X12324943Y-14710174D01*
X12324943Y-14710174D02*
X12343991Y-14700650D01*
X12343991Y-14700650D02*
X12372563Y-14700650D01*
X12372563Y-14700650D02*
X12391610Y-14710174D01*
X12391610Y-14710174D02*
X12401134Y-14729222D01*
X12401134Y-14729222D02*
X12401134Y-14833984D01*
X12401134Y-14729222D02*
X12410658Y-14710174D01*
X12410658Y-14710174D02*
X12429705Y-14700650D01*
X12429705Y-14700650D02*
X12458277Y-14700650D01*
X12458277Y-14700650D02*
X12477324Y-14710174D01*
X12477324Y-14710174D02*
X12486848Y-14729222D01*
X12486848Y-14729222D02*
X12486848Y-14833984D01*
X12582086Y-14833984D02*
X12582086Y-14700650D01*
X12582086Y-14719698D02*
X12591610Y-14710174D01*
X12591610Y-14710174D02*
X12610658Y-14700650D01*
X12610658Y-14700650D02*
X12639229Y-14700650D01*
X12639229Y-14700650D02*
X12658277Y-14710174D01*
X12658277Y-14710174D02*
X12667801Y-14729222D01*
X12667801Y-14729222D02*
X12667801Y-14833984D01*
X12667801Y-14729222D02*
X12677324Y-14710174D01*
X12677324Y-14710174D02*
X12696372Y-14700650D01*
X12696372Y-14700650D02*
X12724943Y-14700650D01*
X12724943Y-14700650D02*
X12743991Y-14710174D01*
X12743991Y-14710174D02*
X12753515Y-14729222D01*
X12753515Y-14729222D02*
X12753515Y-14833984D01*
X13143991Y-14624460D02*
X12972563Y-14881603D01*
X13401134Y-14633984D02*
X13420182Y-14633984D01*
X13420182Y-14633984D02*
X13439229Y-14643508D01*
X13439229Y-14643508D02*
X13448753Y-14653031D01*
X13448753Y-14653031D02*
X13458277Y-14672079D01*
X13458277Y-14672079D02*
X13467801Y-14710174D01*
X13467801Y-14710174D02*
X13467801Y-14757793D01*
X13467801Y-14757793D02*
X13458277Y-14795888D01*
X13458277Y-14795888D02*
X13448753Y-14814936D01*
X13448753Y-14814936D02*
X13439229Y-14824460D01*
X13439229Y-14824460D02*
X13420182Y-14833984D01*
X13420182Y-14833984D02*
X13401134Y-14833984D01*
X13401134Y-14833984D02*
X13382086Y-14824460D01*
X13382086Y-14824460D02*
X13372563Y-14814936D01*
X13372563Y-14814936D02*
X13363039Y-14795888D01*
X13363039Y-14795888D02*
X13353515Y-14757793D01*
X13353515Y-14757793D02*
X13353515Y-14710174D01*
X13353515Y-14710174D02*
X13363039Y-14672079D01*
X13363039Y-14672079D02*
X13372563Y-14653031D01*
X13372563Y-14653031D02*
X13382086Y-14643508D01*
X13382086Y-14643508D02*
X13401134Y-14633984D01*
X13553515Y-14814936D02*
X13563039Y-14824460D01*
X13563039Y-14824460D02*
X13553515Y-14833984D01*
X13553515Y-14833984D02*
X13543991Y-14824460D01*
X13543991Y-14824460D02*
X13553515Y-14814936D01*
X13553515Y-14814936D02*
X13553515Y-14833984D01*
X13686848Y-14633984D02*
X13705896Y-14633984D01*
X13705896Y-14633984D02*
X13724944Y-14643508D01*
X13724944Y-14643508D02*
X13734467Y-14653031D01*
X13734467Y-14653031D02*
X13743991Y-14672079D01*
X13743991Y-14672079D02*
X13753515Y-14710174D01*
X13753515Y-14710174D02*
X13753515Y-14757793D01*
X13753515Y-14757793D02*
X13743991Y-14795888D01*
X13743991Y-14795888D02*
X13734467Y-14814936D01*
X13734467Y-14814936D02*
X13724944Y-14824460D01*
X13724944Y-14824460D02*
X13705896Y-14833984D01*
X13705896Y-14833984D02*
X13686848Y-14833984D01*
X13686848Y-14833984D02*
X13667801Y-14824460D01*
X13667801Y-14824460D02*
X13658277Y-14814936D01*
X13658277Y-14814936D02*
X13648753Y-14795888D01*
X13648753Y-14795888D02*
X13639229Y-14757793D01*
X13639229Y-14757793D02*
X13639229Y-14710174D01*
X13639229Y-14710174D02*
X13648753Y-14672079D01*
X13648753Y-14672079D02*
X13658277Y-14653031D01*
X13658277Y-14653031D02*
X13667801Y-14643508D01*
X13667801Y-14643508D02*
X13686848Y-14633984D01*
X13943991Y-14833984D02*
X13829706Y-14833984D01*
X13886848Y-14833984D02*
X13886848Y-14633984D01*
X13886848Y-14633984D02*
X13867801Y-14662555D01*
X13867801Y-14662555D02*
X13848753Y-14681603D01*
X13848753Y-14681603D02*
X13829706Y-14691127D01*
X14134467Y-14833984D02*
X14020182Y-14833984D01*
X14077325Y-14833984D02*
X14077325Y-14633984D01*
X14077325Y-14633984D02*
X14058277Y-14662555D01*
X14058277Y-14662555D02*
X14039229Y-14681603D01*
X14039229Y-14681603D02*
X14020182Y-14691127D01*
X14248753Y-14719698D02*
X14229706Y-14710174D01*
X14229706Y-14710174D02*
X14220182Y-14700650D01*
X14220182Y-14700650D02*
X14210658Y-14681603D01*
X14210658Y-14681603D02*
X14210658Y-14672079D01*
X14210658Y-14672079D02*
X14220182Y-14653031D01*
X14220182Y-14653031D02*
X14229706Y-14643508D01*
X14229706Y-14643508D02*
X14248753Y-14633984D01*
X14248753Y-14633984D02*
X14286848Y-14633984D01*
X14286848Y-14633984D02*
X14305896Y-14643508D01*
X14305896Y-14643508D02*
X14315420Y-14653031D01*
X14315420Y-14653031D02*
X14324944Y-14672079D01*
X14324944Y-14672079D02*
X14324944Y-14681603D01*
X14324944Y-14681603D02*
X14315420Y-14700650D01*
X14315420Y-14700650D02*
X14305896Y-14710174D01*
X14305896Y-14710174D02*
X14286848Y-14719698D01*
X14286848Y-14719698D02*
X14248753Y-14719698D01*
X14248753Y-14719698D02*
X14229706Y-14729222D01*
X14229706Y-14729222D02*
X14220182Y-14738746D01*
X14220182Y-14738746D02*
X14210658Y-14757793D01*
X14210658Y-14757793D02*
X14210658Y-14795888D01*
X14210658Y-14795888D02*
X14220182Y-14814936D01*
X14220182Y-14814936D02*
X14229706Y-14824460D01*
X14229706Y-14824460D02*
X14248753Y-14833984D01*
X14248753Y-14833984D02*
X14286848Y-14833984D01*
X14286848Y-14833984D02*
X14305896Y-14824460D01*
X14305896Y-14824460D02*
X14315420Y-14814936D01*
X14315420Y-14814936D02*
X14324944Y-14795888D01*
X14324944Y-14795888D02*
X14324944Y-14757793D01*
X14324944Y-14757793D02*
X14315420Y-14738746D01*
X14315420Y-14738746D02*
X14305896Y-14729222D01*
X14305896Y-14729222D02*
X14286848Y-14719698D01*
X14401134Y-14633984D02*
X14401134Y-14672079D01*
X14477325Y-14633984D02*
X14477325Y-14672079D01*
X14772563Y-14910174D02*
X14763039Y-14900650D01*
X14763039Y-14900650D02*
X14743991Y-14872079D01*
X14743991Y-14872079D02*
X14734468Y-14853031D01*
X14734468Y-14853031D02*
X14724944Y-14824460D01*
X14724944Y-14824460D02*
X14715420Y-14776841D01*
X14715420Y-14776841D02*
X14715420Y-14738746D01*
X14715420Y-14738746D02*
X14724944Y-14691127D01*
X14724944Y-14691127D02*
X14734468Y-14662555D01*
X14734468Y-14662555D02*
X14743991Y-14643508D01*
X14743991Y-14643508D02*
X14763039Y-14614936D01*
X14763039Y-14614936D02*
X14772563Y-14605412D01*
X14839229Y-14653031D02*
X14848753Y-14643508D01*
X14848753Y-14643508D02*
X14867801Y-14633984D01*
X14867801Y-14633984D02*
X14915420Y-14633984D01*
X14915420Y-14633984D02*
X14934468Y-14643508D01*
X14934468Y-14643508D02*
X14943991Y-14653031D01*
X14943991Y-14653031D02*
X14953515Y-14672079D01*
X14953515Y-14672079D02*
X14953515Y-14691127D01*
X14953515Y-14691127D02*
X14943991Y-14719698D01*
X14943991Y-14719698D02*
X14829706Y-14833984D01*
X14829706Y-14833984D02*
X14953515Y-14833984D01*
X15143991Y-14833984D02*
X15029706Y-14833984D01*
X15086848Y-14833984D02*
X15086848Y-14633984D01*
X15086848Y-14633984D02*
X15067801Y-14662555D01*
X15067801Y-14662555D02*
X15048753Y-14681603D01*
X15048753Y-14681603D02*
X15029706Y-14691127D01*
X15382087Y-14833984D02*
X15382087Y-14633984D01*
X15467801Y-14833984D02*
X15467801Y-14729222D01*
X15467801Y-14729222D02*
X15458277Y-14710174D01*
X15458277Y-14710174D02*
X15439230Y-14700650D01*
X15439230Y-14700650D02*
X15410658Y-14700650D01*
X15410658Y-14700650D02*
X15391610Y-14710174D01*
X15391610Y-14710174D02*
X15382087Y-14719698D01*
X15591610Y-14833984D02*
X15572563Y-14824460D01*
X15572563Y-14824460D02*
X15563039Y-14814936D01*
X15563039Y-14814936D02*
X15553515Y-14795888D01*
X15553515Y-14795888D02*
X15553515Y-14738746D01*
X15553515Y-14738746D02*
X15563039Y-14719698D01*
X15563039Y-14719698D02*
X15572563Y-14710174D01*
X15572563Y-14710174D02*
X15591610Y-14700650D01*
X15591610Y-14700650D02*
X15620182Y-14700650D01*
X15620182Y-14700650D02*
X15639230Y-14710174D01*
X15639230Y-14710174D02*
X15648753Y-14719698D01*
X15648753Y-14719698D02*
X15658277Y-14738746D01*
X15658277Y-14738746D02*
X15658277Y-14795888D01*
X15658277Y-14795888D02*
X15648753Y-14814936D01*
X15648753Y-14814936D02*
X15639230Y-14824460D01*
X15639230Y-14824460D02*
X15620182Y-14833984D01*
X15620182Y-14833984D02*
X15591610Y-14833984D01*
X15772563Y-14833984D02*
X15753515Y-14824460D01*
X15753515Y-14824460D02*
X15743991Y-14805412D01*
X15743991Y-14805412D02*
X15743991Y-14633984D01*
X15924944Y-14824460D02*
X15905896Y-14833984D01*
X15905896Y-14833984D02*
X15867801Y-14833984D01*
X15867801Y-14833984D02*
X15848753Y-14824460D01*
X15848753Y-14824460D02*
X15839230Y-14805412D01*
X15839230Y-14805412D02*
X15839230Y-14729222D01*
X15839230Y-14729222D02*
X15848753Y-14710174D01*
X15848753Y-14710174D02*
X15867801Y-14700650D01*
X15867801Y-14700650D02*
X15905896Y-14700650D01*
X15905896Y-14700650D02*
X15924944Y-14710174D01*
X15924944Y-14710174D02*
X15934468Y-14729222D01*
X15934468Y-14729222D02*
X15934468Y-14748269D01*
X15934468Y-14748269D02*
X15839230Y-14767317D01*
X16010658Y-14824460D02*
X16029706Y-14833984D01*
X16029706Y-14833984D02*
X16067801Y-14833984D01*
X16067801Y-14833984D02*
X16086849Y-14824460D01*
X16086849Y-14824460D02*
X16096372Y-14805412D01*
X16096372Y-14805412D02*
X16096372Y-14795888D01*
X16096372Y-14795888D02*
X16086849Y-14776841D01*
X16086849Y-14776841D02*
X16067801Y-14767317D01*
X16067801Y-14767317D02*
X16039230Y-14767317D01*
X16039230Y-14767317D02*
X16020182Y-14757793D01*
X16020182Y-14757793D02*
X16010658Y-14738746D01*
X16010658Y-14738746D02*
X16010658Y-14729222D01*
X16010658Y-14729222D02*
X16020182Y-14710174D01*
X16020182Y-14710174D02*
X16039230Y-14700650D01*
X16039230Y-14700650D02*
X16067801Y-14700650D01*
X16067801Y-14700650D02*
X16086849Y-14710174D01*
X16163039Y-14910174D02*
X16172563Y-14900650D01*
X16172563Y-14900650D02*
X16191611Y-14872079D01*
X16191611Y-14872079D02*
X16201134Y-14853031D01*
X16201134Y-14853031D02*
X16210658Y-14824460D01*
X16210658Y-14824460D02*
X16220182Y-14776841D01*
X16220182Y-14776841D02*
X16220182Y-14738746D01*
X16220182Y-14738746D02*
X16210658Y-14691127D01*
X16210658Y-14691127D02*
X16201134Y-14662555D01*
X16201134Y-14662555D02*
X16191611Y-14643508D01*
X16191611Y-14643508D02*
X16172563Y-14614936D01*
X16172563Y-14614936D02*
X16163039Y-14605412D01*
D12*
X11197500Y-15006500D02*
G75*
G02*
X11117500Y-15006500I-40000J0D01*
G01*
X11117500Y-15006500D02*
G75*
G02*
X11197500Y-15006500I40000J0D01*
G01*
D11*
X11496372Y-14897984D02*
X11515420Y-14897984D01*
X11515420Y-14897984D02*
X11534467Y-14907508D01*
X11534467Y-14907508D02*
X11543991Y-14917031D01*
X11543991Y-14917031D02*
X11553515Y-14936079D01*
X11553515Y-14936079D02*
X11563039Y-14974174D01*
X11563039Y-14974174D02*
X11563039Y-15021793D01*
X11563039Y-15021793D02*
X11553515Y-15059888D01*
X11553515Y-15059888D02*
X11543991Y-15078936D01*
X11543991Y-15078936D02*
X11534467Y-15088460D01*
X11534467Y-15088460D02*
X11515420Y-15097984D01*
X11515420Y-15097984D02*
X11496372Y-15097984D01*
X11496372Y-15097984D02*
X11477324Y-15088460D01*
X11477324Y-15088460D02*
X11467801Y-15078936D01*
X11467801Y-15078936D02*
X11458277Y-15059888D01*
X11458277Y-15059888D02*
X11448753Y-15021793D01*
X11448753Y-15021793D02*
X11448753Y-14974174D01*
X11448753Y-14974174D02*
X11458277Y-14936079D01*
X11458277Y-14936079D02*
X11467801Y-14917031D01*
X11467801Y-14917031D02*
X11477324Y-14907508D01*
X11477324Y-14907508D02*
X11496372Y-14897984D01*
X11648753Y-15078936D02*
X11658277Y-15088460D01*
X11658277Y-15088460D02*
X11648753Y-15097984D01*
X11648753Y-15097984D02*
X11639229Y-15088460D01*
X11639229Y-15088460D02*
X11648753Y-15078936D01*
X11648753Y-15078936D02*
X11648753Y-15097984D01*
X11772562Y-14983698D02*
X11753515Y-14974174D01*
X11753515Y-14974174D02*
X11743991Y-14964650D01*
X11743991Y-14964650D02*
X11734467Y-14945603D01*
X11734467Y-14945603D02*
X11734467Y-14936079D01*
X11734467Y-14936079D02*
X11743991Y-14917031D01*
X11743991Y-14917031D02*
X11753515Y-14907508D01*
X11753515Y-14907508D02*
X11772562Y-14897984D01*
X11772562Y-14897984D02*
X11810658Y-14897984D01*
X11810658Y-14897984D02*
X11829705Y-14907508D01*
X11829705Y-14907508D02*
X11839229Y-14917031D01*
X11839229Y-14917031D02*
X11848753Y-14936079D01*
X11848753Y-14936079D02*
X11848753Y-14945603D01*
X11848753Y-14945603D02*
X11839229Y-14964650D01*
X11839229Y-14964650D02*
X11829705Y-14974174D01*
X11829705Y-14974174D02*
X11810658Y-14983698D01*
X11810658Y-14983698D02*
X11772562Y-14983698D01*
X11772562Y-14983698D02*
X11753515Y-14993222D01*
X11753515Y-14993222D02*
X11743991Y-15002746D01*
X11743991Y-15002746D02*
X11734467Y-15021793D01*
X11734467Y-15021793D02*
X11734467Y-15059888D01*
X11734467Y-15059888D02*
X11743991Y-15078936D01*
X11743991Y-15078936D02*
X11753515Y-15088460D01*
X11753515Y-15088460D02*
X11772562Y-15097984D01*
X11772562Y-15097984D02*
X11810658Y-15097984D01*
X11810658Y-15097984D02*
X11829705Y-15088460D01*
X11829705Y-15088460D02*
X11839229Y-15078936D01*
X11839229Y-15078936D02*
X11848753Y-15059888D01*
X11848753Y-15059888D02*
X11848753Y-15021793D01*
X11848753Y-15021793D02*
X11839229Y-15002746D01*
X11839229Y-15002746D02*
X11829705Y-14993222D01*
X11829705Y-14993222D02*
X11810658Y-14983698D01*
X11972562Y-14897984D02*
X11991610Y-14897984D01*
X11991610Y-14897984D02*
X12010658Y-14907508D01*
X12010658Y-14907508D02*
X12020182Y-14917031D01*
X12020182Y-14917031D02*
X12029705Y-14936079D01*
X12029705Y-14936079D02*
X12039229Y-14974174D01*
X12039229Y-14974174D02*
X12039229Y-15021793D01*
X12039229Y-15021793D02*
X12029705Y-15059888D01*
X12029705Y-15059888D02*
X12020182Y-15078936D01*
X12020182Y-15078936D02*
X12010658Y-15088460D01*
X12010658Y-15088460D02*
X11991610Y-15097984D01*
X11991610Y-15097984D02*
X11972562Y-15097984D01*
X11972562Y-15097984D02*
X11953515Y-15088460D01*
X11953515Y-15088460D02*
X11943991Y-15078936D01*
X11943991Y-15078936D02*
X11934467Y-15059888D01*
X11934467Y-15059888D02*
X11924943Y-15021793D01*
X11924943Y-15021793D02*
X11924943Y-14974174D01*
X11924943Y-14974174D02*
X11934467Y-14936079D01*
X11934467Y-14936079D02*
X11943991Y-14917031D01*
X11943991Y-14917031D02*
X11953515Y-14907508D01*
X11953515Y-14907508D02*
X11972562Y-14897984D01*
X12163039Y-14897984D02*
X12182086Y-14897984D01*
X12182086Y-14897984D02*
X12201134Y-14907508D01*
X12201134Y-14907508D02*
X12210658Y-14917031D01*
X12210658Y-14917031D02*
X12220182Y-14936079D01*
X12220182Y-14936079D02*
X12229705Y-14974174D01*
X12229705Y-14974174D02*
X12229705Y-15021793D01*
X12229705Y-15021793D02*
X12220182Y-15059888D01*
X12220182Y-15059888D02*
X12210658Y-15078936D01*
X12210658Y-15078936D02*
X12201134Y-15088460D01*
X12201134Y-15088460D02*
X12182086Y-15097984D01*
X12182086Y-15097984D02*
X12163039Y-15097984D01*
X12163039Y-15097984D02*
X12143991Y-15088460D01*
X12143991Y-15088460D02*
X12134467Y-15078936D01*
X12134467Y-15078936D02*
X12124943Y-15059888D01*
X12124943Y-15059888D02*
X12115420Y-15021793D01*
X12115420Y-15021793D02*
X12115420Y-14974174D01*
X12115420Y-14974174D02*
X12124943Y-14936079D01*
X12124943Y-14936079D02*
X12134467Y-14917031D01*
X12134467Y-14917031D02*
X12143991Y-14907508D01*
X12143991Y-14907508D02*
X12163039Y-14897984D01*
X12315420Y-15097984D02*
X12315420Y-14964650D01*
X12315420Y-14983698D02*
X12324943Y-14974174D01*
X12324943Y-14974174D02*
X12343991Y-14964650D01*
X12343991Y-14964650D02*
X12372563Y-14964650D01*
X12372563Y-14964650D02*
X12391610Y-14974174D01*
X12391610Y-14974174D02*
X12401134Y-14993222D01*
X12401134Y-14993222D02*
X12401134Y-15097984D01*
X12401134Y-14993222D02*
X12410658Y-14974174D01*
X12410658Y-14974174D02*
X12429705Y-14964650D01*
X12429705Y-14964650D02*
X12458277Y-14964650D01*
X12458277Y-14964650D02*
X12477324Y-14974174D01*
X12477324Y-14974174D02*
X12486848Y-14993222D01*
X12486848Y-14993222D02*
X12486848Y-15097984D01*
X12582086Y-15097984D02*
X12582086Y-14964650D01*
X12582086Y-14983698D02*
X12591610Y-14974174D01*
X12591610Y-14974174D02*
X12610658Y-14964650D01*
X12610658Y-14964650D02*
X12639229Y-14964650D01*
X12639229Y-14964650D02*
X12658277Y-14974174D01*
X12658277Y-14974174D02*
X12667801Y-14993222D01*
X12667801Y-14993222D02*
X12667801Y-15097984D01*
X12667801Y-14993222D02*
X12677324Y-14974174D01*
X12677324Y-14974174D02*
X12696372Y-14964650D01*
X12696372Y-14964650D02*
X12724943Y-14964650D01*
X12724943Y-14964650D02*
X12743991Y-14974174D01*
X12743991Y-14974174D02*
X12753515Y-14993222D01*
X12753515Y-14993222D02*
X12753515Y-15097984D01*
X13143991Y-14888460D02*
X12972563Y-15145603D01*
X13401134Y-14897984D02*
X13420182Y-14897984D01*
X13420182Y-14897984D02*
X13439229Y-14907508D01*
X13439229Y-14907508D02*
X13448753Y-14917031D01*
X13448753Y-14917031D02*
X13458277Y-14936079D01*
X13458277Y-14936079D02*
X13467801Y-14974174D01*
X13467801Y-14974174D02*
X13467801Y-15021793D01*
X13467801Y-15021793D02*
X13458277Y-15059888D01*
X13458277Y-15059888D02*
X13448753Y-15078936D01*
X13448753Y-15078936D02*
X13439229Y-15088460D01*
X13439229Y-15088460D02*
X13420182Y-15097984D01*
X13420182Y-15097984D02*
X13401134Y-15097984D01*
X13401134Y-15097984D02*
X13382086Y-15088460D01*
X13382086Y-15088460D02*
X13372563Y-15078936D01*
X13372563Y-15078936D02*
X13363039Y-15059888D01*
X13363039Y-15059888D02*
X13353515Y-15021793D01*
X13353515Y-15021793D02*
X13353515Y-14974174D01*
X13353515Y-14974174D02*
X13363039Y-14936079D01*
X13363039Y-14936079D02*
X13372563Y-14917031D01*
X13372563Y-14917031D02*
X13382086Y-14907508D01*
X13382086Y-14907508D02*
X13401134Y-14897984D01*
X13553515Y-15078936D02*
X13563039Y-15088460D01*
X13563039Y-15088460D02*
X13553515Y-15097984D01*
X13553515Y-15097984D02*
X13543991Y-15088460D01*
X13543991Y-15088460D02*
X13553515Y-15078936D01*
X13553515Y-15078936D02*
X13553515Y-15097984D01*
X13686848Y-14897984D02*
X13705896Y-14897984D01*
X13705896Y-14897984D02*
X13724944Y-14907508D01*
X13724944Y-14907508D02*
X13734467Y-14917031D01*
X13734467Y-14917031D02*
X13743991Y-14936079D01*
X13743991Y-14936079D02*
X13753515Y-14974174D01*
X13753515Y-14974174D02*
X13753515Y-15021793D01*
X13753515Y-15021793D02*
X13743991Y-15059888D01*
X13743991Y-15059888D02*
X13734467Y-15078936D01*
X13734467Y-15078936D02*
X13724944Y-15088460D01*
X13724944Y-15088460D02*
X13705896Y-15097984D01*
X13705896Y-15097984D02*
X13686848Y-15097984D01*
X13686848Y-15097984D02*
X13667801Y-15088460D01*
X13667801Y-15088460D02*
X13658277Y-15078936D01*
X13658277Y-15078936D02*
X13648753Y-15059888D01*
X13648753Y-15059888D02*
X13639229Y-15021793D01*
X13639229Y-15021793D02*
X13639229Y-14974174D01*
X13639229Y-14974174D02*
X13648753Y-14936079D01*
X13648753Y-14936079D02*
X13658277Y-14917031D01*
X13658277Y-14917031D02*
X13667801Y-14907508D01*
X13667801Y-14907508D02*
X13686848Y-14897984D01*
X13820182Y-14897984D02*
X13943991Y-14897984D01*
X13943991Y-14897984D02*
X13877325Y-14974174D01*
X13877325Y-14974174D02*
X13905896Y-14974174D01*
X13905896Y-14974174D02*
X13924944Y-14983698D01*
X13924944Y-14983698D02*
X13934467Y-14993222D01*
X13934467Y-14993222D02*
X13943991Y-15012269D01*
X13943991Y-15012269D02*
X13943991Y-15059888D01*
X13943991Y-15059888D02*
X13934467Y-15078936D01*
X13934467Y-15078936D02*
X13924944Y-15088460D01*
X13924944Y-15088460D02*
X13905896Y-15097984D01*
X13905896Y-15097984D02*
X13848753Y-15097984D01*
X13848753Y-15097984D02*
X13829706Y-15088460D01*
X13829706Y-15088460D02*
X13820182Y-15078936D01*
X14134467Y-15097984D02*
X14020182Y-15097984D01*
X14077325Y-15097984D02*
X14077325Y-14897984D01*
X14077325Y-14897984D02*
X14058277Y-14926555D01*
X14058277Y-14926555D02*
X14039229Y-14945603D01*
X14039229Y-14945603D02*
X14020182Y-14955127D01*
X14315420Y-14897984D02*
X14220182Y-14897984D01*
X14220182Y-14897984D02*
X14210658Y-14993222D01*
X14210658Y-14993222D02*
X14220182Y-14983698D01*
X14220182Y-14983698D02*
X14239229Y-14974174D01*
X14239229Y-14974174D02*
X14286848Y-14974174D01*
X14286848Y-14974174D02*
X14305896Y-14983698D01*
X14305896Y-14983698D02*
X14315420Y-14993222D01*
X14315420Y-14993222D02*
X14324944Y-15012269D01*
X14324944Y-15012269D02*
X14324944Y-15059888D01*
X14324944Y-15059888D02*
X14315420Y-15078936D01*
X14315420Y-15078936D02*
X14305896Y-15088460D01*
X14305896Y-15088460D02*
X14286848Y-15097984D01*
X14286848Y-15097984D02*
X14239229Y-15097984D01*
X14239229Y-15097984D02*
X14220182Y-15088460D01*
X14220182Y-15088460D02*
X14210658Y-15078936D01*
X14401134Y-14897984D02*
X14401134Y-14936079D01*
X14477325Y-14897984D02*
X14477325Y-14936079D01*
X14772563Y-15174174D02*
X14763039Y-15164650D01*
X14763039Y-15164650D02*
X14743991Y-15136079D01*
X14743991Y-15136079D02*
X14734468Y-15117031D01*
X14734468Y-15117031D02*
X14724944Y-15088460D01*
X14724944Y-15088460D02*
X14715420Y-15040841D01*
X14715420Y-15040841D02*
X14715420Y-15002746D01*
X14715420Y-15002746D02*
X14724944Y-14955127D01*
X14724944Y-14955127D02*
X14734468Y-14926555D01*
X14734468Y-14926555D02*
X14743991Y-14907508D01*
X14743991Y-14907508D02*
X14763039Y-14878936D01*
X14763039Y-14878936D02*
X14772563Y-14869412D01*
X14839229Y-14917031D02*
X14848753Y-14907508D01*
X14848753Y-14907508D02*
X14867801Y-14897984D01*
X14867801Y-14897984D02*
X14915420Y-14897984D01*
X14915420Y-14897984D02*
X14934468Y-14907508D01*
X14934468Y-14907508D02*
X14943991Y-14917031D01*
X14943991Y-14917031D02*
X14953515Y-14936079D01*
X14953515Y-14936079D02*
X14953515Y-14955127D01*
X14953515Y-14955127D02*
X14943991Y-14983698D01*
X14943991Y-14983698D02*
X14829706Y-15097984D01*
X14829706Y-15097984D02*
X14953515Y-15097984D01*
X15191610Y-15097984D02*
X15191610Y-14897984D01*
X15277325Y-15097984D02*
X15277325Y-14993222D01*
X15277325Y-14993222D02*
X15267801Y-14974174D01*
X15267801Y-14974174D02*
X15248753Y-14964650D01*
X15248753Y-14964650D02*
X15220182Y-14964650D01*
X15220182Y-14964650D02*
X15201134Y-14974174D01*
X15201134Y-14974174D02*
X15191610Y-14983698D01*
X15401134Y-15097984D02*
X15382087Y-15088460D01*
X15382087Y-15088460D02*
X15372563Y-15078936D01*
X15372563Y-15078936D02*
X15363039Y-15059888D01*
X15363039Y-15059888D02*
X15363039Y-15002746D01*
X15363039Y-15002746D02*
X15372563Y-14983698D01*
X15372563Y-14983698D02*
X15382087Y-14974174D01*
X15382087Y-14974174D02*
X15401134Y-14964650D01*
X15401134Y-14964650D02*
X15429706Y-14964650D01*
X15429706Y-14964650D02*
X15448753Y-14974174D01*
X15448753Y-14974174D02*
X15458277Y-14983698D01*
X15458277Y-14983698D02*
X15467801Y-15002746D01*
X15467801Y-15002746D02*
X15467801Y-15059888D01*
X15467801Y-15059888D02*
X15458277Y-15078936D01*
X15458277Y-15078936D02*
X15448753Y-15088460D01*
X15448753Y-15088460D02*
X15429706Y-15097984D01*
X15429706Y-15097984D02*
X15401134Y-15097984D01*
X15582087Y-15097984D02*
X15563039Y-15088460D01*
X15563039Y-15088460D02*
X15553515Y-15069412D01*
X15553515Y-15069412D02*
X15553515Y-14897984D01*
X15734468Y-15088460D02*
X15715420Y-15097984D01*
X15715420Y-15097984D02*
X15677325Y-15097984D01*
X15677325Y-15097984D02*
X15658277Y-15088460D01*
X15658277Y-15088460D02*
X15648753Y-15069412D01*
X15648753Y-15069412D02*
X15648753Y-14993222D01*
X15648753Y-14993222D02*
X15658277Y-14974174D01*
X15658277Y-14974174D02*
X15677325Y-14964650D01*
X15677325Y-14964650D02*
X15715420Y-14964650D01*
X15715420Y-14964650D02*
X15734468Y-14974174D01*
X15734468Y-14974174D02*
X15743991Y-14993222D01*
X15743991Y-14993222D02*
X15743991Y-15012269D01*
X15743991Y-15012269D02*
X15648753Y-15031317D01*
X15820182Y-15088460D02*
X15839230Y-15097984D01*
X15839230Y-15097984D02*
X15877325Y-15097984D01*
X15877325Y-15097984D02*
X15896372Y-15088460D01*
X15896372Y-15088460D02*
X15905896Y-15069412D01*
X15905896Y-15069412D02*
X15905896Y-15059888D01*
X15905896Y-15059888D02*
X15896372Y-15040841D01*
X15896372Y-15040841D02*
X15877325Y-15031317D01*
X15877325Y-15031317D02*
X15848753Y-15031317D01*
X15848753Y-15031317D02*
X15829706Y-15021793D01*
X15829706Y-15021793D02*
X15820182Y-15002746D01*
X15820182Y-15002746D02*
X15820182Y-14993222D01*
X15820182Y-14993222D02*
X15829706Y-14974174D01*
X15829706Y-14974174D02*
X15848753Y-14964650D01*
X15848753Y-14964650D02*
X15877325Y-14964650D01*
X15877325Y-14964650D02*
X15896372Y-14974174D01*
X15972563Y-15174174D02*
X15982087Y-15164650D01*
X15982087Y-15164650D02*
X16001134Y-15136079D01*
X16001134Y-15136079D02*
X16010658Y-15117031D01*
X16010658Y-15117031D02*
X16020182Y-15088460D01*
X16020182Y-15088460D02*
X16029706Y-15040841D01*
X16029706Y-15040841D02*
X16029706Y-15002746D01*
X16029706Y-15002746D02*
X16020182Y-14955127D01*
X16020182Y-14955127D02*
X16010658Y-14926555D01*
X16010658Y-14926555D02*
X16001134Y-14907508D01*
X16001134Y-14907508D02*
X15982087Y-14878936D01*
X15982087Y-14878936D02*
X15972563Y-14869412D01*
D12*
X11147500Y-15220500D02*
X11147500Y-15320500D01*
X11097500Y-15270500D02*
X11197500Y-15270500D01*
D11*
X11563039Y-15361984D02*
X11448753Y-15361984D01*
X11505896Y-15361984D02*
X11505896Y-15161984D01*
X11505896Y-15161984D02*
X11486848Y-15190555D01*
X11486848Y-15190555D02*
X11467801Y-15209603D01*
X11467801Y-15209603D02*
X11448753Y-15219127D01*
X11648753Y-15342936D02*
X11658277Y-15352460D01*
X11658277Y-15352460D02*
X11648753Y-15361984D01*
X11648753Y-15361984D02*
X11639229Y-15352460D01*
X11639229Y-15352460D02*
X11648753Y-15342936D01*
X11648753Y-15342936D02*
X11648753Y-15361984D01*
X11782086Y-15161984D02*
X11801134Y-15161984D01*
X11801134Y-15161984D02*
X11820182Y-15171508D01*
X11820182Y-15171508D02*
X11829705Y-15181031D01*
X11829705Y-15181031D02*
X11839229Y-15200079D01*
X11839229Y-15200079D02*
X11848753Y-15238174D01*
X11848753Y-15238174D02*
X11848753Y-15285793D01*
X11848753Y-15285793D02*
X11839229Y-15323888D01*
X11839229Y-15323888D02*
X11829705Y-15342936D01*
X11829705Y-15342936D02*
X11820182Y-15352460D01*
X11820182Y-15352460D02*
X11801134Y-15361984D01*
X11801134Y-15361984D02*
X11782086Y-15361984D01*
X11782086Y-15361984D02*
X11763039Y-15352460D01*
X11763039Y-15352460D02*
X11753515Y-15342936D01*
X11753515Y-15342936D02*
X11743991Y-15323888D01*
X11743991Y-15323888D02*
X11734467Y-15285793D01*
X11734467Y-15285793D02*
X11734467Y-15238174D01*
X11734467Y-15238174D02*
X11743991Y-15200079D01*
X11743991Y-15200079D02*
X11753515Y-15181031D01*
X11753515Y-15181031D02*
X11763039Y-15171508D01*
X11763039Y-15171508D02*
X11782086Y-15161984D01*
X11972562Y-15161984D02*
X11991610Y-15161984D01*
X11991610Y-15161984D02*
X12010658Y-15171508D01*
X12010658Y-15171508D02*
X12020182Y-15181031D01*
X12020182Y-15181031D02*
X12029705Y-15200079D01*
X12029705Y-15200079D02*
X12039229Y-15238174D01*
X12039229Y-15238174D02*
X12039229Y-15285793D01*
X12039229Y-15285793D02*
X12029705Y-15323888D01*
X12029705Y-15323888D02*
X12020182Y-15342936D01*
X12020182Y-15342936D02*
X12010658Y-15352460D01*
X12010658Y-15352460D02*
X11991610Y-15361984D01*
X11991610Y-15361984D02*
X11972562Y-15361984D01*
X11972562Y-15361984D02*
X11953515Y-15352460D01*
X11953515Y-15352460D02*
X11943991Y-15342936D01*
X11943991Y-15342936D02*
X11934467Y-15323888D01*
X11934467Y-15323888D02*
X11924943Y-15285793D01*
X11924943Y-15285793D02*
X11924943Y-15238174D01*
X11924943Y-15238174D02*
X11934467Y-15200079D01*
X11934467Y-15200079D02*
X11943991Y-15181031D01*
X11943991Y-15181031D02*
X11953515Y-15171508D01*
X11953515Y-15171508D02*
X11972562Y-15161984D01*
X12163039Y-15161984D02*
X12182086Y-15161984D01*
X12182086Y-15161984D02*
X12201134Y-15171508D01*
X12201134Y-15171508D02*
X12210658Y-15181031D01*
X12210658Y-15181031D02*
X12220182Y-15200079D01*
X12220182Y-15200079D02*
X12229705Y-15238174D01*
X12229705Y-15238174D02*
X12229705Y-15285793D01*
X12229705Y-15285793D02*
X12220182Y-15323888D01*
X12220182Y-15323888D02*
X12210658Y-15342936D01*
X12210658Y-15342936D02*
X12201134Y-15352460D01*
X12201134Y-15352460D02*
X12182086Y-15361984D01*
X12182086Y-15361984D02*
X12163039Y-15361984D01*
X12163039Y-15361984D02*
X12143991Y-15352460D01*
X12143991Y-15352460D02*
X12134467Y-15342936D01*
X12134467Y-15342936D02*
X12124943Y-15323888D01*
X12124943Y-15323888D02*
X12115420Y-15285793D01*
X12115420Y-15285793D02*
X12115420Y-15238174D01*
X12115420Y-15238174D02*
X12124943Y-15200079D01*
X12124943Y-15200079D02*
X12134467Y-15181031D01*
X12134467Y-15181031D02*
X12143991Y-15171508D01*
X12143991Y-15171508D02*
X12163039Y-15161984D01*
X12315420Y-15361984D02*
X12315420Y-15228650D01*
X12315420Y-15247698D02*
X12324943Y-15238174D01*
X12324943Y-15238174D02*
X12343991Y-15228650D01*
X12343991Y-15228650D02*
X12372563Y-15228650D01*
X12372563Y-15228650D02*
X12391610Y-15238174D01*
X12391610Y-15238174D02*
X12401134Y-15257222D01*
X12401134Y-15257222D02*
X12401134Y-15361984D01*
X12401134Y-15257222D02*
X12410658Y-15238174D01*
X12410658Y-15238174D02*
X12429705Y-15228650D01*
X12429705Y-15228650D02*
X12458277Y-15228650D01*
X12458277Y-15228650D02*
X12477324Y-15238174D01*
X12477324Y-15238174D02*
X12486848Y-15257222D01*
X12486848Y-15257222D02*
X12486848Y-15361984D01*
X12582086Y-15361984D02*
X12582086Y-15228650D01*
X12582086Y-15247698D02*
X12591610Y-15238174D01*
X12591610Y-15238174D02*
X12610658Y-15228650D01*
X12610658Y-15228650D02*
X12639229Y-15228650D01*
X12639229Y-15228650D02*
X12658277Y-15238174D01*
X12658277Y-15238174D02*
X12667801Y-15257222D01*
X12667801Y-15257222D02*
X12667801Y-15361984D01*
X12667801Y-15257222D02*
X12677324Y-15238174D01*
X12677324Y-15238174D02*
X12696372Y-15228650D01*
X12696372Y-15228650D02*
X12724943Y-15228650D01*
X12724943Y-15228650D02*
X12743991Y-15238174D01*
X12743991Y-15238174D02*
X12753515Y-15257222D01*
X12753515Y-15257222D02*
X12753515Y-15361984D01*
X13143991Y-15152460D02*
X12972563Y-15409603D01*
X13401134Y-15161984D02*
X13420182Y-15161984D01*
X13420182Y-15161984D02*
X13439229Y-15171508D01*
X13439229Y-15171508D02*
X13448753Y-15181031D01*
X13448753Y-15181031D02*
X13458277Y-15200079D01*
X13458277Y-15200079D02*
X13467801Y-15238174D01*
X13467801Y-15238174D02*
X13467801Y-15285793D01*
X13467801Y-15285793D02*
X13458277Y-15323888D01*
X13458277Y-15323888D02*
X13448753Y-15342936D01*
X13448753Y-15342936D02*
X13439229Y-15352460D01*
X13439229Y-15352460D02*
X13420182Y-15361984D01*
X13420182Y-15361984D02*
X13401134Y-15361984D01*
X13401134Y-15361984D02*
X13382086Y-15352460D01*
X13382086Y-15352460D02*
X13372563Y-15342936D01*
X13372563Y-15342936D02*
X13363039Y-15323888D01*
X13363039Y-15323888D02*
X13353515Y-15285793D01*
X13353515Y-15285793D02*
X13353515Y-15238174D01*
X13353515Y-15238174D02*
X13363039Y-15200079D01*
X13363039Y-15200079D02*
X13372563Y-15181031D01*
X13372563Y-15181031D02*
X13382086Y-15171508D01*
X13382086Y-15171508D02*
X13401134Y-15161984D01*
X13553515Y-15342936D02*
X13563039Y-15352460D01*
X13563039Y-15352460D02*
X13553515Y-15361984D01*
X13553515Y-15361984D02*
X13543991Y-15352460D01*
X13543991Y-15352460D02*
X13553515Y-15342936D01*
X13553515Y-15342936D02*
X13553515Y-15361984D01*
X13686848Y-15161984D02*
X13705896Y-15161984D01*
X13705896Y-15161984D02*
X13724944Y-15171508D01*
X13724944Y-15171508D02*
X13734467Y-15181031D01*
X13734467Y-15181031D02*
X13743991Y-15200079D01*
X13743991Y-15200079D02*
X13753515Y-15238174D01*
X13753515Y-15238174D02*
X13753515Y-15285793D01*
X13753515Y-15285793D02*
X13743991Y-15323888D01*
X13743991Y-15323888D02*
X13734467Y-15342936D01*
X13734467Y-15342936D02*
X13724944Y-15352460D01*
X13724944Y-15352460D02*
X13705896Y-15361984D01*
X13705896Y-15361984D02*
X13686848Y-15361984D01*
X13686848Y-15361984D02*
X13667801Y-15352460D01*
X13667801Y-15352460D02*
X13658277Y-15342936D01*
X13658277Y-15342936D02*
X13648753Y-15323888D01*
X13648753Y-15323888D02*
X13639229Y-15285793D01*
X13639229Y-15285793D02*
X13639229Y-15238174D01*
X13639229Y-15238174D02*
X13648753Y-15200079D01*
X13648753Y-15200079D02*
X13658277Y-15181031D01*
X13658277Y-15181031D02*
X13667801Y-15171508D01*
X13667801Y-15171508D02*
X13686848Y-15161984D01*
X13820182Y-15161984D02*
X13943991Y-15161984D01*
X13943991Y-15161984D02*
X13877325Y-15238174D01*
X13877325Y-15238174D02*
X13905896Y-15238174D01*
X13905896Y-15238174D02*
X13924944Y-15247698D01*
X13924944Y-15247698D02*
X13934467Y-15257222D01*
X13934467Y-15257222D02*
X13943991Y-15276269D01*
X13943991Y-15276269D02*
X13943991Y-15323888D01*
X13943991Y-15323888D02*
X13934467Y-15342936D01*
X13934467Y-15342936D02*
X13924944Y-15352460D01*
X13924944Y-15352460D02*
X13905896Y-15361984D01*
X13905896Y-15361984D02*
X13848753Y-15361984D01*
X13848753Y-15361984D02*
X13829706Y-15352460D01*
X13829706Y-15352460D02*
X13820182Y-15342936D01*
X14039229Y-15361984D02*
X14077325Y-15361984D01*
X14077325Y-15361984D02*
X14096372Y-15352460D01*
X14096372Y-15352460D02*
X14105896Y-15342936D01*
X14105896Y-15342936D02*
X14124944Y-15314365D01*
X14124944Y-15314365D02*
X14134467Y-15276269D01*
X14134467Y-15276269D02*
X14134467Y-15200079D01*
X14134467Y-15200079D02*
X14124944Y-15181031D01*
X14124944Y-15181031D02*
X14115420Y-15171508D01*
X14115420Y-15171508D02*
X14096372Y-15161984D01*
X14096372Y-15161984D02*
X14058277Y-15161984D01*
X14058277Y-15161984D02*
X14039229Y-15171508D01*
X14039229Y-15171508D02*
X14029706Y-15181031D01*
X14029706Y-15181031D02*
X14020182Y-15200079D01*
X14020182Y-15200079D02*
X14020182Y-15247698D01*
X14020182Y-15247698D02*
X14029706Y-15266746D01*
X14029706Y-15266746D02*
X14039229Y-15276269D01*
X14039229Y-15276269D02*
X14058277Y-15285793D01*
X14058277Y-15285793D02*
X14096372Y-15285793D01*
X14096372Y-15285793D02*
X14115420Y-15276269D01*
X14115420Y-15276269D02*
X14124944Y-15266746D01*
X14124944Y-15266746D02*
X14134467Y-15247698D01*
X14305896Y-15228650D02*
X14305896Y-15361984D01*
X14258277Y-15152460D02*
X14210658Y-15295317D01*
X14210658Y-15295317D02*
X14334467Y-15295317D01*
X14401134Y-15161984D02*
X14401134Y-15200079D01*
X14477325Y-15161984D02*
X14477325Y-15200079D01*
X14772563Y-15438174D02*
X14763039Y-15428650D01*
X14763039Y-15428650D02*
X14743991Y-15400079D01*
X14743991Y-15400079D02*
X14734468Y-15381031D01*
X14734468Y-15381031D02*
X14724944Y-15352460D01*
X14724944Y-15352460D02*
X14715420Y-15304841D01*
X14715420Y-15304841D02*
X14715420Y-15266746D01*
X14715420Y-15266746D02*
X14724944Y-15219127D01*
X14724944Y-15219127D02*
X14734468Y-15190555D01*
X14734468Y-15190555D02*
X14743991Y-15171508D01*
X14743991Y-15171508D02*
X14763039Y-15142936D01*
X14763039Y-15142936D02*
X14772563Y-15133412D01*
X14953515Y-15361984D02*
X14839229Y-15361984D01*
X14896372Y-15361984D02*
X14896372Y-15161984D01*
X14896372Y-15161984D02*
X14877325Y-15190555D01*
X14877325Y-15190555D02*
X14858277Y-15209603D01*
X14858277Y-15209603D02*
X14839229Y-15219127D01*
X15134468Y-15161984D02*
X15039229Y-15161984D01*
X15039229Y-15161984D02*
X15029706Y-15257222D01*
X15029706Y-15257222D02*
X15039229Y-15247698D01*
X15039229Y-15247698D02*
X15058277Y-15238174D01*
X15058277Y-15238174D02*
X15105896Y-15238174D01*
X15105896Y-15238174D02*
X15124944Y-15247698D01*
X15124944Y-15247698D02*
X15134468Y-15257222D01*
X15134468Y-15257222D02*
X15143991Y-15276269D01*
X15143991Y-15276269D02*
X15143991Y-15323888D01*
X15143991Y-15323888D02*
X15134468Y-15342936D01*
X15134468Y-15342936D02*
X15124944Y-15352460D01*
X15124944Y-15352460D02*
X15105896Y-15361984D01*
X15105896Y-15361984D02*
X15058277Y-15361984D01*
X15058277Y-15361984D02*
X15039229Y-15352460D01*
X15039229Y-15352460D02*
X15029706Y-15342936D01*
X15382087Y-15361984D02*
X15382087Y-15161984D01*
X15467801Y-15361984D02*
X15467801Y-15257222D01*
X15467801Y-15257222D02*
X15458277Y-15238174D01*
X15458277Y-15238174D02*
X15439230Y-15228650D01*
X15439230Y-15228650D02*
X15410658Y-15228650D01*
X15410658Y-15228650D02*
X15391610Y-15238174D01*
X15391610Y-15238174D02*
X15382087Y-15247698D01*
X15591610Y-15361984D02*
X15572563Y-15352460D01*
X15572563Y-15352460D02*
X15563039Y-15342936D01*
X15563039Y-15342936D02*
X15553515Y-15323888D01*
X15553515Y-15323888D02*
X15553515Y-15266746D01*
X15553515Y-15266746D02*
X15563039Y-15247698D01*
X15563039Y-15247698D02*
X15572563Y-15238174D01*
X15572563Y-15238174D02*
X15591610Y-15228650D01*
X15591610Y-15228650D02*
X15620182Y-15228650D01*
X15620182Y-15228650D02*
X15639230Y-15238174D01*
X15639230Y-15238174D02*
X15648753Y-15247698D01*
X15648753Y-15247698D02*
X15658277Y-15266746D01*
X15658277Y-15266746D02*
X15658277Y-15323888D01*
X15658277Y-15323888D02*
X15648753Y-15342936D01*
X15648753Y-15342936D02*
X15639230Y-15352460D01*
X15639230Y-15352460D02*
X15620182Y-15361984D01*
X15620182Y-15361984D02*
X15591610Y-15361984D01*
X15772563Y-15361984D02*
X15753515Y-15352460D01*
X15753515Y-15352460D02*
X15743991Y-15333412D01*
X15743991Y-15333412D02*
X15743991Y-15161984D01*
X15924944Y-15352460D02*
X15905896Y-15361984D01*
X15905896Y-15361984D02*
X15867801Y-15361984D01*
X15867801Y-15361984D02*
X15848753Y-15352460D01*
X15848753Y-15352460D02*
X15839230Y-15333412D01*
X15839230Y-15333412D02*
X15839230Y-15257222D01*
X15839230Y-15257222D02*
X15848753Y-15238174D01*
X15848753Y-15238174D02*
X15867801Y-15228650D01*
X15867801Y-15228650D02*
X15905896Y-15228650D01*
X15905896Y-15228650D02*
X15924944Y-15238174D01*
X15924944Y-15238174D02*
X15934468Y-15257222D01*
X15934468Y-15257222D02*
X15934468Y-15276269D01*
X15934468Y-15276269D02*
X15839230Y-15295317D01*
X16010658Y-15352460D02*
X16029706Y-15361984D01*
X16029706Y-15361984D02*
X16067801Y-15361984D01*
X16067801Y-15361984D02*
X16086849Y-15352460D01*
X16086849Y-15352460D02*
X16096372Y-15333412D01*
X16096372Y-15333412D02*
X16096372Y-15323888D01*
X16096372Y-15323888D02*
X16086849Y-15304841D01*
X16086849Y-15304841D02*
X16067801Y-15295317D01*
X16067801Y-15295317D02*
X16039230Y-15295317D01*
X16039230Y-15295317D02*
X16020182Y-15285793D01*
X16020182Y-15285793D02*
X16010658Y-15266746D01*
X16010658Y-15266746D02*
X16010658Y-15257222D01*
X16010658Y-15257222D02*
X16020182Y-15238174D01*
X16020182Y-15238174D02*
X16039230Y-15228650D01*
X16039230Y-15228650D02*
X16067801Y-15228650D01*
X16067801Y-15228650D02*
X16086849Y-15238174D01*
X16163039Y-15438174D02*
X16172563Y-15428650D01*
X16172563Y-15428650D02*
X16191611Y-15400079D01*
X16191611Y-15400079D02*
X16201134Y-15381031D01*
X16201134Y-15381031D02*
X16210658Y-15352460D01*
X16210658Y-15352460D02*
X16220182Y-15304841D01*
X16220182Y-15304841D02*
X16220182Y-15266746D01*
X16220182Y-15266746D02*
X16210658Y-15219127D01*
X16210658Y-15219127D02*
X16201134Y-15190555D01*
X16201134Y-15190555D02*
X16191611Y-15171508D01*
X16191611Y-15171508D02*
X16172563Y-15142936D01*
X16172563Y-15142936D02*
X16163039Y-15133412D01*
X11168211Y-15605211D02*
X11168211Y-15463789D01*
X11026789Y-15463789D01*
X11026789Y-15605211D01*
X11168211Y-15605211D01*
X11439229Y-15425984D02*
X11563039Y-15425984D01*
X11563039Y-15425984D02*
X11496372Y-15502174D01*
X11496372Y-15502174D02*
X11524943Y-15502174D01*
X11524943Y-15502174D02*
X11543991Y-15511698D01*
X11543991Y-15511698D02*
X11553515Y-15521222D01*
X11553515Y-15521222D02*
X11563039Y-15540269D01*
X11563039Y-15540269D02*
X11563039Y-15587888D01*
X11563039Y-15587888D02*
X11553515Y-15606936D01*
X11553515Y-15606936D02*
X11543991Y-15616460D01*
X11543991Y-15616460D02*
X11524943Y-15625984D01*
X11524943Y-15625984D02*
X11467801Y-15625984D01*
X11467801Y-15625984D02*
X11448753Y-15616460D01*
X11448753Y-15616460D02*
X11439229Y-15606936D01*
X11648753Y-15606936D02*
X11658277Y-15616460D01*
X11658277Y-15616460D02*
X11648753Y-15625984D01*
X11648753Y-15625984D02*
X11639229Y-15616460D01*
X11639229Y-15616460D02*
X11648753Y-15606936D01*
X11648753Y-15606936D02*
X11648753Y-15625984D01*
X11734467Y-15445031D02*
X11743991Y-15435508D01*
X11743991Y-15435508D02*
X11763039Y-15425984D01*
X11763039Y-15425984D02*
X11810658Y-15425984D01*
X11810658Y-15425984D02*
X11829705Y-15435508D01*
X11829705Y-15435508D02*
X11839229Y-15445031D01*
X11839229Y-15445031D02*
X11848753Y-15464079D01*
X11848753Y-15464079D02*
X11848753Y-15483127D01*
X11848753Y-15483127D02*
X11839229Y-15511698D01*
X11839229Y-15511698D02*
X11724943Y-15625984D01*
X11724943Y-15625984D02*
X11848753Y-15625984D01*
X11972562Y-15425984D02*
X11991610Y-15425984D01*
X11991610Y-15425984D02*
X12010658Y-15435508D01*
X12010658Y-15435508D02*
X12020182Y-15445031D01*
X12020182Y-15445031D02*
X12029705Y-15464079D01*
X12029705Y-15464079D02*
X12039229Y-15502174D01*
X12039229Y-15502174D02*
X12039229Y-15549793D01*
X12039229Y-15549793D02*
X12029705Y-15587888D01*
X12029705Y-15587888D02*
X12020182Y-15606936D01*
X12020182Y-15606936D02*
X12010658Y-15616460D01*
X12010658Y-15616460D02*
X11991610Y-15625984D01*
X11991610Y-15625984D02*
X11972562Y-15625984D01*
X11972562Y-15625984D02*
X11953515Y-15616460D01*
X11953515Y-15616460D02*
X11943991Y-15606936D01*
X11943991Y-15606936D02*
X11934467Y-15587888D01*
X11934467Y-15587888D02*
X11924943Y-15549793D01*
X11924943Y-15549793D02*
X11924943Y-15502174D01*
X11924943Y-15502174D02*
X11934467Y-15464079D01*
X11934467Y-15464079D02*
X11943991Y-15445031D01*
X11943991Y-15445031D02*
X11953515Y-15435508D01*
X11953515Y-15435508D02*
X11972562Y-15425984D01*
X12163039Y-15425984D02*
X12182086Y-15425984D01*
X12182086Y-15425984D02*
X12201134Y-15435508D01*
X12201134Y-15435508D02*
X12210658Y-15445031D01*
X12210658Y-15445031D02*
X12220182Y-15464079D01*
X12220182Y-15464079D02*
X12229705Y-15502174D01*
X12229705Y-15502174D02*
X12229705Y-15549793D01*
X12229705Y-15549793D02*
X12220182Y-15587888D01*
X12220182Y-15587888D02*
X12210658Y-15606936D01*
X12210658Y-15606936D02*
X12201134Y-15616460D01*
X12201134Y-15616460D02*
X12182086Y-15625984D01*
X12182086Y-15625984D02*
X12163039Y-15625984D01*
X12163039Y-15625984D02*
X12143991Y-15616460D01*
X12143991Y-15616460D02*
X12134467Y-15606936D01*
X12134467Y-15606936D02*
X12124943Y-15587888D01*
X12124943Y-15587888D02*
X12115420Y-15549793D01*
X12115420Y-15549793D02*
X12115420Y-15502174D01*
X12115420Y-15502174D02*
X12124943Y-15464079D01*
X12124943Y-15464079D02*
X12134467Y-15445031D01*
X12134467Y-15445031D02*
X12143991Y-15435508D01*
X12143991Y-15435508D02*
X12163039Y-15425984D01*
X12315420Y-15625984D02*
X12315420Y-15492650D01*
X12315420Y-15511698D02*
X12324943Y-15502174D01*
X12324943Y-15502174D02*
X12343991Y-15492650D01*
X12343991Y-15492650D02*
X12372563Y-15492650D01*
X12372563Y-15492650D02*
X12391610Y-15502174D01*
X12391610Y-15502174D02*
X12401134Y-15521222D01*
X12401134Y-15521222D02*
X12401134Y-15625984D01*
X12401134Y-15521222D02*
X12410658Y-15502174D01*
X12410658Y-15502174D02*
X12429705Y-15492650D01*
X12429705Y-15492650D02*
X12458277Y-15492650D01*
X12458277Y-15492650D02*
X12477324Y-15502174D01*
X12477324Y-15502174D02*
X12486848Y-15521222D01*
X12486848Y-15521222D02*
X12486848Y-15625984D01*
X12582086Y-15625984D02*
X12582086Y-15492650D01*
X12582086Y-15511698D02*
X12591610Y-15502174D01*
X12591610Y-15502174D02*
X12610658Y-15492650D01*
X12610658Y-15492650D02*
X12639229Y-15492650D01*
X12639229Y-15492650D02*
X12658277Y-15502174D01*
X12658277Y-15502174D02*
X12667801Y-15521222D01*
X12667801Y-15521222D02*
X12667801Y-15625984D01*
X12667801Y-15521222D02*
X12677324Y-15502174D01*
X12677324Y-15502174D02*
X12696372Y-15492650D01*
X12696372Y-15492650D02*
X12724943Y-15492650D01*
X12724943Y-15492650D02*
X12743991Y-15502174D01*
X12743991Y-15502174D02*
X12753515Y-15521222D01*
X12753515Y-15521222D02*
X12753515Y-15625984D01*
X13143991Y-15416460D02*
X12972563Y-15673603D01*
X13401134Y-15425984D02*
X13420182Y-15425984D01*
X13420182Y-15425984D02*
X13439229Y-15435508D01*
X13439229Y-15435508D02*
X13448753Y-15445031D01*
X13448753Y-15445031D02*
X13458277Y-15464079D01*
X13458277Y-15464079D02*
X13467801Y-15502174D01*
X13467801Y-15502174D02*
X13467801Y-15549793D01*
X13467801Y-15549793D02*
X13458277Y-15587888D01*
X13458277Y-15587888D02*
X13448753Y-15606936D01*
X13448753Y-15606936D02*
X13439229Y-15616460D01*
X13439229Y-15616460D02*
X13420182Y-15625984D01*
X13420182Y-15625984D02*
X13401134Y-15625984D01*
X13401134Y-15625984D02*
X13382086Y-15616460D01*
X13382086Y-15616460D02*
X13372563Y-15606936D01*
X13372563Y-15606936D02*
X13363039Y-15587888D01*
X13363039Y-15587888D02*
X13353515Y-15549793D01*
X13353515Y-15549793D02*
X13353515Y-15502174D01*
X13353515Y-15502174D02*
X13363039Y-15464079D01*
X13363039Y-15464079D02*
X13372563Y-15445031D01*
X13372563Y-15445031D02*
X13382086Y-15435508D01*
X13382086Y-15435508D02*
X13401134Y-15425984D01*
X13553515Y-15606936D02*
X13563039Y-15616460D01*
X13563039Y-15616460D02*
X13553515Y-15625984D01*
X13553515Y-15625984D02*
X13543991Y-15616460D01*
X13543991Y-15616460D02*
X13553515Y-15606936D01*
X13553515Y-15606936D02*
X13553515Y-15625984D01*
X13753515Y-15625984D02*
X13639229Y-15625984D01*
X13696372Y-15625984D02*
X13696372Y-15425984D01*
X13696372Y-15425984D02*
X13677325Y-15454555D01*
X13677325Y-15454555D02*
X13658277Y-15473603D01*
X13658277Y-15473603D02*
X13639229Y-15483127D01*
X13829706Y-15445031D02*
X13839229Y-15435508D01*
X13839229Y-15435508D02*
X13858277Y-15425984D01*
X13858277Y-15425984D02*
X13905896Y-15425984D01*
X13905896Y-15425984D02*
X13924944Y-15435508D01*
X13924944Y-15435508D02*
X13934467Y-15445031D01*
X13934467Y-15445031D02*
X13943991Y-15464079D01*
X13943991Y-15464079D02*
X13943991Y-15483127D01*
X13943991Y-15483127D02*
X13934467Y-15511698D01*
X13934467Y-15511698D02*
X13820182Y-15625984D01*
X13820182Y-15625984D02*
X13943991Y-15625984D01*
X14115420Y-15425984D02*
X14077325Y-15425984D01*
X14077325Y-15425984D02*
X14058277Y-15435508D01*
X14058277Y-15435508D02*
X14048753Y-15445031D01*
X14048753Y-15445031D02*
X14029706Y-15473603D01*
X14029706Y-15473603D02*
X14020182Y-15511698D01*
X14020182Y-15511698D02*
X14020182Y-15587888D01*
X14020182Y-15587888D02*
X14029706Y-15606936D01*
X14029706Y-15606936D02*
X14039229Y-15616460D01*
X14039229Y-15616460D02*
X14058277Y-15625984D01*
X14058277Y-15625984D02*
X14096372Y-15625984D01*
X14096372Y-15625984D02*
X14115420Y-15616460D01*
X14115420Y-15616460D02*
X14124944Y-15606936D01*
X14124944Y-15606936D02*
X14134467Y-15587888D01*
X14134467Y-15587888D02*
X14134467Y-15540269D01*
X14134467Y-15540269D02*
X14124944Y-15521222D01*
X14124944Y-15521222D02*
X14115420Y-15511698D01*
X14115420Y-15511698D02*
X14096372Y-15502174D01*
X14096372Y-15502174D02*
X14058277Y-15502174D01*
X14058277Y-15502174D02*
X14039229Y-15511698D01*
X14039229Y-15511698D02*
X14029706Y-15521222D01*
X14029706Y-15521222D02*
X14020182Y-15540269D01*
X14258277Y-15425984D02*
X14277325Y-15425984D01*
X14277325Y-15425984D02*
X14296372Y-15435508D01*
X14296372Y-15435508D02*
X14305896Y-15445031D01*
X14305896Y-15445031D02*
X14315420Y-15464079D01*
X14315420Y-15464079D02*
X14324944Y-15502174D01*
X14324944Y-15502174D02*
X14324944Y-15549793D01*
X14324944Y-15549793D02*
X14315420Y-15587888D01*
X14315420Y-15587888D02*
X14305896Y-15606936D01*
X14305896Y-15606936D02*
X14296372Y-15616460D01*
X14296372Y-15616460D02*
X14277325Y-15625984D01*
X14277325Y-15625984D02*
X14258277Y-15625984D01*
X14258277Y-15625984D02*
X14239229Y-15616460D01*
X14239229Y-15616460D02*
X14229706Y-15606936D01*
X14229706Y-15606936D02*
X14220182Y-15587888D01*
X14220182Y-15587888D02*
X14210658Y-15549793D01*
X14210658Y-15549793D02*
X14210658Y-15502174D01*
X14210658Y-15502174D02*
X14220182Y-15464079D01*
X14220182Y-15464079D02*
X14229706Y-15445031D01*
X14229706Y-15445031D02*
X14239229Y-15435508D01*
X14239229Y-15435508D02*
X14258277Y-15425984D01*
X14401134Y-15425984D02*
X14401134Y-15464079D01*
X14477325Y-15425984D02*
X14477325Y-15464079D01*
X14772563Y-15702174D02*
X14763039Y-15692650D01*
X14763039Y-15692650D02*
X14743991Y-15664079D01*
X14743991Y-15664079D02*
X14734468Y-15645031D01*
X14734468Y-15645031D02*
X14724944Y-15616460D01*
X14724944Y-15616460D02*
X14715420Y-15568841D01*
X14715420Y-15568841D02*
X14715420Y-15530746D01*
X14715420Y-15530746D02*
X14724944Y-15483127D01*
X14724944Y-15483127D02*
X14734468Y-15454555D01*
X14734468Y-15454555D02*
X14743991Y-15435508D01*
X14743991Y-15435508D02*
X14763039Y-15406936D01*
X14763039Y-15406936D02*
X14772563Y-15397412D01*
X14934468Y-15492650D02*
X14934468Y-15625984D01*
X14886848Y-15416460D02*
X14839229Y-15559317D01*
X14839229Y-15559317D02*
X14963039Y-15559317D01*
X15191610Y-15625984D02*
X15191610Y-15425984D01*
X15277325Y-15625984D02*
X15277325Y-15521222D01*
X15277325Y-15521222D02*
X15267801Y-15502174D01*
X15267801Y-15502174D02*
X15248753Y-15492650D01*
X15248753Y-15492650D02*
X15220182Y-15492650D01*
X15220182Y-15492650D02*
X15201134Y-15502174D01*
X15201134Y-15502174D02*
X15191610Y-15511698D01*
X15401134Y-15625984D02*
X15382087Y-15616460D01*
X15382087Y-15616460D02*
X15372563Y-15606936D01*
X15372563Y-15606936D02*
X15363039Y-15587888D01*
X15363039Y-15587888D02*
X15363039Y-15530746D01*
X15363039Y-15530746D02*
X15372563Y-15511698D01*
X15372563Y-15511698D02*
X15382087Y-15502174D01*
X15382087Y-15502174D02*
X15401134Y-15492650D01*
X15401134Y-15492650D02*
X15429706Y-15492650D01*
X15429706Y-15492650D02*
X15448753Y-15502174D01*
X15448753Y-15502174D02*
X15458277Y-15511698D01*
X15458277Y-15511698D02*
X15467801Y-15530746D01*
X15467801Y-15530746D02*
X15467801Y-15587888D01*
X15467801Y-15587888D02*
X15458277Y-15606936D01*
X15458277Y-15606936D02*
X15448753Y-15616460D01*
X15448753Y-15616460D02*
X15429706Y-15625984D01*
X15429706Y-15625984D02*
X15401134Y-15625984D01*
X15582087Y-15625984D02*
X15563039Y-15616460D01*
X15563039Y-15616460D02*
X15553515Y-15597412D01*
X15553515Y-15597412D02*
X15553515Y-15425984D01*
X15734468Y-15616460D02*
X15715420Y-15625984D01*
X15715420Y-15625984D02*
X15677325Y-15625984D01*
X15677325Y-15625984D02*
X15658277Y-15616460D01*
X15658277Y-15616460D02*
X15648753Y-15597412D01*
X15648753Y-15597412D02*
X15648753Y-15521222D01*
X15648753Y-15521222D02*
X15658277Y-15502174D01*
X15658277Y-15502174D02*
X15677325Y-15492650D01*
X15677325Y-15492650D02*
X15715420Y-15492650D01*
X15715420Y-15492650D02*
X15734468Y-15502174D01*
X15734468Y-15502174D02*
X15743991Y-15521222D01*
X15743991Y-15521222D02*
X15743991Y-15540269D01*
X15743991Y-15540269D02*
X15648753Y-15559317D01*
X15820182Y-15616460D02*
X15839230Y-15625984D01*
X15839230Y-15625984D02*
X15877325Y-15625984D01*
X15877325Y-15625984D02*
X15896372Y-15616460D01*
X15896372Y-15616460D02*
X15905896Y-15597412D01*
X15905896Y-15597412D02*
X15905896Y-15587888D01*
X15905896Y-15587888D02*
X15896372Y-15568841D01*
X15896372Y-15568841D02*
X15877325Y-15559317D01*
X15877325Y-15559317D02*
X15848753Y-15559317D01*
X15848753Y-15559317D02*
X15829706Y-15549793D01*
X15829706Y-15549793D02*
X15820182Y-15530746D01*
X15820182Y-15530746D02*
X15820182Y-15521222D01*
X15820182Y-15521222D02*
X15829706Y-15502174D01*
X15829706Y-15502174D02*
X15848753Y-15492650D01*
X15848753Y-15492650D02*
X15877325Y-15492650D01*
X15877325Y-15492650D02*
X15896372Y-15502174D01*
X15972563Y-15702174D02*
X15982087Y-15692650D01*
X15982087Y-15692650D02*
X16001134Y-15664079D01*
X16001134Y-15664079D02*
X16010658Y-15645031D01*
X16010658Y-15645031D02*
X16020182Y-15616460D01*
X16020182Y-15616460D02*
X16029706Y-15568841D01*
X16029706Y-15568841D02*
X16029706Y-15530746D01*
X16029706Y-15530746D02*
X16020182Y-15483127D01*
X16020182Y-15483127D02*
X16010658Y-15454555D01*
X16010658Y-15454555D02*
X16001134Y-15435508D01*
X16001134Y-15435508D02*
X15982087Y-15406936D01*
X15982087Y-15406936D02*
X15972563Y-15397412D01*
X11097500Y-15954500D02*
X11197500Y-15854500D01*
X11097500Y-15754500D01*
X10997500Y-15854500D01*
X11097500Y-15954500D01*
X11543991Y-15745984D02*
X11505896Y-15745984D01*
X11505896Y-15745984D02*
X11486848Y-15755508D01*
X11486848Y-15755508D02*
X11477324Y-15765031D01*
X11477324Y-15765031D02*
X11458277Y-15793603D01*
X11458277Y-15793603D02*
X11448753Y-15831698D01*
X11448753Y-15831698D02*
X11448753Y-15907888D01*
X11448753Y-15907888D02*
X11458277Y-15926936D01*
X11458277Y-15926936D02*
X11467801Y-15936460D01*
X11467801Y-15936460D02*
X11486848Y-15945984D01*
X11486848Y-15945984D02*
X11524943Y-15945984D01*
X11524943Y-15945984D02*
X11543991Y-15936460D01*
X11543991Y-15936460D02*
X11553515Y-15926936D01*
X11553515Y-15926936D02*
X11563039Y-15907888D01*
X11563039Y-15907888D02*
X11563039Y-15860269D01*
X11563039Y-15860269D02*
X11553515Y-15841222D01*
X11553515Y-15841222D02*
X11543991Y-15831698D01*
X11543991Y-15831698D02*
X11524943Y-15822174D01*
X11524943Y-15822174D02*
X11486848Y-15822174D01*
X11486848Y-15822174D02*
X11467801Y-15831698D01*
X11467801Y-15831698D02*
X11458277Y-15841222D01*
X11458277Y-15841222D02*
X11448753Y-15860269D01*
X11648753Y-15926936D02*
X11658277Y-15936460D01*
X11658277Y-15936460D02*
X11648753Y-15945984D01*
X11648753Y-15945984D02*
X11639229Y-15936460D01*
X11639229Y-15936460D02*
X11648753Y-15926936D01*
X11648753Y-15926936D02*
X11648753Y-15945984D01*
X11782086Y-15745984D02*
X11801134Y-15745984D01*
X11801134Y-15745984D02*
X11820182Y-15755508D01*
X11820182Y-15755508D02*
X11829705Y-15765031D01*
X11829705Y-15765031D02*
X11839229Y-15784079D01*
X11839229Y-15784079D02*
X11848753Y-15822174D01*
X11848753Y-15822174D02*
X11848753Y-15869793D01*
X11848753Y-15869793D02*
X11839229Y-15907888D01*
X11839229Y-15907888D02*
X11829705Y-15926936D01*
X11829705Y-15926936D02*
X11820182Y-15936460D01*
X11820182Y-15936460D02*
X11801134Y-15945984D01*
X11801134Y-15945984D02*
X11782086Y-15945984D01*
X11782086Y-15945984D02*
X11763039Y-15936460D01*
X11763039Y-15936460D02*
X11753515Y-15926936D01*
X11753515Y-15926936D02*
X11743991Y-15907888D01*
X11743991Y-15907888D02*
X11734467Y-15869793D01*
X11734467Y-15869793D02*
X11734467Y-15822174D01*
X11734467Y-15822174D02*
X11743991Y-15784079D01*
X11743991Y-15784079D02*
X11753515Y-15765031D01*
X11753515Y-15765031D02*
X11763039Y-15755508D01*
X11763039Y-15755508D02*
X11782086Y-15745984D01*
X11972562Y-15745984D02*
X11991610Y-15745984D01*
X11991610Y-15745984D02*
X12010658Y-15755508D01*
X12010658Y-15755508D02*
X12020182Y-15765031D01*
X12020182Y-15765031D02*
X12029705Y-15784079D01*
X12029705Y-15784079D02*
X12039229Y-15822174D01*
X12039229Y-15822174D02*
X12039229Y-15869793D01*
X12039229Y-15869793D02*
X12029705Y-15907888D01*
X12029705Y-15907888D02*
X12020182Y-15926936D01*
X12020182Y-15926936D02*
X12010658Y-15936460D01*
X12010658Y-15936460D02*
X11991610Y-15945984D01*
X11991610Y-15945984D02*
X11972562Y-15945984D01*
X11972562Y-15945984D02*
X11953515Y-15936460D01*
X11953515Y-15936460D02*
X11943991Y-15926936D01*
X11943991Y-15926936D02*
X11934467Y-15907888D01*
X11934467Y-15907888D02*
X11924943Y-15869793D01*
X11924943Y-15869793D02*
X11924943Y-15822174D01*
X11924943Y-15822174D02*
X11934467Y-15784079D01*
X11934467Y-15784079D02*
X11943991Y-15765031D01*
X11943991Y-15765031D02*
X11953515Y-15755508D01*
X11953515Y-15755508D02*
X11972562Y-15745984D01*
X12163039Y-15745984D02*
X12182086Y-15745984D01*
X12182086Y-15745984D02*
X12201134Y-15755508D01*
X12201134Y-15755508D02*
X12210658Y-15765031D01*
X12210658Y-15765031D02*
X12220182Y-15784079D01*
X12220182Y-15784079D02*
X12229705Y-15822174D01*
X12229705Y-15822174D02*
X12229705Y-15869793D01*
X12229705Y-15869793D02*
X12220182Y-15907888D01*
X12220182Y-15907888D02*
X12210658Y-15926936D01*
X12210658Y-15926936D02*
X12201134Y-15936460D01*
X12201134Y-15936460D02*
X12182086Y-15945984D01*
X12182086Y-15945984D02*
X12163039Y-15945984D01*
X12163039Y-15945984D02*
X12143991Y-15936460D01*
X12143991Y-15936460D02*
X12134467Y-15926936D01*
X12134467Y-15926936D02*
X12124943Y-15907888D01*
X12124943Y-15907888D02*
X12115420Y-15869793D01*
X12115420Y-15869793D02*
X12115420Y-15822174D01*
X12115420Y-15822174D02*
X12124943Y-15784079D01*
X12124943Y-15784079D02*
X12134467Y-15765031D01*
X12134467Y-15765031D02*
X12143991Y-15755508D01*
X12143991Y-15755508D02*
X12163039Y-15745984D01*
X12315420Y-15945984D02*
X12315420Y-15812650D01*
X12315420Y-15831698D02*
X12324943Y-15822174D01*
X12324943Y-15822174D02*
X12343991Y-15812650D01*
X12343991Y-15812650D02*
X12372563Y-15812650D01*
X12372563Y-15812650D02*
X12391610Y-15822174D01*
X12391610Y-15822174D02*
X12401134Y-15841222D01*
X12401134Y-15841222D02*
X12401134Y-15945984D01*
X12401134Y-15841222D02*
X12410658Y-15822174D01*
X12410658Y-15822174D02*
X12429705Y-15812650D01*
X12429705Y-15812650D02*
X12458277Y-15812650D01*
X12458277Y-15812650D02*
X12477324Y-15822174D01*
X12477324Y-15822174D02*
X12486848Y-15841222D01*
X12486848Y-15841222D02*
X12486848Y-15945984D01*
X12582086Y-15945984D02*
X12582086Y-15812650D01*
X12582086Y-15831698D02*
X12591610Y-15822174D01*
X12591610Y-15822174D02*
X12610658Y-15812650D01*
X12610658Y-15812650D02*
X12639229Y-15812650D01*
X12639229Y-15812650D02*
X12658277Y-15822174D01*
X12658277Y-15822174D02*
X12667801Y-15841222D01*
X12667801Y-15841222D02*
X12667801Y-15945984D01*
X12667801Y-15841222D02*
X12677324Y-15822174D01*
X12677324Y-15822174D02*
X12696372Y-15812650D01*
X12696372Y-15812650D02*
X12724943Y-15812650D01*
X12724943Y-15812650D02*
X12743991Y-15822174D01*
X12743991Y-15822174D02*
X12753515Y-15841222D01*
X12753515Y-15841222D02*
X12753515Y-15945984D01*
X13143991Y-15736460D02*
X12972563Y-15993603D01*
X13401134Y-15745984D02*
X13420182Y-15745984D01*
X13420182Y-15745984D02*
X13439229Y-15755508D01*
X13439229Y-15755508D02*
X13448753Y-15765031D01*
X13448753Y-15765031D02*
X13458277Y-15784079D01*
X13458277Y-15784079D02*
X13467801Y-15822174D01*
X13467801Y-15822174D02*
X13467801Y-15869793D01*
X13467801Y-15869793D02*
X13458277Y-15907888D01*
X13458277Y-15907888D02*
X13448753Y-15926936D01*
X13448753Y-15926936D02*
X13439229Y-15936460D01*
X13439229Y-15936460D02*
X13420182Y-15945984D01*
X13420182Y-15945984D02*
X13401134Y-15945984D01*
X13401134Y-15945984D02*
X13382086Y-15936460D01*
X13382086Y-15936460D02*
X13372563Y-15926936D01*
X13372563Y-15926936D02*
X13363039Y-15907888D01*
X13363039Y-15907888D02*
X13353515Y-15869793D01*
X13353515Y-15869793D02*
X13353515Y-15822174D01*
X13353515Y-15822174D02*
X13363039Y-15784079D01*
X13363039Y-15784079D02*
X13372563Y-15765031D01*
X13372563Y-15765031D02*
X13382086Y-15755508D01*
X13382086Y-15755508D02*
X13401134Y-15745984D01*
X13553515Y-15926936D02*
X13563039Y-15936460D01*
X13563039Y-15936460D02*
X13553515Y-15945984D01*
X13553515Y-15945984D02*
X13543991Y-15936460D01*
X13543991Y-15936460D02*
X13553515Y-15926936D01*
X13553515Y-15926936D02*
X13553515Y-15945984D01*
X13639229Y-15765031D02*
X13648753Y-15755508D01*
X13648753Y-15755508D02*
X13667801Y-15745984D01*
X13667801Y-15745984D02*
X13715420Y-15745984D01*
X13715420Y-15745984D02*
X13734467Y-15755508D01*
X13734467Y-15755508D02*
X13743991Y-15765031D01*
X13743991Y-15765031D02*
X13753515Y-15784079D01*
X13753515Y-15784079D02*
X13753515Y-15803127D01*
X13753515Y-15803127D02*
X13743991Y-15831698D01*
X13743991Y-15831698D02*
X13629706Y-15945984D01*
X13629706Y-15945984D02*
X13753515Y-15945984D01*
X13820182Y-15745984D02*
X13943991Y-15745984D01*
X13943991Y-15745984D02*
X13877325Y-15822174D01*
X13877325Y-15822174D02*
X13905896Y-15822174D01*
X13905896Y-15822174D02*
X13924944Y-15831698D01*
X13924944Y-15831698D02*
X13934467Y-15841222D01*
X13934467Y-15841222D02*
X13943991Y-15860269D01*
X13943991Y-15860269D02*
X13943991Y-15907888D01*
X13943991Y-15907888D02*
X13934467Y-15926936D01*
X13934467Y-15926936D02*
X13924944Y-15936460D01*
X13924944Y-15936460D02*
X13905896Y-15945984D01*
X13905896Y-15945984D02*
X13848753Y-15945984D01*
X13848753Y-15945984D02*
X13829706Y-15936460D01*
X13829706Y-15936460D02*
X13820182Y-15926936D01*
X14115420Y-15745984D02*
X14077325Y-15745984D01*
X14077325Y-15745984D02*
X14058277Y-15755508D01*
X14058277Y-15755508D02*
X14048753Y-15765031D01*
X14048753Y-15765031D02*
X14029706Y-15793603D01*
X14029706Y-15793603D02*
X14020182Y-15831698D01*
X14020182Y-15831698D02*
X14020182Y-15907888D01*
X14020182Y-15907888D02*
X14029706Y-15926936D01*
X14029706Y-15926936D02*
X14039229Y-15936460D01*
X14039229Y-15936460D02*
X14058277Y-15945984D01*
X14058277Y-15945984D02*
X14096372Y-15945984D01*
X14096372Y-15945984D02*
X14115420Y-15936460D01*
X14115420Y-15936460D02*
X14124944Y-15926936D01*
X14124944Y-15926936D02*
X14134467Y-15907888D01*
X14134467Y-15907888D02*
X14134467Y-15860269D01*
X14134467Y-15860269D02*
X14124944Y-15841222D01*
X14124944Y-15841222D02*
X14115420Y-15831698D01*
X14115420Y-15831698D02*
X14096372Y-15822174D01*
X14096372Y-15822174D02*
X14058277Y-15822174D01*
X14058277Y-15822174D02*
X14039229Y-15831698D01*
X14039229Y-15831698D02*
X14029706Y-15841222D01*
X14029706Y-15841222D02*
X14020182Y-15860269D01*
X14210658Y-15765031D02*
X14220182Y-15755508D01*
X14220182Y-15755508D02*
X14239229Y-15745984D01*
X14239229Y-15745984D02*
X14286848Y-15745984D01*
X14286848Y-15745984D02*
X14305896Y-15755508D01*
X14305896Y-15755508D02*
X14315420Y-15765031D01*
X14315420Y-15765031D02*
X14324944Y-15784079D01*
X14324944Y-15784079D02*
X14324944Y-15803127D01*
X14324944Y-15803127D02*
X14315420Y-15831698D01*
X14315420Y-15831698D02*
X14201134Y-15945984D01*
X14201134Y-15945984D02*
X14324944Y-15945984D01*
X14401134Y-15745984D02*
X14401134Y-15784079D01*
X14477325Y-15745984D02*
X14477325Y-15784079D01*
X14772563Y-16022174D02*
X14763039Y-16012650D01*
X14763039Y-16012650D02*
X14743991Y-15984079D01*
X14743991Y-15984079D02*
X14734468Y-15965031D01*
X14734468Y-15965031D02*
X14724944Y-15936460D01*
X14724944Y-15936460D02*
X14715420Y-15888841D01*
X14715420Y-15888841D02*
X14715420Y-15850746D01*
X14715420Y-15850746D02*
X14724944Y-15803127D01*
X14724944Y-15803127D02*
X14734468Y-15774555D01*
X14734468Y-15774555D02*
X14743991Y-15755508D01*
X14743991Y-15755508D02*
X14763039Y-15726936D01*
X14763039Y-15726936D02*
X14772563Y-15717412D01*
X14953515Y-15945984D02*
X14839229Y-15945984D01*
X14896372Y-15945984D02*
X14896372Y-15745984D01*
X14896372Y-15745984D02*
X14877325Y-15774555D01*
X14877325Y-15774555D02*
X14858277Y-15793603D01*
X14858277Y-15793603D02*
X14839229Y-15803127D01*
X15191610Y-15945984D02*
X15191610Y-15745984D01*
X15277325Y-15945984D02*
X15277325Y-15841222D01*
X15277325Y-15841222D02*
X15267801Y-15822174D01*
X15267801Y-15822174D02*
X15248753Y-15812650D01*
X15248753Y-15812650D02*
X15220182Y-15812650D01*
X15220182Y-15812650D02*
X15201134Y-15822174D01*
X15201134Y-15822174D02*
X15191610Y-15831698D01*
X15401134Y-15945984D02*
X15382087Y-15936460D01*
X15382087Y-15936460D02*
X15372563Y-15926936D01*
X15372563Y-15926936D02*
X15363039Y-15907888D01*
X15363039Y-15907888D02*
X15363039Y-15850746D01*
X15363039Y-15850746D02*
X15372563Y-15831698D01*
X15372563Y-15831698D02*
X15382087Y-15822174D01*
X15382087Y-15822174D02*
X15401134Y-15812650D01*
X15401134Y-15812650D02*
X15429706Y-15812650D01*
X15429706Y-15812650D02*
X15448753Y-15822174D01*
X15448753Y-15822174D02*
X15458277Y-15831698D01*
X15458277Y-15831698D02*
X15467801Y-15850746D01*
X15467801Y-15850746D02*
X15467801Y-15907888D01*
X15467801Y-15907888D02*
X15458277Y-15926936D01*
X15458277Y-15926936D02*
X15448753Y-15936460D01*
X15448753Y-15936460D02*
X15429706Y-15945984D01*
X15429706Y-15945984D02*
X15401134Y-15945984D01*
X15582087Y-15945984D02*
X15563039Y-15936460D01*
X15563039Y-15936460D02*
X15553515Y-15917412D01*
X15553515Y-15917412D02*
X15553515Y-15745984D01*
X15734468Y-15936460D02*
X15715420Y-15945984D01*
X15715420Y-15945984D02*
X15677325Y-15945984D01*
X15677325Y-15945984D02*
X15658277Y-15936460D01*
X15658277Y-15936460D02*
X15648753Y-15917412D01*
X15648753Y-15917412D02*
X15648753Y-15841222D01*
X15648753Y-15841222D02*
X15658277Y-15822174D01*
X15658277Y-15822174D02*
X15677325Y-15812650D01*
X15677325Y-15812650D02*
X15715420Y-15812650D01*
X15715420Y-15812650D02*
X15734468Y-15822174D01*
X15734468Y-15822174D02*
X15743991Y-15841222D01*
X15743991Y-15841222D02*
X15743991Y-15860269D01*
X15743991Y-15860269D02*
X15648753Y-15879317D01*
X15810658Y-16022174D02*
X15820182Y-16012650D01*
X15820182Y-16012650D02*
X15839230Y-15984079D01*
X15839230Y-15984079D02*
X15848753Y-15965031D01*
X15848753Y-15965031D02*
X15858277Y-15936460D01*
X15858277Y-15936460D02*
X15867801Y-15888841D01*
X15867801Y-15888841D02*
X15867801Y-15850746D01*
X15867801Y-15850746D02*
X15858277Y-15803127D01*
X15858277Y-15803127D02*
X15848753Y-15774555D01*
X15848753Y-15774555D02*
X15839230Y-15755508D01*
X15839230Y-15755508D02*
X15820182Y-15726936D01*
X15820182Y-15726936D02*
X15810658Y-15717412D01*
M02*
