M48
; DRILL file {KiCad 9.0.8-1.fc42} date 2026-04-08T13:35:32+0200
; FORMAT={-:-/ absolute / metric / decimal}
; #@! TF.CreationDate,2026-04-08T13:35:32+02:00
; #@! TF.GenerationSoftware,Kicad,Pcbnew,9.0.8-1.fc42
; #@! TF.FileFunction,Plated,1,2,PTH
FMAT,2
METRIC
; #@! TA.AperFunction,Plated,PTH,ViaDrill
T1C0.300
; #@! TA.AperFunction,Plated,PTH,ComponentDrill
T2C0.800
; #@! TA.AperFunction,Plated,PTH,ComponentDrill
T3C1.000
; #@! TA.AperFunction,Plated,PTH,ComponentDrill
T4C3.200
; #@! TA.AperFunction,Plated,PTH,ComponentDrill
T5C6.000
%
G90
G05
T1
X113.0Y-100.5
X115.25Y-75.5
X115.25Y-126.25
X115.75Y-117.0
X116.0Y-88.75
X118.25Y-96.75
X120.5Y-113.75
X121.5Y-115.0
X121.75Y-111.5
X122.0Y-96.75
X123.0Y-112.75
X125.75Y-96.75
X128.25Y-118.0
X129.25Y-116.75
X133.5Y-117.25
X136.0Y-118.5
X200.4Y-117.29
X200.4Y-119.79
X202.0Y-127.25
X205.25Y-124.25
X205.25Y-125.5
T2
X201.96Y-107.75
X204.5Y-107.75
T3
X115.0Y-98.46
X115.0Y-101.0
X115.0Y-103.5
X115.0Y-106.04
X115.0Y-108.58
X118.92Y-127.5
X121.46Y-127.5
X123.5Y-69.46
X123.5Y-72.0
X123.5Y-74.5
X123.5Y-77.04
X123.5Y-79.58
X123.5Y-82.12
X123.5Y-84.66
X124.0Y-127.5
T4
X117.0Y-71.0
X117.0Y-136.0
X202.0Y-71.0
X202.0Y-136.0
T5
X195.0Y-98.0
M30
