G04 #@! TF.GenerationSoftware,KiCad,Pcbnew,9.0.8-1.fc42*
G04 #@! TF.CreationDate,2026-04-08T13:35:32+02:00*
G04 #@! TF.ProjectId,atmosphere,61746d6f-7370-4686-9572-652e6b696361,rev?*
G04 #@! TF.SameCoordinates,Original*
G04 #@! TF.FileFunction,Paste,Top*
G04 #@! TF.FilePolarity,Positive*
%FSLAX46Y46*%
G04 Gerber Fmt 4.6, Leading zero omitted, Abs format (unit mm)*
G04 Created by KiCad (PCBNEW 9.0.8-1.fc42) date 2026-04-08 13:35:32*
%MOMM*%
%LPD*%
G01*
G04 APERTURE LIST*
G04 Aperture macros list*
%AMRoundRect*
0 Rectangle with rounded corners*
0 $1 Rounding radius*
0 $2 $3 $4 $5 $6 $7 $8 $9 X,Y pos of 4 corners*
0 Add a 4 corners polygon primitive as box body*
4,1,4,$2,$3,$4,$5,$6,$7,$8,$9,$2,$3,0*
0 Add four circle primitives for the rounded corners*
1,1,$1+$1,$2,$3*
1,1,$1+$1,$4,$5*
1,1,$1+$1,$6,$7*
1,1,$1+$1,$8,$9*
0 Add four rect primitives between the rounded corners*
20,1,$1+$1,$2,$3,$4,$5,0*
20,1,$1+$1,$4,$5,$6,$7,0*
20,1,$1+$1,$6,$7,$8,$9,0*
20,1,$1+$1,$8,$9,$2,$3,0*%
G04 Aperture macros list end*
%ADD10RoundRect,0.142500X-0.357500X0.332500X-0.357500X-0.332500X0.357500X-0.332500X0.357500X0.332500X0*%
%ADD11RoundRect,0.090000X0.210000X-0.947500X0.210000X0.947500X-0.210000X0.947500X-0.210000X-0.947500X0*%
%ADD12RoundRect,0.088500X0.206500X-0.949000X0.206500X0.949000X-0.206500X0.949000X-0.206500X-0.949000X0*%
%ADD13RoundRect,0.091500X0.213500X-0.946000X0.213500X0.946000X-0.213500X0.946000X-0.213500X-0.946000X0*%
%ADD14RoundRect,0.082500X-0.192500X-0.667500X0.192500X-0.667500X0.192500X0.667500X-0.192500X0.667500X0*%
%ADD15R,0.350000X0.350000*%
%ADD16RoundRect,0.142500X0.357500X-0.332500X0.357500X0.332500X-0.357500X0.332500X-0.357500X-0.332500X0*%
%ADD17RoundRect,0.142500X0.332500X0.357500X-0.332500X0.357500X-0.332500X-0.357500X0.332500X-0.357500X0*%
%ADD18RoundRect,0.142500X-0.332500X-0.357500X0.332500X-0.357500X0.332500X0.357500X-0.332500X0.357500X0*%
%ADD19C,6.000000*%
G04 APERTURE END LIST*
D10*
G04 #@! TO.C,C31*
X115250000Y-77000000D03*
X115250000Y-78600000D03*
G04 #@! TD*
D11*
G04 #@! TO.C,U7*
X117550000Y-122950000D03*
X118820000Y-122950000D03*
X120090000Y-122950000D03*
D12*
X121355000Y-122950000D03*
D11*
X122620000Y-122950000D03*
X123890000Y-122950000D03*
D12*
X125155000Y-122950000D03*
D11*
X125160000Y-117025000D03*
X123890000Y-117025000D03*
X122620000Y-117025000D03*
X121350000Y-117025000D03*
X120080000Y-117025000D03*
X118810000Y-117025000D03*
D13*
X117545000Y-117025000D03*
G04 #@! TD*
D10*
G04 #@! TO.C,C21*
X116000000Y-90200000D03*
X116000000Y-91800000D03*
G04 #@! TD*
D14*
G04 #@! TO.C,U8*
X118190000Y-95200000D03*
X119460000Y-95200000D03*
X120730000Y-95200000D03*
X122000000Y-95200000D03*
X123270000Y-95200000D03*
X124540000Y-95200000D03*
X125810000Y-95200000D03*
X125800000Y-89800000D03*
X124530000Y-89800000D03*
X123260000Y-89800000D03*
X121990000Y-89800000D03*
X120730000Y-89800000D03*
X119460000Y-89800000D03*
X118190000Y-89800000D03*
G04 #@! TD*
D15*
G04 #@! TO.C,S3*
X202020000Y-126230000D03*
X202020000Y-125580000D03*
X202020000Y-124930000D03*
X202020000Y-124270000D03*
X203980000Y-124270000D03*
X203980000Y-124920000D03*
X203980000Y-125570000D03*
X203980000Y-126230000D03*
G04 #@! TD*
D16*
G04 #@! TO.C,C22*
X115250000Y-125050000D03*
X115250000Y-123450000D03*
G04 #@! TD*
D17*
G04 #@! TO.C,C19*
X203650000Y-119790000D03*
X202050000Y-119790000D03*
G04 #@! TD*
D18*
G04 #@! TO.C,C20*
X202050000Y-117290000D03*
X203650000Y-117290000D03*
G04 #@! TD*
D19*
G04 #@! TO.C,REF\u002A\u002A*
X188000000Y-133000000D03*
X188000000Y-73000000D03*
X133000000Y-92000000D03*
G04 #@! TD*
D18*
G04 #@! TO.C,R1*
X202700000Y-111000000D03*
X204300000Y-111000000D03*
G04 #@! TD*
M02*
