G04 #@! TF.GenerationSoftware,KiCad,Pcbnew,9.0.8-1.fc42*
G04 #@! TF.CreationDate,2026-04-08T13:35:32+02:00*
G04 #@! TF.ProjectId,atmosphere,61746d6f-7370-4686-9572-652e6b696361,rev?*
G04 #@! TF.SameCoordinates,Original*
G04 #@! TF.FileFunction,Legend,Top*
G04 #@! TF.FilePolarity,Positive*
%FSLAX46Y46*%
G04 Gerber Fmt 4.6, Leading zero omitted, Abs format (unit mm)*
G04 Created by KiCad (PCBNEW 9.0.8-1.fc42) date 2026-04-08 13:35:32*
%MOMM*%
%LPD*%
G01*
G04 APERTURE LIST*
G04 Aperture macros list*
%AMRoundRect*
0 Rectangle with rounded corners*
0 $1 Rounding radius*
0 $2 $3 $4 $5 $6 $7 $8 $9 X,Y pos of 4 corners*
0 Add a 4 corners polygon primitive as box body*
4,1,4,$2,$3,$4,$5,$6,$7,$8,$9,$2,$3,0*
0 Add four circle primitives for the rounded corners*
1,1,$1+$1,$2,$3*
1,1,$1+$1,$4,$5*
1,1,$1+$1,$6,$7*
1,1,$1+$1,$8,$9*
0 Add four rect primitives between the rounded corners*
20,1,$1+$1,$2,$3,$4,$5,0*
20,1,$1+$1,$4,$5,$6,$7,0*
20,1,$1+$1,$6,$7,$8,$9,0*
20,1,$1+$1,$8,$9,$2,$3,0*%
G04 Aperture macros list end*
%ADD10C,0.150000*%
%ADD11C,0.100000*%
%ADD12C,4.500000*%
%ADD13RoundRect,0.142500X-0.357500X0.332500X-0.357500X-0.332500X0.357500X-0.332500X0.357500X0.332500X0*%
%ADD14C,1.600000*%
%ADD15RoundRect,0.090000X0.210000X-0.947500X0.210000X0.947500X-0.210000X0.947500X-0.210000X-0.947500X0*%
%ADD16RoundRect,0.088500X0.206500X-0.949000X0.206500X0.949000X-0.206500X0.949000X-0.206500X-0.949000X0*%
%ADD17RoundRect,0.091500X0.213500X-0.946000X0.213500X0.946000X-0.213500X0.946000X-0.213500X-0.946000X0*%
%ADD18RoundRect,0.082500X-0.192500X-0.667500X0.192500X-0.667500X0.192500X0.667500X-0.192500X0.667500X0*%
%ADD19R,0.350000X0.350000*%
%ADD20C,1.905000*%
%ADD21RoundRect,0.142500X0.357500X-0.332500X0.357500X0.332500X-0.357500X0.332500X-0.357500X-0.332500X0*%
%ADD22RoundRect,0.142500X0.332500X0.357500X-0.332500X0.357500X-0.332500X-0.357500X0.332500X-0.357500X0*%
%ADD23RoundRect,0.142500X-0.332500X-0.357500X0.332500X-0.357500X0.332500X0.357500X-0.332500X0.357500X0*%
%ADD24RoundRect,0.250000X-0.500000X-0.500000X0.500000X-0.500000X0.500000X0.500000X-0.500000X0.500000X0*%
%ADD25C,1.500000*%
%ADD26C,6.000000*%
%ADD27C,9.000000*%
G04 APERTURE END LIST*
D10*
X113390419Y-77157142D02*
X113342800Y-77109523D01*
X113342800Y-77109523D02*
X113295180Y-76966666D01*
X113295180Y-76966666D02*
X113295180Y-76871428D01*
X113295180Y-76871428D02*
X113342800Y-76728571D01*
X113342800Y-76728571D02*
X113438038Y-76633333D01*
X113438038Y-76633333D02*
X113533276Y-76585714D01*
X113533276Y-76585714D02*
X113723752Y-76538095D01*
X113723752Y-76538095D02*
X113866609Y-76538095D01*
X113866609Y-76538095D02*
X114057085Y-76585714D01*
X114057085Y-76585714D02*
X114152323Y-76633333D01*
X114152323Y-76633333D02*
X114247561Y-76728571D01*
X114247561Y-76728571D02*
X114295180Y-76871428D01*
X114295180Y-76871428D02*
X114295180Y-76966666D01*
X114295180Y-76966666D02*
X114247561Y-77109523D01*
X114247561Y-77109523D02*
X114199942Y-77157142D01*
X114295180Y-77490476D02*
X114295180Y-78109523D01*
X114295180Y-78109523D02*
X113914228Y-77776190D01*
X113914228Y-77776190D02*
X113914228Y-77919047D01*
X113914228Y-77919047D02*
X113866609Y-78014285D01*
X113866609Y-78014285D02*
X113818990Y-78061904D01*
X113818990Y-78061904D02*
X113723752Y-78109523D01*
X113723752Y-78109523D02*
X113485657Y-78109523D01*
X113485657Y-78109523D02*
X113390419Y-78061904D01*
X113390419Y-78061904D02*
X113342800Y-78014285D01*
X113342800Y-78014285D02*
X113295180Y-77919047D01*
X113295180Y-77919047D02*
X113295180Y-77633333D01*
X113295180Y-77633333D02*
X113342800Y-77538095D01*
X113342800Y-77538095D02*
X113390419Y-77490476D01*
X113295180Y-79061904D02*
X113295180Y-78490476D01*
X113295180Y-78776190D02*
X114295180Y-78776190D01*
X114295180Y-78776190D02*
X114152323Y-78680952D01*
X114152323Y-78680952D02*
X114057085Y-78585714D01*
X114057085Y-78585714D02*
X114009466Y-78490476D01*
X121742561Y-130060588D02*
X121790180Y-129965350D01*
X121790180Y-129965350D02*
X121790180Y-129822493D01*
X121790180Y-129822493D02*
X121742561Y-129679636D01*
X121742561Y-129679636D02*
X121647323Y-129584398D01*
X121647323Y-129584398D02*
X121552085Y-129536779D01*
X121552085Y-129536779D02*
X121361609Y-129489160D01*
X121361609Y-129489160D02*
X121218752Y-129489160D01*
X121218752Y-129489160D02*
X121028276Y-129536779D01*
X121028276Y-129536779D02*
X120933038Y-129584398D01*
X120933038Y-129584398D02*
X120837800Y-129679636D01*
X120837800Y-129679636D02*
X120790180Y-129822493D01*
X120790180Y-129822493D02*
X120790180Y-129917731D01*
X120790180Y-129917731D02*
X120837800Y-130060588D01*
X120837800Y-130060588D02*
X120885419Y-130108207D01*
X120885419Y-130108207D02*
X121218752Y-130108207D01*
X121218752Y-130108207D02*
X121218752Y-129917731D01*
X120790180Y-130536779D02*
X121790180Y-130536779D01*
X121790180Y-130536779D02*
X120790180Y-131108207D01*
X120790180Y-131108207D02*
X121790180Y-131108207D01*
X120790180Y-131584398D02*
X121790180Y-131584398D01*
X121790180Y-131584398D02*
X121790180Y-131822493D01*
X121790180Y-131822493D02*
X121742561Y-131965350D01*
X121742561Y-131965350D02*
X121647323Y-132060588D01*
X121647323Y-132060588D02*
X121552085Y-132108207D01*
X121552085Y-132108207D02*
X121361609Y-132155826D01*
X121361609Y-132155826D02*
X121218752Y-132155826D01*
X121218752Y-132155826D02*
X121028276Y-132108207D01*
X121028276Y-132108207D02*
X120933038Y-132060588D01*
X120933038Y-132060588D02*
X120837800Y-131965350D01*
X120837800Y-131965350D02*
X120790180Y-131822493D01*
X120790180Y-131822493D02*
X120790180Y-131584398D01*
X119390180Y-129393922D02*
X118390180Y-129727255D01*
X118390180Y-129727255D02*
X119390180Y-130060588D01*
X118485419Y-130965350D02*
X118437800Y-130917731D01*
X118437800Y-130917731D02*
X118390180Y-130774874D01*
X118390180Y-130774874D02*
X118390180Y-130679636D01*
X118390180Y-130679636D02*
X118437800Y-130536779D01*
X118437800Y-130536779D02*
X118533038Y-130441541D01*
X118533038Y-130441541D02*
X118628276Y-130393922D01*
X118628276Y-130393922D02*
X118818752Y-130346303D01*
X118818752Y-130346303D02*
X118961609Y-130346303D01*
X118961609Y-130346303D02*
X119152085Y-130393922D01*
X119152085Y-130393922D02*
X119247323Y-130441541D01*
X119247323Y-130441541D02*
X119342561Y-130536779D01*
X119342561Y-130536779D02*
X119390180Y-130679636D01*
X119390180Y-130679636D02*
X119390180Y-130774874D01*
X119390180Y-130774874D02*
X119342561Y-130917731D01*
X119342561Y-130917731D02*
X119294942Y-130965350D01*
X118485419Y-131965350D02*
X118437800Y-131917731D01*
X118437800Y-131917731D02*
X118390180Y-131774874D01*
X118390180Y-131774874D02*
X118390180Y-131679636D01*
X118390180Y-131679636D02*
X118437800Y-131536779D01*
X118437800Y-131536779D02*
X118533038Y-131441541D01*
X118533038Y-131441541D02*
X118628276Y-131393922D01*
X118628276Y-131393922D02*
X118818752Y-131346303D01*
X118818752Y-131346303D02*
X118961609Y-131346303D01*
X118961609Y-131346303D02*
X119152085Y-131393922D01*
X119152085Y-131393922D02*
X119247323Y-131441541D01*
X119247323Y-131441541D02*
X119342561Y-131536779D01*
X119342561Y-131536779D02*
X119390180Y-131679636D01*
X119390180Y-131679636D02*
X119390180Y-131774874D01*
X119390180Y-131774874D02*
X119342561Y-131917731D01*
X119342561Y-131917731D02*
X119294942Y-131965350D01*
X124590180Y-129536779D02*
X123780657Y-129536779D01*
X123780657Y-129536779D02*
X123685419Y-129584398D01*
X123685419Y-129584398D02*
X123637800Y-129632017D01*
X123637800Y-129632017D02*
X123590180Y-129727255D01*
X123590180Y-129727255D02*
X123590180Y-129917731D01*
X123590180Y-129917731D02*
X123637800Y-130012969D01*
X123637800Y-130012969D02*
X123685419Y-130060588D01*
X123685419Y-130060588D02*
X123780657Y-130108207D01*
X123780657Y-130108207D02*
X124590180Y-130108207D01*
X123590180Y-130584398D02*
X124590180Y-130584398D01*
X124590180Y-130584398D02*
X124590180Y-130965350D01*
X124590180Y-130965350D02*
X124542561Y-131060588D01*
X124542561Y-131060588D02*
X124494942Y-131108207D01*
X124494942Y-131108207D02*
X124399704Y-131155826D01*
X124399704Y-131155826D02*
X124256847Y-131155826D01*
X124256847Y-131155826D02*
X124161609Y-131108207D01*
X124161609Y-131108207D02*
X124113990Y-131060588D01*
X124113990Y-131060588D02*
X124066371Y-130965350D01*
X124066371Y-130965350D02*
X124066371Y-130584398D01*
X123590180Y-131584398D02*
X124590180Y-131584398D01*
X124590180Y-131584398D02*
X124590180Y-131822493D01*
X124590180Y-131822493D02*
X124542561Y-131965350D01*
X124542561Y-131965350D02*
X124447323Y-132060588D01*
X124447323Y-132060588D02*
X124352085Y-132108207D01*
X124352085Y-132108207D02*
X124161609Y-132155826D01*
X124161609Y-132155826D02*
X124018752Y-132155826D01*
X124018752Y-132155826D02*
X123828276Y-132108207D01*
X123828276Y-132108207D02*
X123733038Y-132060588D01*
X123733038Y-132060588D02*
X123637800Y-131965350D01*
X123637800Y-131965350D02*
X123590180Y-131822493D01*
X123590180Y-131822493D02*
X123590180Y-131584398D01*
X123590180Y-132584398D02*
X124590180Y-132584398D01*
X121588095Y-124642319D02*
X121588095Y-125451842D01*
X121588095Y-125451842D02*
X121635714Y-125547080D01*
X121635714Y-125547080D02*
X121683333Y-125594700D01*
X121683333Y-125594700D02*
X121778571Y-125642319D01*
X121778571Y-125642319D02*
X121969047Y-125642319D01*
X121969047Y-125642319D02*
X122064285Y-125594700D01*
X122064285Y-125594700D02*
X122111904Y-125547080D01*
X122111904Y-125547080D02*
X122159523Y-125451842D01*
X122159523Y-125451842D02*
X122159523Y-124642319D01*
X122540476Y-124642319D02*
X123207142Y-124642319D01*
X123207142Y-124642319D02*
X122778571Y-125642319D01*
X114140419Y-90357142D02*
X114092800Y-90309523D01*
X114092800Y-90309523D02*
X114045180Y-90166666D01*
X114045180Y-90166666D02*
X114045180Y-90071428D01*
X114045180Y-90071428D02*
X114092800Y-89928571D01*
X114092800Y-89928571D02*
X114188038Y-89833333D01*
X114188038Y-89833333D02*
X114283276Y-89785714D01*
X114283276Y-89785714D02*
X114473752Y-89738095D01*
X114473752Y-89738095D02*
X114616609Y-89738095D01*
X114616609Y-89738095D02*
X114807085Y-89785714D01*
X114807085Y-89785714D02*
X114902323Y-89833333D01*
X114902323Y-89833333D02*
X114997561Y-89928571D01*
X114997561Y-89928571D02*
X115045180Y-90071428D01*
X115045180Y-90071428D02*
X115045180Y-90166666D01*
X115045180Y-90166666D02*
X114997561Y-90309523D01*
X114997561Y-90309523D02*
X114949942Y-90357142D01*
X114949942Y-90738095D02*
X114997561Y-90785714D01*
X114997561Y-90785714D02*
X115045180Y-90880952D01*
X115045180Y-90880952D02*
X115045180Y-91119047D01*
X115045180Y-91119047D02*
X114997561Y-91214285D01*
X114997561Y-91214285D02*
X114949942Y-91261904D01*
X114949942Y-91261904D02*
X114854704Y-91309523D01*
X114854704Y-91309523D02*
X114759466Y-91309523D01*
X114759466Y-91309523D02*
X114616609Y-91261904D01*
X114616609Y-91261904D02*
X114045180Y-90690476D01*
X114045180Y-90690476D02*
X114045180Y-91309523D01*
X114045180Y-92261904D02*
X114045180Y-91690476D01*
X114045180Y-91976190D02*
X115045180Y-91976190D01*
X115045180Y-91976190D02*
X114902323Y-91880952D01*
X114902323Y-91880952D02*
X114807085Y-91785714D01*
X114807085Y-91785714D02*
X114759466Y-91690476D01*
X121238095Y-97754819D02*
X121238095Y-98564342D01*
X121238095Y-98564342D02*
X121285714Y-98659580D01*
X121285714Y-98659580D02*
X121333333Y-98707200D01*
X121333333Y-98707200D02*
X121428571Y-98754819D01*
X121428571Y-98754819D02*
X121619047Y-98754819D01*
X121619047Y-98754819D02*
X121714285Y-98707200D01*
X121714285Y-98707200D02*
X121761904Y-98659580D01*
X121761904Y-98659580D02*
X121809523Y-98564342D01*
X121809523Y-98564342D02*
X121809523Y-97754819D01*
X122428571Y-98183390D02*
X122333333Y-98135771D01*
X122333333Y-98135771D02*
X122285714Y-98088152D01*
X122285714Y-98088152D02*
X122238095Y-97992914D01*
X122238095Y-97992914D02*
X122238095Y-97945295D01*
X122238095Y-97945295D02*
X122285714Y-97850057D01*
X122285714Y-97850057D02*
X122333333Y-97802438D01*
X122333333Y-97802438D02*
X122428571Y-97754819D01*
X122428571Y-97754819D02*
X122619047Y-97754819D01*
X122619047Y-97754819D02*
X122714285Y-97802438D01*
X122714285Y-97802438D02*
X122761904Y-97850057D01*
X122761904Y-97850057D02*
X122809523Y-97945295D01*
X122809523Y-97945295D02*
X122809523Y-97992914D01*
X122809523Y-97992914D02*
X122761904Y-98088152D01*
X122761904Y-98088152D02*
X122714285Y-98135771D01*
X122714285Y-98135771D02*
X122619047Y-98183390D01*
X122619047Y-98183390D02*
X122428571Y-98183390D01*
X122428571Y-98183390D02*
X122333333Y-98231009D01*
X122333333Y-98231009D02*
X122285714Y-98278628D01*
X122285714Y-98278628D02*
X122238095Y-98373866D01*
X122238095Y-98373866D02*
X122238095Y-98564342D01*
X122238095Y-98564342D02*
X122285714Y-98659580D01*
X122285714Y-98659580D02*
X122333333Y-98707200D01*
X122333333Y-98707200D02*
X122428571Y-98754819D01*
X122428571Y-98754819D02*
X122619047Y-98754819D01*
X122619047Y-98754819D02*
X122714285Y-98707200D01*
X122714285Y-98707200D02*
X122761904Y-98659580D01*
X122761904Y-98659580D02*
X122809523Y-98564342D01*
X122809523Y-98564342D02*
X122809523Y-98373866D01*
X122809523Y-98373866D02*
X122761904Y-98278628D01*
X122761904Y-98278628D02*
X122714285Y-98231009D01*
X122714285Y-98231009D02*
X122619047Y-98183390D01*
X202738095Y-127907200D02*
X202880952Y-127954819D01*
X202880952Y-127954819D02*
X203119047Y-127954819D01*
X203119047Y-127954819D02*
X203214285Y-127907200D01*
X203214285Y-127907200D02*
X203261904Y-127859580D01*
X203261904Y-127859580D02*
X203309523Y-127764342D01*
X203309523Y-127764342D02*
X203309523Y-127669104D01*
X203309523Y-127669104D02*
X203261904Y-127573866D01*
X203261904Y-127573866D02*
X203214285Y-127526247D01*
X203214285Y-127526247D02*
X203119047Y-127478628D01*
X203119047Y-127478628D02*
X202928571Y-127431009D01*
X202928571Y-127431009D02*
X202833333Y-127383390D01*
X202833333Y-127383390D02*
X202785714Y-127335771D01*
X202785714Y-127335771D02*
X202738095Y-127240533D01*
X202738095Y-127240533D02*
X202738095Y-127145295D01*
X202738095Y-127145295D02*
X202785714Y-127050057D01*
X202785714Y-127050057D02*
X202833333Y-127002438D01*
X202833333Y-127002438D02*
X202928571Y-126954819D01*
X202928571Y-126954819D02*
X203166666Y-126954819D01*
X203166666Y-126954819D02*
X203309523Y-127002438D01*
X203642857Y-126954819D02*
X204261904Y-126954819D01*
X204261904Y-126954819D02*
X203928571Y-127335771D01*
X203928571Y-127335771D02*
X204071428Y-127335771D01*
X204071428Y-127335771D02*
X204166666Y-127383390D01*
X204166666Y-127383390D02*
X204214285Y-127431009D01*
X204214285Y-127431009D02*
X204261904Y-127526247D01*
X204261904Y-127526247D02*
X204261904Y-127764342D01*
X204261904Y-127764342D02*
X204214285Y-127859580D01*
X204214285Y-127859580D02*
X204166666Y-127907200D01*
X204166666Y-127907200D02*
X204071428Y-127954819D01*
X204071428Y-127954819D02*
X203785714Y-127954819D01*
X203785714Y-127954819D02*
X203690476Y-127907200D01*
X203690476Y-127907200D02*
X203642857Y-127859580D01*
X116741541Y-97869819D02*
X117360588Y-97869819D01*
X117360588Y-97869819D02*
X117027255Y-98250771D01*
X117027255Y-98250771D02*
X117170112Y-98250771D01*
X117170112Y-98250771D02*
X117265350Y-98298390D01*
X117265350Y-98298390D02*
X117312969Y-98346009D01*
X117312969Y-98346009D02*
X117360588Y-98441247D01*
X117360588Y-98441247D02*
X117360588Y-98679342D01*
X117360588Y-98679342D02*
X117312969Y-98774580D01*
X117312969Y-98774580D02*
X117265350Y-98822200D01*
X117265350Y-98822200D02*
X117170112Y-98869819D01*
X117170112Y-98869819D02*
X116884398Y-98869819D01*
X116884398Y-98869819D02*
X116789160Y-98822200D01*
X116789160Y-98822200D02*
X116741541Y-98774580D01*
X117646303Y-97869819D02*
X117979636Y-98869819D01*
X117979636Y-98869819D02*
X118312969Y-97869819D01*
X118551065Y-97869819D02*
X119170112Y-97869819D01*
X119170112Y-97869819D02*
X118836779Y-98250771D01*
X118836779Y-98250771D02*
X118979636Y-98250771D01*
X118979636Y-98250771D02*
X119074874Y-98298390D01*
X119074874Y-98298390D02*
X119122493Y-98346009D01*
X119122493Y-98346009D02*
X119170112Y-98441247D01*
X119170112Y-98441247D02*
X119170112Y-98679342D01*
X119170112Y-98679342D02*
X119122493Y-98774580D01*
X119122493Y-98774580D02*
X119074874Y-98822200D01*
X119074874Y-98822200D02*
X118979636Y-98869819D01*
X118979636Y-98869819D02*
X118693922Y-98869819D01*
X118693922Y-98869819D02*
X118598684Y-98822200D01*
X118598684Y-98822200D02*
X118551065Y-98774580D01*
X117360588Y-102917438D02*
X117265350Y-102869819D01*
X117265350Y-102869819D02*
X117122493Y-102869819D01*
X117122493Y-102869819D02*
X116979636Y-102917438D01*
X116979636Y-102917438D02*
X116884398Y-103012676D01*
X116884398Y-103012676D02*
X116836779Y-103107914D01*
X116836779Y-103107914D02*
X116789160Y-103298390D01*
X116789160Y-103298390D02*
X116789160Y-103441247D01*
X116789160Y-103441247D02*
X116836779Y-103631723D01*
X116836779Y-103631723D02*
X116884398Y-103726961D01*
X116884398Y-103726961D02*
X116979636Y-103822200D01*
X116979636Y-103822200D02*
X117122493Y-103869819D01*
X117122493Y-103869819D02*
X117217731Y-103869819D01*
X117217731Y-103869819D02*
X117360588Y-103822200D01*
X117360588Y-103822200D02*
X117408207Y-103774580D01*
X117408207Y-103774580D02*
X117408207Y-103441247D01*
X117408207Y-103441247D02*
X117217731Y-103441247D01*
X117836779Y-103869819D02*
X117836779Y-102869819D01*
X117836779Y-102869819D02*
X118408207Y-103869819D01*
X118408207Y-103869819D02*
X118408207Y-102869819D01*
X118884398Y-103869819D02*
X118884398Y-102869819D01*
X118884398Y-102869819D02*
X119122493Y-102869819D01*
X119122493Y-102869819D02*
X119265350Y-102917438D01*
X119265350Y-102917438D02*
X119360588Y-103012676D01*
X119360588Y-103012676D02*
X119408207Y-103107914D01*
X119408207Y-103107914D02*
X119455826Y-103298390D01*
X119455826Y-103298390D02*
X119455826Y-103441247D01*
X119455826Y-103441247D02*
X119408207Y-103631723D01*
X119408207Y-103631723D02*
X119360588Y-103726961D01*
X119360588Y-103726961D02*
X119265350Y-103822200D01*
X119265350Y-103822200D02*
X119122493Y-103869819D01*
X119122493Y-103869819D02*
X118884398Y-103869819D01*
X116789160Y-106322200D02*
X116932017Y-106369819D01*
X116932017Y-106369819D02*
X117170112Y-106369819D01*
X117170112Y-106369819D02*
X117265350Y-106322200D01*
X117265350Y-106322200D02*
X117312969Y-106274580D01*
X117312969Y-106274580D02*
X117360588Y-106179342D01*
X117360588Y-106179342D02*
X117360588Y-106084104D01*
X117360588Y-106084104D02*
X117312969Y-105988866D01*
X117312969Y-105988866D02*
X117265350Y-105941247D01*
X117265350Y-105941247D02*
X117170112Y-105893628D01*
X117170112Y-105893628D02*
X116979636Y-105846009D01*
X116979636Y-105846009D02*
X116884398Y-105798390D01*
X116884398Y-105798390D02*
X116836779Y-105750771D01*
X116836779Y-105750771D02*
X116789160Y-105655533D01*
X116789160Y-105655533D02*
X116789160Y-105560295D01*
X116789160Y-105560295D02*
X116836779Y-105465057D01*
X116836779Y-105465057D02*
X116884398Y-105417438D01*
X116884398Y-105417438D02*
X116979636Y-105369819D01*
X116979636Y-105369819D02*
X117217731Y-105369819D01*
X117217731Y-105369819D02*
X117360588Y-105417438D01*
X117789160Y-106369819D02*
X117789160Y-105369819D01*
X117789160Y-105369819D02*
X118027255Y-105369819D01*
X118027255Y-105369819D02*
X118170112Y-105417438D01*
X118170112Y-105417438D02*
X118265350Y-105512676D01*
X118265350Y-105512676D02*
X118312969Y-105607914D01*
X118312969Y-105607914D02*
X118360588Y-105798390D01*
X118360588Y-105798390D02*
X118360588Y-105941247D01*
X118360588Y-105941247D02*
X118312969Y-106131723D01*
X118312969Y-106131723D02*
X118265350Y-106226961D01*
X118265350Y-106226961D02*
X118170112Y-106322200D01*
X118170112Y-106322200D02*
X118027255Y-106369819D01*
X118027255Y-106369819D02*
X117789160Y-106369819D01*
X118741541Y-106084104D02*
X119217731Y-106084104D01*
X118646303Y-106369819D02*
X118979636Y-105369819D01*
X118979636Y-105369819D02*
X119312969Y-106369819D01*
X117312969Y-100369819D02*
X116836779Y-100369819D01*
X116836779Y-100369819D02*
X116789160Y-100846009D01*
X116789160Y-100846009D02*
X116836779Y-100798390D01*
X116836779Y-100798390D02*
X116932017Y-100750771D01*
X116932017Y-100750771D02*
X117170112Y-100750771D01*
X117170112Y-100750771D02*
X117265350Y-100798390D01*
X117265350Y-100798390D02*
X117312969Y-100846009D01*
X117312969Y-100846009D02*
X117360588Y-100941247D01*
X117360588Y-100941247D02*
X117360588Y-101179342D01*
X117360588Y-101179342D02*
X117312969Y-101274580D01*
X117312969Y-101274580D02*
X117265350Y-101322200D01*
X117265350Y-101322200D02*
X117170112Y-101369819D01*
X117170112Y-101369819D02*
X116932017Y-101369819D01*
X116932017Y-101369819D02*
X116836779Y-101322200D01*
X116836779Y-101322200D02*
X116789160Y-101274580D01*
X117646303Y-100369819D02*
X117979636Y-101369819D01*
X117979636Y-101369819D02*
X118312969Y-100369819D01*
X116789160Y-108822200D02*
X116932017Y-108869819D01*
X116932017Y-108869819D02*
X117170112Y-108869819D01*
X117170112Y-108869819D02*
X117265350Y-108822200D01*
X117265350Y-108822200D02*
X117312969Y-108774580D01*
X117312969Y-108774580D02*
X117360588Y-108679342D01*
X117360588Y-108679342D02*
X117360588Y-108584104D01*
X117360588Y-108584104D02*
X117312969Y-108488866D01*
X117312969Y-108488866D02*
X117265350Y-108441247D01*
X117265350Y-108441247D02*
X117170112Y-108393628D01*
X117170112Y-108393628D02*
X116979636Y-108346009D01*
X116979636Y-108346009D02*
X116884398Y-108298390D01*
X116884398Y-108298390D02*
X116836779Y-108250771D01*
X116836779Y-108250771D02*
X116789160Y-108155533D01*
X116789160Y-108155533D02*
X116789160Y-108060295D01*
X116789160Y-108060295D02*
X116836779Y-107965057D01*
X116836779Y-107965057D02*
X116884398Y-107917438D01*
X116884398Y-107917438D02*
X116979636Y-107869819D01*
X116979636Y-107869819D02*
X117217731Y-107869819D01*
X117217731Y-107869819D02*
X117360588Y-107917438D01*
X118360588Y-108774580D02*
X118312969Y-108822200D01*
X118312969Y-108822200D02*
X118170112Y-108869819D01*
X118170112Y-108869819D02*
X118074874Y-108869819D01*
X118074874Y-108869819D02*
X117932017Y-108822200D01*
X117932017Y-108822200D02*
X117836779Y-108726961D01*
X117836779Y-108726961D02*
X117789160Y-108631723D01*
X117789160Y-108631723D02*
X117741541Y-108441247D01*
X117741541Y-108441247D02*
X117741541Y-108298390D01*
X117741541Y-108298390D02*
X117789160Y-108107914D01*
X117789160Y-108107914D02*
X117836779Y-108012676D01*
X117836779Y-108012676D02*
X117932017Y-107917438D01*
X117932017Y-107917438D02*
X118074874Y-107869819D01*
X118074874Y-107869819D02*
X118170112Y-107869819D01*
X118170112Y-107869819D02*
X118312969Y-107917438D01*
X118312969Y-107917438D02*
X118360588Y-107965057D01*
X119265350Y-108869819D02*
X118789160Y-108869819D01*
X118789160Y-108869819D02*
X118789160Y-107869819D01*
X113390419Y-123607142D02*
X113342800Y-123559523D01*
X113342800Y-123559523D02*
X113295180Y-123416666D01*
X113295180Y-123416666D02*
X113295180Y-123321428D01*
X113295180Y-123321428D02*
X113342800Y-123178571D01*
X113342800Y-123178571D02*
X113438038Y-123083333D01*
X113438038Y-123083333D02*
X113533276Y-123035714D01*
X113533276Y-123035714D02*
X113723752Y-122988095D01*
X113723752Y-122988095D02*
X113866609Y-122988095D01*
X113866609Y-122988095D02*
X114057085Y-123035714D01*
X114057085Y-123035714D02*
X114152323Y-123083333D01*
X114152323Y-123083333D02*
X114247561Y-123178571D01*
X114247561Y-123178571D02*
X114295180Y-123321428D01*
X114295180Y-123321428D02*
X114295180Y-123416666D01*
X114295180Y-123416666D02*
X114247561Y-123559523D01*
X114247561Y-123559523D02*
X114199942Y-123607142D01*
X114199942Y-123988095D02*
X114247561Y-124035714D01*
X114247561Y-124035714D02*
X114295180Y-124130952D01*
X114295180Y-124130952D02*
X114295180Y-124369047D01*
X114295180Y-124369047D02*
X114247561Y-124464285D01*
X114247561Y-124464285D02*
X114199942Y-124511904D01*
X114199942Y-124511904D02*
X114104704Y-124559523D01*
X114104704Y-124559523D02*
X114009466Y-124559523D01*
X114009466Y-124559523D02*
X113866609Y-124511904D01*
X113866609Y-124511904D02*
X113295180Y-123940476D01*
X113295180Y-123940476D02*
X113295180Y-124559523D01*
X114199942Y-124940476D02*
X114247561Y-124988095D01*
X114247561Y-124988095D02*
X114295180Y-125083333D01*
X114295180Y-125083333D02*
X114295180Y-125321428D01*
X114295180Y-125321428D02*
X114247561Y-125416666D01*
X114247561Y-125416666D02*
X114199942Y-125464285D01*
X114199942Y-125464285D02*
X114104704Y-125511904D01*
X114104704Y-125511904D02*
X114009466Y-125511904D01*
X114009466Y-125511904D02*
X113866609Y-125464285D01*
X113866609Y-125464285D02*
X113295180Y-124892857D01*
X113295180Y-124892857D02*
X113295180Y-125511904D01*
X202207142Y-121649580D02*
X202159523Y-121697200D01*
X202159523Y-121697200D02*
X202016666Y-121744819D01*
X202016666Y-121744819D02*
X201921428Y-121744819D01*
X201921428Y-121744819D02*
X201778571Y-121697200D01*
X201778571Y-121697200D02*
X201683333Y-121601961D01*
X201683333Y-121601961D02*
X201635714Y-121506723D01*
X201635714Y-121506723D02*
X201588095Y-121316247D01*
X201588095Y-121316247D02*
X201588095Y-121173390D01*
X201588095Y-121173390D02*
X201635714Y-120982914D01*
X201635714Y-120982914D02*
X201683333Y-120887676D01*
X201683333Y-120887676D02*
X201778571Y-120792438D01*
X201778571Y-120792438D02*
X201921428Y-120744819D01*
X201921428Y-120744819D02*
X202016666Y-120744819D01*
X202016666Y-120744819D02*
X202159523Y-120792438D01*
X202159523Y-120792438D02*
X202207142Y-120840057D01*
X203159523Y-121744819D02*
X202588095Y-121744819D01*
X202873809Y-121744819D02*
X202873809Y-120744819D01*
X202873809Y-120744819D02*
X202778571Y-120887676D01*
X202778571Y-120887676D02*
X202683333Y-120982914D01*
X202683333Y-120982914D02*
X202588095Y-121030533D01*
X203635714Y-121744819D02*
X203826190Y-121744819D01*
X203826190Y-121744819D02*
X203921428Y-121697200D01*
X203921428Y-121697200D02*
X203969047Y-121649580D01*
X203969047Y-121649580D02*
X204064285Y-121506723D01*
X204064285Y-121506723D02*
X204111904Y-121316247D01*
X204111904Y-121316247D02*
X204111904Y-120935295D01*
X204111904Y-120935295D02*
X204064285Y-120840057D01*
X204064285Y-120840057D02*
X204016666Y-120792438D01*
X204016666Y-120792438D02*
X203921428Y-120744819D01*
X203921428Y-120744819D02*
X203730952Y-120744819D01*
X203730952Y-120744819D02*
X203635714Y-120792438D01*
X203635714Y-120792438D02*
X203588095Y-120840057D01*
X203588095Y-120840057D02*
X203540476Y-120935295D01*
X203540476Y-120935295D02*
X203540476Y-121173390D01*
X203540476Y-121173390D02*
X203588095Y-121268628D01*
X203588095Y-121268628D02*
X203635714Y-121316247D01*
X203635714Y-121316247D02*
X203730952Y-121363866D01*
X203730952Y-121363866D02*
X203921428Y-121363866D01*
X203921428Y-121363866D02*
X204016666Y-121316247D01*
X204016666Y-121316247D02*
X204064285Y-121268628D01*
X204064285Y-121268628D02*
X204111904Y-121173390D01*
X119860588Y-78917438D02*
X119765350Y-78869819D01*
X119765350Y-78869819D02*
X119622493Y-78869819D01*
X119622493Y-78869819D02*
X119479636Y-78917438D01*
X119479636Y-78917438D02*
X119384398Y-79012676D01*
X119384398Y-79012676D02*
X119336779Y-79107914D01*
X119336779Y-79107914D02*
X119289160Y-79298390D01*
X119289160Y-79298390D02*
X119289160Y-79441247D01*
X119289160Y-79441247D02*
X119336779Y-79631723D01*
X119336779Y-79631723D02*
X119384398Y-79726961D01*
X119384398Y-79726961D02*
X119479636Y-79822200D01*
X119479636Y-79822200D02*
X119622493Y-79869819D01*
X119622493Y-79869819D02*
X119717731Y-79869819D01*
X119717731Y-79869819D02*
X119860588Y-79822200D01*
X119860588Y-79822200D02*
X119908207Y-79774580D01*
X119908207Y-79774580D02*
X119908207Y-79441247D01*
X119908207Y-79441247D02*
X119717731Y-79441247D01*
X120336779Y-79869819D02*
X120336779Y-78869819D01*
X120336779Y-78869819D02*
X120908207Y-79869819D01*
X120908207Y-79869819D02*
X120908207Y-78869819D01*
X121384398Y-79869819D02*
X121384398Y-78869819D01*
X121384398Y-78869819D02*
X121622493Y-78869819D01*
X121622493Y-78869819D02*
X121765350Y-78917438D01*
X121765350Y-78917438D02*
X121860588Y-79012676D01*
X121860588Y-79012676D02*
X121908207Y-79107914D01*
X121908207Y-79107914D02*
X121955826Y-79298390D01*
X121955826Y-79298390D02*
X121955826Y-79441247D01*
X121955826Y-79441247D02*
X121908207Y-79631723D01*
X121908207Y-79631723D02*
X121860588Y-79726961D01*
X121860588Y-79726961D02*
X121765350Y-79822200D01*
X121765350Y-79822200D02*
X121622493Y-79869819D01*
X121622493Y-79869819D02*
X121384398Y-79869819D01*
X120812969Y-73869819D02*
X120336779Y-73869819D01*
X120336779Y-73869819D02*
X120289160Y-74346009D01*
X120289160Y-74346009D02*
X120336779Y-74298390D01*
X120336779Y-74298390D02*
X120432017Y-74250771D01*
X120432017Y-74250771D02*
X120670112Y-74250771D01*
X120670112Y-74250771D02*
X120765350Y-74298390D01*
X120765350Y-74298390D02*
X120812969Y-74346009D01*
X120812969Y-74346009D02*
X120860588Y-74441247D01*
X120860588Y-74441247D02*
X120860588Y-74679342D01*
X120860588Y-74679342D02*
X120812969Y-74774580D01*
X120812969Y-74774580D02*
X120765350Y-74822200D01*
X120765350Y-74822200D02*
X120670112Y-74869819D01*
X120670112Y-74869819D02*
X120432017Y-74869819D01*
X120432017Y-74869819D02*
X120336779Y-74822200D01*
X120336779Y-74822200D02*
X120289160Y-74774580D01*
X121146303Y-73869819D02*
X121479636Y-74869819D01*
X121479636Y-74869819D02*
X121812969Y-73869819D01*
X120908207Y-82869819D02*
X120574874Y-82393628D01*
X120336779Y-82869819D02*
X120336779Y-81869819D01*
X120336779Y-81869819D02*
X120717731Y-81869819D01*
X120717731Y-81869819D02*
X120812969Y-81917438D01*
X120812969Y-81917438D02*
X120860588Y-81965057D01*
X120860588Y-81965057D02*
X120908207Y-82060295D01*
X120908207Y-82060295D02*
X120908207Y-82203152D01*
X120908207Y-82203152D02*
X120860588Y-82298390D01*
X120860588Y-82298390D02*
X120812969Y-82346009D01*
X120812969Y-82346009D02*
X120717731Y-82393628D01*
X120717731Y-82393628D02*
X120336779Y-82393628D01*
X121241541Y-81869819D02*
X121908207Y-82869819D01*
X121908207Y-81869819D02*
X121241541Y-82869819D01*
X120193922Y-84119819D02*
X120765350Y-84119819D01*
X120479636Y-85119819D02*
X120479636Y-84119819D01*
X121003446Y-84119819D02*
X121670112Y-85119819D01*
X121670112Y-84119819D02*
X121003446Y-85119819D01*
X202207142Y-116149580D02*
X202159523Y-116197200D01*
X202159523Y-116197200D02*
X202016666Y-116244819D01*
X202016666Y-116244819D02*
X201921428Y-116244819D01*
X201921428Y-116244819D02*
X201778571Y-116197200D01*
X201778571Y-116197200D02*
X201683333Y-116101961D01*
X201683333Y-116101961D02*
X201635714Y-116006723D01*
X201635714Y-116006723D02*
X201588095Y-115816247D01*
X201588095Y-115816247D02*
X201588095Y-115673390D01*
X201588095Y-115673390D02*
X201635714Y-115482914D01*
X201635714Y-115482914D02*
X201683333Y-115387676D01*
X201683333Y-115387676D02*
X201778571Y-115292438D01*
X201778571Y-115292438D02*
X201921428Y-115244819D01*
X201921428Y-115244819D02*
X202016666Y-115244819D01*
X202016666Y-115244819D02*
X202159523Y-115292438D01*
X202159523Y-115292438D02*
X202207142Y-115340057D01*
X202588095Y-115340057D02*
X202635714Y-115292438D01*
X202635714Y-115292438D02*
X202730952Y-115244819D01*
X202730952Y-115244819D02*
X202969047Y-115244819D01*
X202969047Y-115244819D02*
X203064285Y-115292438D01*
X203064285Y-115292438D02*
X203111904Y-115340057D01*
X203111904Y-115340057D02*
X203159523Y-115435295D01*
X203159523Y-115435295D02*
X203159523Y-115530533D01*
X203159523Y-115530533D02*
X203111904Y-115673390D01*
X203111904Y-115673390D02*
X202540476Y-116244819D01*
X202540476Y-116244819D02*
X203159523Y-116244819D01*
X203778571Y-115244819D02*
X203873809Y-115244819D01*
X203873809Y-115244819D02*
X203969047Y-115292438D01*
X203969047Y-115292438D02*
X204016666Y-115340057D01*
X204016666Y-115340057D02*
X204064285Y-115435295D01*
X204064285Y-115435295D02*
X204111904Y-115625771D01*
X204111904Y-115625771D02*
X204111904Y-115863866D01*
X204111904Y-115863866D02*
X204064285Y-116054342D01*
X204064285Y-116054342D02*
X204016666Y-116149580D01*
X204016666Y-116149580D02*
X203969047Y-116197200D01*
X203969047Y-116197200D02*
X203873809Y-116244819D01*
X203873809Y-116244819D02*
X203778571Y-116244819D01*
X203778571Y-116244819D02*
X203683333Y-116197200D01*
X203683333Y-116197200D02*
X203635714Y-116149580D01*
X203635714Y-116149580D02*
X203588095Y-116054342D01*
X203588095Y-116054342D02*
X203540476Y-115863866D01*
X203540476Y-115863866D02*
X203540476Y-115625771D01*
X203540476Y-115625771D02*
X203588095Y-115435295D01*
X203588095Y-115435295D02*
X203635714Y-115340057D01*
X203635714Y-115340057D02*
X203683333Y-115292438D01*
X203683333Y-115292438D02*
X203778571Y-115244819D01*
X202611905Y-106224819D02*
X202611905Y-105224819D01*
X202611905Y-105224819D02*
X202850000Y-105224819D01*
X202850000Y-105224819D02*
X202992857Y-105272438D01*
X202992857Y-105272438D02*
X203088095Y-105367676D01*
X203088095Y-105367676D02*
X203135714Y-105462914D01*
X203135714Y-105462914D02*
X203183333Y-105653390D01*
X203183333Y-105653390D02*
X203183333Y-105796247D01*
X203183333Y-105796247D02*
X203135714Y-105986723D01*
X203135714Y-105986723D02*
X203088095Y-106081961D01*
X203088095Y-106081961D02*
X202992857Y-106177200D01*
X202992857Y-106177200D02*
X202850000Y-106224819D01*
X202850000Y-106224819D02*
X202611905Y-106224819D01*
X204135714Y-106224819D02*
X203564286Y-106224819D01*
X203850000Y-106224819D02*
X203850000Y-105224819D01*
X203850000Y-105224819D02*
X203754762Y-105367676D01*
X203754762Y-105367676D02*
X203659524Y-105462914D01*
X203659524Y-105462914D02*
X203564286Y-105510533D01*
X203333333Y-112954819D02*
X203000000Y-112478628D01*
X202761905Y-112954819D02*
X202761905Y-111954819D01*
X202761905Y-111954819D02*
X203142857Y-111954819D01*
X203142857Y-111954819D02*
X203238095Y-112002438D01*
X203238095Y-112002438D02*
X203285714Y-112050057D01*
X203285714Y-112050057D02*
X203333333Y-112145295D01*
X203333333Y-112145295D02*
X203333333Y-112288152D01*
X203333333Y-112288152D02*
X203285714Y-112383390D01*
X203285714Y-112383390D02*
X203238095Y-112431009D01*
X203238095Y-112431009D02*
X203142857Y-112478628D01*
X203142857Y-112478628D02*
X202761905Y-112478628D01*
X204285714Y-112954819D02*
X203714286Y-112954819D01*
X204000000Y-112954819D02*
X204000000Y-111954819D01*
X204000000Y-111954819D02*
X203904762Y-112097676D01*
X203904762Y-112097676D02*
X203809524Y-112192914D01*
X203809524Y-112192914D02*
X203714286Y-112240533D01*
D11*
G04 #@! TO.C,C31*
X114750000Y-77600000D02*
X114750000Y-78000000D01*
X115750000Y-77600000D02*
X115750000Y-78000000D01*
G04 #@! TO.C,U7*
X117791421Y-121187500D02*
G75*
G02*
X117508579Y-121187500I-141421J0D01*
G01*
X117508579Y-121187500D02*
G75*
G02*
X117791421Y-121187500I141421J0D01*
G01*
G04 #@! TO.C,C21*
X115500000Y-90800000D02*
X115500000Y-91200000D01*
X116500000Y-90800000D02*
X116500000Y-91200000D01*
G04 #@! TO.C,U8*
X117800000Y-88900000D02*
X118300000Y-88900000D01*
X117800000Y-89400000D02*
X117800000Y-88900000D01*
X117800000Y-96100000D02*
X117800000Y-95600000D01*
X118300000Y-96100000D02*
X117800000Y-96100000D01*
X125700000Y-88900000D02*
X126200000Y-88900000D01*
X126200000Y-88900000D02*
X126200000Y-89400000D01*
X126300000Y-95600000D02*
X126300000Y-96100000D01*
X126300000Y-96100000D02*
X125800000Y-96100000D01*
X118341421Y-94100000D02*
G75*
G02*
X118058579Y-94100000I-141421J0D01*
G01*
X118058579Y-94100000D02*
G75*
G02*
X118341421Y-94100000I141421J0D01*
G01*
G04 #@! TO.C,S3*
X202500000Y-126150000D02*
G75*
G02*
X202300000Y-126150000I-100000J0D01*
G01*
X202300000Y-126150000D02*
G75*
G02*
X202500000Y-126150000I100000J0D01*
G01*
G04 #@! TO.C,C22*
X114750000Y-124450000D02*
X114750000Y-124050000D01*
X115750000Y-124450000D02*
X115750000Y-124050000D01*
G04 #@! TO.C,C19*
X203050000Y-119290000D02*
X202650000Y-119290000D01*
X203050000Y-120290000D02*
X202650000Y-120290000D01*
G04 #@! TO.C,C20*
X202650000Y-116790000D02*
X203050000Y-116790000D01*
X202650000Y-117790000D02*
X203050000Y-117790000D01*
G04 #@! TO.C,REF\u002A\u002A*
X129000000Y-71700000D02*
X129000000Y-68000000D01*
X129000000Y-134300000D02*
X129000000Y-138000000D01*
X132700000Y-68000000D02*
X129000000Y-68000000D01*
X132700000Y-138000000D02*
X129000000Y-138000000D01*
X195300000Y-68050000D02*
X199000000Y-68050000D01*
X195300000Y-138000000D02*
X199000000Y-138000000D01*
X199000000Y-71750000D02*
X199000000Y-68050000D01*
X199000000Y-134300000D02*
X199000000Y-138000000D01*
G04 #@! TO.C,R1*
X203300000Y-110500000D02*
X203700000Y-110500000D01*
X203300000Y-111500000D02*
X203700000Y-111500000D01*
G04 #@! TD*
%LPC*%
D12*
G04 #@! TO.C,REF\u002A\u002A*
X117000000Y-136000000D03*
G04 #@! TD*
D13*
G04 #@! TO.C,C31*
X115250000Y-77000000D03*
X115250000Y-78600000D03*
G04 #@! TD*
D14*
G04 #@! TO.C,J4*
X118920000Y-127500000D03*
X121460000Y-127500000D03*
X124000000Y-127500000D03*
G04 #@! TD*
D12*
G04 #@! TO.C,REF\u002A\u002A*
X202000000Y-71000000D03*
G04 #@! TD*
D15*
G04 #@! TO.C,U7*
X117550000Y-122950000D03*
X118820000Y-122950000D03*
X120090000Y-122950000D03*
D16*
X121355000Y-122950000D03*
D15*
X122620000Y-122950000D03*
X123890000Y-122950000D03*
D16*
X125155000Y-122950000D03*
D15*
X125160000Y-117025000D03*
X123890000Y-117025000D03*
X122620000Y-117025000D03*
X121350000Y-117025000D03*
X120080000Y-117025000D03*
X118810000Y-117025000D03*
D17*
X117545000Y-117025000D03*
G04 #@! TD*
D13*
G04 #@! TO.C,C21*
X116000000Y-90200000D03*
X116000000Y-91800000D03*
G04 #@! TD*
D18*
G04 #@! TO.C,U8*
X118190000Y-95200000D03*
X119460000Y-95200000D03*
X120730000Y-95200000D03*
X122000000Y-95200000D03*
X123270000Y-95200000D03*
X124540000Y-95200000D03*
X125810000Y-95200000D03*
X125800000Y-89800000D03*
X124530000Y-89800000D03*
X123260000Y-89800000D03*
X121990000Y-89800000D03*
X120730000Y-89800000D03*
X119460000Y-89800000D03*
X118190000Y-89800000D03*
G04 #@! TD*
D19*
G04 #@! TO.C,S3*
X202020000Y-126230000D03*
X202020000Y-125580000D03*
X202020000Y-124930000D03*
X202020000Y-124270000D03*
X203980000Y-124270000D03*
X203980000Y-124920000D03*
X203980000Y-125570000D03*
X203980000Y-126230000D03*
G04 #@! TD*
D20*
G04 #@! TO.C,G1*
X115000000Y-98460000D03*
X115000000Y-101000000D03*
X115000000Y-103500000D03*
X115000000Y-106040000D03*
X115000000Y-108580000D03*
G04 #@! TD*
D12*
G04 #@! TO.C,REF\u002A\u002A*
X117000000Y-71000000D03*
G04 #@! TD*
D21*
G04 #@! TO.C,C22*
X115250000Y-125050000D03*
X115250000Y-123450000D03*
G04 #@! TD*
D22*
G04 #@! TO.C,C19*
X203650000Y-119790000D03*
X202050000Y-119790000D03*
G04 #@! TD*
D20*
G04 #@! TO.C,S4*
X123500000Y-69460000D03*
X123500000Y-72000000D03*
X123500000Y-74500000D03*
X123500000Y-77040000D03*
X123500000Y-79580000D03*
X123500000Y-82120000D03*
X123500000Y-84660000D03*
G04 #@! TD*
D12*
G04 #@! TO.C,REF\u002A\u002A*
X202000000Y-136000000D03*
G04 #@! TD*
D23*
G04 #@! TO.C,C20*
X202050000Y-117290000D03*
X203650000Y-117290000D03*
G04 #@! TD*
D24*
G04 #@! TO.C,D1*
X201960000Y-107750000D03*
D25*
X204500000Y-107750000D03*
G04 #@! TD*
D26*
G04 #@! TO.C,REF\u002A\u002A*
X188000000Y-133000000D03*
X188000000Y-73000000D03*
X133000000Y-92000000D03*
D27*
X195000000Y-98000000D03*
G04 #@! TD*
D23*
G04 #@! TO.C,R1*
X202700000Y-111000000D03*
X204300000Y-111000000D03*
G04 #@! TD*
%LPD*%
M02*
