G04 #@! TF.GenerationSoftware,KiCad,Pcbnew,9.0.8-1.fc42*
G04 #@! TF.CreationDate,2026-04-08T13:35:32+02:00*
G04 #@! TF.ProjectId,atmosphere,61746d6f-7370-4686-9572-652e6b696361,rev?*
G04 #@! TF.SameCoordinates,Original*
G04 #@! TF.FileFunction,Copper,L1,Top*
G04 #@! TF.FilePolarity,Positive*
%FSLAX46Y46*%
G04 Gerber Fmt 4.6, Leading zero omitted, Abs format (unit mm)*
G04 Created by KiCad (PCBNEW 9.0.8-1.fc42) date 2026-04-08 13:35:32*
%MOMM*%
%LPD*%
G01*
G04 APERTURE LIST*
G04 Aperture macros list*
%AMRoundRect*
0 Rectangle with rounded corners*
0 $1 Rounding radius*
0 $2 $3 $4 $5 $6 $7 $8 $9 X,Y pos of 4 corners*
0 Add a 4 corners polygon primitive as box body*
4,1,4,$2,$3,$4,$5,$6,$7,$8,$9,$2,$3,0*
0 Add four circle primitives for the rounded corners*
1,1,$1+$1,$2,$3*
1,1,$1+$1,$4,$5*
1,1,$1+$1,$6,$7*
1,1,$1+$1,$8,$9*
0 Add four rect primitives between the rounded corners*
20,1,$1+$1,$2,$3,$4,$5,0*
20,1,$1+$1,$4,$5,$6,$7,0*
20,1,$1+$1,$6,$7,$8,$9,0*
20,1,$1+$1,$8,$9,$2,$3,0*%
G04 Aperture macros list end*
G04 #@! TA.AperFunction,ComponentPad*
%ADD10C,4.500000*%
G04 #@! TD*
G04 #@! TA.AperFunction,SMDPad,CuDef*
%ADD11RoundRect,0.142500X-0.357500X0.332500X-0.357500X-0.332500X0.357500X-0.332500X0.357500X0.332500X0*%
G04 #@! TD*
G04 #@! TA.AperFunction,ComponentPad*
%ADD12C,1.600000*%
G04 #@! TD*
G04 #@! TA.AperFunction,SMDPad,CuDef*
%ADD13RoundRect,0.090000X0.210000X-0.947500X0.210000X0.947500X-0.210000X0.947500X-0.210000X-0.947500X0*%
G04 #@! TD*
G04 #@! TA.AperFunction,SMDPad,CuDef*
%ADD14RoundRect,0.088500X0.206500X-0.949000X0.206500X0.949000X-0.206500X0.949000X-0.206500X-0.949000X0*%
G04 #@! TD*
G04 #@! TA.AperFunction,SMDPad,CuDef*
%ADD15RoundRect,0.091500X0.213500X-0.946000X0.213500X0.946000X-0.213500X0.946000X-0.213500X-0.946000X0*%
G04 #@! TD*
G04 #@! TA.AperFunction,SMDPad,CuDef*
%ADD16RoundRect,0.082500X-0.192500X-0.667500X0.192500X-0.667500X0.192500X0.667500X-0.192500X0.667500X0*%
G04 #@! TD*
G04 #@! TA.AperFunction,SMDPad,CuDef*
%ADD17R,0.350000X0.350000*%
G04 #@! TD*
G04 #@! TA.AperFunction,ComponentPad*
%ADD18C,1.905000*%
G04 #@! TD*
G04 #@! TA.AperFunction,SMDPad,CuDef*
%ADD19RoundRect,0.142500X0.357500X-0.332500X0.357500X0.332500X-0.357500X0.332500X-0.357500X-0.332500X0*%
G04 #@! TD*
G04 #@! TA.AperFunction,SMDPad,CuDef*
%ADD20RoundRect,0.142500X0.332500X0.357500X-0.332500X0.357500X-0.332500X-0.357500X0.332500X-0.357500X0*%
G04 #@! TD*
G04 #@! TA.AperFunction,SMDPad,CuDef*
%ADD21RoundRect,0.142500X-0.332500X-0.357500X0.332500X-0.357500X0.332500X0.357500X-0.332500X0.357500X0*%
G04 #@! TD*
G04 #@! TA.AperFunction,ComponentPad*
%ADD22RoundRect,0.250000X-0.500000X-0.500000X0.500000X-0.500000X0.500000X0.500000X-0.500000X0.500000X0*%
G04 #@! TD*
G04 #@! TA.AperFunction,ComponentPad*
%ADD23C,1.500000*%
G04 #@! TD*
G04 #@! TA.AperFunction,SMDPad,CuDef*
%ADD24C,6.000000*%
G04 #@! TD*
G04 #@! TA.AperFunction,ComponentPad*
%ADD25C,9.000000*%
G04 #@! TD*
G04 #@! TA.AperFunction,ViaPad*
%ADD26C,0.600000*%
G04 #@! TD*
G04 #@! TA.AperFunction,Conductor*
%ADD27C,0.500000*%
G04 #@! TD*
G04 #@! TA.AperFunction,Conductor*
%ADD28C,0.200000*%
G04 #@! TD*
G04 APERTURE END LIST*
D10*
G04 #@! TO.P,REF\u002A\u002A,*
G04 #@! TO.N,*
X117000000Y-136000000D03*
G04 #@! TD*
D11*
G04 #@! TO.P,C31,1*
G04 #@! TO.N,GND*
X115250000Y-77000000D03*
G04 #@! TO.P,C31,2*
G04 #@! TO.N,5V*
X115250000Y-78600000D03*
G04 #@! TD*
D12*
G04 #@! TO.P,J4,1,VCC*
G04 #@! TO.N,3V3*
X118920000Y-127500000D03*
G04 #@! TO.P,J4,2,GND*
G04 #@! TO.N,GND*
X121460000Y-127500000D03*
G04 #@! TO.P,J4,3,UPDI*
G04 #@! TO.N,UPDI*
X124000000Y-127500000D03*
G04 #@! TD*
D10*
G04 #@! TO.P,REF\u002A\u002A,*
G04 #@! TO.N,*
X202000000Y-71000000D03*
G04 #@! TD*
D13*
G04 #@! TO.P,U7,1,VDD*
G04 #@! TO.N,3V3*
X117550000Y-122950000D03*
G04 #@! TO.P,U7,2,PA4*
G04 #@! TO.N,unconnected-(U7-PA4-Pad2)*
X118820000Y-122950000D03*
G04 #@! TO.P,U7,3,PA5*
G04 #@! TO.N,unconnected-(U7-PA5-Pad3)*
X120090000Y-122950000D03*
D14*
G04 #@! TO.P,U7,4,PA6*
G04 #@! TO.N,unconnected-(U7-PA6-Pad4)*
X121355000Y-122950000D03*
D13*
G04 #@! TO.P,U7,5,PA7*
G04 #@! TO.N,unconnected-(U7-PA7-Pad5)*
X122620000Y-122950000D03*
G04 #@! TO.P,U7,6,TOSC1/PB3*
G04 #@! TO.N,unconnected-(U7-TOSC1{slash}PB3-Pad6)*
X123890000Y-122950000D03*
D14*
G04 #@! TO.P,U7,7,TOSC2/PB2*
G04 #@! TO.N,STATUS_LED*
X125155000Y-122950000D03*
D13*
G04 #@! TO.P,U7,8,PB1*
G04 #@! TO.N,SDA*
X125160000Y-117025000D03*
G04 #@! TO.P,U7,9,PB0*
G04 #@! TO.N,SCL*
X123890000Y-117025000D03*
G04 #@! TO.P,U7,10,PA0/RST/UPDI*
G04 #@! TO.N,UPDI*
X122620000Y-117025000D03*
G04 #@! TO.P,U7,11,PA1*
G04 #@! TO.N,AT_CLIM_TX*
X121350000Y-117025000D03*
G04 #@! TO.P,U7,12,PA2*
G04 #@! TO.N,AT_CLIM_RX*
X120080000Y-117025000D03*
G04 #@! TO.P,U7,13,PA3/EXTCLK*
G04 #@! TO.N,unconnected-(U7-PA3{slash}EXTCLK-Pad13)*
X118810000Y-117025000D03*
D15*
G04 #@! TO.P,U7,14,GND*
G04 #@! TO.N,GND*
X117545000Y-117025000D03*
G04 #@! TD*
D11*
G04 #@! TO.P,C21,1*
G04 #@! TO.N,GND*
X116000000Y-90200000D03*
G04 #@! TO.P,C21,2*
G04 #@! TO.N,3V3*
X116000000Y-91800000D03*
G04 #@! TD*
D16*
G04 #@! TO.P,U8,1,1OE*
G04 #@! TO.N,GND*
X118190000Y-95200000D03*
G04 #@! TO.P,U8,2,1A*
G04 #@! TO.N,PM_TX*
X119460000Y-95200000D03*
G04 #@! TO.P,U8,3,1Y*
G04 #@! TO.N,AT_CLIM_RX*
X120730000Y-95200000D03*
G04 #@! TO.P,U8,4,2OE*
G04 #@! TO.N,GND*
X122000000Y-95200000D03*
G04 #@! TO.P,U8,5,2A*
G04 #@! TO.N,AT_CLIM_TX*
X123270000Y-95200000D03*
G04 #@! TO.P,U8,6,2Y*
G04 #@! TO.N,PM_RX*
X124540000Y-95200000D03*
G04 #@! TO.P,U8,7,GND*
G04 #@! TO.N,GND*
X125810000Y-95200000D03*
G04 #@! TO.P,U8,8,3Y*
G04 #@! TO.N,unconnected-(U8-3Y-Pad8)*
X125800000Y-89800000D03*
G04 #@! TO.P,U8,9,3A*
G04 #@! TO.N,unconnected-(U8-3A-Pad9)*
X124530000Y-89800000D03*
G04 #@! TO.P,U8,10,3OE*
G04 #@! TO.N,unconnected-(U8-3OE-Pad10)*
X123260000Y-89800000D03*
G04 #@! TO.P,U8,11,4Y*
G04 #@! TO.N,unconnected-(U8-4Y-Pad11)*
X121990000Y-89800000D03*
G04 #@! TO.P,U8,12,4A*
G04 #@! TO.N,unconnected-(U8-4A-Pad12)*
X120730000Y-89800000D03*
G04 #@! TO.P,U8,13,4OE*
G04 #@! TO.N,unconnected-(U8-4OE-Pad13)*
X119460000Y-89800000D03*
G04 #@! TO.P,U8,14,VCC*
G04 #@! TO.N,3V3*
X118190000Y-89800000D03*
G04 #@! TD*
D17*
G04 #@! TO.P,S3,1,GND*
G04 #@! TO.N,GND*
X202020000Y-126230000D03*
G04 #@! TO.P,S3,2,CSB*
G04 #@! TO.N,3V3*
X202020000Y-125580000D03*
G04 #@! TO.P,S3,3,SDI*
G04 #@! TO.N,SDA*
X202020000Y-124930000D03*
G04 #@! TO.P,S3,4,SCK*
G04 #@! TO.N,SCL*
X202020000Y-124270000D03*
G04 #@! TO.P,S3,5,SDO*
G04 #@! TO.N,GND*
X203980000Y-124270000D03*
G04 #@! TO.P,S3,6,VDDIO*
G04 #@! TO.N,3V3*
X203980000Y-124920000D03*
G04 #@! TO.P,S3,7,GND*
G04 #@! TO.N,GND*
X203980000Y-125570000D03*
G04 #@! TO.P,S3,8,VDD*
G04 #@! TO.N,3V3*
X203980000Y-126230000D03*
G04 #@! TD*
D18*
G04 #@! TO.P,G1,1,3V3*
G04 #@! TO.N,3V3*
X115000000Y-98460000D03*
G04 #@! TO.P,G1,2,5V*
G04 #@! TO.N,5V*
X115000000Y-101000000D03*
G04 #@! TO.P,G1,3,GND*
G04 #@! TO.N,GND*
X115000000Y-103500000D03*
G04 #@! TO.P,G1,4,SDA*
G04 #@! TO.N,SDA*
X115000000Y-106040000D03*
G04 #@! TO.P,G1,5,SCL*
G04 #@! TO.N,SCL*
X115000000Y-108580000D03*
G04 #@! TD*
D10*
G04 #@! TO.P,REF\u002A\u002A,*
G04 #@! TO.N,*
X117000000Y-71000000D03*
G04 #@! TD*
D19*
G04 #@! TO.P,C22,1*
G04 #@! TO.N,GND*
X115250000Y-125050000D03*
G04 #@! TO.P,C22,2*
G04 #@! TO.N,3V3*
X115250000Y-123450000D03*
G04 #@! TD*
D20*
G04 #@! TO.P,C19,1*
G04 #@! TO.N,3V3*
X203650000Y-119790000D03*
G04 #@! TO.P,C19,2*
G04 #@! TO.N,GND*
X202050000Y-119790000D03*
G04 #@! TD*
D18*
G04 #@! TO.P,S4,1,NC*
G04 #@! TO.N,unconnected-(S4-NC-Pad1)*
X123500000Y-69460000D03*
G04 #@! TO.P,S4,2,1UM*
G04 #@! TO.N,unconnected-(S4-1UM-Pad2)*
X123500000Y-72000000D03*
G04 #@! TO.P,S4,3,5V*
G04 #@! TO.N,5V*
X123500000Y-74500000D03*
G04 #@! TO.P,S4,4,2.5UM*
G04 #@! TO.N,unconnected-(S4-2.5UM-Pad4)*
X123500000Y-77040000D03*
G04 #@! TO.P,S4,5,GND*
G04 #@! TO.N,GND*
X123500000Y-79580000D03*
G04 #@! TO.P,S4,6,RX*
G04 #@! TO.N,PM_RX*
X123500000Y-82120000D03*
G04 #@! TO.P,S4,7,TX*
G04 #@! TO.N,PM_TX*
X123500000Y-84660000D03*
G04 #@! TD*
D10*
G04 #@! TO.P,REF\u002A\u002A,*
G04 #@! TO.N,*
X202000000Y-136000000D03*
G04 #@! TD*
D21*
G04 #@! TO.P,C20,1*
G04 #@! TO.N,GND*
X202050000Y-117290000D03*
G04 #@! TO.P,C20,2*
G04 #@! TO.N,3V3*
X203650000Y-117290000D03*
G04 #@! TD*
D22*
G04 #@! TO.P,D1,1,K*
G04 #@! TO.N,GND*
X201960000Y-107750000D03*
D23*
G04 #@! TO.P,D1,2,A*
G04 #@! TO.N,Net-(D1-A)*
X204500000Y-107750000D03*
G04 #@! TD*
D24*
G04 #@! TO.P,REF\u002A\u002A,1*
G04 #@! TO.N,N/C*
X188000000Y-133000000D03*
G04 #@! TO.P,REF\u002A\u002A,2*
X188000000Y-73000000D03*
G04 #@! TO.P,REF\u002A\u002A,3*
X133000000Y-92000000D03*
D25*
G04 #@! TO.P,REF\u002A\u002A,4*
X195000000Y-98000000D03*
G04 #@! TD*
D21*
G04 #@! TO.P,R1,1*
G04 #@! TO.N,STATUS_LED*
X202700000Y-111000000D03*
G04 #@! TO.P,R1,2*
G04 #@! TO.N,Net-(D1-A)*
X204300000Y-111000000D03*
G04 #@! TD*
D26*
G04 #@! TO.N,3V3*
X113000000Y-100500000D03*
G04 #@! TO.N,GND*
X125750000Y-96750000D03*
X116000000Y-88750000D03*
X200400000Y-117290000D03*
X118250000Y-96750000D03*
X115250000Y-75500000D03*
X115250000Y-126250000D03*
X200400000Y-119790000D03*
X202000000Y-127250000D03*
X122000000Y-96750000D03*
X205250000Y-124250000D03*
X205250000Y-125500000D03*
X115750000Y-117000000D03*
G04 #@! TO.N,SCL*
X136000000Y-118500000D03*
X128250000Y-118000000D03*
G04 #@! TO.N,SDA*
X129250000Y-116750000D03*
X133500000Y-117250000D03*
G04 #@! TO.N,AT_CLIM_RX*
X121750000Y-111500000D03*
X120500000Y-113750000D03*
G04 #@! TO.N,AT_CLIM_TX*
X123000000Y-112750000D03*
X121500000Y-115000000D03*
G04 #@! TD*
D27*
G04 #@! TO.N,3V3*
X118920000Y-127500000D02*
X120920000Y-129500000D01*
X120920000Y-129500000D02*
X184750000Y-129500000D01*
X184750000Y-129500000D02*
X185250000Y-129000000D01*
X185250000Y-129000000D02*
X191000000Y-129000000D01*
X191000000Y-129000000D02*
X191500000Y-129500000D01*
X197500000Y-129500000D02*
X201420000Y-125580000D01*
X191500000Y-129500000D02*
X197500000Y-129500000D01*
X201420000Y-125580000D02*
X202020000Y-125580000D01*
D28*
X203650000Y-119790000D02*
X203400000Y-120040000D01*
X203400000Y-120040000D02*
X203400000Y-124920000D01*
X202740000Y-125580000D02*
X203400000Y-124920000D01*
X203400000Y-124920000D02*
X203980000Y-124920000D01*
X202020000Y-125580000D02*
X202740000Y-125580000D01*
X202740000Y-125580000D02*
X203390000Y-126230000D01*
X203390000Y-126230000D02*
X203980000Y-126230000D01*
D27*
X115650000Y-121050000D02*
X117550000Y-122950000D01*
X115000000Y-92990000D02*
X118190000Y-89800000D01*
D28*
X203650000Y-119790000D02*
X203340000Y-120100000D01*
D27*
X113000000Y-118800000D02*
X115250000Y-121050000D01*
X117550000Y-122950000D02*
X117550000Y-126130000D01*
X203650000Y-117290000D02*
X203650000Y-119790000D01*
X117550000Y-126130000D02*
X118920000Y-127500000D01*
X113000000Y-100500000D02*
X113000000Y-118800000D01*
X115250000Y-123450000D02*
X117050000Y-123450000D01*
X115000000Y-98460000D02*
X115000000Y-92990000D01*
X115250000Y-121050000D02*
X115650000Y-121050000D01*
X117050000Y-123450000D02*
X117550000Y-122950000D01*
D28*
G04 #@! TO.N,GND*
X205230000Y-124270000D02*
X205250000Y-124250000D01*
X118190000Y-95200000D02*
X118190000Y-96690000D01*
X202050000Y-119790000D02*
X200400000Y-119790000D01*
X203980000Y-125570000D02*
X205180000Y-125570000D01*
X115250000Y-77000000D02*
X115250000Y-75500000D01*
X125810000Y-96690000D02*
X125750000Y-96750000D01*
X202020000Y-126230000D02*
X202020000Y-127230000D01*
X115775000Y-117025000D02*
X115750000Y-117000000D01*
X122000000Y-95200000D02*
X122000000Y-96750000D01*
X125810000Y-95200000D02*
X125810000Y-96690000D01*
X118190000Y-96690000D02*
X118250000Y-96750000D01*
X202050000Y-117290000D02*
X200400000Y-117290000D01*
X116000000Y-90200000D02*
X116000000Y-88750000D01*
X117545000Y-117025000D02*
X115775000Y-117025000D01*
X205180000Y-125570000D02*
X205250000Y-125500000D01*
X202020000Y-127230000D02*
X202000000Y-127250000D01*
X115250000Y-125050000D02*
X115250000Y-126250000D01*
X203980000Y-124270000D02*
X205230000Y-124270000D01*
D27*
G04 #@! TO.N,5V*
X115250000Y-78600000D02*
X119400000Y-78600000D01*
X119400000Y-78600000D02*
X123500000Y-74500000D01*
X115000000Y-101000000D02*
X113250000Y-99250000D01*
X113250000Y-99250000D02*
X113250000Y-80600000D01*
X113250000Y-80600000D02*
X115250000Y-78600000D01*
D28*
G04 #@! TO.N,SCL*
X123890000Y-116122962D02*
X123890000Y-117025000D01*
X127500000Y-118750000D02*
X128250000Y-118000000D01*
X123890000Y-118140000D02*
X124500000Y-118750000D01*
X115000000Y-108580000D02*
X116347038Y-108580000D01*
X116347038Y-108580000D02*
X123890000Y-116122962D01*
X124500000Y-118750000D02*
X127500000Y-118750000D01*
X123890000Y-117025000D02*
X123890000Y-118140000D01*
X196250000Y-118500000D02*
X202020000Y-124270000D01*
X136000000Y-118500000D02*
X196250000Y-118500000D01*
G04 #@! TO.N,SDA*
X133500000Y-117250000D02*
X141180000Y-124930000D01*
X141180000Y-124930000D02*
X202020000Y-124930000D01*
X128975000Y-117025000D02*
X129250000Y-116750000D01*
X125160000Y-117025000D02*
X128975000Y-117025000D01*
X125160000Y-116200000D02*
X125160000Y-117025000D01*
X115000000Y-106040000D02*
X125160000Y-116200000D01*
G04 #@! TO.N,UPDI*
X123250000Y-126750000D02*
X124000000Y-127500000D01*
X122620000Y-117025000D02*
X123250000Y-117655000D01*
X123250000Y-117655000D02*
X123250000Y-126750000D01*
G04 #@! TO.N,PM_TX*
X120205000Y-87955000D02*
X120205000Y-94455000D01*
X123500000Y-84660000D02*
X120205000Y-87955000D01*
X120205000Y-94455000D02*
X119460000Y-95200000D01*
G04 #@! TO.N,PM_RX*
X125250000Y-94490000D02*
X124540000Y-95200000D01*
X123500000Y-82120000D02*
X125250000Y-83870000D01*
X125250000Y-83870000D02*
X125250000Y-94490000D01*
G04 #@! TO.N,AT_CLIM_RX*
X121750000Y-111500000D02*
X120730000Y-110480000D01*
X120080000Y-115170000D02*
X120080000Y-117025000D01*
X120500000Y-114750000D02*
X120080000Y-115170000D01*
X120730000Y-110480000D02*
X120730000Y-95200000D01*
X120500000Y-113750000D02*
X120500000Y-114750000D01*
G04 #@! TO.N,AT_CLIM_TX*
X121350000Y-117025000D02*
X121350000Y-115150000D01*
X123000000Y-112750000D02*
X123270000Y-112480000D01*
X123270000Y-112480000D02*
X123270000Y-95200000D01*
X121350000Y-115150000D02*
X121500000Y-115000000D01*
G04 #@! TO.N,Net-(D1-A)*
X204300000Y-107950000D02*
X204500000Y-107750000D01*
X204300000Y-111000000D02*
X204300000Y-107950000D01*
G04 #@! TO.N,STATUS_LED*
X125155000Y-122950000D02*
X137105000Y-111000000D01*
X137105000Y-111000000D02*
X202700000Y-111000000D01*
G04 #@! TD*
M02*
