M48
; DRILL file {KiCad 9.0.6} date 2026-02-04T03:16:04+0100
; FORMAT={-:-/ absolute / metric / decimal}
; #@! TF.CreationDate,2026-02-04T03:16:04+01:00
; #@! TF.GenerationSoftware,Kicad,Pcbnew,9.0.6
; #@! TF.FileFunction,Plated,1,2,PTH
FMAT,2
METRIC
; #@! TA.AperFunction,Plated,PTH,ViaDrill
T1C0.300
; #@! TA.AperFunction,Plated,PTH,ComponentDrill
T2C0.750
; #@! TA.AperFunction,Plated,PTH,ComponentDrill
T3C0.800
; #@! TA.AperFunction,Plated,PTH,ComponentDrill
T4C1.000
; #@! TA.AperFunction,Plated,PTH,ComponentDrill
T5C1.020
; #@! TA.AperFunction,Plated,PTH,ComponentDrill
T6C1.100
; #@! TA.AperFunction,Plated,PTH,ComponentDrill
T7C1.500
; #@! TA.AperFunction,Plated,PTH,ComponentDrill
T8C1.700
%
G90
G05
T1
X129.023Y-99.705
X129.45Y-90.85
X129.5Y-77.0
X130.748Y-95.205
X133.136Y-127.435
X135.635Y-88.907
X135.989Y-68.228
X136.743Y-73.743
X137.19Y-68.828
X137.636Y-94.678
X138.0Y-86.699
X138.09Y-70.828
X138.1Y-85.9
X138.2Y-85.1
X138.39Y-66.828
X139.9Y-89.6
X140.036Y-93.005
X141.636Y-102.944
X141.89Y-71.428
X142.336Y-104.105
X142.49Y-63.028
X142.79Y-69.328
X143.4Y-87.3
X143.99Y-70.828
X144.79Y-63.128
X144.85Y-59.128
X145.236Y-127.435
X145.5Y-97.53
X145.86Y-64.237
X147.79Y-67.228
X147.903Y-101.542
X148.505Y-89.505
X148.8Y-92.7
X148.8Y-95.1
X149.4Y-93.371
X149.4Y-95.8
X150.0Y-93.9
X150.0Y-96.5
X151.041Y-93.709
X151.25Y-89.2
X152.396Y-100.905
X152.89Y-71.128
X153.365Y-62.903
X154.436Y-109.735
X154.436Y-127.435
X154.936Y-100.905
X155.29Y-68.728
X156.09Y-62.728
X158.125Y-58.725
X163.144Y-72.994
X164.536Y-72.705
X166.536Y-127.435
X166.548Y-72.717
X169.536Y-86.325
X171.947Y-92.85
T2
X142.736Y-140.635
X142.736Y-141.905
X142.736Y-143.175
X142.836Y-111.235
X142.836Y-112.505
X142.836Y-113.775
X156.836Y-111.245
X156.836Y-112.515
X156.836Y-113.785
X156.936Y-140.635
X156.936Y-141.905
X156.936Y-143.175
T3
X152.436Y-89.96
X152.436Y-91.96
X162.636Y-79.625
X162.636Y-81.625
X167.491Y-95.325
X169.491Y-95.325
T4
X130.048Y-79.195
X130.048Y-81.735
X130.048Y-84.275
X130.048Y-86.815
X131.636Y-106.805
X134.136Y-111.135
X136.461Y-127.435
X139.001Y-127.435
X139.036Y-75.025
X139.036Y-79.105
X139.036Y-83.205
X141.576Y-75.025
X141.576Y-79.105
X141.576Y-83.205
X144.116Y-75.025
X144.116Y-79.105
X144.116Y-83.205
X144.776Y-103.495
X144.776Y-106.035
X146.656Y-75.025
X146.656Y-79.105
X146.656Y-83.205
X147.316Y-103.495
X147.316Y-106.035
X147.436Y-94.465
X147.436Y-97.005
X149.196Y-75.025
X149.196Y-79.105
X149.196Y-83.205
X149.856Y-103.495
X149.856Y-106.035
X152.396Y-103.495
X152.396Y-106.035
X154.396Y-77.105
X154.396Y-79.645
X154.396Y-82.185
X154.936Y-103.495
X154.936Y-106.035
X156.936Y-77.105
X156.936Y-79.645
X156.936Y-82.185
X157.136Y-86.33
X157.136Y-88.87
X160.696Y-127.435
X162.756Y-75.005
X163.236Y-127.435
X165.296Y-75.005
X165.536Y-111.135
X167.836Y-75.005
X168.036Y-106.805
X170.376Y-75.005
T5
X127.65Y-71.828
X127.65Y-74.368
X130.19Y-71.828
X130.19Y-74.368
X132.73Y-71.828
X132.73Y-74.368
X135.27Y-71.828
X135.27Y-74.368
T6
X132.396Y-116.735
X132.396Y-137.235
X134.936Y-116.735
X134.936Y-137.235
X137.476Y-116.735
X137.476Y-137.235
X155.636Y-95.773
X155.636Y-98.313
X162.196Y-139.135
X162.256Y-118.635
X164.736Y-139.135
X164.796Y-118.635
X167.276Y-139.135
X167.336Y-118.635
T7
X130.99Y-61.328
T8
X128.45Y-58.788
X128.45Y-63.868
X133.53Y-58.788
X133.53Y-63.868
M30
