%TF.GenerationSoftware,KiCad,Pcbnew,9.0.6*%
%TF.CreationDate,2026-02-04T03:15:49+01:00*%
%TF.ProjectId,car,6361722e-6b69-4636-9164-5f7063625858,rev?*%
%TF.SameCoordinates,Original*%
%TF.FileFunction,Legend,Top*%
%TF.FilePolarity,Positive*%
%FSLAX46Y46*%
G04 Gerber Fmt 4.6, Leading zero omitted, Abs format (unit mm)*
G04 Created by KiCad (PCBNEW 9.0.6) date 2026-02-04 03:15:49*
%MOMM*%
%LPD*%
G01*
G04 APERTURE LIST*
%ADD10C,0.153000*%
%ADD11C,0.120000*%
%ADD12C,0.100000*%
%ADD13C,0.152400*%
%ADD14C,0.508000*%
%ADD15C,0.150000*%
%ADD16C,0.300000*%
G04 APERTURE END LIST*
D10*
X170602636Y-76959506D02*
X170602636Y-77673791D01*
X170602636Y-77673791D02*
X170555017Y-77816648D01*
X170555017Y-77816648D02*
X170459779Y-77911887D01*
X170459779Y-77911887D02*
X170316922Y-77959506D01*
X170316922Y-77959506D02*
X170221684Y-77959506D01*
X171221684Y-77388077D02*
X171126446Y-77340458D01*
X171126446Y-77340458D02*
X171078827Y-77292839D01*
X171078827Y-77292839D02*
X171031208Y-77197601D01*
X171031208Y-77197601D02*
X171031208Y-77149982D01*
X171031208Y-77149982D02*
X171078827Y-77054744D01*
X171078827Y-77054744D02*
X171126446Y-77007125D01*
X171126446Y-77007125D02*
X171221684Y-76959506D01*
X171221684Y-76959506D02*
X171412160Y-76959506D01*
X171412160Y-76959506D02*
X171507398Y-77007125D01*
X171507398Y-77007125D02*
X171555017Y-77054744D01*
X171555017Y-77054744D02*
X171602636Y-77149982D01*
X171602636Y-77149982D02*
X171602636Y-77197601D01*
X171602636Y-77197601D02*
X171555017Y-77292839D01*
X171555017Y-77292839D02*
X171507398Y-77340458D01*
X171507398Y-77340458D02*
X171412160Y-77388077D01*
X171412160Y-77388077D02*
X171221684Y-77388077D01*
X171221684Y-77388077D02*
X171126446Y-77435696D01*
X171126446Y-77435696D02*
X171078827Y-77483315D01*
X171078827Y-77483315D02*
X171031208Y-77578553D01*
X171031208Y-77578553D02*
X171031208Y-77769029D01*
X171031208Y-77769029D02*
X171078827Y-77864267D01*
X171078827Y-77864267D02*
X171126446Y-77911887D01*
X171126446Y-77911887D02*
X171221684Y-77959506D01*
X171221684Y-77959506D02*
X171412160Y-77959506D01*
X171412160Y-77959506D02*
X171507398Y-77911887D01*
X171507398Y-77911887D02*
X171555017Y-77864267D01*
X171555017Y-77864267D02*
X171602636Y-77769029D01*
X171602636Y-77769029D02*
X171602636Y-77578553D01*
X171602636Y-77578553D02*
X171555017Y-77483315D01*
X171555017Y-77483315D02*
X171507398Y-77435696D01*
X171507398Y-77435696D02*
X171412160Y-77388077D01*
X152826446Y-84159506D02*
X152826446Y-84873791D01*
X152826446Y-84873791D02*
X152778827Y-85016648D01*
X152778827Y-85016648D02*
X152683589Y-85111887D01*
X152683589Y-85111887D02*
X152540732Y-85159506D01*
X152540732Y-85159506D02*
X152445494Y-85159506D01*
X153826446Y-85159506D02*
X153255018Y-85159506D01*
X153540732Y-85159506D02*
X153540732Y-84159506D01*
X153540732Y-84159506D02*
X153445494Y-84302363D01*
X153445494Y-84302363D02*
X153350256Y-84397601D01*
X153350256Y-84397601D02*
X153255018Y-84445220D01*
X154445494Y-84159506D02*
X154540732Y-84159506D01*
X154540732Y-84159506D02*
X154635970Y-84207125D01*
X154635970Y-84207125D02*
X154683589Y-84254744D01*
X154683589Y-84254744D02*
X154731208Y-84349982D01*
X154731208Y-84349982D02*
X154778827Y-84540458D01*
X154778827Y-84540458D02*
X154778827Y-84778553D01*
X154778827Y-84778553D02*
X154731208Y-84969029D01*
X154731208Y-84969029D02*
X154683589Y-85064267D01*
X154683589Y-85064267D02*
X154635970Y-85111887D01*
X154635970Y-85111887D02*
X154540732Y-85159506D01*
X154540732Y-85159506D02*
X154445494Y-85159506D01*
X154445494Y-85159506D02*
X154350256Y-85111887D01*
X154350256Y-85111887D02*
X154302637Y-85064267D01*
X154302637Y-85064267D02*
X154255018Y-84969029D01*
X154255018Y-84969029D02*
X154207399Y-84778553D01*
X154207399Y-84778553D02*
X154207399Y-84540458D01*
X154207399Y-84540458D02*
X154255018Y-84349982D01*
X154255018Y-84349982D02*
X154302637Y-84254744D01*
X154302637Y-84254744D02*
X154350256Y-84207125D01*
X154350256Y-84207125D02*
X154445494Y-84159506D01*
X156876446Y-127889633D02*
X156876446Y-126889633D01*
X156876446Y-126889633D02*
X157209779Y-127603918D01*
X157209779Y-127603918D02*
X157543112Y-126889633D01*
X157543112Y-126889633D02*
X157543112Y-127889633D01*
X157971684Y-126984871D02*
X158019303Y-126937252D01*
X158019303Y-126937252D02*
X158114541Y-126889633D01*
X158114541Y-126889633D02*
X158352636Y-126889633D01*
X158352636Y-126889633D02*
X158447874Y-126937252D01*
X158447874Y-126937252D02*
X158495493Y-126984871D01*
X158495493Y-126984871D02*
X158543112Y-127080109D01*
X158543112Y-127080109D02*
X158543112Y-127175347D01*
X158543112Y-127175347D02*
X158495493Y-127318204D01*
X158495493Y-127318204D02*
X157924065Y-127889633D01*
X157924065Y-127889633D02*
X158543112Y-127889633D01*
X135856586Y-63482506D02*
X135856586Y-64196791D01*
X135856586Y-64196791D02*
X135808967Y-64339648D01*
X135808967Y-64339648D02*
X135713729Y-64434887D01*
X135713729Y-64434887D02*
X135570872Y-64482506D01*
X135570872Y-64482506D02*
X135475634Y-64482506D01*
X136761348Y-63482506D02*
X136570872Y-63482506D01*
X136570872Y-63482506D02*
X136475634Y-63530125D01*
X136475634Y-63530125D02*
X136428015Y-63577744D01*
X136428015Y-63577744D02*
X136332777Y-63720601D01*
X136332777Y-63720601D02*
X136285158Y-63911077D01*
X136285158Y-63911077D02*
X136285158Y-64292029D01*
X136285158Y-64292029D02*
X136332777Y-64387267D01*
X136332777Y-64387267D02*
X136380396Y-64434887D01*
X136380396Y-64434887D02*
X136475634Y-64482506D01*
X136475634Y-64482506D02*
X136666110Y-64482506D01*
X136666110Y-64482506D02*
X136761348Y-64434887D01*
X136761348Y-64434887D02*
X136808967Y-64387267D01*
X136808967Y-64387267D02*
X136856586Y-64292029D01*
X136856586Y-64292029D02*
X136856586Y-64053934D01*
X136856586Y-64053934D02*
X136808967Y-63958696D01*
X136808967Y-63958696D02*
X136761348Y-63911077D01*
X136761348Y-63911077D02*
X136666110Y-63863458D01*
X136666110Y-63863458D02*
X136475634Y-63863458D01*
X136475634Y-63863458D02*
X136380396Y-63911077D01*
X136380396Y-63911077D02*
X136332777Y-63958696D01*
X136332777Y-63958696D02*
X136285158Y-64053934D01*
X141126446Y-127889633D02*
X141126446Y-126889633D01*
X141126446Y-126889633D02*
X141459779Y-127603918D01*
X141459779Y-127603918D02*
X141793112Y-126889633D01*
X141793112Y-126889633D02*
X141793112Y-127889633D01*
X142793112Y-127889633D02*
X142221684Y-127889633D01*
X142507398Y-127889633D02*
X142507398Y-126889633D01*
X142507398Y-126889633D02*
X142412160Y-127032490D01*
X142412160Y-127032490D02*
X142316922Y-127127728D01*
X142316922Y-127127728D02*
X142221684Y-127175347D01*
X147102636Y-99059506D02*
X147102636Y-99773791D01*
X147102636Y-99773791D02*
X147055017Y-99916648D01*
X147055017Y-99916648D02*
X146959779Y-100011887D01*
X146959779Y-100011887D02*
X146816922Y-100059506D01*
X146816922Y-100059506D02*
X146721684Y-100059506D01*
X148055017Y-99059506D02*
X147578827Y-99059506D01*
X147578827Y-99059506D02*
X147531208Y-99535696D01*
X147531208Y-99535696D02*
X147578827Y-99488077D01*
X147578827Y-99488077D02*
X147674065Y-99440458D01*
X147674065Y-99440458D02*
X147912160Y-99440458D01*
X147912160Y-99440458D02*
X148007398Y-99488077D01*
X148007398Y-99488077D02*
X148055017Y-99535696D01*
X148055017Y-99535696D02*
X148102636Y-99630934D01*
X148102636Y-99630934D02*
X148102636Y-99869029D01*
X148102636Y-99869029D02*
X148055017Y-99964267D01*
X148055017Y-99964267D02*
X148007398Y-100011887D01*
X148007398Y-100011887D02*
X147912160Y-100059506D01*
X147912160Y-100059506D02*
X147674065Y-100059506D01*
X147674065Y-100059506D02*
X147578827Y-100011887D01*
X147578827Y-100011887D02*
X147531208Y-99964267D01*
X151482636Y-82659506D02*
X151482636Y-83373791D01*
X151482636Y-83373791D02*
X151435017Y-83516648D01*
X151435017Y-83516648D02*
X151339779Y-83611887D01*
X151339779Y-83611887D02*
X151196922Y-83659506D01*
X151196922Y-83659506D02*
X151101684Y-83659506D01*
X152387398Y-82992839D02*
X152387398Y-83659506D01*
X152149303Y-82611887D02*
X151911208Y-83326172D01*
X151911208Y-83326172D02*
X152530255Y-83326172D01*
X129715136Y-88649506D02*
X129715136Y-89363791D01*
X129715136Y-89363791D02*
X129667517Y-89506648D01*
X129667517Y-89506648D02*
X129572279Y-89601887D01*
X129572279Y-89601887D02*
X129429422Y-89649506D01*
X129429422Y-89649506D02*
X129334184Y-89649506D01*
X130715136Y-89649506D02*
X130143708Y-89649506D01*
X130429422Y-89649506D02*
X130429422Y-88649506D01*
X130429422Y-88649506D02*
X130334184Y-88792363D01*
X130334184Y-88792363D02*
X130238946Y-88887601D01*
X130238946Y-88887601D02*
X130143708Y-88935220D01*
X141702636Y-104219633D02*
X141702636Y-104933918D01*
X141702636Y-104933918D02*
X141655017Y-105076775D01*
X141655017Y-105076775D02*
X141559779Y-105172014D01*
X141559779Y-105172014D02*
X141416922Y-105219633D01*
X141416922Y-105219633D02*
X141321684Y-105219633D01*
X142226446Y-105219633D02*
X142416922Y-105219633D01*
X142416922Y-105219633D02*
X142512160Y-105172014D01*
X142512160Y-105172014D02*
X142559779Y-105124394D01*
X142559779Y-105124394D02*
X142655017Y-104981537D01*
X142655017Y-104981537D02*
X142702636Y-104791061D01*
X142702636Y-104791061D02*
X142702636Y-104410109D01*
X142702636Y-104410109D02*
X142655017Y-104314871D01*
X142655017Y-104314871D02*
X142607398Y-104267252D01*
X142607398Y-104267252D02*
X142512160Y-104219633D01*
X142512160Y-104219633D02*
X142321684Y-104219633D01*
X142321684Y-104219633D02*
X142226446Y-104267252D01*
X142226446Y-104267252D02*
X142178827Y-104314871D01*
X142178827Y-104314871D02*
X142131208Y-104410109D01*
X142131208Y-104410109D02*
X142131208Y-104648204D01*
X142131208Y-104648204D02*
X142178827Y-104743442D01*
X142178827Y-104743442D02*
X142226446Y-104791061D01*
X142226446Y-104791061D02*
X142321684Y-104838680D01*
X142321684Y-104838680D02*
X142512160Y-104838680D01*
X142512160Y-104838680D02*
X142607398Y-104791061D01*
X142607398Y-104791061D02*
X142655017Y-104743442D01*
X142655017Y-104743442D02*
X142702636Y-104648204D01*
X126566666Y-68754663D02*
X126566666Y-69468948D01*
X126566666Y-69468948D02*
X126519047Y-69611805D01*
X126519047Y-69611805D02*
X126423809Y-69707044D01*
X126423809Y-69707044D02*
X126280952Y-69754663D01*
X126280952Y-69754663D02*
X126185714Y-69754663D01*
X126947619Y-68754663D02*
X127614285Y-68754663D01*
X127614285Y-68754663D02*
X127185714Y-69754663D01*
X156450255Y-91335696D02*
X156593112Y-91383315D01*
X156593112Y-91383315D02*
X156640731Y-91430934D01*
X156640731Y-91430934D02*
X156688350Y-91526172D01*
X156688350Y-91526172D02*
X156688350Y-91669029D01*
X156688350Y-91669029D02*
X156640731Y-91764267D01*
X156640731Y-91764267D02*
X156593112Y-91811887D01*
X156593112Y-91811887D02*
X156497874Y-91859506D01*
X156497874Y-91859506D02*
X156116922Y-91859506D01*
X156116922Y-91859506D02*
X156116922Y-90859506D01*
X156116922Y-90859506D02*
X156450255Y-90859506D01*
X156450255Y-90859506D02*
X156545493Y-90907125D01*
X156545493Y-90907125D02*
X156593112Y-90954744D01*
X156593112Y-90954744D02*
X156640731Y-91049982D01*
X156640731Y-91049982D02*
X156640731Y-91145220D01*
X156640731Y-91145220D02*
X156593112Y-91240458D01*
X156593112Y-91240458D02*
X156545493Y-91288077D01*
X156545493Y-91288077D02*
X156450255Y-91335696D01*
X156450255Y-91335696D02*
X156116922Y-91335696D01*
X156974065Y-90859506D02*
X157545493Y-90859506D01*
X157259779Y-91859506D02*
X157259779Y-90859506D01*
X158402636Y-91859506D02*
X157831208Y-91859506D01*
X158116922Y-91859506D02*
X158116922Y-90859506D01*
X158116922Y-90859506D02*
X158021684Y-91002363D01*
X158021684Y-91002363D02*
X157926446Y-91097601D01*
X157926446Y-91097601D02*
X157831208Y-91145220D01*
X143397875Y-87539506D02*
X143397875Y-86539506D01*
X143397875Y-86539506D02*
X143635970Y-86539506D01*
X143635970Y-86539506D02*
X143778827Y-86587125D01*
X143778827Y-86587125D02*
X143874065Y-86682363D01*
X143874065Y-86682363D02*
X143921684Y-86777601D01*
X143921684Y-86777601D02*
X143969303Y-86968077D01*
X143969303Y-86968077D02*
X143969303Y-87110934D01*
X143969303Y-87110934D02*
X143921684Y-87301410D01*
X143921684Y-87301410D02*
X143874065Y-87396648D01*
X143874065Y-87396648D02*
X143778827Y-87491887D01*
X143778827Y-87491887D02*
X143635970Y-87539506D01*
X143635970Y-87539506D02*
X143397875Y-87539506D01*
X144302637Y-86539506D02*
X144921684Y-86539506D01*
X144921684Y-86539506D02*
X144588351Y-86920458D01*
X144588351Y-86920458D02*
X144731208Y-86920458D01*
X144731208Y-86920458D02*
X144826446Y-86968077D01*
X144826446Y-86968077D02*
X144874065Y-87015696D01*
X144874065Y-87015696D02*
X144921684Y-87110934D01*
X144921684Y-87110934D02*
X144921684Y-87349029D01*
X144921684Y-87349029D02*
X144874065Y-87444267D01*
X144874065Y-87444267D02*
X144826446Y-87491887D01*
X144826446Y-87491887D02*
X144731208Y-87539506D01*
X144731208Y-87539506D02*
X144445494Y-87539506D01*
X144445494Y-87539506D02*
X144350256Y-87491887D01*
X144350256Y-87491887D02*
X144302637Y-87444267D01*
X151482636Y-78559506D02*
X151482636Y-79273791D01*
X151482636Y-79273791D02*
X151435017Y-79416648D01*
X151435017Y-79416648D02*
X151339779Y-79511887D01*
X151339779Y-79511887D02*
X151196922Y-79559506D01*
X151196922Y-79559506D02*
X151101684Y-79559506D01*
X151863589Y-78559506D02*
X152482636Y-78559506D01*
X152482636Y-78559506D02*
X152149303Y-78940458D01*
X152149303Y-78940458D02*
X152292160Y-78940458D01*
X152292160Y-78940458D02*
X152387398Y-78988077D01*
X152387398Y-78988077D02*
X152435017Y-79035696D01*
X152435017Y-79035696D02*
X152482636Y-79130934D01*
X152482636Y-79130934D02*
X152482636Y-79369029D01*
X152482636Y-79369029D02*
X152435017Y-79464267D01*
X152435017Y-79464267D02*
X152387398Y-79511887D01*
X152387398Y-79511887D02*
X152292160Y-79559506D01*
X152292160Y-79559506D02*
X152006446Y-79559506D01*
X152006446Y-79559506D02*
X151911208Y-79511887D01*
X151911208Y-79511887D02*
X151863589Y-79464267D01*
X143397875Y-92489506D02*
X143397875Y-91489506D01*
X143397875Y-91489506D02*
X143635970Y-91489506D01*
X143635970Y-91489506D02*
X143778827Y-91537125D01*
X143778827Y-91537125D02*
X143874065Y-91632363D01*
X143874065Y-91632363D02*
X143921684Y-91727601D01*
X143921684Y-91727601D02*
X143969303Y-91918077D01*
X143969303Y-91918077D02*
X143969303Y-92060934D01*
X143969303Y-92060934D02*
X143921684Y-92251410D01*
X143921684Y-92251410D02*
X143874065Y-92346648D01*
X143874065Y-92346648D02*
X143778827Y-92441887D01*
X143778827Y-92441887D02*
X143635970Y-92489506D01*
X143635970Y-92489506D02*
X143397875Y-92489506D01*
X144350256Y-91584744D02*
X144397875Y-91537125D01*
X144397875Y-91537125D02*
X144493113Y-91489506D01*
X144493113Y-91489506D02*
X144731208Y-91489506D01*
X144731208Y-91489506D02*
X144826446Y-91537125D01*
X144826446Y-91537125D02*
X144874065Y-91584744D01*
X144874065Y-91584744D02*
X144921684Y-91679982D01*
X144921684Y-91679982D02*
X144921684Y-91775220D01*
X144921684Y-91775220D02*
X144874065Y-91918077D01*
X144874065Y-91918077D02*
X144302637Y-92489506D01*
X144302637Y-92489506D02*
X144921684Y-92489506D01*
X151482636Y-74459506D02*
X151482636Y-75173791D01*
X151482636Y-75173791D02*
X151435017Y-75316648D01*
X151435017Y-75316648D02*
X151339779Y-75411887D01*
X151339779Y-75411887D02*
X151196922Y-75459506D01*
X151196922Y-75459506D02*
X151101684Y-75459506D01*
X151911208Y-74554744D02*
X151958827Y-74507125D01*
X151958827Y-74507125D02*
X152054065Y-74459506D01*
X152054065Y-74459506D02*
X152292160Y-74459506D01*
X152292160Y-74459506D02*
X152387398Y-74507125D01*
X152387398Y-74507125D02*
X152435017Y-74554744D01*
X152435017Y-74554744D02*
X152482636Y-74649982D01*
X152482636Y-74649982D02*
X152482636Y-74745220D01*
X152482636Y-74745220D02*
X152435017Y-74888077D01*
X152435017Y-74888077D02*
X151863589Y-75459506D01*
X151863589Y-75459506D02*
X152482636Y-75459506D01*
D11*
%TO.C,J8*%
X161375970Y-76384843D02*
X161375970Y-75004843D01*
X162755970Y-76384843D02*
X161375970Y-76384843D01*
X164025970Y-73624843D02*
X171755970Y-73624843D01*
X164025970Y-76384843D02*
X164025970Y-73624843D01*
X164025970Y-76384843D02*
X171755970Y-76384843D01*
X171755970Y-76384843D02*
X171755970Y-73624843D01*
%TO.C,C19*%
X161595970Y-80624843D02*
X160055970Y-80624843D01*
X161595970Y-80664843D02*
X160055970Y-80664843D01*
X161595970Y-80704843D02*
X160056970Y-80704843D01*
X161595970Y-80744843D02*
X160058970Y-80744843D01*
X161595970Y-80784843D02*
X160060970Y-80784843D01*
X161595970Y-80824843D02*
X160063970Y-80824843D01*
X161595970Y-80864843D02*
X160066970Y-80864843D01*
X161595970Y-80904843D02*
X160070970Y-80904843D01*
X161595970Y-80944843D02*
X160075970Y-80944843D01*
X161595970Y-80984843D02*
X160080970Y-80984843D01*
X161595970Y-81024843D02*
X160086970Y-81024843D01*
X161595970Y-81064843D02*
X160092970Y-81064843D01*
X161595970Y-81104843D02*
X160099970Y-81104843D01*
X161595970Y-81144843D02*
X160107970Y-81144843D01*
X161595970Y-81184843D02*
X160116970Y-81184843D01*
X161595970Y-81224843D02*
X160125970Y-81224843D01*
X161595970Y-81264843D02*
X160134970Y-81264843D01*
X161595970Y-81304843D02*
X160145970Y-81304843D01*
X161595970Y-81344843D02*
X160156970Y-81344843D01*
X161595970Y-81384843D02*
X160168970Y-81384843D01*
X161595970Y-81424843D02*
X160180970Y-81424843D01*
X161595970Y-81464843D02*
X160193970Y-81464843D01*
X161595970Y-81504843D02*
X160207970Y-81504843D01*
X161595970Y-81544843D02*
X160222970Y-81544843D01*
X161595970Y-81584843D02*
X160237970Y-81584843D01*
X161595970Y-81624843D02*
X160253970Y-81624843D01*
X161595970Y-81664843D02*
X160270970Y-81664843D01*
X161595970Y-81704843D02*
X160288970Y-81704843D01*
X161595970Y-81744843D02*
X160306970Y-81744843D01*
X161595970Y-81784843D02*
X160326970Y-81784843D01*
X161595970Y-81824843D02*
X160346970Y-81824843D01*
X161595970Y-81864843D02*
X160367970Y-81864843D01*
X161595970Y-81904843D02*
X160389970Y-81904843D01*
X161595970Y-81944843D02*
X160412970Y-81944843D01*
X161595970Y-81984843D02*
X160436970Y-81984843D01*
X161595970Y-82024843D02*
X160460970Y-82024843D01*
X161595970Y-82064843D02*
X160486970Y-82064843D01*
X161595970Y-82104843D02*
X160513970Y-82104843D01*
X161595970Y-82144843D02*
X160541970Y-82144843D01*
X161595970Y-82184843D02*
X160570970Y-82184843D01*
X161595970Y-82224843D02*
X160600970Y-82224843D01*
X161595970Y-82264843D02*
X160632970Y-82264843D01*
X161595970Y-82304843D02*
X160665970Y-82304843D01*
X161595970Y-82344843D02*
X160699970Y-82344843D01*
X161595970Y-82384843D02*
X160734970Y-82384843D01*
X161595970Y-82424843D02*
X160771970Y-82424843D01*
X161595970Y-82464843D02*
X160810970Y-82464843D01*
X161595970Y-82504843D02*
X160850970Y-82504843D01*
X161595970Y-82544843D02*
X160892970Y-82544843D01*
X161595970Y-82584843D02*
X160936970Y-82584843D01*
X161595970Y-82624843D02*
X160983970Y-82624843D01*
X162918970Y-83224843D02*
X162352970Y-83224843D01*
X163152970Y-83184843D02*
X162118970Y-83184843D01*
X163312970Y-83144843D02*
X161958970Y-83144843D01*
X163440970Y-83104843D02*
X161830970Y-83104843D01*
X163549970Y-83064843D02*
X161721970Y-83064843D01*
X163646970Y-83024843D02*
X161624970Y-83024843D01*
X163733970Y-82984843D02*
X161537970Y-82984843D01*
X163812970Y-82944843D02*
X161458970Y-82944843D01*
X163886970Y-82904843D02*
X161384970Y-82904843D01*
X163954970Y-82864843D02*
X161316970Y-82864843D01*
X164018970Y-82824843D02*
X161252970Y-82824843D01*
X164078970Y-82784843D02*
X161192970Y-82784843D01*
X164110970Y-77820068D02*
X164110970Y-78320068D01*
X164134970Y-82744843D02*
X161136970Y-82744843D01*
X164188970Y-82704843D02*
X161082970Y-82704843D01*
X164239970Y-82664843D02*
X161031970Y-82664843D01*
X164287970Y-82624843D02*
X163675970Y-82624843D01*
X164334970Y-82584843D02*
X163675970Y-82584843D01*
X164360970Y-78070068D02*
X163860970Y-78070068D01*
X164378970Y-82544843D02*
X163675970Y-82544843D01*
X164420970Y-82504843D02*
X163675970Y-82504843D01*
X164460970Y-82464843D02*
X163675970Y-82464843D01*
X164499970Y-82424843D02*
X163675970Y-82424843D01*
X164536970Y-82384843D02*
X163675970Y-82384843D01*
X164571970Y-82344843D02*
X163675970Y-82344843D01*
X164605970Y-82304843D02*
X163675970Y-82304843D01*
X164638970Y-82264843D02*
X163675970Y-82264843D01*
X164670970Y-82224843D02*
X163675970Y-82224843D01*
X164700970Y-82184843D02*
X163675970Y-82184843D01*
X164729970Y-82144843D02*
X163675970Y-82144843D01*
X164757970Y-82104843D02*
X163675970Y-82104843D01*
X164784970Y-82064843D02*
X163675970Y-82064843D01*
X164810970Y-82024843D02*
X163675970Y-82024843D01*
X164834970Y-81984843D02*
X163675970Y-81984843D01*
X164858970Y-81944843D02*
X163675970Y-81944843D01*
X164881970Y-81904843D02*
X163675970Y-81904843D01*
X164903970Y-81864843D02*
X163675970Y-81864843D01*
X164924970Y-81824843D02*
X163675970Y-81824843D01*
X164944970Y-81784843D02*
X163675970Y-81784843D01*
X164964970Y-81744843D02*
X163675970Y-81744843D01*
X164982970Y-81704843D02*
X163675970Y-81704843D01*
X165000970Y-81664843D02*
X163675970Y-81664843D01*
X165017970Y-81624843D02*
X163675970Y-81624843D01*
X165033970Y-81584843D02*
X163675970Y-81584843D01*
X165048970Y-81544843D02*
X163675970Y-81544843D01*
X165063970Y-81504843D02*
X163675970Y-81504843D01*
X165077970Y-81464843D02*
X163675970Y-81464843D01*
X165090970Y-81424843D02*
X163675970Y-81424843D01*
X165102970Y-81384843D02*
X163675970Y-81384843D01*
X165114970Y-81344843D02*
X163675970Y-81344843D01*
X165125970Y-81304843D02*
X163675970Y-81304843D01*
X165136970Y-81264843D02*
X163675970Y-81264843D01*
X165145970Y-81224843D02*
X163675970Y-81224843D01*
X165154970Y-81184843D02*
X163675970Y-81184843D01*
X165163970Y-81144843D02*
X163675970Y-81144843D01*
X165171970Y-81104843D02*
X163675970Y-81104843D01*
X165178970Y-81064843D02*
X163675970Y-81064843D01*
X165184970Y-81024843D02*
X163675970Y-81024843D01*
X165190970Y-80984843D02*
X163675970Y-80984843D01*
X165195970Y-80944843D02*
X163675970Y-80944843D01*
X165200970Y-80904843D02*
X163675970Y-80904843D01*
X165204970Y-80864843D02*
X163675970Y-80864843D01*
X165207970Y-80824843D02*
X163675970Y-80824843D01*
X165210970Y-80784843D02*
X163675970Y-80784843D01*
X165212970Y-80744843D02*
X163675970Y-80744843D01*
X165214970Y-80704843D02*
X163675970Y-80704843D01*
X165215970Y-80624843D02*
X163675970Y-80624843D01*
X165215970Y-80664843D02*
X163675970Y-80664843D01*
X165255970Y-80624843D02*
G75*
G02*
X160015970Y-80624843I-2620000J0D01*
G01*
X160015970Y-80624843D02*
G75*
G02*
X165255970Y-80624843I2620000J0D01*
G01*
%TO.C,R20*%
X164990694Y-141712470D02*
X164481246Y-141712470D01*
X164990694Y-142757470D02*
X164481246Y-142757470D01*
%TO.C,D6*%
X128225970Y-130284970D02*
X128225970Y-133584970D01*
X128225970Y-130284970D02*
X135235970Y-130284970D01*
X128225970Y-133584970D02*
X135235970Y-133584970D01*
%TO.C,U4*%
X168255970Y-85834843D02*
X167455970Y-85834843D01*
X168255970Y-85834843D02*
X169055970Y-85834843D01*
X169215970Y-82764843D02*
X167455970Y-82764843D01*
X169795970Y-86114843D02*
X169315970Y-86114843D01*
X169555970Y-85784843D01*
X169795970Y-86114843D01*
G36*
X169795970Y-86114843D02*
G01*
X169315970Y-86114843D01*
X169555970Y-85784843D01*
X169795970Y-86114843D01*
G37*
%TO.C,D7*%
X138225970Y-130284970D02*
X138225970Y-133584970D01*
X138225970Y-130284970D02*
X145235970Y-130284970D01*
X138225970Y-133584970D02*
X145235970Y-133584970D01*
%TO.C,J10*%
X153015970Y-75724843D02*
X154395970Y-75724843D01*
X153015970Y-77104843D02*
X153015970Y-75724843D01*
X153015970Y-78374843D02*
X153015970Y-83564843D01*
X153015970Y-78374843D02*
X155665970Y-78374843D01*
X153015970Y-83564843D02*
X158315970Y-83564843D01*
X155665970Y-75724843D02*
X158315970Y-75724843D01*
X155665970Y-78374843D02*
X155665970Y-75724843D01*
X158315970Y-75724843D02*
X158315970Y-83564843D01*
%TO.C,R9*%
X138913470Y-113189694D02*
X138913470Y-112680246D01*
X139958470Y-113189694D02*
X139958470Y-112680246D01*
%TO.C,C16*%
X168722237Y-126924970D02*
X168429703Y-126924970D01*
X168722237Y-127944970D02*
X168429703Y-127944970D01*
%TO.C,U5*%
X158025970Y-95174843D02*
X158025970Y-98934843D01*
X158025970Y-98934843D02*
X159285970Y-98934843D01*
X164845970Y-95174843D02*
X164845970Y-98934843D01*
X164845970Y-98934843D02*
X163585970Y-98934843D01*
X165075970Y-94134843D02*
X164745970Y-93894843D01*
X165075970Y-93654843D01*
X165075970Y-94134843D01*
G36*
X165075970Y-94134843D02*
G01*
X164745970Y-93894843D01*
X165075970Y-93654843D01*
X165075970Y-94134843D01*
G37*
%TO.C,R5*%
X141490694Y-85982343D02*
X140981246Y-85982343D01*
X141490694Y-87027343D02*
X140981246Y-87027343D01*
%TO.C,Q12*%
X158785970Y-143704970D02*
X158785970Y-140104970D01*
X154335970Y-141904970D02*
G75*
G02*
X158774448Y-140066492I2600000J0D01*
G01*
X158774448Y-143743448D02*
G75*
G02*
X154335969Y-141904970I-1838478J1838478D01*
G01*
%TO.C,R10*%
X146513470Y-118180246D02*
X146513470Y-118689694D01*
X147558470Y-118180246D02*
X147558470Y-118689694D01*
D12*
%TO.C,C33*%
X156289920Y-63227843D02*
X155889920Y-63227843D01*
X156289920Y-64227843D02*
X155889920Y-64227843D01*
%TO.C,SW1*%
X133198470Y-81404843D02*
X133398470Y-81404843D01*
X133198470Y-84604843D02*
X133198470Y-81404843D01*
X133198470Y-84604843D02*
X133398470Y-84604843D01*
X135898470Y-81404843D02*
X135698470Y-81404843D01*
X135898470Y-81404843D02*
X135898470Y-84604843D01*
X135898470Y-84604843D02*
X135698470Y-84604843D01*
%TO.C,C37*%
X146189920Y-60327843D02*
X146189920Y-60727843D01*
X147189920Y-60327843D02*
X147189920Y-60727843D01*
D13*
%TO.C,SD1*%
X158762770Y-58293183D02*
X158762770Y-59137603D01*
X158762770Y-60692083D02*
X158762770Y-63326403D01*
X158762770Y-65033283D02*
X158762770Y-69876503D01*
X162267411Y-70765043D02*
X169306231Y-70765043D01*
X170273831Y-57404643D02*
X162267411Y-57404643D01*
X172765711Y-70765043D02*
X173062970Y-70765043D01*
X173062970Y-57404643D02*
X172768111Y-57404643D01*
X173062970Y-70765043D02*
X173062970Y-57404643D01*
D14*
X171916970Y-55626643D02*
G75*
G02*
X171154970Y-55626643I-381000J0D01*
G01*
X171154970Y-55626643D02*
G75*
G02*
X171916970Y-55626643I381000J0D01*
G01*
D11*
%TO.C,Q8*%
X154325970Y-117437470D02*
X154375970Y-117437470D01*
X154325970Y-118957470D02*
X154325970Y-117437470D01*
X155325970Y-118957470D02*
X154325970Y-118957470D01*
X155495970Y-117437470D02*
X156275970Y-117437470D01*
X157395970Y-117437470D02*
X157445970Y-117437470D01*
X157445970Y-117437470D02*
X157445970Y-118957470D01*
X157445970Y-118957470D02*
X156445970Y-118957470D01*
X156265970Y-116897470D02*
X155935970Y-117137470D01*
X155935970Y-116657470D01*
X156265970Y-116897470D01*
G36*
X156265970Y-116897470D02*
G01*
X155935970Y-117137470D01*
X155935970Y-116657470D01*
X156265970Y-116897470D01*
G37*
%TO.C,D9*%
X161445970Y-121284970D02*
X154435970Y-121284970D01*
X161445970Y-124584970D02*
X154435970Y-124584970D01*
X161445970Y-124584970D02*
X161445970Y-121284970D01*
%TO.C,D12*%
X154415970Y-97028178D02*
G75*
G02*
X156855970Y-97028178I1220000J1255517D01*
G01*
%TO.C,R31*%
X160213470Y-90679567D02*
X160213470Y-90170119D01*
X161258470Y-90679567D02*
X161258470Y-90170119D01*
%TO.C,Q11*%
X158685970Y-114314970D02*
X158685970Y-110714970D01*
X154235970Y-112514970D02*
G75*
G02*
X158674448Y-110676492I2600000J0D01*
G01*
X158674448Y-114353448D02*
G75*
G02*
X154235969Y-112514970I-1838478J1838478D01*
G01*
%TO.C,M2*%
X159315970Y-126054970D02*
X159315970Y-128814970D01*
X161965970Y-126054970D02*
X159315970Y-126054970D01*
X161965970Y-126054970D02*
X161965970Y-128814970D01*
X161965970Y-128814970D02*
X159315970Y-128814970D01*
X163235970Y-126054970D02*
X164615970Y-126054970D01*
X164615970Y-126054970D02*
X164615970Y-127434970D01*
%TO.C,C6*%
X159325970Y-76558576D02*
X159325970Y-76851110D01*
X160345970Y-76558576D02*
X160345970Y-76851110D01*
%TO.C,C14*%
X130952203Y-126924970D02*
X131244737Y-126924970D01*
X130952203Y-127944970D02*
X131244737Y-127944970D01*
%TO.C,R2*%
X134293746Y-86582343D02*
X134803194Y-86582343D01*
X134293746Y-87627343D02*
X134803194Y-87627343D01*
D12*
%TO.C,L9*%
X144189920Y-61527843D02*
X144189920Y-61127843D01*
X145189920Y-61527843D02*
X145189920Y-61127843D01*
%TO.C,C36*%
X148189920Y-60327843D02*
X148189920Y-60727843D01*
X149189920Y-60327843D02*
X149189920Y-60727843D01*
D11*
%TO.C,R29*%
X163381246Y-88802343D02*
X163890694Y-88802343D01*
X163381246Y-89847343D02*
X163890694Y-89847343D01*
%TO.C,R18*%
X152113470Y-118180246D02*
X152113470Y-118689694D01*
X153158470Y-118180246D02*
X153158470Y-118689694D01*
%TO.C,R17*%
X159813470Y-113189694D02*
X159813470Y-112680246D01*
X160858470Y-113189694D02*
X160858470Y-112680246D01*
%TO.C,C21*%
X167489703Y-86814843D02*
X167782237Y-86814843D01*
X167489703Y-87834843D02*
X167782237Y-87834843D01*
%TO.C,R23*%
X169381246Y-80802343D02*
X169890694Y-80802343D01*
X169381246Y-81847343D02*
X169890694Y-81847343D01*
%TO.C,Q4*%
X142225970Y-135874970D02*
X143225970Y-135874970D01*
X142225970Y-137394970D02*
X142225970Y-135874970D01*
X142275970Y-137394970D02*
X142225970Y-137394970D01*
X144175970Y-137394970D02*
X143395970Y-137394970D01*
X144345970Y-135874970D02*
X145345970Y-135874970D01*
X145345970Y-135874970D02*
X145345970Y-137394970D01*
X145345970Y-137394970D02*
X145295970Y-137394970D01*
X143735970Y-138174970D02*
X143405970Y-137934970D01*
X143735970Y-137694970D01*
X143735970Y-138174970D01*
G36*
X143735970Y-138174970D02*
G01*
X143405970Y-137934970D01*
X143735970Y-137694970D01*
X143735970Y-138174970D01*
G37*
D12*
%TO.C,C34*%
X146189920Y-64327843D02*
X146189920Y-63927843D01*
X147189920Y-64327843D02*
X147189920Y-63927843D01*
%TO.C,C35*%
X148189920Y-64327843D02*
X148189920Y-63927843D01*
X149189920Y-64327843D02*
X149189920Y-63927843D01*
%TO.C,J6*%
X127389920Y-59827843D02*
X127389920Y-62827843D01*
X132489920Y-57727843D02*
X129489920Y-57727843D01*
X132489920Y-64927843D02*
X129489920Y-64927843D01*
X134589920Y-59827843D02*
X134589920Y-62827843D01*
D11*
%TO.C,C42*%
X169489703Y-98914843D02*
X169782237Y-98914843D01*
X169489703Y-99934843D02*
X169782237Y-99934843D01*
%TO.C,R7*%
X146513470Y-110789694D02*
X146513470Y-110280246D01*
X147558470Y-110789694D02*
X147558470Y-110280246D01*
%TO.C,Q7*%
X159685970Y-115374970D02*
X169905970Y-115374970D01*
X159685970Y-116754970D02*
X169905970Y-116754970D01*
X159685970Y-119994970D02*
X159685970Y-115374970D01*
X162945970Y-115374970D02*
X162945970Y-116754970D01*
X166645970Y-115374970D02*
X166645970Y-116754970D01*
X169905970Y-115374970D02*
X169905970Y-119994970D01*
X169905970Y-119994970D02*
X159685970Y-119994970D01*
%TO.C,Q9*%
X159625970Y-135874970D02*
X169845970Y-135874970D01*
X159625970Y-137254970D02*
X169845970Y-137254970D01*
X159625970Y-140494970D02*
X159625970Y-135874970D01*
X162885970Y-135874970D02*
X162885970Y-137254970D01*
X166585970Y-135874970D02*
X166585970Y-137254970D01*
X169845970Y-135874970D02*
X169845970Y-140494970D01*
X169845970Y-140494970D02*
X159625970Y-140494970D01*
D12*
%TO.C,L6*%
X151889920Y-67527843D02*
X152289920Y-67527843D01*
X151889920Y-68527843D02*
X152289920Y-68527843D01*
D11*
%TO.C,C43*%
X149855970Y-90919956D02*
X151395970Y-90919956D01*
X149855970Y-90959956D02*
X151395970Y-90959956D01*
X149856970Y-90879956D02*
X151395970Y-90879956D01*
X149858970Y-90839956D02*
X151395970Y-90839956D01*
X149860970Y-90799956D02*
X151395970Y-90799956D01*
X149863970Y-90759956D02*
X151395970Y-90759956D01*
X149866970Y-90719956D02*
X151395970Y-90719956D01*
X149870970Y-90679956D02*
X151395970Y-90679956D01*
X149875970Y-90639956D02*
X151395970Y-90639956D01*
X149880970Y-90599956D02*
X151395970Y-90599956D01*
X149886970Y-90559956D02*
X151395970Y-90559956D01*
X149892970Y-90519956D02*
X151395970Y-90519956D01*
X149899970Y-90479956D02*
X151395970Y-90479956D01*
X149907970Y-90439956D02*
X151395970Y-90439956D01*
X149916970Y-90399956D02*
X151395970Y-90399956D01*
X149925970Y-90359956D02*
X151395970Y-90359956D01*
X149934970Y-90319956D02*
X151395970Y-90319956D01*
X149945970Y-90279956D02*
X151395970Y-90279956D01*
X149956970Y-90239956D02*
X151395970Y-90239956D01*
X149968970Y-90199956D02*
X151395970Y-90199956D01*
X149980970Y-90159956D02*
X151395970Y-90159956D01*
X149993970Y-90119956D02*
X151395970Y-90119956D01*
X150007970Y-90079956D02*
X151395970Y-90079956D01*
X150022970Y-90039956D02*
X151395970Y-90039956D01*
X150037970Y-89999956D02*
X151395970Y-89999956D01*
X150053970Y-89959956D02*
X151395970Y-89959956D01*
X150070970Y-89919956D02*
X151395970Y-89919956D01*
X150088970Y-89879956D02*
X151395970Y-89879956D01*
X150106970Y-89839956D02*
X151395970Y-89839956D01*
X150126970Y-89799956D02*
X151395970Y-89799956D01*
X150146970Y-89759956D02*
X151395970Y-89759956D01*
X150167970Y-89719956D02*
X151395970Y-89719956D01*
X150189970Y-89679956D02*
X151395970Y-89679956D01*
X150212970Y-89639956D02*
X151395970Y-89639956D01*
X150236970Y-89599956D02*
X151395970Y-89599956D01*
X150260970Y-89559956D02*
X151395970Y-89559956D01*
X150286970Y-89519956D02*
X151395970Y-89519956D01*
X150313970Y-89479956D02*
X151395970Y-89479956D01*
X150341970Y-89439956D02*
X151395970Y-89439956D01*
X150370970Y-89399956D02*
X151395970Y-89399956D01*
X150400970Y-89359956D02*
X151395970Y-89359956D01*
X150432970Y-89319956D02*
X151395970Y-89319956D01*
X150465970Y-89279956D02*
X151395970Y-89279956D01*
X150499970Y-89239956D02*
X151395970Y-89239956D01*
X150534970Y-89199956D02*
X151395970Y-89199956D01*
X150571970Y-89159956D02*
X151395970Y-89159956D01*
X150610970Y-89119956D02*
X151395970Y-89119956D01*
X150650970Y-89079956D02*
X151395970Y-89079956D01*
X150692970Y-89039956D02*
X151395970Y-89039956D01*
X150710970Y-93514731D02*
X151210970Y-93514731D01*
X150736970Y-88999956D02*
X151395970Y-88999956D01*
X150783970Y-88959956D02*
X151395970Y-88959956D01*
X150831970Y-88919956D02*
X154039970Y-88919956D01*
X150882970Y-88879956D02*
X153988970Y-88879956D01*
X150936970Y-88839956D02*
X153934970Y-88839956D01*
X150960970Y-93764731D02*
X150960970Y-93264731D01*
X150992970Y-88799956D02*
X153878970Y-88799956D01*
X151052970Y-88759956D02*
X153818970Y-88759956D01*
X151116970Y-88719956D02*
X153754970Y-88719956D01*
X151184970Y-88679956D02*
X153686970Y-88679956D01*
X151258970Y-88639956D02*
X153612970Y-88639956D01*
X151337970Y-88599956D02*
X153533970Y-88599956D01*
X151424970Y-88559956D02*
X153446970Y-88559956D01*
X151521970Y-88519956D02*
X153349970Y-88519956D01*
X151630970Y-88479956D02*
X153240970Y-88479956D01*
X151758970Y-88439956D02*
X153112970Y-88439956D01*
X151918970Y-88399956D02*
X152952970Y-88399956D01*
X152152970Y-88359956D02*
X152718970Y-88359956D01*
X153475970Y-88959956D02*
X154087970Y-88959956D01*
X153475970Y-88999956D02*
X154134970Y-88999956D01*
X153475970Y-89039956D02*
X154178970Y-89039956D01*
X153475970Y-89079956D02*
X154220970Y-89079956D01*
X153475970Y-89119956D02*
X154260970Y-89119956D01*
X153475970Y-89159956D02*
X154299970Y-89159956D01*
X153475970Y-89199956D02*
X154336970Y-89199956D01*
X153475970Y-89239956D02*
X154371970Y-89239956D01*
X153475970Y-89279956D02*
X154405970Y-89279956D01*
X153475970Y-89319956D02*
X154438970Y-89319956D01*
X153475970Y-89359956D02*
X154470970Y-89359956D01*
X153475970Y-89399956D02*
X154500970Y-89399956D01*
X153475970Y-89439956D02*
X154529970Y-89439956D01*
X153475970Y-89479956D02*
X154557970Y-89479956D01*
X153475970Y-89519956D02*
X154584970Y-89519956D01*
X153475970Y-89559956D02*
X154610970Y-89559956D01*
X153475970Y-89599956D02*
X154634970Y-89599956D01*
X153475970Y-89639956D02*
X154658970Y-89639956D01*
X153475970Y-89679956D02*
X154681970Y-89679956D01*
X153475970Y-89719956D02*
X154703970Y-89719956D01*
X153475970Y-89759956D02*
X154724970Y-89759956D01*
X153475970Y-89799956D02*
X154744970Y-89799956D01*
X153475970Y-89839956D02*
X154764970Y-89839956D01*
X153475970Y-89879956D02*
X154782970Y-89879956D01*
X153475970Y-89919956D02*
X154800970Y-89919956D01*
X153475970Y-89959956D02*
X154817970Y-89959956D01*
X153475970Y-89999956D02*
X154833970Y-89999956D01*
X153475970Y-90039956D02*
X154848970Y-90039956D01*
X153475970Y-90079956D02*
X154863970Y-90079956D01*
X153475970Y-90119956D02*
X154877970Y-90119956D01*
X153475970Y-90159956D02*
X154890970Y-90159956D01*
X153475970Y-90199956D02*
X154902970Y-90199956D01*
X153475970Y-90239956D02*
X154914970Y-90239956D01*
X153475970Y-90279956D02*
X154925970Y-90279956D01*
X153475970Y-90319956D02*
X154936970Y-90319956D01*
X153475970Y-90359956D02*
X154945970Y-90359956D01*
X153475970Y-90399956D02*
X154954970Y-90399956D01*
X153475970Y-90439956D02*
X154963970Y-90439956D01*
X153475970Y-90479956D02*
X154971970Y-90479956D01*
X153475970Y-90519956D02*
X154978970Y-90519956D01*
X153475970Y-90559956D02*
X154984970Y-90559956D01*
X153475970Y-90599956D02*
X154990970Y-90599956D01*
X153475970Y-90639956D02*
X154995970Y-90639956D01*
X153475970Y-90679956D02*
X155000970Y-90679956D01*
X153475970Y-90719956D02*
X155004970Y-90719956D01*
X153475970Y-90759956D02*
X155007970Y-90759956D01*
X153475970Y-90799956D02*
X155010970Y-90799956D01*
X153475970Y-90839956D02*
X155012970Y-90839956D01*
X153475970Y-90879956D02*
X155014970Y-90879956D01*
X153475970Y-90919956D02*
X155015970Y-90919956D01*
X153475970Y-90959956D02*
X155015970Y-90959956D01*
X155055970Y-90959956D02*
G75*
G02*
X149815970Y-90959956I-2620000J0D01*
G01*
X149815970Y-90959956D02*
G75*
G02*
X155055970Y-90959956I2620000J0D01*
G01*
%TO.C,D1*%
X159400970Y-84544843D02*
X159400970Y-87004843D01*
X160870970Y-84544843D02*
X159400970Y-84544843D01*
X160870970Y-87004843D02*
X160870970Y-84544843D01*
%TO.C,R13*%
X146513470Y-140280246D02*
X146513470Y-140789694D01*
X147558470Y-140280246D02*
X147558470Y-140789694D01*
D12*
%TO.C,C31*%
X156289920Y-67227843D02*
X155889920Y-67227843D01*
X156289920Y-68227843D02*
X155889920Y-68227843D01*
%TO.C,U7*%
X137989920Y-66727843D02*
X138689920Y-66727843D01*
X137989920Y-67427843D02*
X137989920Y-66727843D01*
X141489920Y-66727843D02*
X142189920Y-66727843D01*
X142189920Y-66727843D02*
X142189920Y-67427843D01*
X142189920Y-70227843D02*
X142189920Y-70927843D01*
X142189920Y-70927843D02*
X141489920Y-70927843D01*
D15*
X138564920Y-71127843D02*
G75*
G02*
X138414920Y-71127843I-75000J0D01*
G01*
X138414920Y-71127843D02*
G75*
G02*
X138564920Y-71127843I75000J0D01*
G01*
D11*
%TO.C,C13*%
X127800573Y-108903740D02*
X130512098Y-107338240D01*
X127800654Y-108949881D02*
X130532098Y-107372881D01*
X127800736Y-108996022D02*
X130552098Y-107407522D01*
X127801358Y-108857099D02*
X130492098Y-107303599D01*
X127801683Y-109041663D02*
X130572098Y-107442163D01*
X127802142Y-108810458D02*
X130472098Y-107268958D01*
X127802631Y-109087305D02*
X130592098Y-107476805D01*
X127803578Y-109132946D02*
X130612098Y-107511446D01*
X127803793Y-108763317D02*
X130452098Y-107234317D01*
X127805392Y-109178087D02*
X130632098Y-107546087D01*
X127806309Y-108715676D02*
X130432098Y-107199676D01*
X127807960Y-108668535D02*
X130412098Y-107165034D01*
X127808071Y-109222728D02*
X130652098Y-107580728D01*
X127810751Y-109267369D02*
X130672098Y-107615369D01*
X127811343Y-108620394D02*
X130392098Y-107130393D01*
X127813430Y-109312010D02*
X130692098Y-107650010D01*
X127814725Y-108572252D02*
X130372098Y-107095752D01*
X127816976Y-109356151D02*
X130712098Y-107684651D01*
X127818108Y-108524112D02*
X130352098Y-107061111D01*
X127820521Y-109400292D02*
X130732098Y-107719292D01*
X127822357Y-108475471D02*
X130332098Y-107026470D01*
X127824933Y-109443933D02*
X130752098Y-107753933D01*
X127827472Y-108426330D02*
X130312098Y-106991830D01*
X127829344Y-109487574D02*
X130772098Y-107788574D01*
X127832586Y-108377189D02*
X130292098Y-106957189D01*
X127833756Y-109531215D02*
X130792098Y-107823215D01*
X127838567Y-108327548D02*
X130272098Y-106922548D01*
X127839033Y-109574356D02*
X130812098Y-107857856D01*
X127844311Y-109617497D02*
X130832098Y-107892497D01*
X127844548Y-108277907D02*
X130252098Y-106887907D01*
X127850454Y-109660138D02*
X130852098Y-107927138D01*
X127852261Y-108227266D02*
X130232098Y-106853266D01*
X127856598Y-109702779D02*
X130872098Y-107961779D01*
X127859107Y-108177125D02*
X130212098Y-106818625D01*
X127862742Y-109745420D02*
X130892098Y-107996420D01*
X127867686Y-108125984D02*
X130192098Y-106783984D01*
X127869751Y-109787561D02*
X130912098Y-108031061D01*
X127876265Y-108074843D02*
X130172098Y-106749343D01*
X127876761Y-109829702D02*
X130932098Y-108065702D01*
X127884637Y-109871343D02*
X130952098Y-108100343D01*
X127884844Y-108023702D02*
X130152098Y-106714702D01*
X127891646Y-109913484D02*
X130972098Y-108134984D01*
X127895155Y-107971561D02*
X130132098Y-106680061D01*
X127900388Y-109954625D02*
X130992098Y-108169625D01*
X127905466Y-107919420D02*
X130112098Y-106645420D01*
X127908263Y-109996266D02*
X131012098Y-108204266D01*
X127916643Y-107866779D02*
X130092098Y-106610779D01*
X127917005Y-110037407D02*
X131032098Y-108238907D01*
X127926613Y-110078048D02*
X131052098Y-108273548D01*
X127927820Y-107814138D02*
X130072098Y-106576138D01*
X127936221Y-110118689D02*
X131072098Y-108308189D01*
X127940729Y-107760497D02*
X130052098Y-106541497D01*
X127945828Y-110159330D02*
X131092098Y-108342830D01*
X127953638Y-107706856D02*
X130032098Y-106506856D01*
X127955436Y-110199971D02*
X131112098Y-108377471D01*
X127965910Y-110240112D02*
X131132098Y-108412112D01*
X127967413Y-107652715D02*
X130012098Y-106472215D01*
X127976383Y-110280253D02*
X131152098Y-108446753D01*
X127982054Y-107598074D02*
X129992098Y-106437574D01*
X127987723Y-110319894D02*
X131172098Y-108481394D01*
X127997561Y-107542933D02*
X129972098Y-106402933D01*
X127998197Y-110360035D02*
X136533743Y-105432035D01*
X128010403Y-110399176D02*
X136561537Y-105462176D01*
X128013934Y-107487292D02*
X129952098Y-106368292D01*
X128021742Y-110438817D02*
X136590198Y-105491817D01*
X128031173Y-107431151D02*
X133980767Y-103996151D01*
X128033948Y-110477958D02*
X136617992Y-105521958D01*
X128046154Y-110517099D02*
X136645786Y-105552099D01*
X128049278Y-107374510D02*
X133922662Y-103983510D01*
X128059226Y-110555740D02*
X136672714Y-105582740D01*
X128067383Y-107317869D02*
X133864557Y-103970869D01*
X128072297Y-110594381D02*
X136699643Y-105613381D01*
X128085369Y-110633022D02*
X136726571Y-105644022D01*
X128087220Y-107260228D02*
X133804720Y-103959228D01*
X128098441Y-110671663D02*
X136753499Y-105674663D01*
X128107923Y-107202087D02*
X133744017Y-103948087D01*
X128112379Y-110709804D02*
X136779561Y-105705804D01*
X128126317Y-110747945D02*
X136805623Y-105736945D01*
X128130359Y-107142946D02*
X133681581Y-103937946D01*
X128141121Y-110785586D02*
X136830819Y-105768586D01*
X128152794Y-107083805D02*
X133619146Y-103927805D01*
X128155924Y-110823227D02*
X136856016Y-105800227D01*
X128170728Y-110860868D02*
X136881212Y-105831868D01*
X128176961Y-107023664D02*
X133554979Y-103918664D01*
X128185532Y-110898509D02*
X136906408Y-105863509D01*
X128201202Y-110935650D02*
X136930738Y-105895650D01*
X128201994Y-106963023D02*
X133489946Y-103910023D01*
X128216872Y-110972791D02*
X136955068Y-105927791D01*
X128227894Y-106901882D02*
X133424046Y-103901882D01*
X128233408Y-111009432D02*
X136978532Y-105960432D01*
X128249078Y-111046573D02*
X137002862Y-105992573D01*
X128255525Y-106839741D02*
X133356415Y-103894741D01*
X128266480Y-111082714D02*
X137025460Y-106025714D01*
X128283015Y-111119355D02*
X137048925Y-106058355D01*
X128284889Y-106776600D02*
X133287051Y-103888600D01*
X128300417Y-111155496D02*
X137071523Y-106091496D01*
X128315118Y-106712959D02*
X133216822Y-103882959D01*
X128317819Y-111191637D02*
X137094121Y-106124637D01*
X128335221Y-111227778D02*
X137116719Y-106157778D01*
X128347080Y-106648318D02*
X133144860Y-103878318D01*
X128353489Y-111263419D02*
X137138451Y-106191419D01*
X128371757Y-111299060D02*
X137160183Y-106225060D01*
X128380773Y-106582677D02*
X133071167Y-103874677D01*
X128390025Y-111334701D02*
X137181915Y-106258701D01*
X128409159Y-111369842D02*
X137202781Y-106292842D01*
X128416199Y-106516036D02*
X132995741Y-103872036D01*
X128427427Y-111405483D02*
X137224513Y-106326483D01*
X128447427Y-111440124D02*
X137244513Y-106361124D01*
X128453357Y-106448395D02*
X132918583Y-103870395D01*
X128466561Y-111475265D02*
X137265379Y-106395265D01*
X128486561Y-111509906D02*
X137285379Y-106429906D01*
X128492246Y-106379754D02*
X132839694Y-103869754D01*
X128533734Y-106309613D02*
X132758206Y-103870613D01*
X128577820Y-106237972D02*
X132674120Y-103872972D01*
X128624504Y-106164831D02*
X132587436Y-103876831D01*
X128673786Y-106090190D02*
X132498154Y-103882190D01*
X128726532Y-106013549D02*
X132405408Y-103889549D01*
X128781876Y-105935408D02*
X132310064Y-103898408D01*
X128842417Y-105854267D02*
X132209523Y-103910267D01*
X128907287Y-105770626D02*
X132104653Y-103924626D01*
X128977354Y-105683985D02*
X131994586Y-103941985D01*
X129054349Y-105593344D02*
X131877591Y-103963344D01*
X129139138Y-105498203D02*
X131752801Y-103989203D01*
X129233453Y-105397562D02*
X131618487Y-104020562D01*
X129340759Y-105289420D02*
X131471181Y-104059420D01*
X129466251Y-105170779D02*
X131305689Y-104108779D01*
X129619456Y-105036138D02*
X131112484Y-104174138D01*
X129827221Y-104869997D02*
X130864719Y-104270997D01*
X132099842Y-105128292D02*
X134038006Y-104009292D01*
X132119842Y-105162933D02*
X134094379Y-104022933D01*
X132139842Y-105197574D02*
X134149886Y-104037074D01*
X132159842Y-105232215D02*
X134204527Y-104051715D01*
X132179842Y-105266856D02*
X134258302Y-104066856D01*
X132199842Y-105301497D02*
X134311211Y-104082497D01*
X132219842Y-105336138D02*
X134364120Y-104098138D01*
X132239842Y-105370779D02*
X134415297Y-104114779D01*
X132259842Y-105405420D02*
X134466474Y-104131420D01*
X132279842Y-105440061D02*
X134516785Y-104148561D01*
X132299842Y-105474702D02*
X134567096Y-104165702D01*
X132319842Y-105509343D02*
X134615675Y-104183843D01*
X132339842Y-105543984D02*
X134664254Y-104201984D01*
X132359842Y-105578625D02*
X134712833Y-104220125D01*
X132379842Y-105613266D02*
X134759679Y-104239266D01*
X132399842Y-105647907D02*
X134807392Y-104257907D01*
X132419842Y-105682548D02*
X134853373Y-104277548D01*
X132439842Y-105717189D02*
X134899354Y-104297189D01*
X132452957Y-114969906D02*
X133318984Y-114469906D01*
X132459842Y-105751830D02*
X134944468Y-104317330D01*
X132479842Y-105786471D02*
X134989583Y-104337471D01*
X132499842Y-105821112D02*
X135033832Y-104358112D01*
X132519842Y-105855753D02*
X135077215Y-104379253D01*
X132539842Y-105890394D02*
X135120597Y-104400394D01*
X132559842Y-105925035D02*
X135163980Y-104421535D01*
X132579842Y-105959676D02*
X135205631Y-104443676D01*
X132599842Y-105994317D02*
X135248147Y-104465317D01*
X132619842Y-106028958D02*
X135289798Y-104487458D01*
X132639842Y-106063599D02*
X135330582Y-104510099D01*
X132659842Y-106098240D02*
X135371367Y-104532740D01*
X132679842Y-106132881D02*
X135411286Y-104555881D01*
X132699842Y-106167522D02*
X135451204Y-104579022D01*
X132719842Y-106202163D02*
X135490257Y-104602663D01*
X132739842Y-106236805D02*
X135529308Y-104626305D01*
X132759842Y-106271446D02*
X135568362Y-104649946D01*
X132779842Y-106306087D02*
X135606548Y-104674087D01*
X132799842Y-106340728D02*
X135643869Y-104698728D01*
X132819842Y-106375369D02*
X135681189Y-104723369D01*
X132839842Y-106410010D02*
X135718510Y-104748010D01*
X132859842Y-106444651D02*
X135754964Y-104773151D01*
X132879842Y-106479292D02*
X135791419Y-104798292D01*
X132899842Y-106513934D02*
X135827007Y-104823933D01*
X132919842Y-106548575D02*
X135862596Y-104849574D01*
X132939842Y-106583216D02*
X135898184Y-104875215D01*
X132959842Y-106617857D02*
X135932907Y-104901356D01*
X132979842Y-106652498D02*
X135967629Y-104927497D01*
X132999842Y-106687138D02*
X136001486Y-104954138D01*
X133019842Y-106721779D02*
X136035342Y-104980779D01*
X133039842Y-106756420D02*
X136069198Y-105007420D01*
X133059842Y-106791061D02*
X136102189Y-105034561D01*
X133079842Y-106825702D02*
X136135179Y-105061702D01*
X133099842Y-106860343D02*
X136167303Y-105089343D01*
X133119842Y-106894984D02*
X136200294Y-105116484D01*
X133135970Y-115152919D02*
X132635970Y-114286894D01*
X133139842Y-106929625D02*
X136231552Y-105144625D01*
X133159842Y-106964266D02*
X136263677Y-105172266D01*
X133179842Y-106998907D02*
X136294935Y-105200407D01*
X133199842Y-107033548D02*
X136325327Y-105229048D01*
X133219842Y-107068189D02*
X136355719Y-105257689D01*
X133239842Y-107102830D02*
X136386112Y-105286330D01*
X133259842Y-107137471D02*
X136416504Y-105314971D01*
X133279842Y-107172112D02*
X136446030Y-105344112D01*
X133299842Y-107206753D02*
X136475557Y-105373253D01*
X133319842Y-107241394D02*
X136504217Y-105402894D01*
X138005970Y-108969906D02*
G75*
G02*
X127765970Y-108969906I-5120000J0D01*
G01*
X127765970Y-108969906D02*
G75*
G02*
X138005970Y-108969906I5120000J0D01*
G01*
D12*
%TO.C,C25*%
X129889920Y-66327843D02*
X130289920Y-66327843D01*
X129889920Y-67327843D02*
X130289920Y-67327843D01*
%TO.C,R32*%
X143489920Y-68777843D02*
X143489920Y-68377843D01*
X144489920Y-68777843D02*
X144489920Y-68377843D01*
D11*
%TO.C,C23*%
X166025970Y-90371110D02*
X166025970Y-90078576D01*
X167045970Y-90371110D02*
X167045970Y-90078576D01*
%TO.C,R15*%
X152113470Y-110777194D02*
X152113470Y-110267746D01*
X153158470Y-110777194D02*
X153158470Y-110267746D01*
%TO.C,C24*%
X163689703Y-86814843D02*
X163982237Y-86814843D01*
X163689703Y-87834843D02*
X163982237Y-87834843D01*
%TO.C,C1*%
X134694737Y-78394843D02*
X134402203Y-78394843D01*
X134694737Y-79414843D02*
X134402203Y-79414843D01*
%TO.C,M1*%
X135080970Y-128814970D02*
X135080970Y-127434970D01*
X136460970Y-128814970D02*
X135080970Y-128814970D01*
X137730970Y-126054970D02*
X140380970Y-126054970D01*
X137730970Y-128814970D02*
X137730970Y-126054970D01*
X137730970Y-128814970D02*
X140380970Y-128814970D01*
X140380970Y-128814970D02*
X140380970Y-126054970D01*
D12*
%TO.C,L8*%
X150789920Y-65427843D02*
X150789920Y-65027843D01*
X151789920Y-65427843D02*
X151789920Y-65027843D01*
D11*
%TO.C,D11*%
X161445970Y-130284970D02*
X154435970Y-130284970D01*
X161445970Y-133584970D02*
X154435970Y-133584970D01*
X161445970Y-133584970D02*
X161445970Y-130284970D01*
D12*
%TO.C,L7*%
X155889920Y-65227843D02*
X156289920Y-65227843D01*
X155889920Y-66227843D02*
X156289920Y-66227843D01*
D11*
%TO.C,C3*%
X130032237Y-100144843D02*
X129739703Y-100144843D01*
X130032237Y-101164843D02*
X129739703Y-101164843D01*
D12*
%TO.C,C28*%
X152289920Y-71627843D02*
X151889920Y-71627843D01*
X152289920Y-72627843D02*
X151889920Y-72627843D01*
%TO.C,C32*%
X152789920Y-65427843D02*
X152789920Y-65027843D01*
X153789920Y-65427843D02*
X153789920Y-65027843D01*
D11*
%TO.C,J5*%
X146055970Y-95734843D02*
X146055970Y-93084843D01*
X148815970Y-93084843D02*
X146055970Y-93084843D01*
X148815970Y-95734843D02*
X146055970Y-95734843D01*
X148815970Y-95734843D02*
X148815970Y-93084843D01*
X148815970Y-97004843D02*
X148815970Y-98384843D01*
X148815970Y-98384843D02*
X147435970Y-98384843D01*
%TO.C,U1*%
X133995970Y-91864843D02*
X134270970Y-91864843D01*
X133995970Y-92139843D02*
X133995970Y-91864843D01*
X133995970Y-99084843D02*
X133995970Y-98809843D01*
X134270970Y-99084843D02*
X133995970Y-99084843D01*
X140940970Y-91864843D02*
X141215970Y-91864843D01*
X141215970Y-91864843D02*
X141215970Y-92139843D01*
X141215970Y-98809843D02*
X141215970Y-99084843D01*
X141215970Y-99084843D02*
X140940970Y-99084843D01*
X133355970Y-92134843D02*
X133015970Y-91664843D01*
X133695970Y-91664843D01*
X133355970Y-92134843D01*
G36*
X133355970Y-92134843D02*
G01*
X133015970Y-91664843D01*
X133695970Y-91664843D01*
X133355970Y-92134843D01*
G37*
D12*
%TO.C,C39*%
X140189920Y-60327843D02*
X140189920Y-60727843D01*
X141189920Y-60327843D02*
X141189920Y-60727843D01*
D11*
%TO.C,R19*%
X152113470Y-136192746D02*
X152113470Y-136702194D01*
X153158470Y-136192746D02*
X153158470Y-136702194D01*
%TO.C,D8*%
X171445970Y-121284970D02*
X164435970Y-121284970D01*
X171445970Y-124584970D02*
X164435970Y-124584970D01*
X171445970Y-124584970D02*
X171445970Y-121284970D01*
%TO.C,D10*%
X171445970Y-130284970D02*
X164435970Y-130284970D01*
X171445970Y-133584970D02*
X164435970Y-133584970D01*
X171445970Y-133584970D02*
X171445970Y-130284970D01*
D12*
%TO.C,R27*%
X155889920Y-71227843D02*
X156289920Y-71227843D01*
X155889920Y-72227843D02*
X156289920Y-72227843D01*
D11*
%TO.C,C41*%
X165891082Y-95607843D02*
X165891082Y-95041843D01*
X165931082Y-95841843D02*
X165931082Y-94807843D01*
X165971082Y-96001843D02*
X165971082Y-94647843D01*
X166011082Y-96129843D02*
X166011082Y-94519843D01*
X166051082Y-96238843D02*
X166051082Y-94410843D01*
X166091082Y-96335843D02*
X166091082Y-94313843D01*
X166131082Y-96422843D02*
X166131082Y-94226843D01*
X166171082Y-96501843D02*
X166171082Y-94147843D01*
X166211082Y-96575843D02*
X166211082Y-94073843D01*
X166251082Y-96643843D02*
X166251082Y-94005843D01*
X166291082Y-96707843D02*
X166291082Y-93941843D01*
X166331082Y-96767843D02*
X166331082Y-93881843D01*
X166371082Y-96823843D02*
X166371082Y-93825843D01*
X166411082Y-96877843D02*
X166411082Y-93771843D01*
X166451082Y-96928843D02*
X166451082Y-93720843D01*
X166491082Y-94284843D02*
X166491082Y-93672843D01*
X166491082Y-96976843D02*
X166491082Y-96364843D01*
X166531082Y-94284843D02*
X166531082Y-93625843D01*
X166531082Y-97023843D02*
X166531082Y-96364843D01*
X166571082Y-94284843D02*
X166571082Y-93581843D01*
X166571082Y-97067843D02*
X166571082Y-96364843D01*
X166611082Y-94284843D02*
X166611082Y-93539843D01*
X166611082Y-97109843D02*
X166611082Y-96364843D01*
X166651082Y-94284843D02*
X166651082Y-93499843D01*
X166651082Y-97149843D02*
X166651082Y-96364843D01*
X166691082Y-94284843D02*
X166691082Y-93460843D01*
X166691082Y-97188843D02*
X166691082Y-96364843D01*
X166731082Y-94284843D02*
X166731082Y-93423843D01*
X166731082Y-97225843D02*
X166731082Y-96364843D01*
X166771082Y-94284843D02*
X166771082Y-93388843D01*
X166771082Y-97260843D02*
X166771082Y-96364843D01*
X166811082Y-94284843D02*
X166811082Y-93354843D01*
X166811082Y-97294843D02*
X166811082Y-96364843D01*
X166851082Y-94284843D02*
X166851082Y-93321843D01*
X166851082Y-97327843D02*
X166851082Y-96364843D01*
X166891082Y-94284843D02*
X166891082Y-93289843D01*
X166891082Y-97359843D02*
X166891082Y-96364843D01*
X166931082Y-94284843D02*
X166931082Y-93259843D01*
X166931082Y-97389843D02*
X166931082Y-96364843D01*
X166971082Y-94284843D02*
X166971082Y-93230843D01*
X166971082Y-97418843D02*
X166971082Y-96364843D01*
X167011082Y-94284843D02*
X167011082Y-93202843D01*
X167011082Y-97446843D02*
X167011082Y-96364843D01*
X167051082Y-94284843D02*
X167051082Y-93175843D01*
X167051082Y-97473843D02*
X167051082Y-96364843D01*
X167091082Y-94284843D02*
X167091082Y-93149843D01*
X167091082Y-97499843D02*
X167091082Y-96364843D01*
X167131082Y-94284843D02*
X167131082Y-93125843D01*
X167131082Y-97523843D02*
X167131082Y-96364843D01*
X167171082Y-94284843D02*
X167171082Y-93101843D01*
X167171082Y-97547843D02*
X167171082Y-96364843D01*
X167211082Y-94284843D02*
X167211082Y-93078843D01*
X167211082Y-97570843D02*
X167211082Y-96364843D01*
X167251082Y-94284843D02*
X167251082Y-93056843D01*
X167251082Y-97592843D02*
X167251082Y-96364843D01*
X167291082Y-94284843D02*
X167291082Y-93035843D01*
X167291082Y-97613843D02*
X167291082Y-96364843D01*
X167331082Y-94284843D02*
X167331082Y-93015843D01*
X167331082Y-97633843D02*
X167331082Y-96364843D01*
X167371082Y-94284843D02*
X167371082Y-92995843D01*
X167371082Y-97653843D02*
X167371082Y-96364843D01*
X167411082Y-94284843D02*
X167411082Y-92977843D01*
X167411082Y-97671843D02*
X167411082Y-96364843D01*
X167451082Y-94284843D02*
X167451082Y-92959843D01*
X167451082Y-97689843D02*
X167451082Y-96364843D01*
X167491082Y-94284843D02*
X167491082Y-92942843D01*
X167491082Y-97706843D02*
X167491082Y-96364843D01*
X167531082Y-94284843D02*
X167531082Y-92926843D01*
X167531082Y-97722843D02*
X167531082Y-96364843D01*
X167571082Y-94284843D02*
X167571082Y-92911843D01*
X167571082Y-97737843D02*
X167571082Y-96364843D01*
X167611082Y-94284843D02*
X167611082Y-92896843D01*
X167611082Y-97752843D02*
X167611082Y-96364843D01*
X167651082Y-94284843D02*
X167651082Y-92882843D01*
X167651082Y-97766843D02*
X167651082Y-96364843D01*
X167691082Y-94284843D02*
X167691082Y-92869843D01*
X167691082Y-97779843D02*
X167691082Y-96364843D01*
X167731082Y-94284843D02*
X167731082Y-92857843D01*
X167731082Y-97791843D02*
X167731082Y-96364843D01*
X167771082Y-94284843D02*
X167771082Y-92845843D01*
X167771082Y-97803843D02*
X167771082Y-96364843D01*
X167811082Y-94284843D02*
X167811082Y-92834843D01*
X167811082Y-97814843D02*
X167811082Y-96364843D01*
X167851082Y-94284843D02*
X167851082Y-92823843D01*
X167851082Y-97825843D02*
X167851082Y-96364843D01*
X167891082Y-94284843D02*
X167891082Y-92814843D01*
X167891082Y-97834843D02*
X167891082Y-96364843D01*
X167931082Y-94284843D02*
X167931082Y-92805843D01*
X167931082Y-97843843D02*
X167931082Y-96364843D01*
X167971082Y-94284843D02*
X167971082Y-92796843D01*
X167971082Y-97852843D02*
X167971082Y-96364843D01*
X168011082Y-94284843D02*
X168011082Y-92788843D01*
X168011082Y-97860843D02*
X168011082Y-96364843D01*
X168051082Y-94284843D02*
X168051082Y-92781843D01*
X168051082Y-97867843D02*
X168051082Y-96364843D01*
X168091082Y-94284843D02*
X168091082Y-92775843D01*
X168091082Y-97873843D02*
X168091082Y-96364843D01*
X168131082Y-94284843D02*
X168131082Y-92769843D01*
X168131082Y-97879843D02*
X168131082Y-96364843D01*
X168171082Y-94284843D02*
X168171082Y-92764843D01*
X168171082Y-97884843D02*
X168171082Y-96364843D01*
X168211082Y-94284843D02*
X168211082Y-92759843D01*
X168211082Y-97889843D02*
X168211082Y-96364843D01*
X168251082Y-94284843D02*
X168251082Y-92755843D01*
X168251082Y-97893843D02*
X168251082Y-96364843D01*
X168291082Y-94284843D02*
X168291082Y-92752843D01*
X168291082Y-97896843D02*
X168291082Y-96364843D01*
X168331082Y-94284843D02*
X168331082Y-92749843D01*
X168331082Y-97899843D02*
X168331082Y-96364843D01*
X168371082Y-94284843D02*
X168371082Y-92747843D01*
X168371082Y-97901843D02*
X168371082Y-96364843D01*
X168411082Y-94284843D02*
X168411082Y-92745843D01*
X168411082Y-97903843D02*
X168411082Y-96364843D01*
X168451082Y-94284843D02*
X168451082Y-92744843D01*
X168451082Y-97904843D02*
X168451082Y-96364843D01*
X168491082Y-94284843D02*
X168491082Y-92744843D01*
X168491082Y-97904843D02*
X168491082Y-96364843D01*
X171045857Y-97049843D02*
X171045857Y-96549843D01*
X171295857Y-96799843D02*
X170795857Y-96799843D01*
X171111082Y-95324843D02*
G75*
G02*
X165871082Y-95324843I-2620000J0D01*
G01*
X165871082Y-95324843D02*
G75*
G02*
X171111082Y-95324843I2620000J0D01*
G01*
%TO.C,Q2*%
X142225970Y-117437470D02*
X142275970Y-117437470D01*
X142225970Y-118957470D02*
X142225970Y-117437470D01*
X143225970Y-118957470D02*
X142225970Y-118957470D01*
X143395970Y-117437470D02*
X144175970Y-117437470D01*
X145295970Y-117437470D02*
X145345970Y-117437470D01*
X145345970Y-117437470D02*
X145345970Y-118957470D01*
X145345970Y-118957470D02*
X144345970Y-118957470D01*
X144165970Y-116897470D02*
X143835970Y-117137470D01*
X143835970Y-116657470D01*
X144165970Y-116897470D01*
G36*
X144165970Y-116897470D02*
G01*
X143835970Y-117137470D01*
X143835970Y-116657470D01*
X144165970Y-116897470D01*
G37*
D12*
%TO.C,L10*%
X138189920Y-61527843D02*
X138189920Y-61127843D01*
X139189920Y-61527843D02*
X139189920Y-61127843D01*
D11*
%TO.C,R22*%
X152113470Y-144080246D02*
X152113470Y-144589694D01*
X153158470Y-144080246D02*
X153158470Y-144589694D01*
%TO.C,R6*%
X139590694Y-88082343D02*
X139081246Y-88082343D01*
X139590694Y-89127343D02*
X139081246Y-89127343D01*
%TO.C,L1*%
X170025970Y-88053576D02*
X170025970Y-88396110D01*
X171045970Y-88053576D02*
X171045970Y-88396110D01*
%TO.C,J4*%
X137655970Y-81824843D02*
X137655970Y-84584843D01*
X147925970Y-81824843D02*
X137655970Y-81824843D01*
X147925970Y-81824843D02*
X147925970Y-84584843D01*
X147925970Y-84584843D02*
X137655970Y-84584843D01*
X149195970Y-81824843D02*
X150575970Y-81824843D01*
X150575970Y-81824843D02*
X150575970Y-83204843D01*
%TO.C,D4*%
X128225970Y-121284970D02*
X128225970Y-124584970D01*
X128225970Y-121284970D02*
X135235970Y-121284970D01*
X128225970Y-124584970D02*
X135235970Y-124584970D01*
%TO.C,J1*%
X128668470Y-85544843D02*
X128668470Y-77814843D01*
X131428470Y-77814843D02*
X128668470Y-77814843D01*
X131428470Y-85544843D02*
X128668470Y-85544843D01*
X131428470Y-85544843D02*
X131428470Y-77814843D01*
X131428470Y-86814843D02*
X131428470Y-88194843D01*
X131428470Y-88194843D02*
X130048470Y-88194843D01*
%TO.C,C4*%
X143925970Y-96813610D02*
X143925970Y-96521076D01*
X144945970Y-96813610D02*
X144945970Y-96521076D01*
%TO.C,J9*%
X143395970Y-102114970D02*
X156315970Y-102114970D01*
X143395970Y-104764970D02*
X143395970Y-102114970D01*
X143395970Y-107414970D02*
X143395970Y-106034970D01*
X144775970Y-107414970D02*
X143395970Y-107414970D01*
X146045970Y-104764970D02*
X143395970Y-104764970D01*
X146045970Y-107414970D02*
X146045970Y-104764970D01*
X146045970Y-107414970D02*
X156315970Y-107414970D01*
X156315970Y-107414970D02*
X156315970Y-102114970D01*
D12*
%TO.C,R24*%
X143689920Y-63627843D02*
X143289920Y-63627843D01*
X143689920Y-64627843D02*
X143289920Y-64627843D01*
%TO.C,J7*%
X126279920Y-75737843D02*
X136639920Y-75737843D01*
X136639920Y-70457843D01*
X126279920Y-70457843D01*
X126279920Y-75737843D01*
X126299920Y-75737843D02*
X129039920Y-75737843D01*
X129039920Y-72997843D01*
X126299920Y-72997843D01*
X126299920Y-75737843D01*
D11*
%TO.C,Q3*%
X129825970Y-135874970D02*
X140045970Y-135874970D01*
X129825970Y-140494970D02*
X129825970Y-135874970D01*
X133085970Y-140494970D02*
X133085970Y-139114970D01*
X136785970Y-140494970D02*
X136785970Y-139114970D01*
X140045970Y-135874970D02*
X140045970Y-140494970D01*
X140045970Y-139114970D02*
X129825970Y-139114970D01*
X140045970Y-140494970D02*
X129825970Y-140494970D01*
%TO.C,C22*%
X168025970Y-90078576D02*
X168025970Y-90371110D01*
X169045970Y-90078576D02*
X169045970Y-90371110D01*
D12*
%TO.C,C40*%
X136189920Y-60327843D02*
X136189920Y-60727843D01*
X137189920Y-60327843D02*
X137189920Y-60727843D01*
D11*
%TO.C,C2*%
X129739703Y-93754843D02*
X130032237Y-93754843D01*
X129739703Y-94774843D02*
X130032237Y-94774843D01*
%TO.C,BT1*%
X155755970Y-84949843D02*
X157135970Y-84949843D01*
X155755970Y-86329843D02*
X155755970Y-84949843D01*
X155755970Y-87599843D02*
X155755970Y-90249843D01*
X155755970Y-87599843D02*
X158515970Y-87599843D01*
X155755970Y-90249843D02*
X158515970Y-90249843D01*
X158515970Y-87599843D02*
X158515970Y-90249843D01*
%TO.C,C20*%
X169489703Y-78814843D02*
X169782237Y-78814843D01*
X169489703Y-79834843D02*
X169782237Y-79834843D01*
D12*
%TO.C,C26*%
X133889920Y-66327843D02*
X133489920Y-66327843D01*
X133889920Y-67327843D02*
X133489920Y-67327843D01*
D11*
%TO.C,R12*%
X134681246Y-141712470D02*
X135190694Y-141712470D01*
X134681246Y-142757470D02*
X135190694Y-142757470D01*
%TO.C,D3*%
X142904720Y-89269843D02*
X145364720Y-89269843D01*
X145364720Y-87799843D02*
X142904720Y-87799843D01*
X145364720Y-89269843D02*
X145364720Y-87799843D01*
%TO.C,C15*%
X161373311Y-111594906D02*
X162239337Y-112094906D01*
X161556324Y-112277919D02*
X162056324Y-111411894D01*
X162386561Y-106429906D02*
X171185379Y-111509906D01*
X162406561Y-106395265D02*
X171205379Y-111475265D01*
X162427427Y-106361124D02*
X171224513Y-111440124D01*
X162447427Y-106326483D02*
X171244513Y-111405483D01*
X162469159Y-106292842D02*
X171262781Y-111369842D01*
X162490025Y-106258701D02*
X171281915Y-111334701D01*
X162511757Y-106225060D02*
X171300183Y-111299060D01*
X162533489Y-106191419D02*
X171318451Y-111263419D01*
X162555221Y-106157778D02*
X171336719Y-111227778D01*
X162577819Y-106124637D02*
X171354121Y-111191637D01*
X162600417Y-106091496D02*
X171371523Y-111155496D01*
X162623015Y-106058355D02*
X171388925Y-111119355D01*
X162646480Y-106025714D02*
X171405460Y-111082714D01*
X162669078Y-105992573D02*
X171422862Y-111046573D01*
X162693408Y-105960432D02*
X171438532Y-111009432D01*
X162716872Y-105927791D02*
X171455068Y-110972791D01*
X162741202Y-105895650D02*
X171470738Y-110935650D01*
X162765532Y-105863509D02*
X171486408Y-110898509D01*
X162790728Y-105831868D02*
X171501212Y-110860868D01*
X162815924Y-105800227D02*
X171516016Y-110823227D01*
X162841121Y-105768586D02*
X171530819Y-110785586D01*
X162866317Y-105736945D02*
X171545623Y-110747945D01*
X162892379Y-105705804D02*
X171559561Y-110709804D01*
X162918441Y-105674663D02*
X171573499Y-110671663D01*
X162945369Y-105644022D02*
X171586571Y-110633022D01*
X162972297Y-105613381D02*
X171599643Y-110594381D01*
X162999226Y-105582740D02*
X171612714Y-110555740D01*
X163026154Y-105552099D02*
X171625786Y-110517099D01*
X163053948Y-105521958D02*
X171637992Y-110477958D01*
X163081742Y-105491817D02*
X171650198Y-110438817D01*
X163110403Y-105462176D02*
X171661537Y-110399176D01*
X163138197Y-105432035D02*
X171673743Y-110360035D01*
X163167723Y-105402894D02*
X166352098Y-107241394D01*
X163196383Y-105373253D02*
X166372098Y-107206753D01*
X163225910Y-105344112D02*
X166392098Y-107172112D01*
X163255436Y-105314971D02*
X166412098Y-107137471D01*
X163285828Y-105286330D02*
X166432098Y-107102830D01*
X163316221Y-105257689D02*
X166452098Y-107068189D01*
X163346613Y-105229048D02*
X166472098Y-107033548D01*
X163377005Y-105200407D02*
X166492098Y-106998907D01*
X163408263Y-105172266D02*
X166512098Y-106964266D01*
X163440388Y-105144625D02*
X166532098Y-106929625D01*
X163471646Y-105116484D02*
X166552098Y-106894984D01*
X163504637Y-105089343D02*
X166572098Y-106860343D01*
X163536761Y-105061702D02*
X166592098Y-106825702D01*
X163569751Y-105034561D02*
X166612098Y-106791061D01*
X163602742Y-105007420D02*
X166632098Y-106756420D01*
X163636598Y-104980779D02*
X166652098Y-106721779D01*
X163670454Y-104954138D02*
X166672098Y-106687138D01*
X163704311Y-104927497D02*
X166692098Y-106652498D01*
X163739033Y-104901356D02*
X166712098Y-106617857D01*
X163773756Y-104875215D02*
X166732098Y-106583216D01*
X163809344Y-104849574D02*
X166752098Y-106548575D01*
X163844933Y-104823933D02*
X166772098Y-106513934D01*
X163880521Y-104798292D02*
X166792098Y-106479292D01*
X163916976Y-104773151D02*
X166812098Y-106444651D01*
X163953430Y-104748010D02*
X166832098Y-106410010D01*
X163990751Y-104723369D02*
X166852098Y-106375369D01*
X164028071Y-104698728D02*
X166872098Y-106340728D01*
X164065392Y-104674087D02*
X166892098Y-106306087D01*
X164103578Y-104649946D02*
X166912098Y-106271446D01*
X164142632Y-104626305D02*
X166932098Y-106236805D01*
X164181683Y-104602663D02*
X166952098Y-106202163D01*
X164220736Y-104579022D02*
X166972098Y-106167522D01*
X164260654Y-104555881D02*
X166992098Y-106132881D01*
X164300573Y-104532740D02*
X167012098Y-106098240D01*
X164341358Y-104510099D02*
X167032098Y-106063599D01*
X164382142Y-104487458D02*
X167052098Y-106028958D01*
X164423793Y-104465317D02*
X167072098Y-105994317D01*
X164466309Y-104443676D02*
X167092098Y-105959676D01*
X164507960Y-104421535D02*
X167112098Y-105925035D01*
X164551343Y-104400394D02*
X167132098Y-105890394D01*
X164594725Y-104379253D02*
X167152098Y-105855753D01*
X164638108Y-104358112D02*
X167172098Y-105821112D01*
X164682357Y-104337471D02*
X167192098Y-105786471D01*
X164727472Y-104317330D02*
X167212098Y-105751830D01*
X164772586Y-104297189D02*
X167232098Y-105717189D01*
X164818567Y-104277548D02*
X167252098Y-105682548D01*
X164864548Y-104257907D02*
X167272098Y-105647907D01*
X164912261Y-104239266D02*
X167292098Y-105613266D01*
X164959107Y-104220125D02*
X167312098Y-105578625D01*
X165007686Y-104201984D02*
X167332098Y-105543984D01*
X165056265Y-104183843D02*
X167352098Y-105509343D01*
X165104844Y-104165702D02*
X167372098Y-105474702D01*
X165155155Y-104148561D02*
X167392098Y-105440061D01*
X165205466Y-104131420D02*
X167412098Y-105405420D01*
X165256643Y-104114779D02*
X167432098Y-105370779D01*
X165307820Y-104098138D02*
X167452098Y-105336138D01*
X165360729Y-104082497D02*
X167472098Y-105301497D01*
X165413638Y-104066856D02*
X167492098Y-105266856D01*
X165467413Y-104051715D02*
X167512098Y-105232215D01*
X165522054Y-104037074D02*
X167532098Y-105197574D01*
X165577561Y-104022933D02*
X167552098Y-105162933D01*
X165633934Y-104009292D02*
X167572098Y-105128292D01*
X165691173Y-103996151D02*
X171640767Y-107431151D01*
X165749278Y-103983510D02*
X171622662Y-107374510D01*
X165807383Y-103970869D02*
X171604557Y-107317869D01*
X165867220Y-103959228D02*
X171584720Y-107260228D01*
X165927923Y-103948087D02*
X171564017Y-107202087D01*
X165990359Y-103937946D02*
X171541581Y-107142946D01*
X166052794Y-103927805D02*
X171519146Y-107083805D01*
X166116961Y-103918664D02*
X171494979Y-107023664D01*
X166181994Y-103910023D02*
X171469946Y-106963023D01*
X166247894Y-103901882D02*
X171444046Y-106901882D01*
X166315525Y-103894741D02*
X171416415Y-106839741D01*
X166384889Y-103888600D02*
X171387051Y-106776600D01*
X166455118Y-103882959D02*
X171356822Y-106712959D01*
X166527080Y-103878318D02*
X171324860Y-106648318D01*
X166600773Y-103874677D02*
X171291167Y-106582677D01*
X166676199Y-103872036D02*
X171255741Y-106516036D01*
X166753357Y-103870395D02*
X171218583Y-106448395D01*
X166832246Y-103869754D02*
X171179694Y-106379754D01*
X166913734Y-103870613D02*
X171138206Y-106309613D01*
X166997820Y-103872972D02*
X171094120Y-106237972D01*
X167084504Y-103876831D02*
X171047436Y-106164831D01*
X167173786Y-103882190D02*
X170998154Y-106090190D01*
X167266532Y-103889549D02*
X170945408Y-106013549D01*
X167361876Y-103898408D02*
X170890064Y-105935408D01*
X167462417Y-103910267D02*
X170829523Y-105854267D01*
X167567287Y-103924626D02*
X170764653Y-105770626D01*
X167677354Y-103941985D02*
X170694586Y-105683985D01*
X167794349Y-103963344D02*
X170617591Y-105593344D01*
X167919139Y-103989203D02*
X170532802Y-105498203D01*
X168053453Y-104020562D02*
X170438487Y-105397562D01*
X168200759Y-104059420D02*
X170331181Y-105289420D01*
X168366251Y-104108779D02*
X170205689Y-105170779D01*
X168499842Y-108481394D02*
X171684217Y-110319894D01*
X168519842Y-108446753D02*
X171695557Y-110280253D01*
X168539842Y-108412112D02*
X171706030Y-110240112D01*
X168559456Y-104174138D02*
X170052484Y-105036138D01*
X168559842Y-108377471D02*
X171716504Y-110199971D01*
X168579842Y-108342830D02*
X171726112Y-110159330D01*
X168599842Y-108308189D02*
X171735719Y-110118689D01*
X168619842Y-108273548D02*
X171745327Y-110078048D01*
X168639842Y-108238907D02*
X171754935Y-110037407D01*
X168659842Y-108204266D02*
X171763677Y-109996266D01*
X168679842Y-108169625D02*
X171771552Y-109954625D01*
X168699842Y-108134984D02*
X171780294Y-109913484D01*
X168719842Y-108100343D02*
X171787303Y-109871343D01*
X168739842Y-108065702D02*
X171795179Y-109829702D01*
X168759842Y-108031061D02*
X171802189Y-109787561D01*
X168779842Y-107996420D02*
X171809198Y-109745420D01*
X168799842Y-107961779D02*
X171815342Y-109702779D01*
X168807221Y-104270997D02*
X169844719Y-104869997D01*
X168819842Y-107927138D02*
X171821486Y-109660138D01*
X168839842Y-107892497D02*
X171827629Y-109617497D01*
X168859842Y-107857856D02*
X171832907Y-109574356D01*
X168879842Y-107823215D02*
X171838184Y-109531215D01*
X168899842Y-107788574D02*
X171842596Y-109487574D01*
X168919842Y-107753933D02*
X171847007Y-109443933D01*
X168939842Y-107719292D02*
X171851419Y-109400292D01*
X168959842Y-107684651D02*
X171854964Y-109356151D01*
X168979842Y-107650010D02*
X171858510Y-109312010D01*
X168999842Y-107615369D02*
X171861189Y-109267369D01*
X169019842Y-107580728D02*
X171863869Y-109222728D01*
X169039842Y-107546087D02*
X171866548Y-109178087D01*
X169059842Y-107511446D02*
X171868362Y-109132946D01*
X169079842Y-107476805D02*
X171869309Y-109087305D01*
X169099842Y-107442163D02*
X171870257Y-109041663D01*
X169119842Y-107407522D02*
X171871204Y-108996022D01*
X169139842Y-107372881D02*
X171871286Y-108949881D01*
X169159842Y-107338240D02*
X171871367Y-108903740D01*
X169179842Y-107303599D02*
X171870582Y-108857099D01*
X169199842Y-107268958D02*
X171869798Y-108810458D01*
X169219842Y-107234317D02*
X171868147Y-108763317D01*
X169239842Y-107199676D02*
X171865631Y-108715676D01*
X169259842Y-107165034D02*
X171863980Y-108668535D01*
X169279842Y-107130393D02*
X171860597Y-108620394D01*
X169299842Y-107095752D02*
X171857215Y-108572252D01*
X169319842Y-107061111D02*
X171853832Y-108524112D01*
X169339842Y-107026470D02*
X171849583Y-108475471D01*
X169359842Y-106991830D02*
X171844468Y-108426330D01*
X169379842Y-106957189D02*
X171839354Y-108377189D01*
X169399842Y-106922548D02*
X171833373Y-108327548D01*
X169419842Y-106887907D02*
X171827392Y-108277907D01*
X169439842Y-106853266D02*
X171819679Y-108227266D01*
X169459842Y-106818625D02*
X171812833Y-108177125D01*
X169479842Y-106783984D02*
X171804254Y-108125984D01*
X169499842Y-106749343D02*
X171795675Y-108074843D01*
X169519842Y-106714702D02*
X171787096Y-108023702D01*
X169539842Y-106680061D02*
X171776785Y-107971561D01*
X169559842Y-106645420D02*
X171766474Y-107919420D01*
X169579842Y-106610779D02*
X171755297Y-107866779D01*
X169599842Y-106576138D02*
X171744120Y-107814138D01*
X169619842Y-106541497D02*
X171731211Y-107760497D01*
X169639842Y-106506856D02*
X171718302Y-107706856D01*
X169659842Y-106472215D02*
X171704527Y-107652715D01*
X169679842Y-106437574D02*
X171689886Y-107598074D01*
X169699842Y-106402933D02*
X171674379Y-107542933D01*
X169719842Y-106368292D02*
X171658006Y-107487292D01*
X171905970Y-108969906D02*
G75*
G02*
X161665970Y-108969906I-5120000J0D01*
G01*
X161665970Y-108969906D02*
G75*
G02*
X171905970Y-108969906I5120000J0D01*
G01*
%TO.C,Q1*%
X129825970Y-115374970D02*
X140045970Y-115374970D01*
X129825970Y-119994970D02*
X129825970Y-115374970D01*
X133085970Y-119994970D02*
X133085970Y-118614970D01*
X136785970Y-119994970D02*
X136785970Y-118614970D01*
X140045970Y-115374970D02*
X140045970Y-119994970D01*
X140045970Y-118614970D02*
X129825970Y-118614970D01*
X140045970Y-119994970D02*
X129825970Y-119994970D01*
D12*
%TO.C,Y3*%
X146139920Y-69827843D02*
X146139920Y-69427843D01*
X147589920Y-67927843D02*
X147389920Y-67927843D01*
X147589920Y-71327843D02*
X147389920Y-71327843D01*
X148839920Y-69827843D02*
X148839920Y-69427843D01*
D16*
X148639920Y-72127843D02*
G75*
G02*
X148339920Y-72127843I-150000J0D01*
G01*
X148339920Y-72127843D02*
G75*
G02*
X148639920Y-72127843I150000J0D01*
G01*
D11*
%TO.C,Q6*%
X140885970Y-140104970D02*
X140885970Y-143704970D01*
X140897492Y-140066492D02*
G75*
G02*
X145335971Y-141904970I1838478J-1838478D01*
G01*
X145335970Y-141904970D02*
G75*
G02*
X140897492Y-143743448I-2600000J0D01*
G01*
%TO.C,D5*%
X138225970Y-121284970D02*
X138225970Y-124584970D01*
X138225970Y-121284970D02*
X145235970Y-121284970D01*
X138225970Y-124584970D02*
X145235970Y-124584970D01*
D12*
%TO.C,R28*%
X156289920Y-59177843D02*
X155889920Y-59177843D01*
X156289920Y-60177843D02*
X155889920Y-60177843D01*
D11*
%TO.C,J3*%
X137655970Y-77724843D02*
X137655970Y-80484843D01*
X147925970Y-77724843D02*
X137655970Y-77724843D01*
X147925970Y-77724843D02*
X147925970Y-80484843D01*
X147925970Y-80484843D02*
X137655970Y-80484843D01*
X149195970Y-77724843D02*
X150575970Y-77724843D01*
X150575970Y-77724843D02*
X150575970Y-79104843D01*
%TO.C,D2*%
X142917220Y-91239843D02*
X145377220Y-91239843D01*
X145377220Y-89769843D02*
X142917220Y-89769843D01*
X145377220Y-91239843D02*
X145377220Y-89769843D01*
%TO.C,J2*%
X137655970Y-73644843D02*
X137655970Y-76404843D01*
X147925970Y-73644843D02*
X137655970Y-73644843D01*
X147925970Y-73644843D02*
X147925970Y-76404843D01*
X147925970Y-76404843D02*
X137655970Y-76404843D01*
X149195970Y-73644843D02*
X150575970Y-73644843D01*
X150575970Y-73644843D02*
X150575970Y-75024843D01*
%TO.C,R11*%
X146513470Y-136192746D02*
X146513470Y-136702194D01*
X147558470Y-136192746D02*
X147558470Y-136702194D01*
D12*
%TO.C,C27*%
X139689920Y-63627843D02*
X140089920Y-63627843D01*
X139689920Y-64627843D02*
X140089920Y-64627843D01*
D11*
%TO.C,R8*%
X146513470Y-114589694D02*
X146513470Y-114080246D01*
X147558470Y-114589694D02*
X147558470Y-114080246D01*
%TO.C,R25*%
X166213470Y-79870119D02*
X166213470Y-80379567D01*
X167258470Y-79870119D02*
X167258470Y-80379567D01*
%TO.C,R3*%
X147337496Y-89982343D02*
X147846944Y-89982343D01*
X147337496Y-91027343D02*
X147846944Y-91027343D01*
D12*
%TO.C,R26*%
X156289920Y-61227843D02*
X155889920Y-61227843D01*
X156289920Y-62227843D02*
X155889920Y-62227843D01*
%TO.C,C30*%
X156289920Y-69227843D02*
X155889920Y-69227843D01*
X156289920Y-70227843D02*
X155889920Y-70227843D01*
D11*
%TO.C,R4*%
X147324996Y-88012343D02*
X147834444Y-88012343D01*
X147324996Y-89057343D02*
X147834444Y-89057343D01*
D12*
%TO.C,U8*%
X150339920Y-59427843D02*
X150339920Y-59927843D01*
X150339920Y-62127843D02*
X150339920Y-62627843D01*
X150339920Y-62627843D02*
X150839920Y-62627843D01*
X150839920Y-59427843D02*
X150339920Y-59427843D01*
X153539920Y-59427843D02*
X153039920Y-59427843D01*
X153539920Y-59927843D02*
X153539920Y-59427843D01*
D15*
X153814920Y-62227843D02*
G75*
G02*
X153664920Y-62227843I-75000J0D01*
G01*
X153664920Y-62227843D02*
G75*
G02*
X153814920Y-62227843I75000J0D01*
G01*
D11*
%TO.C,R14*%
X146513470Y-144080246D02*
X146513470Y-144589694D01*
X147558470Y-144080246D02*
X147558470Y-144589694D01*
%TO.C,R30*%
X163890694Y-90802343D02*
X163381246Y-90802343D01*
X163890694Y-91847343D02*
X163381246Y-91847343D01*
%TO.C,Q10*%
X154325970Y-135874970D02*
X155325970Y-135874970D01*
X154325970Y-137394970D02*
X154325970Y-135874970D01*
X154375970Y-137394970D02*
X154325970Y-137394970D01*
X156275970Y-137394970D02*
X155495970Y-137394970D01*
X156445970Y-135874970D02*
X157445970Y-135874970D01*
X157445970Y-135874970D02*
X157445970Y-137394970D01*
X157445970Y-137394970D02*
X157395970Y-137394970D01*
X155835970Y-138174970D02*
X155505970Y-137934970D01*
X155835970Y-137694970D01*
X155835970Y-138174970D01*
G36*
X155835970Y-138174970D02*
G01*
X155505970Y-137934970D01*
X155835970Y-137694970D01*
X155835970Y-138174970D01*
G37*
D12*
%TO.C,C29*%
X152289920Y-69627843D02*
X151889920Y-69627843D01*
X152289920Y-70627843D02*
X151889920Y-70627843D01*
D11*
%TO.C,C5*%
X158689703Y-73494843D02*
X158982237Y-73494843D01*
X158689703Y-74514843D02*
X158982237Y-74514843D01*
%TO.C,R16*%
X152113470Y-114589694D02*
X152113470Y-114080246D01*
X153158470Y-114589694D02*
X153158470Y-114080246D01*
%TO.C,Q5*%
X140985970Y-110704970D02*
X140985970Y-114304970D01*
X140997492Y-110666492D02*
G75*
G02*
X145435971Y-112504970I1838478J-1838478D01*
G01*
X145435970Y-112504970D02*
G75*
G02*
X140997492Y-114343448I-2600000J0D01*
G01*
%TO.C,R1*%
X162781246Y-84702343D02*
X163290694Y-84702343D01*
X162781246Y-85747343D02*
X163290694Y-85747343D01*
%TO.C,R21*%
X152113470Y-140280246D02*
X152113470Y-140789694D01*
X153158470Y-140280246D02*
X153158470Y-140789694D01*
D12*
%TO.C,C38*%
X142189920Y-60327843D02*
X142189920Y-60727843D01*
X143189920Y-60327843D02*
X143189920Y-60727843D01*
%TD*%
M02*
