%TF.GenerationSoftware,KiCad,Pcbnew,9.0.6*%
%TF.CreationDate,2026-02-04T04:17:41+01:00*%
%TF.ProjectId,lidar,6c696461-722e-46b6-9963-61645f706362,rev?*%
%TF.SameCoordinates,Original*%
%TF.FileFunction,Copper,L2,Bot*%
%TF.FilePolarity,Positive*%
%FSLAX46Y46*%
G04 Gerber Fmt 4.6, Leading zero omitted, Abs format (unit mm)*
G04 Created by KiCad (PCBNEW 9.0.6) date 2026-02-04 04:17:41*
%MOMM*%
%LPD*%
G01*
G04 APERTURE LIST*
G04 Aperture macros list*
%AMRoundRect*
0 Rectangle with rounded corners*
0 $1 Rounding radius*
0 $2 $3 $4 $5 $6 $7 $8 $9 X,Y pos of 4 corners*
0 Add a 4 corners polygon primitive as box body*
4,1,4,$2,$3,$4,$5,$6,$7,$8,$9,$2,$3,0*
0 Add four circle primitives for the rounded corners*
1,1,$1+$1,$2,$3*
1,1,$1+$1,$4,$5*
1,1,$1+$1,$6,$7*
1,1,$1+$1,$8,$9*
0 Add four rect primitives between the rounded corners*
20,1,$1+$1,$2,$3,$4,$5,0*
20,1,$1+$1,$4,$5,$6,$7,0*
20,1,$1+$1,$6,$7,$8,$9,0*
20,1,$1+$1,$8,$9,$2,$3,0*%
%AMRotRect*
0 Rectangle, with rotation*
0 The origin of the aperture is its center*
0 $1 length*
0 $2 width*
0 $3 Rotation angle, in degrees counterclockwise*
0 Add horizontal line*
21,1,$1,$2,0,0,$3*%
G04 Aperture macros list end*
%TA.AperFunction,Conductor*%
%ADD10C,0.200000*%
%TD*%
%TA.AperFunction,ComponentPad*%
%ADD11R,1.700000X1.700000*%
%TD*%
%TA.AperFunction,ComponentPad*%
%ADD12C,1.700000*%
%TD*%
%TA.AperFunction,ComponentPad*%
%ADD13RoundRect,0.250000X-0.550000X0.550000X-0.550000X-0.550000X0.550000X-0.550000X0.550000X0.550000X0*%
%TD*%
%TA.AperFunction,ComponentPad*%
%ADD14C,1.600000*%
%TD*%
%TA.AperFunction,ComponentPad*%
%ADD15RotRect,1.700000X1.700000X315.000000*%
%TD*%
%TA.AperFunction,ComponentPad*%
%ADD16RotRect,1.700000X1.700000X225.000000*%
%TD*%
%TA.AperFunction,ViaPad*%
%ADD17C,0.600000*%
%TD*%
G04 APERTURE END LIST*
D10*
%TO.N,5V*%
X150000000Y-83600000D02*
X148500000Y-82600000D01*
X151500000Y-82600000D01*
X150000000Y-83600000D01*
%TA.AperFunction,Conductor*%
G36*
X150000000Y-83600000D02*
G01*
X148500000Y-82600000D01*
X151500000Y-82600000D01*
X150000000Y-83600000D01*
G37*
%TD.AperFunction*%
X163100000Y-88300000D02*
X161200000Y-88000000D01*
X160900000Y-86100000D01*
X163100000Y-88300000D01*
%TA.AperFunction,Conductor*%
G36*
X163100000Y-88300000D02*
G01*
X161200000Y-88000000D01*
X160900000Y-86100000D01*
X163100000Y-88300000D01*
G37*
%TD.AperFunction*%
%TD*%
D11*
%TO.P,J8,1,Pin_1*%
%TO.N,RX1*%
X157020000Y-96710000D03*
D12*
%TO.P,J8,2,Pin_2*%
%TO.N,TX1*%
X157020000Y-99250000D03*
%TO.P,J8,3,Pin_3*%
%TO.N,3V3*%
X157020000Y-101790000D03*
%TO.P,J8,4,Pin_4*%
%TO.N,GND*%
X157020000Y-104330000D03*
%TD*%
D11*
%TO.P,G1,1,3V3*%
%TO.N,3V3*%
X165480000Y-108700000D03*
D12*
%TO.P,G1,2,5V*%
%TO.N,5V*%
X162940000Y-108700000D03*
%TO.P,G1,3,GND*%
%TO.N,GND*%
X160400000Y-108700000D03*
%TO.P,G1,4,SDA*%
%TO.N,SDA*%
X157860000Y-108700000D03*
%TO.P,G1,5,SCL*%
%TO.N,SCL*%
X155320000Y-108700000D03*
%TD*%
D13*
%TO.P,C5,1*%
%TO.N,Net-(J2-Pin_1)*%
X163100000Y-95747500D03*
D14*
%TO.P,C5,2*%
%TO.N,GND*%
X163100000Y-97747500D03*
%TD*%
D15*
%TO.P,J4,1,Pin_1*%
%TO.N,GND*%
X140796051Y-86460000D03*
D12*
%TO.P,J4,2,Pin_2*%
%TO.N,5V*%
X139000000Y-88256051D03*
%TO.P,J4,3,Pin_3*%
%TO.N,SERVO_A_PWM*%
X137203949Y-90052102D03*
%TD*%
D11*
%TO.P,J2,1,Pin_1*%
%TO.N,Net-(J2-Pin_1)*%
X170600000Y-96766250D03*
D12*
%TO.P,J2,2,Pin_2*%
%TO.N,Net-(J2-Pin_2)*%
X170600000Y-99306250D03*
%TO.P,J2,3,Pin_3*%
%TO.N,GND*%
X170600000Y-101846250D03*
%TO.P,J2,4,Pin_4*%
%TO.N,LIDAR_PWM*%
X170600000Y-104386250D03*
%TD*%
D11*
%TO.P,J7,1,Pin_1*%
%TO.N,DEBUG_0*%
X167660000Y-118270000D03*
D12*
%TO.P,J7,2,Pin_2*%
%TO.N,DEBUG_1*%
X165120000Y-118270000D03*
%TO.P,J7,3,Pin_3*%
%TO.N,DEBUG_2*%
X162580000Y-118270000D03*
%TO.P,J7,4,Pin_4*%
%TO.N,DEBUG_3*%
X160040000Y-118270000D03*
%TO.P,J7,5,Pin_5*%
%TO.N,DEBUG_4*%
X157500000Y-118270000D03*
%TD*%
D11*
%TO.P,J3,1,Pin_1*%
%TO.N,ADC0*%
X126260000Y-98910000D03*
D12*
%TO.P,J3,2,Pin_2*%
%TO.N,ADC1*%
X128800000Y-98910000D03*
%TO.P,J3,3,Pin_3*%
%TO.N,ADC2*%
X131340000Y-98910000D03*
%TD*%
D16*
%TO.P,J6,1,Pin_1*%
%TO.N,GND*%
X162796051Y-90000000D03*
D12*
%TO.P,J6,2,Pin_2*%
%TO.N,5V*%
X161000000Y-88203949D03*
%TO.P,J6,3,Pin_3*%
%TO.N,SERVO_C_PWM*%
X159203949Y-86407898D03*
%TD*%
D11*
%TO.P,J5,1,Pin_1*%
%TO.N,GND*%
X152540000Y-84000000D03*
D12*
%TO.P,J5,2,Pin_2*%
%TO.N,5V*%
X150000000Y-84000000D03*
%TO.P,J5,3,Pin_3*%
%TO.N,SERVO_B_PWM*%
X147460000Y-84000000D03*
%TD*%
D11*
%TO.P,J1,1,Pin_1*%
%TO.N,RX0*%
X171900000Y-113980000D03*
D12*
%TO.P,J1,2,Pin_2*%
%TO.N,TX0*%
X169360000Y-113980000D03*
%TO.P,J1,3,Pin_3*%
%TO.N,3V3*%
X166820000Y-113980000D03*
%TO.P,J1,4,Pin_4*%
%TO.N,GND*%
X164280000Y-113980000D03*
%TD*%
D17*
%TO.N,GND*%
X166130000Y-103063906D03*
X147632936Y-103800000D03*
X151023164Y-110251836D03*
X145937500Y-113562801D03*
X137800000Y-96137500D03*
X149000000Y-91700000D03*
X145700000Y-98624281D03*
X129081985Y-115944485D03*
X150596000Y-99750000D03*
%TO.N,3V3*%
X145379413Y-116120587D03*
%TO.N,5V*%
X166140000Y-101208750D03*
%TO.N,SERVO_A_PWM*%
X132537500Y-96200000D03*
X132537500Y-115600000D03*
%TO.N,SERVO_B_PWM*%
X133337500Y-96200000D03*
X133337500Y-115600000D03*
%TO.N,SERVO_C_PWM*%
X134137500Y-115600000D03*
X134137500Y-96200000D03*
%TD*%
D10*
%TO.N,3V3*%
X164904500Y-109275500D02*
X165480000Y-108700000D01*
X161789000Y-108700000D02*
X161789000Y-107867880D01*
X165749706Y-115050293D02*
X166820000Y-113980000D01*
X165480000Y-108700000D02*
X166820000Y-113980000D01*
X160863482Y-105633482D02*
X157020000Y-101790000D01*
X145379413Y-116120587D02*
X163165789Y-116120587D01*
X163515120Y-109851000D02*
X162939999Y-109851000D01*
X164904500Y-109275500D02*
G75*
G02*
X163515120Y-109851008I-1389400J1389400D01*
G01*
X161789000Y-108700000D02*
G75*
G03*
X162126120Y-109513880I1151000J0D01*
G01*
X160863482Y-105633482D02*
G75*
G02*
X161789019Y-107867880I-2234382J-2234418D01*
G01*
X165749706Y-115050293D02*
G75*
G02*
X163165789Y-116120586I-2583906J2583893D01*
G01*
X162126120Y-109513880D02*
G75*
G03*
X162939999Y-109851000I813880J813880D01*
G01*
%TO.N,5V*%
X139000000Y-87228025D02*
X139000000Y-88256051D01*
X162051974Y-88203949D02*
X161000000Y-88203949D01*
X161743858Y-86843858D02*
X162360090Y-87460090D01*
X160256141Y-85356141D02*
X161743858Y-86843858D01*
X150439339Y-82500000D02*
X149560660Y-82500000D01*
X150439339Y-82500000D02*
X152560660Y-82500000D01*
X161000000Y-87151974D02*
X161000000Y-88203949D01*
X166140000Y-93386812D02*
X166140000Y-101208750D01*
X166140000Y-101208750D02*
X162940000Y-108700000D01*
X162360090Y-87460090D02*
X163847807Y-88947807D01*
X152560660Y-82500000D02*
X155146036Y-82500000D01*
X141106206Y-84093792D02*
X139726923Y-85473076D01*
X163847807Y-88947807D02*
X164621974Y-89721974D01*
X147439339Y-82500000D02*
X149560660Y-82500000D01*
X144953963Y-82500000D02*
X147439339Y-82500000D01*
X160256141Y-85356141D02*
X158993792Y-84093792D01*
X163847807Y-88947807D02*
G75*
G03*
X162051974Y-88203955I-1795807J-1795793D01*
G01*
X144953963Y-82500000D02*
G75*
G03*
X141106215Y-84093801I37J-5441600D01*
G01*
X161743858Y-86843858D02*
G75*
G03*
X160999910Y-87151974I-308158J-308142D01*
G01*
X164621974Y-89721974D02*
G75*
G02*
X166139981Y-93386812I-3664874J-3664826D01*
G01*
X149250000Y-83250000D02*
G75*
G03*
X147439339Y-82499984I-1810700J-1810700D01*
G01*
X152560660Y-82500000D02*
G75*
G03*
X150750032Y-83250032I40J-2560600D01*
G01*
X149250000Y-83250000D02*
G75*
G03*
X150750000Y-83250000I750000J750001D01*
G01*
X162051974Y-88203949D02*
G75*
G03*
X162360111Y-87460069I26J435749D01*
G01*
X158993792Y-84093792D02*
G75*
G03*
X155146036Y-82499989I-3847792J-3847808D01*
G01*
X139726923Y-85473076D02*
G75*
G03*
X139000025Y-87228025I1754977J-1754924D01*
G01*
X150750000Y-83250000D02*
G75*
G03*
X150439339Y-82499904I-310700J310700D01*
G01*
X149560660Y-82500000D02*
G75*
G03*
X149250068Y-83249932I40J-439300D01*
G01*
X161000000Y-87151974D02*
G75*
G03*
X160256130Y-85356152I-2539700J-26D01*
G01*
%TO.N,SERVO_A_PWM*%
X132537500Y-96200000D02*
X132537500Y-115600000D01*
%TO.N,SERVO_B_PWM*%
X133337500Y-115600000D02*
X133337500Y-96200000D01*
%TO.N,SERVO_C_PWM*%
X134137500Y-115600000D02*
X134137500Y-96200000D01*
%TD*%
%TA.AperFunction,Conductor*%
%TO.N,SERVO_C_PWM*%
G36*
X134419632Y-96256078D02*
G01*
X134427061Y-96261078D01*
X134428780Y-96269866D01*
X134428638Y-96270481D01*
X134410138Y-96341875D01*
X134409678Y-96343279D01*
X134384035Y-96407495D01*
X134383238Y-96409115D01*
X134325669Y-96506384D01*
X134325414Y-96506795D01*
X134299520Y-96546690D01*
X134255163Y-96645480D01*
X134255162Y-96645481D01*
X134242208Y-96711005D01*
X134242208Y-96711010D01*
X134238124Y-96783197D01*
X134234236Y-96791263D01*
X134226443Y-96794236D01*
X134048394Y-96794236D01*
X134040121Y-96790809D01*
X134036724Y-96783369D01*
X134030300Y-96693426D01*
X134030300Y-96693425D01*
X134010964Y-96618223D01*
X133982883Y-96559116D01*
X133982882Y-96559115D01*
X133982881Y-96559112D01*
X133949577Y-96506787D01*
X133949352Y-96506420D01*
X133889384Y-96404068D01*
X133888579Y-96402404D01*
X133864260Y-96340047D01*
X133863834Y-96338727D01*
X133846324Y-96270457D01*
X133847588Y-96261594D01*
X133854750Y-96256219D01*
X133855318Y-96256088D01*
X134135182Y-96199469D01*
X134139818Y-96199469D01*
X134419632Y-96256078D01*
G37*
%TD.AperFunction*%
%TD*%
%TA.AperFunction,Conductor*%
%TO.N,5V*%
G36*
X165857826Y-101152581D02*
G01*
X166138072Y-101207377D01*
X166142353Y-101209151D01*
X166379179Y-101368515D01*
X166384130Y-101375977D01*
X166382354Y-101384754D01*
X166381976Y-101385283D01*
X166336858Y-101444899D01*
X166335860Y-101446052D01*
X166286856Y-101495754D01*
X166285441Y-101496977D01*
X166193291Y-101564507D01*
X166192882Y-101564793D01*
X166152609Y-101591744D01*
X166152598Y-101591753D01*
X166072946Y-101665212D01*
X166035377Y-101720217D01*
X166035376Y-101720218D01*
X166003434Y-101784612D01*
X165996688Y-101790501D01*
X165988357Y-101790172D01*
X165824626Y-101720232D01*
X165818364Y-101713831D01*
X165818165Y-101705648D01*
X165847656Y-101620431D01*
X165859543Y-101543825D01*
X165857086Y-101478582D01*
X165847139Y-101417321D01*
X165847086Y-101416954D01*
X165832420Y-101303084D01*
X165832327Y-101301323D01*
X165833857Y-101234056D01*
X165833972Y-101232665D01*
X165837589Y-101207376D01*
X165844020Y-101162409D01*
X165848584Y-101154707D01*
X165857259Y-101152486D01*
X165857826Y-101152581D01*
G37*
%TD.AperFunction*%
%TD*%
%TA.AperFunction,Conductor*%
%TO.N,SERVO_A_PWM*%
G36*
X132634879Y-115009191D02*
G01*
X132638276Y-115016631D01*
X132644699Y-115106572D01*
X132664034Y-115181770D01*
X132664034Y-115181772D01*
X132692118Y-115240886D01*
X132725422Y-115293211D01*
X132725647Y-115293578D01*
X132785614Y-115395930D01*
X132786419Y-115397594D01*
X132810735Y-115459939D01*
X132811168Y-115461283D01*
X132828675Y-115529540D01*
X132827411Y-115538405D01*
X132820249Y-115543780D01*
X132819662Y-115543915D01*
X132539820Y-115600530D01*
X132535180Y-115600530D01*
X132255367Y-115543921D01*
X132247938Y-115538921D01*
X132246219Y-115530133D01*
X132246356Y-115529540D01*
X132264866Y-115458105D01*
X132265314Y-115456737D01*
X132290967Y-115392496D01*
X132291757Y-115390889D01*
X132349352Y-115293578D01*
X132349569Y-115293227D01*
X132375478Y-115253310D01*
X132381057Y-115240886D01*
X132419836Y-115154518D01*
X132419837Y-115154517D01*
X132429316Y-115106574D01*
X132432792Y-115088989D01*
X132436876Y-115016803D01*
X132440764Y-115008737D01*
X132448557Y-115005764D01*
X132626606Y-115005764D01*
X132634879Y-115009191D01*
G37*
%TD.AperFunction*%
%TD*%
%TA.AperFunction,Conductor*%
%TO.N,3V3*%
G36*
X165998572Y-113816595D02*
G01*
X166048863Y-113826548D01*
X166813029Y-113977781D01*
X166820480Y-113982748D01*
X166822235Y-113986987D01*
X166983475Y-114801781D01*
X166981720Y-114810562D01*
X166974269Y-114815529D01*
X166973867Y-114815602D01*
X166840674Y-114837158D01*
X166839857Y-114837261D01*
X166712792Y-114848737D01*
X166711915Y-114848783D01*
X166583624Y-114850703D01*
X166497625Y-114851990D01*
X166497595Y-114851990D01*
X166497585Y-114851991D01*
X166295586Y-114857768D01*
X166153727Y-114890207D01*
X166081693Y-114921714D01*
X166005911Y-114966583D01*
X165917089Y-115033392D01*
X165827946Y-115114240D01*
X165819516Y-115117259D01*
X165811718Y-115113750D01*
X165776878Y-115078098D01*
X165687669Y-114986810D01*
X165684339Y-114978500D01*
X165687531Y-114970603D01*
X165771791Y-114881389D01*
X165840585Y-114792294D01*
X165889487Y-114709241D01*
X165921787Y-114629979D01*
X165940776Y-114552261D01*
X165949743Y-114473836D01*
X165950773Y-114305873D01*
X165953462Y-114064906D01*
X165953561Y-114063516D01*
X165984706Y-113826546D01*
X165989181Y-113818792D01*
X165997831Y-113816473D01*
X165998572Y-113816595D01*
G37*
%TD.AperFunction*%
%TD*%
%TA.AperFunction,Conductor*%
%TO.N,3V3*%
G36*
X157850483Y-101628295D02*
G01*
X157855450Y-101635746D01*
X157855535Y-101636224D01*
X157895384Y-101893245D01*
X157895478Y-101894028D01*
X157914086Y-102108767D01*
X157914099Y-102108921D01*
X157918315Y-102166417D01*
X157918318Y-102166441D01*
X157942886Y-102366072D01*
X157942889Y-102366087D01*
X157992085Y-102523474D01*
X157992085Y-102523475D01*
X158033507Y-102604748D01*
X158033510Y-102604752D01*
X158033513Y-102604758D01*
X158089491Y-102690373D01*
X158089493Y-102690376D01*
X158089500Y-102690386D01*
X158154129Y-102771073D01*
X158172792Y-102794373D01*
X158273479Y-102901557D01*
X158276645Y-102909932D01*
X158273224Y-102917840D01*
X158147834Y-103043230D01*
X158139561Y-103046657D01*
X158131557Y-103043491D01*
X158021815Y-102940565D01*
X158021809Y-102940559D01*
X158021801Y-102940553D01*
X158021797Y-102940549D01*
X157915721Y-102856140D01*
X157915718Y-102856138D01*
X157915712Y-102856133D01*
X157915707Y-102856129D01*
X157915699Y-102856124D01*
X157818139Y-102794096D01*
X157818133Y-102794093D01*
X157818130Y-102794091D01*
X157774315Y-102773465D01*
X157725658Y-102750559D01*
X157634898Y-102721667D01*
X157542475Y-102703546D01*
X157542463Y-102703544D01*
X157338925Y-102684099D01*
X157166231Y-102669942D01*
X157165470Y-102669854D01*
X156866316Y-102625468D01*
X156858635Y-102620864D01*
X156856460Y-102612178D01*
X156856556Y-102611624D01*
X156857916Y-102604755D01*
X157017772Y-101796977D01*
X157022739Y-101789527D01*
X157026977Y-101787772D01*
X157841704Y-101626540D01*
X157850483Y-101628295D01*
G37*
%TD.AperFunction*%
%TD*%
%TA.AperFunction,Conductor*%
%TO.N,3V3*%
G36*
X165488032Y-108707446D02*
G01*
X165489132Y-108708416D01*
X166312611Y-109532596D01*
X166316034Y-109540871D01*
X166312604Y-109549143D01*
X166305793Y-109552475D01*
X166274645Y-109556390D01*
X166228778Y-109572707D01*
X166228768Y-109572712D01*
X166181109Y-109602804D01*
X166181106Y-109602806D01*
X166139224Y-109643363D01*
X166139223Y-109643365D01*
X166094983Y-109705786D01*
X166094979Y-109705793D01*
X166058867Y-109778774D01*
X166058862Y-109778787D01*
X166024816Y-109879033D01*
X166024815Y-109879036D01*
X166001702Y-109985053D01*
X166001699Y-109985068D01*
X166001698Y-109985075D01*
X165988132Y-110098840D01*
X165988132Y-110098845D01*
X165988131Y-110098854D01*
X165985259Y-110205562D01*
X166000573Y-110339124D01*
X165998111Y-110347734D01*
X165991827Y-110351797D01*
X165818027Y-110395905D01*
X165809165Y-110394619D01*
X165804199Y-110388685D01*
X165759033Y-110268597D01*
X165706190Y-110172059D01*
X165706185Y-110172051D01*
X165639578Y-110072961D01*
X165639575Y-110072957D01*
X165477712Y-109884970D01*
X165477697Y-109884956D01*
X165300974Y-109733515D01*
X165300968Y-109733510D01*
X165127818Y-109628574D01*
X164966539Y-109568950D01*
X164839090Y-109552605D01*
X164831320Y-109548154D01*
X164828973Y-109539512D01*
X164831336Y-109533826D01*
X165471617Y-108709507D01*
X165479396Y-108705077D01*
X165488032Y-108707446D01*
G37*
%TD.AperFunction*%
%TD*%
%TA.AperFunction,Conductor*%
%TO.N,3V3*%
G36*
X166498596Y-112319047D02*
G01*
X166503823Y-112325755D01*
X166544833Y-112463175D01*
X166594827Y-112585532D01*
X166594830Y-112585537D01*
X166650238Y-112686045D01*
X166650239Y-112686047D01*
X166710730Y-112768739D01*
X166740682Y-112800364D01*
X166775952Y-112837605D01*
X166845562Y-112896656D01*
X166845571Y-112896662D01*
X166996492Y-113001278D01*
X166996605Y-113001357D01*
X167206624Y-113150607D01*
X167207896Y-113151653D01*
X167369366Y-113304734D01*
X167370280Y-113305706D01*
X167447458Y-113397712D01*
X167447988Y-113398394D01*
X167519675Y-113497942D01*
X167521729Y-113506658D01*
X167517018Y-113514273D01*
X167516692Y-113514500D01*
X166824284Y-113978263D01*
X166815503Y-113980020D01*
X166815478Y-113980015D01*
X165998329Y-113816572D01*
X165990889Y-113811589D01*
X165989151Y-113802804D01*
X165989259Y-113802317D01*
X166034254Y-113620068D01*
X166034551Y-113619067D01*
X166090271Y-113459231D01*
X166090722Y-113458126D01*
X166209660Y-113205469D01*
X166209771Y-113205243D01*
X166237315Y-113151475D01*
X166313652Y-112978467D01*
X166351396Y-112817498D01*
X166355412Y-112757155D01*
X166357418Y-112727030D01*
X166357418Y-112727021D01*
X166353521Y-112625705D01*
X166353521Y-112625700D01*
X166337166Y-112503830D01*
X166309165Y-112375246D01*
X166310753Y-112366433D01*
X166317717Y-112361416D01*
X166489734Y-112317761D01*
X166498596Y-112319047D01*
G37*
%TD.AperFunction*%
%TD*%
%TA.AperFunction,Conductor*%
%TO.N,5V*%
G36*
X161481737Y-87504037D02*
G01*
X161482041Y-87504248D01*
X161696265Y-87658226D01*
X161696777Y-87658616D01*
X161821318Y-87759665D01*
X161858043Y-87789462D01*
X161858158Y-87789557D01*
X161891851Y-87817613D01*
X162022918Y-87916965D01*
X162063056Y-87947391D01*
X162098972Y-87968534D01*
X162150382Y-87998801D01*
X162217318Y-88030445D01*
X162253398Y-88047503D01*
X162253400Y-88047503D01*
X162253407Y-88047507D01*
X162394905Y-88100227D01*
X162562974Y-88150023D01*
X162569933Y-88155659D01*
X162570951Y-88164269D01*
X162525005Y-88335747D01*
X162519554Y-88342851D01*
X162511300Y-88344169D01*
X162391724Y-88319064D01*
X162281791Y-88311629D01*
X162281785Y-88311630D01*
X162188605Y-88322152D01*
X162108483Y-88348642D01*
X162037710Y-88389111D01*
X161972592Y-88441563D01*
X161972589Y-88441566D01*
X161844463Y-88574481D01*
X161844403Y-88574543D01*
X161655018Y-88768103D01*
X161653847Y-88769149D01*
X161482154Y-88902966D01*
X161473522Y-88905349D01*
X161465734Y-88900930D01*
X161465239Y-88900246D01*
X161123136Y-88389111D01*
X161003391Y-88210200D01*
X161001638Y-88201419D01*
X161003392Y-88197184D01*
X161465506Y-87507246D01*
X161472956Y-87502280D01*
X161481737Y-87504037D01*
G37*
%TD.AperFunction*%
%TD*%
%TA.AperFunction,Conductor*%
%TO.N,SERVO_C_PWM*%
G36*
X134234879Y-115009191D02*
G01*
X134238276Y-115016631D01*
X134244699Y-115106572D01*
X134264034Y-115181770D01*
X134264034Y-115181772D01*
X134292118Y-115240886D01*
X134325422Y-115293211D01*
X134325647Y-115293578D01*
X134385614Y-115395930D01*
X134386419Y-115397594D01*
X134410735Y-115459939D01*
X134411168Y-115461283D01*
X134428675Y-115529540D01*
X134427411Y-115538405D01*
X134420249Y-115543780D01*
X134419662Y-115543915D01*
X134139820Y-115600530D01*
X134135180Y-115600530D01*
X133855367Y-115543921D01*
X133847938Y-115538921D01*
X133846219Y-115530133D01*
X133846356Y-115529540D01*
X133864866Y-115458105D01*
X133865314Y-115456737D01*
X133890967Y-115392496D01*
X133891757Y-115390889D01*
X133949352Y-115293578D01*
X133949569Y-115293227D01*
X133975478Y-115253310D01*
X133981057Y-115240886D01*
X134019836Y-115154518D01*
X134019837Y-115154517D01*
X134029316Y-115106574D01*
X134032792Y-115088989D01*
X134036876Y-115016803D01*
X134040764Y-115008737D01*
X134048557Y-115005764D01*
X134226606Y-115005764D01*
X134234879Y-115009191D01*
G37*
%TD.AperFunction*%
%TD*%
%TA.AperFunction,Conductor*%
%TO.N,5V*%
G36*
X161048610Y-86634142D02*
G01*
X161053923Y-86640772D01*
X161131906Y-86889289D01*
X161131906Y-86889290D01*
X161131909Y-86889296D01*
X161214974Y-87071895D01*
X161214977Y-87071899D01*
X161306779Y-87212508D01*
X161414309Y-87345735D01*
X161502226Y-87452567D01*
X161502629Y-87453087D01*
X161699529Y-87721859D01*
X161699537Y-87721869D01*
X161701662Y-87730568D01*
X161697013Y-87738221D01*
X161696610Y-87738504D01*
X161006766Y-88200554D01*
X160997985Y-88202311D01*
X160993747Y-88200556D01*
X160303423Y-87738522D01*
X160298454Y-87731073D01*
X160300208Y-87722291D01*
X160300511Y-87721859D01*
X160378923Y-87615424D01*
X160379533Y-87614667D01*
X160465068Y-87517279D01*
X160465745Y-87516571D01*
X160629390Y-87359527D01*
X160746340Y-87248479D01*
X160831908Y-87139783D01*
X160879025Y-87026754D01*
X160890168Y-86959869D01*
X160891682Y-86884395D01*
X160881332Y-86790196D01*
X160881329Y-86790184D01*
X160881329Y-86790179D01*
X160868903Y-86733964D01*
X160859797Y-86692763D01*
X160861357Y-86683947D01*
X160868192Y-86678939D01*
X161039734Y-86632974D01*
X161048610Y-86634142D01*
G37*
%TD.AperFunction*%
%TD*%
%TA.AperFunction,Conductor*%
%TO.N,SERVO_B_PWM*%
G36*
X133434879Y-115009191D02*
G01*
X133438276Y-115016631D01*
X133444699Y-115106572D01*
X133464034Y-115181770D01*
X133464034Y-115181772D01*
X133492118Y-115240886D01*
X133525422Y-115293211D01*
X133525647Y-115293578D01*
X133585614Y-115395930D01*
X133586419Y-115397594D01*
X133610735Y-115459939D01*
X133611168Y-115461283D01*
X133628675Y-115529540D01*
X133627411Y-115538405D01*
X133620249Y-115543780D01*
X133619662Y-115543915D01*
X133339820Y-115600530D01*
X133335180Y-115600530D01*
X133055367Y-115543921D01*
X133047938Y-115538921D01*
X133046219Y-115530133D01*
X133046356Y-115529540D01*
X133064866Y-115458105D01*
X133065314Y-115456737D01*
X133090967Y-115392496D01*
X133091757Y-115390889D01*
X133149352Y-115293578D01*
X133149569Y-115293227D01*
X133175478Y-115253310D01*
X133181057Y-115240886D01*
X133219836Y-115154518D01*
X133219837Y-115154517D01*
X133229316Y-115106574D01*
X133232792Y-115088989D01*
X133236876Y-115016803D01*
X133240764Y-115008737D01*
X133248557Y-115005764D01*
X133426606Y-115005764D01*
X133434879Y-115009191D01*
G37*
%TD.AperFunction*%
%TD*%
%TA.AperFunction,Conductor*%
%TO.N,3V3*%
G36*
X164645700Y-108261039D02*
G01*
X165088491Y-108493665D01*
X165476693Y-108697612D01*
X165482423Y-108704494D01*
X165482427Y-108704509D01*
X165739490Y-109534597D01*
X165738664Y-109543513D01*
X165731775Y-109549234D01*
X165728138Y-109549757D01*
X165640063Y-109548435D01*
X165441352Y-109557224D01*
X165441334Y-109557226D01*
X165229075Y-109579086D01*
X165229056Y-109579088D01*
X164973004Y-109618249D01*
X164714872Y-109669279D01*
X164456023Y-109730992D01*
X164213674Y-109798675D01*
X163870323Y-109917154D01*
X163861385Y-109916613D01*
X163855447Y-109909910D01*
X163854907Y-109907621D01*
X163831841Y-109732430D01*
X163834159Y-109723781D01*
X163838136Y-109720475D01*
X163838325Y-109720379D01*
X163915639Y-109681052D01*
X163992735Y-109628876D01*
X164076101Y-109558142D01*
X164157295Y-109474574D01*
X164239056Y-109374585D01*
X164316170Y-109263542D01*
X164451779Y-109014730D01*
X164551679Y-108751643D01*
X164551679Y-108751641D01*
X164551680Y-108751641D01*
X164610895Y-108493665D01*
X164610897Y-108493658D01*
X164628597Y-108270471D01*
X164632667Y-108262497D01*
X164641185Y-108259735D01*
X164645700Y-108261039D01*
G37*
%TD.AperFunction*%
%TD*%
%TA.AperFunction,Conductor*%
%TO.N,3V3*%
G36*
X145449872Y-115829443D02*
G01*
X145521302Y-115847952D01*
X145522679Y-115848403D01*
X145586908Y-115874051D01*
X145588528Y-115874848D01*
X145685797Y-115932417D01*
X145686206Y-115932670D01*
X145726103Y-115958565D01*
X145726107Y-115958567D01*
X145726106Y-115958567D01*
X145824894Y-116002923D01*
X145824895Y-116002924D01*
X145824898Y-116002924D01*
X145824899Y-116002925D01*
X145890424Y-116015879D01*
X145962611Y-116019962D01*
X145970676Y-116023850D01*
X145973649Y-116031643D01*
X145973649Y-116209693D01*
X145970222Y-116217966D01*
X145962782Y-116221363D01*
X145872839Y-116227786D01*
X145797641Y-116247121D01*
X145797639Y-116247121D01*
X145738525Y-116275205D01*
X145686200Y-116308509D01*
X145685833Y-116308734D01*
X145583482Y-116368701D01*
X145581818Y-116369506D01*
X145519473Y-116393822D01*
X145518129Y-116394255D01*
X145449872Y-116411762D01*
X145441007Y-116410498D01*
X145435632Y-116403336D01*
X145435497Y-116402749D01*
X145428772Y-116369506D01*
X145378882Y-116122905D01*
X145378882Y-116118267D01*
X145398770Y-116019962D01*
X145435491Y-115838453D01*
X145440491Y-115831025D01*
X145449279Y-115829306D01*
X145449872Y-115829443D01*
G37*
%TD.AperFunction*%
%TD*%
%TA.AperFunction,Conductor*%
%TO.N,SERVO_A_PWM*%
G36*
X132819632Y-96256078D02*
G01*
X132827061Y-96261078D01*
X132828780Y-96269866D01*
X132828638Y-96270481D01*
X132810138Y-96341875D01*
X132809678Y-96343279D01*
X132784035Y-96407495D01*
X132783238Y-96409115D01*
X132725669Y-96506384D01*
X132725414Y-96506795D01*
X132699520Y-96546690D01*
X132655163Y-96645480D01*
X132655162Y-96645481D01*
X132642208Y-96711005D01*
X132642208Y-96711010D01*
X132638124Y-96783197D01*
X132634236Y-96791263D01*
X132626443Y-96794236D01*
X132448394Y-96794236D01*
X132440121Y-96790809D01*
X132436724Y-96783369D01*
X132430300Y-96693426D01*
X132430300Y-96693425D01*
X132410964Y-96618223D01*
X132382883Y-96559116D01*
X132382882Y-96559115D01*
X132382881Y-96559112D01*
X132349577Y-96506787D01*
X132349352Y-96506420D01*
X132289384Y-96404068D01*
X132288579Y-96402404D01*
X132264260Y-96340047D01*
X132263834Y-96338727D01*
X132246324Y-96270457D01*
X132247588Y-96261594D01*
X132254750Y-96256219D01*
X132255318Y-96256088D01*
X132535182Y-96199469D01*
X132539818Y-96199469D01*
X132819632Y-96256078D01*
G37*
%TD.AperFunction*%
%TD*%
%TA.AperFunction,Conductor*%
%TO.N,GND*%
G36*
X150411555Y-62205721D02*
G01*
X150417242Y-62205854D01*
X151238975Y-62244138D01*
X151244723Y-62244540D01*
X152063740Y-62321009D01*
X152069424Y-62321674D01*
X152884023Y-62436170D01*
X152889682Y-62437100D01*
X153698078Y-62589373D01*
X153703657Y-62590559D01*
X154504101Y-62780279D01*
X154509621Y-62781724D01*
X155300375Y-63008481D01*
X155305831Y-63010183D01*
X156085175Y-63273484D01*
X156090549Y-63275440D01*
X156856293Y-63574516D01*
X156856767Y-63574701D01*
X156862087Y-63576923D01*
X157613554Y-63911510D01*
X157618716Y-63913954D01*
X158353852Y-64283166D01*
X158358897Y-64285849D01*
X159075554Y-64688580D01*
X159075999Y-64688830D01*
X159080958Y-64691771D01*
X159778538Y-65127681D01*
X159783322Y-65130827D01*
X160459885Y-65598733D01*
X160464544Y-65602119D01*
X160986522Y-66000251D01*
X161118578Y-66100975D01*
X161123084Y-66104581D01*
X161677471Y-66569780D01*
X161753190Y-66633317D01*
X161757523Y-66637128D01*
X162362359Y-67194619D01*
X162366510Y-67198628D01*
X162944738Y-67783641D01*
X162948698Y-67787838D01*
X163499087Y-68399125D01*
X163502848Y-68403502D01*
X164024224Y-69039762D01*
X164027776Y-69044310D01*
X164518949Y-69704089D01*
X164522286Y-69708795D01*
X164982278Y-70390783D01*
X164985374Y-70395613D01*
X165413875Y-71099475D01*
X165415334Y-71101935D01*
X165434545Y-71135210D01*
X165434547Y-71135211D01*
X165441698Y-71147596D01*
X165441698Y-71147597D01*
X182715421Y-101065713D01*
X182715422Y-101065715D01*
X182734619Y-101098965D01*
X182736032Y-101101479D01*
X183131350Y-101824517D01*
X183134000Y-101829644D01*
X183494598Y-102568956D01*
X183497006Y-102574200D01*
X183822809Y-103329472D01*
X183824971Y-103334822D01*
X184115287Y-104104444D01*
X184117198Y-104109889D01*
X184371399Y-104892204D01*
X184373054Y-104897733D01*
X184590576Y-105691006D01*
X184591972Y-105696605D01*
X184772352Y-106499144D01*
X184773486Y-106504802D01*
X184916331Y-107314856D01*
X184917201Y-107320561D01*
X185022206Y-108136405D01*
X185022809Y-108142144D01*
X185089743Y-108961984D01*
X185090078Y-108967745D01*
X185118794Y-109789775D01*
X185118862Y-109795545D01*
X185109301Y-110618082D01*
X185109099Y-110623849D01*
X185061283Y-111444994D01*
X185060814Y-111450746D01*
X184974841Y-112268823D01*
X184974104Y-112274546D01*
X184850169Y-113087701D01*
X184849167Y-113093384D01*
X184687531Y-113899905D01*
X184686266Y-113905536D01*
X184487278Y-114703676D01*
X184485752Y-114709241D01*
X184249851Y-115497243D01*
X184248068Y-115502731D01*
X183975756Y-116278915D01*
X183973719Y-116284315D01*
X183665599Y-117046968D01*
X183663314Y-117052267D01*
X183320025Y-117799799D01*
X183317495Y-117804985D01*
X182939824Y-118535691D01*
X182937056Y-118540755D01*
X182525776Y-119253131D01*
X182522775Y-119258060D01*
X182078807Y-119950517D01*
X182075580Y-119955301D01*
X181599877Y-120626350D01*
X181596431Y-120630979D01*
X181090022Y-121279171D01*
X181086365Y-121283634D01*
X180550341Y-121907569D01*
X180546479Y-121911858D01*
X179982018Y-122510167D01*
X179977962Y-122514271D01*
X179386265Y-123085680D01*
X179382022Y-123089591D01*
X178764373Y-123632860D01*
X178759952Y-123636569D01*
X178117725Y-124150490D01*
X178113137Y-124153990D01*
X177447671Y-124637493D01*
X177442924Y-124640776D01*
X176755697Y-125092784D01*
X176750804Y-125095842D01*
X176043274Y-125515399D01*
X176038243Y-125518226D01*
X175311972Y-125904403D01*
X175306815Y-125906993D01*
X174563356Y-126258965D01*
X174558084Y-126261312D01*
X173799061Y-126578311D01*
X173793686Y-126580410D01*
X173020740Y-126861750D01*
X173015273Y-126863597D01*
X172230076Y-127108671D01*
X172224529Y-127110262D01*
X171428770Y-127318542D01*
X171423154Y-127319873D01*
X170618563Y-127490904D01*
X170612893Y-127491972D01*
X169801223Y-127625384D01*
X169795508Y-127626187D01*
X168978527Y-127721689D01*
X168972781Y-127722226D01*
X168152202Y-127779617D01*
X168146438Y-127779885D01*
X167322635Y-127799070D01*
X167320682Y-127799100D01*
X167320147Y-127799104D01*
X167281345Y-127799105D01*
X167280628Y-127799401D01*
X167268082Y-127799496D01*
X167267852Y-127799430D01*
X167267148Y-127799500D01*
X132680424Y-127799500D01*
X132677539Y-127799466D01*
X132675992Y-127799430D01*
X132661943Y-127799103D01*
X131853769Y-127780292D01*
X131848004Y-127780024D01*
X131027425Y-127722643D01*
X131021680Y-127722107D01*
X130204639Y-127626610D01*
X130198924Y-127625806D01*
X130196356Y-127625384D01*
X130130718Y-127614596D01*
X129387256Y-127492405D01*
X129381585Y-127491337D01*
X128576994Y-127320316D01*
X128571379Y-127318985D01*
X127775580Y-127110706D01*
X127770033Y-127109116D01*
X126984816Y-126864047D01*
X126979349Y-126862200D01*
X126206391Y-126580867D01*
X126201015Y-126578768D01*
X125441946Y-126261761D01*
X125436674Y-126259413D01*
X124693203Y-125907447D01*
X124688067Y-125904867D01*
X123961774Y-125518690D01*
X123956750Y-125515868D01*
X123249193Y-125096309D01*
X123244299Y-125093251D01*
X122557031Y-124641229D01*
X122552285Y-124637946D01*
X121886832Y-124154465D01*
X121882243Y-124150966D01*
X121239948Y-123637005D01*
X121235528Y-123633295D01*
X120617892Y-123090053D01*
X120613648Y-123086142D01*
X120021921Y-122514719D01*
X120017865Y-122510615D01*
X119453394Y-121912310D01*
X119449532Y-121908022D01*
X119089250Y-121488663D01*
X118913456Y-121284044D01*
X118909825Y-121279611D01*
X118403389Y-120631404D01*
X118399945Y-120626778D01*
X117924224Y-119955722D01*
X117920997Y-119950938D01*
X117920727Y-119950517D01*
X117477002Y-119258461D01*
X117474008Y-119253543D01*
X117458962Y-119227483D01*
X117172693Y-118731650D01*
X117062716Y-118541164D01*
X117059948Y-118536101D01*
X116759076Y-117954004D01*
X116682243Y-117805357D01*
X116679719Y-117800181D01*
X116657403Y-117751588D01*
X116336418Y-117052649D01*
X116334139Y-117047366D01*
X116333978Y-117046968D01*
X116165868Y-116630879D01*
X116071845Y-116398164D01*
X116054720Y-116355778D01*
X119220500Y-116355778D01*
X119220500Y-116644221D01*
X119220501Y-116644238D01*
X119258149Y-116930206D01*
X119258150Y-116930211D01*
X119258151Y-116930217D01*
X119324456Y-117177671D01*
X119332809Y-117208844D01*
X119332814Y-117208860D01*
X119443191Y-117475336D01*
X119443199Y-117475352D01*
X119587420Y-117725148D01*
X119587431Y-117725164D01*
X119763024Y-117954002D01*
X119763030Y-117954009D01*
X119966990Y-118157969D01*
X119966997Y-118157975D01*
X120106375Y-118264923D01*
X120195844Y-118333575D01*
X120195851Y-118333579D01*
X120445647Y-118477800D01*
X120445663Y-118477808D01*
X120712139Y-118588185D01*
X120712145Y-118588186D01*
X120712155Y-118588191D01*
X120990783Y-118662849D01*
X121276772Y-118700500D01*
X121276779Y-118700500D01*
X121565221Y-118700500D01*
X121565228Y-118700500D01*
X121851217Y-118662849D01*
X122129845Y-118588191D01*
X122129857Y-118588185D01*
X122129860Y-118588185D01*
X122396336Y-118477808D01*
X122396339Y-118477806D01*
X122396345Y-118477804D01*
X122646156Y-118333575D01*
X122875004Y-118157974D01*
X123078974Y-117954004D01*
X123254575Y-117725156D01*
X123398804Y-117475345D01*
X123440542Y-117374581D01*
X123509185Y-117208860D01*
X123509185Y-117208857D01*
X123509191Y-117208845D01*
X123583849Y-116930217D01*
X123621500Y-116644228D01*
X123621500Y-116355772D01*
X123583849Y-116069783D01*
X123509191Y-115791155D01*
X123509186Y-115791145D01*
X123509185Y-115791139D01*
X123398808Y-115524663D01*
X123398800Y-115524647D01*
X123254579Y-115274851D01*
X123254575Y-115274844D01*
X123172491Y-115167870D01*
X123078975Y-115045997D01*
X123078969Y-115045990D01*
X122875009Y-114842030D01*
X122875002Y-114842024D01*
X122646164Y-114666431D01*
X122646162Y-114666429D01*
X122646156Y-114666425D01*
X122646151Y-114666422D01*
X122646148Y-114666420D01*
X122396352Y-114522199D01*
X122396336Y-114522191D01*
X122129860Y-114411814D01*
X122129848Y-114411810D01*
X122129845Y-114411809D01*
X121851217Y-114337151D01*
X121851211Y-114337150D01*
X121851206Y-114337149D01*
X121565238Y-114299501D01*
X121565233Y-114299500D01*
X121565228Y-114299500D01*
X121276772Y-114299500D01*
X121276766Y-114299500D01*
X121276761Y-114299501D01*
X120990793Y-114337149D01*
X120990786Y-114337150D01*
X120990783Y-114337151D01*
X120830499Y-114380099D01*
X120712155Y-114411809D01*
X120712139Y-114411814D01*
X120445663Y-114522191D01*
X120445647Y-114522199D01*
X120195851Y-114666420D01*
X120195835Y-114666431D01*
X119966997Y-114842024D01*
X119966990Y-114842030D01*
X119763030Y-115045990D01*
X119763024Y-115045997D01*
X119587431Y-115274835D01*
X119587420Y-115274851D01*
X119443199Y-115524647D01*
X119443191Y-115524663D01*
X119332814Y-115791139D01*
X119332809Y-115791155D01*
X119297865Y-115921570D01*
X119258152Y-116069780D01*
X119258149Y-116069793D01*
X119220501Y-116355761D01*
X119220500Y-116355778D01*
X116054720Y-116355778D01*
X116025990Y-116284669D01*
X116023954Y-116279270D01*
X115751636Y-115503105D01*
X115749852Y-115497617D01*
X115709957Y-115364358D01*
X115513920Y-114709551D01*
X115512407Y-114704034D01*
X115313396Y-113905846D01*
X115312135Y-113900232D01*
X115150478Y-113093665D01*
X115149488Y-113088050D01*
X115025530Y-112274830D01*
X115024795Y-112269118D01*
X115015555Y-112181205D01*
X114938807Y-111451003D01*
X114938340Y-111445273D01*
X114902424Y-110828626D01*
X114890511Y-110624085D01*
X114890310Y-110618367D01*
X114880738Y-109795772D01*
X114880806Y-109790018D01*
X114909513Y-108967930D01*
X114909843Y-108962249D01*
X114976773Y-108142311D01*
X114977367Y-108136650D01*
X115082373Y-107320712D01*
X115083232Y-107315079D01*
X115226081Y-106504933D01*
X115227198Y-106499356D01*
X115407585Y-105696738D01*
X115408977Y-105691157D01*
X115409019Y-105691006D01*
X115626497Y-104897846D01*
X115628150Y-104892326D01*
X115648401Y-104830000D01*
X115882351Y-104109969D01*
X115884230Y-104104613D01*
X116174575Y-103334881D01*
X116176708Y-103329600D01*
X116502545Y-102574222D01*
X116504935Y-102569021D01*
X116865536Y-101829679D01*
X116868185Y-101824553D01*
X116868205Y-101824517D01*
X117255367Y-101116365D01*
X117256691Y-101114010D01*
X119047610Y-98012135D01*
X124909500Y-98012135D01*
X124909500Y-99807870D01*
X124909501Y-99807876D01*
X124915908Y-99867483D01*
X124966202Y-100002328D01*
X124966206Y-100002335D01*
X125052452Y-100117544D01*
X125052455Y-100117547D01*
X125167664Y-100203793D01*
X125167671Y-100203797D01*
X125302517Y-100254091D01*
X125302516Y-100254091D01*
X125309444Y-100254835D01*
X125362127Y-100260500D01*
X127157872Y-100260499D01*
X127217483Y-100254091D01*
X127352331Y-100203796D01*
X127467546Y-100117546D01*
X127553796Y-100002331D01*
X127602810Y-99870916D01*
X127644681Y-99814984D01*
X127710145Y-99790566D01*
X127778418Y-99805417D01*
X127806673Y-99826569D01*
X127920213Y-99940109D01*
X128092179Y-100065048D01*
X128092181Y-100065049D01*
X128092184Y-100065051D01*
X128281588Y-100161557D01*
X128483757Y-100227246D01*
X128693713Y-100260500D01*
X128693714Y-100260500D01*
X128906286Y-100260500D01*
X128906287Y-100260500D01*
X129116243Y-100227246D01*
X129318412Y-100161557D01*
X129507816Y-100065051D01*
X129577986Y-100014070D01*
X129679786Y-99940109D01*
X129679788Y-99940106D01*
X129679792Y-99940104D01*
X129830104Y-99789792D01*
X129830106Y-99789788D01*
X129830109Y-99789786D01*
X129955048Y-99617820D01*
X129955047Y-99617820D01*
X129955051Y-99617816D01*
X129959514Y-99609054D01*
X130007488Y-99558259D01*
X130075308Y-99541463D01*
X130141444Y-99563999D01*
X130180486Y-99609056D01*
X130184951Y-99617820D01*
X130309890Y-99789786D01*
X130460213Y-99940109D01*
X130632179Y-100065048D01*
X130632181Y-100065049D01*
X130632184Y-100065051D01*
X130821588Y-100161557D01*
X131023757Y-100227246D01*
X131233713Y-100260500D01*
X131233714Y-100260500D01*
X131446286Y-100260500D01*
X131446287Y-100260500D01*
X131656243Y-100227246D01*
X131774684Y-100188761D01*
X131844523Y-100186767D01*
X131904356Y-100222847D01*
X131935184Y-100285548D01*
X131937000Y-100306693D01*
X131937000Y-114952003D01*
X131934712Y-114975715D01*
X131934635Y-114976108D01*
X131932183Y-114988249D01*
X131932147Y-114988878D01*
X131931249Y-114993490D01*
X131926712Y-115002246D01*
X131915640Y-115033951D01*
X131914325Y-115036124D01*
X131856741Y-115133417D01*
X131838113Y-115167870D01*
X131837316Y-115169491D01*
X131821516Y-115205022D01*
X131795860Y-115269270D01*
X131784920Y-115299408D01*
X131784467Y-115300789D01*
X131775526Y-115331310D01*
X131757020Y-115402730D01*
X131753825Y-115415765D01*
X131753692Y-115416344D01*
X131753690Y-115416355D01*
X131742876Y-115483483D01*
X131742742Y-115485931D01*
X131740547Y-115503321D01*
X131737000Y-115521157D01*
X131737000Y-115678846D01*
X131767761Y-115833489D01*
X131767764Y-115833501D01*
X131828102Y-115979172D01*
X131828109Y-115979185D01*
X131915710Y-116110288D01*
X131915713Y-116110292D01*
X132027207Y-116221786D01*
X132027211Y-116221789D01*
X132158314Y-116309390D01*
X132158327Y-116309397D01*
X132303998Y-116369735D01*
X132304003Y-116369737D01*
X132446914Y-116398164D01*
X132458653Y-116400499D01*
X132458656Y-116400500D01*
X132458658Y-116400500D01*
X132616344Y-116400500D01*
X132616345Y-116400499D01*
X132770997Y-116369737D01*
X132890048Y-116320425D01*
X132959517Y-116312956D01*
X132984952Y-116320425D01*
X133070288Y-116355772D01*
X133104003Y-116369737D01*
X133246914Y-116398164D01*
X133258653Y-116400499D01*
X133258656Y-116400500D01*
X133258658Y-116400500D01*
X133416344Y-116400500D01*
X133416345Y-116400499D01*
X133570997Y-116369737D01*
X133690048Y-116320425D01*
X133759517Y-116312956D01*
X133784952Y-116320425D01*
X133870288Y-116355772D01*
X133904003Y-116369737D01*
X134046914Y-116398164D01*
X134058653Y-116400499D01*
X134058656Y-116400500D01*
X134058658Y-116400500D01*
X134216344Y-116400500D01*
X134216345Y-116400499D01*
X134370997Y-116369737D01*
X134516679Y-116309394D01*
X134647789Y-116221789D01*
X134759289Y-116110289D01*
X134846894Y-115979179D01*
X134907237Y-115833497D01*
X134938000Y-115678842D01*
X134938000Y-115521158D01*
X134923774Y-115449643D01*
X134922120Y-115438862D01*
X134918327Y-115403954D01*
X134914065Y-115387339D01*
X134900819Y-115335694D01*
X134892314Y-115306271D01*
X134891881Y-115304927D01*
X134881683Y-115276258D01*
X134857367Y-115213913D01*
X134841467Y-115177454D01*
X134840662Y-115175790D01*
X134821768Y-115140392D01*
X134817682Y-115133418D01*
X134761808Y-115038051D01*
X134759756Y-115034628D01*
X134756222Y-115024067D01*
X134751488Y-115018177D01*
X134744926Y-114990309D01*
X134742804Y-114983968D01*
X134742580Y-114981864D01*
X134742492Y-114980623D01*
X134738693Y-114945253D01*
X134738699Y-114945219D01*
X134738000Y-114932160D01*
X134738000Y-96847992D01*
X134740287Y-96824285D01*
X134740352Y-96823948D01*
X134742817Y-96811748D01*
X134742852Y-96811111D01*
X134743750Y-96806506D01*
X134748329Y-96797666D01*
X134759422Y-96765937D01*
X134760687Y-96763851D01*
X134818256Y-96666582D01*
X134836818Y-96632265D01*
X134837615Y-96630645D01*
X134853489Y-96594959D01*
X134879132Y-96530743D01*
X134890052Y-96500667D01*
X134890512Y-96499263D01*
X134899476Y-96468675D01*
X134917976Y-96397281D01*
X134921179Y-96384206D01*
X134921321Y-96383591D01*
X134932122Y-96316523D01*
X134932121Y-96316506D01*
X134932253Y-96314106D01*
X134934450Y-96296685D01*
X134938000Y-96278842D01*
X134938000Y-96121158D01*
X134938000Y-96121155D01*
X134937999Y-96121153D01*
X134907238Y-95966510D01*
X134907237Y-95966503D01*
X134866593Y-95868378D01*
X134846897Y-95820827D01*
X134846890Y-95820814D01*
X134759289Y-95689711D01*
X134759286Y-95689707D01*
X134647792Y-95578213D01*
X134647788Y-95578210D01*
X134516685Y-95490609D01*
X134516672Y-95490602D01*
X134371001Y-95430264D01*
X134370989Y-95430261D01*
X134216345Y-95399500D01*
X134216342Y-95399500D01*
X134058658Y-95399500D01*
X134058655Y-95399500D01*
X133904010Y-95430261D01*
X133903998Y-95430264D01*
X133784952Y-95479574D01*
X133715482Y-95487043D01*
X133690048Y-95479574D01*
X133571001Y-95430264D01*
X133570989Y-95430261D01*
X133416345Y-95399500D01*
X133416342Y-95399500D01*
X133258658Y-95399500D01*
X133258655Y-95399500D01*
X133104010Y-95430261D01*
X133103998Y-95430264D01*
X132984952Y-95479574D01*
X132915482Y-95487043D01*
X132890048Y-95479574D01*
X132771001Y-95430264D01*
X132770989Y-95430261D01*
X132616345Y-95399500D01*
X132616342Y-95399500D01*
X132458658Y-95399500D01*
X132458655Y-95399500D01*
X132304010Y-95430261D01*
X132303998Y-95430264D01*
X132158327Y-95490602D01*
X132158314Y-95490609D01*
X132027211Y-95578210D01*
X132027207Y-95578213D01*
X131915713Y-95689707D01*
X131915710Y-95689711D01*
X131828109Y-95820814D01*
X131828102Y-95820827D01*
X131767764Y-95966498D01*
X131767761Y-95966510D01*
X131737000Y-96121153D01*
X131737000Y-96278846D01*
X131751219Y-96350330D01*
X131752875Y-96361117D01*
X131756671Y-96396036D01*
X131774185Y-96464323D01*
X131782764Y-96493976D01*
X131783196Y-96495313D01*
X131793304Y-96523709D01*
X131817627Y-96586075D01*
X131833528Y-96622540D01*
X131834338Y-96624212D01*
X131838636Y-96632265D01*
X131853232Y-96659609D01*
X131913200Y-96761961D01*
X131915247Y-96765376D01*
X131918778Y-96775929D01*
X131923510Y-96781817D01*
X131930081Y-96809713D01*
X131932194Y-96816026D01*
X131932420Y-96818162D01*
X131932508Y-96819381D01*
X131936291Y-96854597D01*
X131936291Y-96854604D01*
X131936306Y-96854739D01*
X131936300Y-96854769D01*
X131937000Y-96867836D01*
X131937000Y-97513306D01*
X131917315Y-97580345D01*
X131864511Y-97626100D01*
X131795353Y-97636044D01*
X131774682Y-97631237D01*
X131656240Y-97592753D01*
X131494957Y-97567208D01*
X131446287Y-97559500D01*
X131233713Y-97559500D01*
X131185042Y-97567208D01*
X131023760Y-97592753D01*
X130821585Y-97658444D01*
X130632179Y-97754951D01*
X130460213Y-97879890D01*
X130309890Y-98030213D01*
X130184949Y-98202182D01*
X130180484Y-98210946D01*
X130132509Y-98261742D01*
X130064688Y-98278536D01*
X129998553Y-98255998D01*
X129959516Y-98210946D01*
X129955050Y-98202182D01*
X129830109Y-98030213D01*
X129679786Y-97879890D01*
X129507820Y-97754951D01*
X129318414Y-97658444D01*
X129318413Y-97658443D01*
X129318412Y-97658443D01*
X129116243Y-97592754D01*
X129116241Y-97592753D01*
X129116240Y-97592753D01*
X128954957Y-97567208D01*
X128906287Y-97559500D01*
X128693713Y-97559500D01*
X128645042Y-97567208D01*
X128483760Y-97592753D01*
X128281585Y-97658444D01*
X128092179Y-97754951D01*
X127920215Y-97879889D01*
X127806673Y-97993431D01*
X127745350Y-98026915D01*
X127675658Y-98021931D01*
X127619725Y-97980059D01*
X127602810Y-97949082D01*
X127553797Y-97817671D01*
X127553793Y-97817664D01*
X127467547Y-97702455D01*
X127467544Y-97702452D01*
X127352335Y-97616206D01*
X127352328Y-97616202D01*
X127217482Y-97565908D01*
X127217483Y-97565908D01*
X127157883Y-97559501D01*
X127157881Y-97559500D01*
X127157873Y-97559500D01*
X127157864Y-97559500D01*
X125362129Y-97559500D01*
X125362123Y-97559501D01*
X125302516Y-97565908D01*
X125167671Y-97616202D01*
X125167664Y-97616206D01*
X125052455Y-97702452D01*
X125052452Y-97702455D01*
X124966206Y-97817664D01*
X124966202Y-97817671D01*
X124915908Y-97952517D01*
X124909501Y-98012116D01*
X124909500Y-98012135D01*
X119047610Y-98012135D01*
X120701565Y-95147483D01*
X161799500Y-95147483D01*
X161799500Y-96347501D01*
X161799501Y-96347518D01*
X161810000Y-96450296D01*
X161810001Y-96450299D01*
X161865185Y-96616831D01*
X161865187Y-96616836D01*
X161874704Y-96632265D01*
X161955866Y-96763851D01*
X161957289Y-96766157D01*
X162026510Y-96835378D01*
X162059995Y-96896701D01*
X162055011Y-96966393D01*
X162039148Y-96995944D01*
X161988139Y-97066151D01*
X161895244Y-97248468D01*
X161832009Y-97443082D01*
X161800000Y-97645182D01*
X161800000Y-97849817D01*
X161832009Y-98051917D01*
X161895244Y-98246531D01*
X161988141Y-98428850D01*
X161988147Y-98428859D01*
X162020523Y-98473421D01*
X162020524Y-98473422D01*
X162700000Y-97793946D01*
X162700000Y-97800161D01*
X162727259Y-97901894D01*
X162779920Y-97993106D01*
X162854394Y-98067580D01*
X162945606Y-98120241D01*
X163047339Y-98147500D01*
X163053553Y-98147500D01*
X162374076Y-98826974D01*
X162418650Y-98859359D01*
X162600968Y-98952255D01*
X162795582Y-99015490D01*
X162997683Y-99047500D01*
X163202317Y-99047500D01*
X163404417Y-99015490D01*
X163599031Y-98952255D01*
X163781349Y-98859359D01*
X163825921Y-98826974D01*
X163146447Y-98147500D01*
X163152661Y-98147500D01*
X163254394Y-98120241D01*
X163345606Y-98067580D01*
X163420080Y-97993106D01*
X163472741Y-97901894D01*
X163500000Y-97800161D01*
X163500000Y-97793947D01*
X164179474Y-98473421D01*
X164211859Y-98428849D01*
X164304755Y-98246531D01*
X164367990Y-98051917D01*
X164400000Y-97849817D01*
X164400000Y-97645182D01*
X164367990Y-97443082D01*
X164304755Y-97248468D01*
X164211857Y-97066146D01*
X164160853Y-96995946D01*
X164137372Y-96930140D01*
X164153197Y-96862086D01*
X164173489Y-96835379D01*
X164202362Y-96806506D01*
X164242712Y-96766156D01*
X164334814Y-96616834D01*
X164389999Y-96450297D01*
X164400500Y-96347509D01*
X164400499Y-95147492D01*
X164389999Y-95044703D01*
X164334814Y-94878166D01*
X164242712Y-94728844D01*
X164118656Y-94604788D01*
X163969334Y-94512686D01*
X163802797Y-94457501D01*
X163802795Y-94457500D01*
X163700010Y-94447000D01*
X162499998Y-94447000D01*
X162499981Y-94447001D01*
X162397203Y-94457500D01*
X162397200Y-94457501D01*
X162230668Y-94512685D01*
X162230663Y-94512687D01*
X162081342Y-94604789D01*
X161957289Y-94728842D01*
X161865187Y-94878163D01*
X161865186Y-94878166D01*
X161810001Y-95044703D01*
X161810001Y-95044704D01*
X161810000Y-95044704D01*
X161799500Y-95147483D01*
X120701565Y-95147483D01*
X123704835Y-89945815D01*
X135853449Y-89945815D01*
X135853449Y-90158389D01*
X135886703Y-90368345D01*
X135910415Y-90441324D01*
X135952393Y-90570516D01*
X136048900Y-90759922D01*
X136173839Y-90931888D01*
X136324162Y-91082211D01*
X136496128Y-91207150D01*
X136496130Y-91207151D01*
X136496133Y-91207153D01*
X136685537Y-91303659D01*
X136887706Y-91369348D01*
X137097662Y-91402602D01*
X137097663Y-91402602D01*
X137310235Y-91402602D01*
X137310236Y-91402602D01*
X137520192Y-91369348D01*
X137722361Y-91303659D01*
X137911765Y-91207153D01*
X138058654Y-91100433D01*
X138083735Y-91082211D01*
X138083737Y-91082208D01*
X138083741Y-91082206D01*
X138234053Y-90931894D01*
X138234055Y-90931890D01*
X138234058Y-90931888D01*
X138358997Y-90759922D01*
X138358996Y-90759922D01*
X138359000Y-90759918D01*
X138455506Y-90570514D01*
X138521195Y-90368345D01*
X138554449Y-90158389D01*
X138554449Y-89945815D01*
X138521195Y-89735859D01*
X138518156Y-89726508D01*
X138516158Y-89656670D01*
X138552236Y-89596836D01*
X138614936Y-89566005D01*
X138674406Y-89570258D01*
X138683757Y-89573297D01*
X138893713Y-89606551D01*
X138893714Y-89606551D01*
X139106286Y-89606551D01*
X139106287Y-89606551D01*
X139316243Y-89573297D01*
X139518412Y-89507608D01*
X139707816Y-89411102D01*
X139835650Y-89318226D01*
X139879786Y-89286160D01*
X139879788Y-89286157D01*
X139879792Y-89286155D01*
X140030104Y-89135843D01*
X140030106Y-89135839D01*
X140030109Y-89135837D01*
X140155048Y-88963871D01*
X140155047Y-88963871D01*
X140155051Y-88963867D01*
X140251557Y-88774463D01*
X140317246Y-88572294D01*
X140350500Y-88362338D01*
X140350500Y-88201226D01*
X140370185Y-88134187D01*
X140422989Y-88088432D01*
X140492147Y-88078488D01*
X140526012Y-88088432D01*
X140653733Y-88146761D01*
X140653737Y-88146762D01*
X140796051Y-88167222D01*
X140938364Y-88146762D01*
X140938369Y-88146761D01*
X141069148Y-88087035D01*
X141115783Y-88049455D01*
X141115787Y-88049451D01*
X141573868Y-87591371D01*
X140925459Y-86942962D01*
X140989044Y-86925925D01*
X141103058Y-86860099D01*
X141196150Y-86767007D01*
X141261976Y-86652993D01*
X141279013Y-86589408D01*
X141927422Y-87237817D01*
X142385502Y-86779736D01*
X142385506Y-86779732D01*
X142423086Y-86733097D01*
X142482812Y-86602318D01*
X142482813Y-86602313D01*
X142503273Y-86460000D01*
X142482813Y-86317686D01*
X142482812Y-86317681D01*
X142423086Y-86186902D01*
X142385506Y-86140267D01*
X141927422Y-85682183D01*
X141279013Y-86330591D01*
X141261976Y-86267007D01*
X141196150Y-86152993D01*
X141103058Y-86059901D01*
X140989044Y-85994075D01*
X140925459Y-85977037D01*
X141573868Y-85328629D01*
X141234917Y-84989678D01*
X141201432Y-84928355D01*
X141206416Y-84858663D01*
X141234917Y-84814316D01*
X141350177Y-84699056D01*
X141529107Y-84520126D01*
X141532572Y-84516793D01*
X141806391Y-84263679D01*
X141813767Y-84257380D01*
X142104654Y-84028062D01*
X142112504Y-84022360D01*
X142420496Y-83816565D01*
X142428762Y-83811501D01*
X142751928Y-83630518D01*
X142760575Y-83626111D01*
X143096959Y-83471036D01*
X143105936Y-83467317D01*
X143453460Y-83339108D01*
X143462673Y-83336115D01*
X143819178Y-83235569D01*
X143828597Y-83233307D01*
X144191908Y-83161038D01*
X144201474Y-83159523D01*
X144569322Y-83115984D01*
X144578990Y-83115223D01*
X144951219Y-83100595D01*
X144956088Y-83100500D01*
X146200995Y-83100500D01*
X146268034Y-83120185D01*
X146313789Y-83172989D01*
X146323733Y-83242147D01*
X146306723Y-83289290D01*
X146304947Y-83292188D01*
X146208444Y-83481585D01*
X146208443Y-83481587D01*
X146208443Y-83481588D01*
X146142754Y-83683757D01*
X146109500Y-83893713D01*
X146109500Y-84106287D01*
X146119534Y-84169644D01*
X146133429Y-84257372D01*
X146142754Y-84316243D01*
X146208442Y-84518410D01*
X146208444Y-84518414D01*
X146304951Y-84707820D01*
X146429890Y-84879786D01*
X146580213Y-85030109D01*
X146752179Y-85155048D01*
X146752181Y-85155049D01*
X146752184Y-85155051D01*
X146941588Y-85251557D01*
X147143757Y-85317246D01*
X147353713Y-85350500D01*
X147353714Y-85350500D01*
X147566286Y-85350500D01*
X147566287Y-85350500D01*
X147776243Y-85317246D01*
X147978412Y-85251557D01*
X148167816Y-85155051D01*
X148254478Y-85092088D01*
X148339786Y-85030109D01*
X148339788Y-85030106D01*
X148339792Y-85030104D01*
X148490104Y-84879792D01*
X148490106Y-84879788D01*
X148490109Y-84879786D01*
X148615048Y-84707820D01*
X148615047Y-84707820D01*
X148615051Y-84707816D01*
X148619514Y-84699054D01*
X148667488Y-84648259D01*
X148735308Y-84631463D01*
X148801444Y-84653999D01*
X148840486Y-84699056D01*
X148844951Y-84707820D01*
X148969890Y-84879786D01*
X149120213Y-85030109D01*
X149292179Y-85155048D01*
X149292181Y-85155049D01*
X149292184Y-85155051D01*
X149481588Y-85251557D01*
X149683757Y-85317246D01*
X149893713Y-85350500D01*
X149893714Y-85350500D01*
X150106286Y-85350500D01*
X150106287Y-85350500D01*
X150316243Y-85317246D01*
X150518412Y-85251557D01*
X150707816Y-85155051D01*
X150794478Y-85092088D01*
X150879784Y-85030110D01*
X150879784Y-85030109D01*
X150879792Y-85030104D01*
X150993717Y-84916178D01*
X151055036Y-84882696D01*
X151124728Y-84887680D01*
X151180662Y-84929551D01*
X151197577Y-84960528D01*
X151246646Y-85092088D01*
X151246649Y-85092093D01*
X151332809Y-85207187D01*
X151332812Y-85207190D01*
X151447906Y-85293350D01*
X151447913Y-85293354D01*
X151582620Y-85343596D01*
X151582627Y-85343598D01*
X151642155Y-85349999D01*
X151642172Y-85350000D01*
X152290000Y-85350000D01*
X152290000Y-84433012D01*
X152347007Y-84465925D01*
X152474174Y-84500000D01*
X152605826Y-84500000D01*
X152732993Y-84465925D01*
X152790000Y-84433012D01*
X152790000Y-85350000D01*
X153437828Y-85350000D01*
X153437844Y-85349999D01*
X153497372Y-85343598D01*
X153497379Y-85343596D01*
X153632086Y-85293354D01*
X153632093Y-85293350D01*
X153747187Y-85207190D01*
X153747190Y-85207187D01*
X153833350Y-85092093D01*
X153833354Y-85092086D01*
X153883596Y-84957379D01*
X153883598Y-84957372D01*
X153889999Y-84897844D01*
X153890000Y-84897827D01*
X153890000Y-84250000D01*
X152973012Y-84250000D01*
X153005925Y-84192993D01*
X153040000Y-84065826D01*
X153040000Y-83934174D01*
X153005925Y-83807007D01*
X152973012Y-83750000D01*
X153890000Y-83750000D01*
X153890000Y-83224500D01*
X153909685Y-83157461D01*
X153962489Y-83111706D01*
X154014000Y-83100500D01*
X155143606Y-83100500D01*
X155148474Y-83100595D01*
X155521005Y-83115235D01*
X155530677Y-83115996D01*
X155898518Y-83159535D01*
X155908092Y-83161051D01*
X156271392Y-83233318D01*
X156280823Y-83235582D01*
X156637315Y-83336124D01*
X156646543Y-83339122D01*
X156994019Y-83467314D01*
X156994049Y-83467325D01*
X157003044Y-83471051D01*
X157060918Y-83497731D01*
X157311546Y-83613273D01*
X157339403Y-83626115D01*
X157348074Y-83630534D01*
X157671223Y-83811507D01*
X157679500Y-83816578D01*
X157987475Y-84022360D01*
X157995340Y-84028074D01*
X158286220Y-84257385D01*
X158293617Y-84263703D01*
X158567557Y-84516929D01*
X158571064Y-84520300D01*
X158594953Y-84544188D01*
X158936115Y-84885350D01*
X158969600Y-84946673D01*
X158964616Y-85016365D01*
X158922744Y-85072298D01*
X158886752Y-85090961D01*
X158688052Y-85155524D01*
X158685534Y-85156342D01*
X158496128Y-85252849D01*
X158324162Y-85377788D01*
X158173839Y-85528111D01*
X158048900Y-85700077D01*
X157952393Y-85889483D01*
X157886702Y-86091658D01*
X157853449Y-86301611D01*
X157853449Y-86514184D01*
X157886251Y-86721291D01*
X157886703Y-86724141D01*
X157946058Y-86906817D01*
X157952393Y-86926312D01*
X158048900Y-87115718D01*
X158173839Y-87287684D01*
X158324162Y-87438007D01*
X158496128Y-87562946D01*
X158496130Y-87562947D01*
X158496133Y-87562949D01*
X158685537Y-87659455D01*
X158887706Y-87725144D01*
X159097662Y-87758398D01*
X159097663Y-87758398D01*
X159310235Y-87758398D01*
X159310236Y-87758398D01*
X159520192Y-87725144D01*
X159529539Y-87722106D01*
X159599374Y-87720106D01*
X159659210Y-87756181D01*
X159690043Y-87818880D01*
X159685795Y-87878343D01*
X159682755Y-87887700D01*
X159682753Y-87887708D01*
X159674501Y-87939811D01*
X159649500Y-88097662D01*
X159649500Y-88310236D01*
X159682754Y-88520192D01*
X159704188Y-88586160D01*
X159748444Y-88722363D01*
X159844951Y-88911769D01*
X159969890Y-89083735D01*
X160120213Y-89234058D01*
X160292179Y-89358997D01*
X160292181Y-89358998D01*
X160292184Y-89359000D01*
X160481588Y-89455506D01*
X160683757Y-89521195D01*
X160893713Y-89554449D01*
X160893714Y-89554449D01*
X161054825Y-89554449D01*
X161121864Y-89574134D01*
X161167619Y-89626938D01*
X161177563Y-89696096D01*
X161167619Y-89729961D01*
X161109289Y-89857682D01*
X161109288Y-89857686D01*
X161088828Y-90000000D01*
X161109288Y-90142313D01*
X161109289Y-90142318D01*
X161169015Y-90273097D01*
X161206595Y-90319732D01*
X161664680Y-90777817D01*
X162313088Y-90129408D01*
X162330126Y-90192993D01*
X162395952Y-90307007D01*
X162489044Y-90400099D01*
X162603058Y-90465925D01*
X162666642Y-90482962D01*
X162018234Y-91131371D01*
X162476318Y-91589455D01*
X162522953Y-91627035D01*
X162653732Y-91686761D01*
X162653737Y-91686762D01*
X162796051Y-91707222D01*
X162938364Y-91686762D01*
X162938369Y-91686761D01*
X163069148Y-91627035D01*
X163115783Y-91589455D01*
X163115787Y-91589451D01*
X163573868Y-91131371D01*
X162925459Y-90482962D01*
X162989044Y-90465925D01*
X163103058Y-90400099D01*
X163196150Y-90307007D01*
X163261976Y-90192993D01*
X163279013Y-90129408D01*
X163927422Y-90777817D01*
X163927423Y-90777817D01*
X164278519Y-90426719D01*
X164288836Y-90421084D01*
X164296288Y-90411987D01*
X164318944Y-90404645D01*
X164339842Y-90393234D01*
X164351569Y-90394072D01*
X164362755Y-90390448D01*
X164385780Y-90396519D01*
X164409533Y-90398218D01*
X164420659Y-90405715D01*
X164430315Y-90408262D01*
X164457621Y-90430625D01*
X164463768Y-90437333D01*
X164470722Y-90445620D01*
X164557552Y-90558782D01*
X164707482Y-90754176D01*
X164713687Y-90763038D01*
X164922660Y-91091065D01*
X164928069Y-91100433D01*
X165107659Y-91445425D01*
X165112229Y-91455227D01*
X165208132Y-91686762D01*
X165261062Y-91814547D01*
X165264762Y-91824712D01*
X165381715Y-92195643D01*
X165384515Y-92206092D01*
X165468695Y-92585811D01*
X165470573Y-92596464D01*
X165521337Y-92982062D01*
X165522280Y-92992839D01*
X165539382Y-93384575D01*
X165539500Y-93389983D01*
X165539500Y-100560753D01*
X165537212Y-100584465D01*
X165537135Y-100584858D01*
X165534683Y-100596999D01*
X165534647Y-100597628D01*
X165533749Y-100602240D01*
X165529212Y-100610996D01*
X165518140Y-100642701D01*
X165516825Y-100644874D01*
X165459241Y-100742167D01*
X165440613Y-100776620D01*
X165439818Y-100778237D01*
X165424016Y-100813772D01*
X165398360Y-100878020D01*
X165387420Y-100908158D01*
X165386967Y-100909539D01*
X165378026Y-100940060D01*
X165359520Y-101011480D01*
X165356322Y-101024530D01*
X165356192Y-101025091D01*
X165349265Y-101068085D01*
X165345850Y-101083194D01*
X165343614Y-101090831D01*
X165343611Y-101090842D01*
X165333563Y-101161104D01*
X165330192Y-101191005D01*
X165330074Y-101192425D01*
X165328488Y-101222547D01*
X165326958Y-101289830D01*
X165327529Y-101327980D01*
X165327623Y-101329743D01*
X165331060Y-101367653D01*
X165345725Y-101481515D01*
X165345992Y-101483469D01*
X165345082Y-101494574D01*
X165347117Y-101501858D01*
X165342166Y-101530195D01*
X165341632Y-101536723D01*
X165340997Y-101538782D01*
X165340462Y-101540330D01*
X165330201Y-101573825D01*
X165329903Y-101574796D01*
X165329878Y-101574833D01*
X165325431Y-101586999D01*
X163066633Y-106874880D01*
X163056462Y-106893912D01*
X163046293Y-106909501D01*
X162995507Y-107018728D01*
X162991029Y-107027440D01*
X162953178Y-107094439D01*
X162946829Y-107104514D01*
X162925021Y-107135695D01*
X162916825Y-107146170D01*
X162914023Y-107149380D01*
X162899058Y-107163864D01*
X162856675Y-107198490D01*
X162838128Y-107211033D01*
X162726638Y-107272549D01*
X162721200Y-107275376D01*
X162684847Y-107293150D01*
X162678120Y-107296500D01*
X162523147Y-107375115D01*
X162454455Y-107387889D01*
X162389762Y-107361497D01*
X162349607Y-107304318D01*
X162344936Y-107286073D01*
X162303873Y-107053196D01*
X162218883Y-106736018D01*
X162218879Y-106736008D01*
X162218877Y-106736000D01*
X162106575Y-106427463D01*
X162106573Y-106427459D01*
X162106572Y-106427455D01*
X161967796Y-106129854D01*
X161926370Y-106058104D01*
X161803607Y-105845475D01*
X161615264Y-105576499D01*
X161404195Y-105324959D01*
X161344001Y-105264766D01*
X161344001Y-105264765D01*
X161344000Y-105264765D01*
X158666493Y-102587258D01*
X158661723Y-102582213D01*
X158656836Y-102576745D01*
X158641913Y-102555455D01*
X158557186Y-102465260D01*
X158556149Y-102464100D01*
X158556016Y-102463822D01*
X158551819Y-102458985D01*
X158502996Y-102398032D01*
X158495997Y-102388376D01*
X158475159Y-102356506D01*
X158468478Y-102344977D01*
X158466588Y-102341270D01*
X158458716Y-102321965D01*
X158442360Y-102269638D01*
X158437644Y-102247803D01*
X158421917Y-102120011D01*
X158421326Y-102113984D01*
X158418245Y-102071954D01*
X158417712Y-102065282D01*
X158399091Y-101850389D01*
X158397374Y-101833775D01*
X158397280Y-101832992D01*
X158394916Y-101815797D01*
X158355067Y-101558776D01*
X158353227Y-101547722D01*
X158353142Y-101547244D01*
X158342197Y-101502359D01*
X158340202Y-101492422D01*
X158337246Y-101473757D01*
X158271557Y-101271588D01*
X158271555Y-101271585D01*
X158271555Y-101271583D01*
X158203842Y-101138689D01*
X158175051Y-101082184D01*
X158175049Y-101082181D01*
X158175048Y-101082179D01*
X158050109Y-100910213D01*
X157899786Y-100759890D01*
X157727820Y-100634951D01*
X157727115Y-100634591D01*
X157719054Y-100630485D01*
X157668259Y-100582512D01*
X157651463Y-100514692D01*
X157673999Y-100448556D01*
X157719054Y-100409515D01*
X157727816Y-100405051D01*
X157749789Y-100389086D01*
X157899786Y-100280109D01*
X157899788Y-100280106D01*
X157899792Y-100280104D01*
X158050104Y-100129792D01*
X158050106Y-100129788D01*
X158050109Y-100129786D01*
X158175048Y-99957820D01*
X158175047Y-99957820D01*
X158175051Y-99957816D01*
X158271557Y-99768412D01*
X158337246Y-99566243D01*
X158370500Y-99356287D01*
X158370500Y-99143713D01*
X158337246Y-98933757D01*
X158271557Y-98731588D01*
X158175051Y-98542184D01*
X158175049Y-98542181D01*
X158175048Y-98542179D01*
X158050109Y-98370213D01*
X157936569Y-98256673D01*
X157903084Y-98195350D01*
X157908068Y-98125658D01*
X157949940Y-98069725D01*
X157980915Y-98052810D01*
X158112331Y-98003796D01*
X158227546Y-97917546D01*
X158313796Y-97802331D01*
X158364091Y-97667483D01*
X158370500Y-97607873D01*
X158370499Y-95812128D01*
X158364091Y-95752517D01*
X158340664Y-95689707D01*
X158313797Y-95617671D01*
X158313793Y-95617664D01*
X158227547Y-95502455D01*
X158227544Y-95502452D01*
X158112335Y-95416206D01*
X158112328Y-95416202D01*
X157977482Y-95365908D01*
X157977483Y-95365908D01*
X157917883Y-95359501D01*
X157917881Y-95359500D01*
X157917873Y-95359500D01*
X157917864Y-95359500D01*
X156122129Y-95359500D01*
X156122123Y-95359501D01*
X156062516Y-95365908D01*
X155927671Y-95416202D01*
X155927664Y-95416206D01*
X155812455Y-95502452D01*
X155812452Y-95502455D01*
X155726206Y-95617664D01*
X155726202Y-95617671D01*
X155675908Y-95752517D01*
X155669861Y-95808766D01*
X155669501Y-95812123D01*
X155669500Y-95812135D01*
X155669500Y-97607870D01*
X155669501Y-97607876D01*
X155675908Y-97667483D01*
X155726202Y-97802328D01*
X155726206Y-97802335D01*
X155812452Y-97917544D01*
X155812455Y-97917547D01*
X155927664Y-98003793D01*
X155927671Y-98003797D01*
X156059082Y-98052810D01*
X156115016Y-98094681D01*
X156139433Y-98160145D01*
X156124582Y-98228418D01*
X156103431Y-98256673D01*
X155989889Y-98370215D01*
X155864951Y-98542179D01*
X155768444Y-98731585D01*
X155702753Y-98933760D01*
X155669500Y-99143713D01*
X155669500Y-99356286D01*
X155702398Y-99563999D01*
X155702754Y-99566243D01*
X155719512Y-99617820D01*
X155768444Y-99768414D01*
X155864951Y-99957820D01*
X155989890Y-100129786D01*
X156140213Y-100280109D01*
X156312182Y-100405050D01*
X156320946Y-100409516D01*
X156371742Y-100457491D01*
X156388536Y-100525312D01*
X156365998Y-100591447D01*
X156320946Y-100630484D01*
X156312182Y-100634949D01*
X156140213Y-100759890D01*
X155989890Y-100910213D01*
X155864951Y-101082179D01*
X155768444Y-101271585D01*
X155702753Y-101473760D01*
X155669500Y-101683713D01*
X155669500Y-101896286D01*
X155687390Y-102009243D01*
X155702754Y-102106243D01*
X155748277Y-102246349D01*
X155768444Y-102308414D01*
X155864951Y-102497820D01*
X155989890Y-102669786D01*
X156140213Y-102820109D01*
X156312179Y-102945048D01*
X156312181Y-102945049D01*
X156312184Y-102945051D01*
X156321493Y-102949794D01*
X156372290Y-102997766D01*
X156389087Y-103065587D01*
X156366552Y-103131722D01*
X156321505Y-103170760D01*
X156312446Y-103175376D01*
X156312440Y-103175380D01*
X156258282Y-103214727D01*
X156258282Y-103214728D01*
X156890591Y-103847037D01*
X156827007Y-103864075D01*
X156712993Y-103929901D01*
X156619901Y-104022993D01*
X156554075Y-104137007D01*
X156537037Y-104200591D01*
X155904728Y-103568282D01*
X155904727Y-103568282D01*
X155865380Y-103622439D01*
X155768904Y-103811782D01*
X155703242Y-104013869D01*
X155703242Y-104013872D01*
X155670000Y-104223753D01*
X155670000Y-104436246D01*
X155703242Y-104646127D01*
X155703242Y-104646130D01*
X155768904Y-104848217D01*
X155865375Y-105037550D01*
X155904728Y-105091716D01*
X156537037Y-104459408D01*
X156554075Y-104522993D01*
X156619901Y-104637007D01*
X156712993Y-104730099D01*
X156827007Y-104795925D01*
X156890590Y-104812962D01*
X156258282Y-105445269D01*
X156258282Y-105445270D01*
X156312449Y-105484624D01*
X156501782Y-105581095D01*
X156703870Y-105646757D01*
X156913754Y-105680000D01*
X157126246Y-105680000D01*
X157336127Y-105646757D01*
X157336130Y-105646757D01*
X157538217Y-105581095D01*
X157727554Y-105484622D01*
X157781716Y-105445270D01*
X157781717Y-105445270D01*
X157149408Y-104812962D01*
X157212993Y-104795925D01*
X157327007Y-104730099D01*
X157420099Y-104637007D01*
X157485925Y-104522993D01*
X157502962Y-104459408D01*
X158135270Y-105091717D01*
X158135270Y-105091716D01*
X158174622Y-105037554D01*
X158271095Y-104848217D01*
X158336757Y-104646130D01*
X158336757Y-104646127D01*
X158370000Y-104436246D01*
X158370000Y-104288597D01*
X158389685Y-104221558D01*
X158442489Y-104175803D01*
X158511647Y-104165859D01*
X158575203Y-104194884D01*
X158581681Y-104200916D01*
X160436386Y-106055621D01*
X160441159Y-106060668D01*
X160502988Y-106129854D01*
X160625481Y-106266921D01*
X160634151Y-106277793D01*
X160792182Y-106500513D01*
X160799580Y-106512287D01*
X160931678Y-106751296D01*
X160937712Y-106763825D01*
X161042220Y-107016125D01*
X161046813Y-107029250D01*
X161122416Y-107291669D01*
X161125510Y-107305224D01*
X161130546Y-107334861D01*
X161122370Y-107404251D01*
X161077977Y-107458205D01*
X161011462Y-107479594D01*
X160952004Y-107466119D01*
X160918220Y-107448905D01*
X160716129Y-107383242D01*
X160506246Y-107350000D01*
X160293754Y-107350000D01*
X160083872Y-107383242D01*
X160083869Y-107383242D01*
X159881782Y-107448904D01*
X159692439Y-107545380D01*
X159638282Y-107584727D01*
X159638282Y-107584728D01*
X160270591Y-108217037D01*
X160207007Y-108234075D01*
X160092993Y-108299901D01*
X159999901Y-108392993D01*
X159934075Y-108507007D01*
X159917037Y-108570591D01*
X159284728Y-107938282D01*
X159284727Y-107938282D01*
X159245380Y-107992440D01*
X159245376Y-107992446D01*
X159240760Y-108001505D01*
X159192781Y-108052297D01*
X159124959Y-108069087D01*
X159058826Y-108046543D01*
X159019794Y-108001493D01*
X159015051Y-107992184D01*
X159015049Y-107992181D01*
X159015048Y-107992179D01*
X158890109Y-107820213D01*
X158739786Y-107669890D01*
X158567820Y-107544951D01*
X158378414Y-107448444D01*
X158378413Y-107448443D01*
X158378412Y-107448443D01*
X158176243Y-107382754D01*
X158176241Y-107382753D01*
X158176240Y-107382753D01*
X158014957Y-107357208D01*
X157966287Y-107349500D01*
X157753713Y-107349500D01*
X157705042Y-107357208D01*
X157543760Y-107382753D01*
X157341585Y-107448444D01*
X157152179Y-107544951D01*
X156980213Y-107669890D01*
X156829890Y-107820213D01*
X156704949Y-107992182D01*
X156700484Y-108000946D01*
X156652509Y-108051742D01*
X156584688Y-108068536D01*
X156518553Y-108045998D01*
X156479516Y-108000946D01*
X156475050Y-107992182D01*
X156350109Y-107820213D01*
X156199786Y-107669890D01*
X156027820Y-107544951D01*
X155838414Y-107448444D01*
X155838413Y-107448443D01*
X155838412Y-107448443D01*
X155636243Y-107382754D01*
X155636241Y-107382753D01*
X155636240Y-107382753D01*
X155474957Y-107357208D01*
X155426287Y-107349500D01*
X155213713Y-107349500D01*
X155165042Y-107357208D01*
X155003760Y-107382753D01*
X154801585Y-107448444D01*
X154612179Y-107544951D01*
X154440213Y-107669890D01*
X154289890Y-107820213D01*
X154164951Y-107992179D01*
X154068444Y-108181585D01*
X154002753Y-108383760D01*
X153969500Y-108593713D01*
X153969500Y-108806286D01*
X154002753Y-109016239D01*
X154068444Y-109218414D01*
X154164951Y-109407820D01*
X154289890Y-109579786D01*
X154440213Y-109730109D01*
X154612179Y-109855048D01*
X154612181Y-109855049D01*
X154612184Y-109855051D01*
X154801588Y-109951557D01*
X155003757Y-110017246D01*
X155213713Y-110050500D01*
X155213714Y-110050500D01*
X155426286Y-110050500D01*
X155426287Y-110050500D01*
X155636243Y-110017246D01*
X155838412Y-109951557D01*
X156027816Y-109855051D01*
X156109720Y-109795545D01*
X156199786Y-109730109D01*
X156199788Y-109730106D01*
X156199792Y-109730104D01*
X156350104Y-109579792D01*
X156350106Y-109579788D01*
X156350109Y-109579786D01*
X156475048Y-109407820D01*
X156475047Y-109407820D01*
X156475051Y-109407816D01*
X156479514Y-109399054D01*
X156527488Y-109348259D01*
X156595308Y-109331463D01*
X156661444Y-109353999D01*
X156700486Y-109399056D01*
X156704951Y-109407820D01*
X156829890Y-109579786D01*
X156980213Y-109730109D01*
X157152179Y-109855048D01*
X157152181Y-109855049D01*
X157152184Y-109855051D01*
X157341588Y-109951557D01*
X157543757Y-110017246D01*
X157753713Y-110050500D01*
X157753714Y-110050500D01*
X157966286Y-110050500D01*
X157966287Y-110050500D01*
X158176243Y-110017246D01*
X158378412Y-109951557D01*
X158567816Y-109855051D01*
X158649720Y-109795545D01*
X158739786Y-109730109D01*
X158739788Y-109730106D01*
X158739792Y-109730104D01*
X158890104Y-109579792D01*
X158890106Y-109579788D01*
X158890109Y-109579786D01*
X158965277Y-109476324D01*
X159015051Y-109407816D01*
X159019793Y-109398508D01*
X159067763Y-109347711D01*
X159135583Y-109330911D01*
X159201719Y-109353445D01*
X159240763Y-109398500D01*
X159245373Y-109407547D01*
X159284728Y-109461716D01*
X159917037Y-108829408D01*
X159934075Y-108892993D01*
X159999901Y-109007007D01*
X160092993Y-109100099D01*
X160207007Y-109165925D01*
X160270590Y-109182962D01*
X159638282Y-109815269D01*
X159638282Y-109815270D01*
X159692449Y-109854624D01*
X159881782Y-109951095D01*
X160083870Y-110016757D01*
X160293754Y-110050000D01*
X160506246Y-110050000D01*
X160716127Y-110016757D01*
X160716130Y-110016757D01*
X160918217Y-109951095D01*
X161107554Y-109854622D01*
X161161716Y-109815270D01*
X161161717Y-109815270D01*
X160529408Y-109182962D01*
X160592993Y-109165925D01*
X160707007Y-109100099D01*
X160800099Y-109007007D01*
X160865925Y-108892993D01*
X160882962Y-108829408D01*
X161239804Y-109186250D01*
X161271897Y-109241834D01*
X161277892Y-109264207D01*
X161365754Y-109476324D01*
X161365758Y-109476334D01*
X161480555Y-109675168D01*
X161620322Y-109857316D01*
X161620328Y-109857323D01*
X161693060Y-109930057D01*
X161701501Y-109938498D01*
X161762774Y-109999769D01*
X161782678Y-110019673D01*
X161964831Y-110159443D01*
X162163669Y-110274243D01*
X162375790Y-110362106D01*
X162597565Y-110421531D01*
X162825199Y-110451500D01*
X162860942Y-110451500D01*
X163442212Y-110451500D01*
X163463756Y-110451500D01*
X163463786Y-110451508D01*
X163515126Y-110451507D01*
X163515126Y-110451508D01*
X163659188Y-110451506D01*
X163659196Y-110451506D01*
X163659197Y-110451505D01*
X163945519Y-110419243D01*
X164226431Y-110355124D01*
X164498398Y-110259957D01*
X164566141Y-110227332D01*
X164591177Y-110218436D01*
X164820194Y-110163835D01*
X164824842Y-110162821D01*
X164928523Y-110142324D01*
X164998104Y-110148633D01*
X165033255Y-110169812D01*
X165059280Y-110192114D01*
X165112517Y-110237735D01*
X165125797Y-110250983D01*
X165232033Y-110374365D01*
X165240977Y-110386099D01*
X165270664Y-110430264D01*
X165276523Y-110439898D01*
X165294256Y-110472293D01*
X165301548Y-110488182D01*
X165331052Y-110566627D01*
X165336230Y-110579388D01*
X165341519Y-110595508D01*
X165810466Y-112443295D01*
X165812104Y-112450688D01*
X165813443Y-112457748D01*
X165815241Y-112482805D01*
X165838167Y-112588089D01*
X165838479Y-112589730D01*
X165838445Y-112590065D01*
X165839549Y-112596347D01*
X165848533Y-112663292D01*
X165849543Y-112675020D01*
X165851020Y-112713431D01*
X165850837Y-112726443D01*
X165850443Y-112732354D01*
X165847444Y-112752414D01*
X165834844Y-112806152D01*
X165827565Y-112827902D01*
X165782190Y-112930737D01*
X165779107Y-112937212D01*
X165759873Y-112974760D01*
X165758037Y-112978419D01*
X165756043Y-112982394D01*
X165756025Y-112982431D01*
X165755922Y-112982640D01*
X165752327Y-112990114D01*
X165636049Y-113237121D01*
X165589685Y-113289391D01*
X165522423Y-113308299D01*
X165455616Y-113287839D01*
X165423539Y-113257191D01*
X165395270Y-113218282D01*
X165395269Y-113218282D01*
X164762962Y-113850590D01*
X164745925Y-113787007D01*
X164680099Y-113672993D01*
X164587007Y-113579901D01*
X164472993Y-113514075D01*
X164409409Y-113497037D01*
X165041716Y-112864728D01*
X164987550Y-112825375D01*
X164798217Y-112728904D01*
X164596129Y-112663242D01*
X164386246Y-112630000D01*
X164173754Y-112630000D01*
X163963872Y-112663242D01*
X163963869Y-112663242D01*
X163761782Y-112728904D01*
X163572439Y-112825380D01*
X163518282Y-112864727D01*
X163518282Y-112864728D01*
X164150591Y-113497037D01*
X164087007Y-113514075D01*
X163972993Y-113579901D01*
X163879901Y-113672993D01*
X163814075Y-113787007D01*
X163797037Y-113850591D01*
X163164728Y-113218282D01*
X163164727Y-113218282D01*
X163125380Y-113272439D01*
X163028904Y-113461782D01*
X162963242Y-113663869D01*
X162963242Y-113663872D01*
X162930000Y-113873753D01*
X162930000Y-114086246D01*
X162963242Y-114296127D01*
X162963242Y-114296130D01*
X163028904Y-114498217D01*
X163125375Y-114687550D01*
X163164728Y-114741716D01*
X163797037Y-114109408D01*
X163814075Y-114172993D01*
X163879901Y-114287007D01*
X163972993Y-114380099D01*
X164087007Y-114445925D01*
X164150590Y-114462962D01*
X163518282Y-115095269D01*
X163518282Y-115095270D01*
X163572449Y-115134624D01*
X163766019Y-115233254D01*
X163816815Y-115281229D01*
X163833610Y-115349050D01*
X163811072Y-115415185D01*
X163756357Y-115458636D01*
X163727918Y-115466397D01*
X163471134Y-115504486D01*
X163459025Y-115505679D01*
X163168782Y-115519938D01*
X163162697Y-115520087D01*
X146027410Y-115520087D01*
X146003696Y-115517798D01*
X146003190Y-115517699D01*
X145991157Y-115515269D01*
X145990535Y-115515233D01*
X145985917Y-115514334D01*
X145977187Y-115509811D01*
X145945452Y-115498722D01*
X145943305Y-115497423D01*
X145916341Y-115481464D01*
X145845995Y-115439830D01*
X145844205Y-115438862D01*
X145811682Y-115421269D01*
X145810059Y-115420471D01*
X145774368Y-115404594D01*
X145710163Y-115378956D01*
X145710152Y-115378952D01*
X145710142Y-115378948D01*
X145680018Y-115368013D01*
X145679345Y-115367792D01*
X145678639Y-115367561D01*
X145648104Y-115358614D01*
X145611194Y-115349050D01*
X145576670Y-115340104D01*
X145576662Y-115340102D01*
X145576631Y-115340094D01*
X145563662Y-115336916D01*
X145563081Y-115336782D01*
X145563073Y-115336780D01*
X145563067Y-115336779D01*
X145563061Y-115336778D01*
X145563056Y-115336777D01*
X145529120Y-115331310D01*
X145495936Y-115325964D01*
X145495934Y-115325964D01*
X145495928Y-115325963D01*
X145493480Y-115325829D01*
X145476082Y-115323633D01*
X145458255Y-115320087D01*
X145300571Y-115320087D01*
X145300568Y-115320087D01*
X145145923Y-115350848D01*
X145145911Y-115350851D01*
X145000240Y-115411189D01*
X145000227Y-115411196D01*
X144869124Y-115498797D01*
X144869120Y-115498800D01*
X144757626Y-115610294D01*
X144757623Y-115610298D01*
X144670022Y-115741401D01*
X144670015Y-115741414D01*
X144609677Y-115887085D01*
X144609674Y-115887097D01*
X144578913Y-116041740D01*
X144578913Y-116199433D01*
X144609674Y-116354076D01*
X144609677Y-116354088D01*
X144670015Y-116499759D01*
X144670022Y-116499772D01*
X144757623Y-116630875D01*
X144757626Y-116630879D01*
X144869120Y-116742373D01*
X144869124Y-116742376D01*
X145000227Y-116829977D01*
X145000240Y-116829984D01*
X145109888Y-116875401D01*
X145145916Y-116890324D01*
X145292593Y-116919500D01*
X145300566Y-116921086D01*
X145300569Y-116921087D01*
X145300571Y-116921087D01*
X145458255Y-116921087D01*
X145529775Y-116906859D01*
X145540519Y-116905210D01*
X145575461Y-116901413D01*
X145643718Y-116883906D01*
X145673141Y-116875401D01*
X145674485Y-116874968D01*
X145703154Y-116864770D01*
X145765499Y-116840454D01*
X145801958Y-116824554D01*
X145803622Y-116823749D01*
X145839022Y-116804854D01*
X145941373Y-116744887D01*
X145944771Y-116742849D01*
X145955332Y-116739315D01*
X145961228Y-116734577D01*
X145989081Y-116728020D01*
X145995437Y-116725893D01*
X145997581Y-116725665D01*
X145998789Y-116725579D01*
X146034102Y-116721786D01*
X146034152Y-116721781D01*
X146034182Y-116721786D01*
X146047249Y-116721087D01*
X157113851Y-116721087D01*
X157180890Y-116740772D01*
X157226645Y-116793576D01*
X157236589Y-116862734D01*
X157207564Y-116926290D01*
X157152170Y-116963017D01*
X157111580Y-116976206D01*
X156981585Y-117018444D01*
X156792179Y-117114951D01*
X156620213Y-117239890D01*
X156469890Y-117390213D01*
X156344951Y-117562179D01*
X156248444Y-117751585D01*
X156182753Y-117953760D01*
X156149500Y-118163713D01*
X156149500Y-118376286D01*
X156175218Y-118538667D01*
X156182754Y-118586243D01*
X156233027Y-118740968D01*
X156248444Y-118788414D01*
X156344951Y-118977820D01*
X156469890Y-119149786D01*
X156620213Y-119300109D01*
X156792179Y-119425048D01*
X156792181Y-119425049D01*
X156792184Y-119425051D01*
X156981588Y-119521557D01*
X157183757Y-119587246D01*
X157393713Y-119620500D01*
X157393714Y-119620500D01*
X157606286Y-119620500D01*
X157606287Y-119620500D01*
X157816243Y-119587246D01*
X158018412Y-119521557D01*
X158207816Y-119425051D01*
X158294138Y-119362335D01*
X158379786Y-119300109D01*
X158379788Y-119300106D01*
X158379792Y-119300104D01*
X158530104Y-119149792D01*
X158530106Y-119149788D01*
X158530109Y-119149786D01*
X158655048Y-118977820D01*
X158655047Y-118977820D01*
X158655051Y-118977816D01*
X158659514Y-118969054D01*
X158707488Y-118918259D01*
X158775308Y-118901463D01*
X158841444Y-118923999D01*
X158880486Y-118969056D01*
X158884951Y-118977820D01*
X159009890Y-119149786D01*
X159160213Y-119300109D01*
X159332179Y-119425048D01*
X159332181Y-119425049D01*
X159332184Y-119425051D01*
X159521588Y-119521557D01*
X159723757Y-119587246D01*
X159933713Y-119620500D01*
X159933714Y-119620500D01*
X160146286Y-119620500D01*
X160146287Y-119620500D01*
X160356243Y-119587246D01*
X160558412Y-119521557D01*
X160747816Y-119425051D01*
X160834138Y-119362335D01*
X160919786Y-119300109D01*
X160919788Y-119300106D01*
X160919792Y-119300104D01*
X161070104Y-119149792D01*
X161070106Y-119149788D01*
X161070109Y-119149786D01*
X161195048Y-118977820D01*
X161195047Y-118977820D01*
X161195051Y-118977816D01*
X161199514Y-118969054D01*
X161247488Y-118918259D01*
X161315308Y-118901463D01*
X161381444Y-118923999D01*
X161420486Y-118969056D01*
X161424951Y-118977820D01*
X161549890Y-119149786D01*
X161700213Y-119300109D01*
X161872179Y-119425048D01*
X161872181Y-119425049D01*
X161872184Y-119425051D01*
X162061588Y-119521557D01*
X162263757Y-119587246D01*
X162473713Y-119620500D01*
X162473714Y-119620500D01*
X162686286Y-119620500D01*
X162686287Y-119620500D01*
X162896243Y-119587246D01*
X163098412Y-119521557D01*
X163287816Y-119425051D01*
X163374138Y-119362335D01*
X163459786Y-119300109D01*
X163459788Y-119300106D01*
X163459792Y-119300104D01*
X163610104Y-119149792D01*
X163610106Y-119149788D01*
X163610109Y-119149786D01*
X163735048Y-118977820D01*
X163735047Y-118977820D01*
X163735051Y-118977816D01*
X163739514Y-118969054D01*
X163787488Y-118918259D01*
X163855308Y-118901463D01*
X163921444Y-118923999D01*
X163960486Y-118969056D01*
X163964951Y-118977820D01*
X164089890Y-119149786D01*
X164240213Y-119300109D01*
X164412179Y-119425048D01*
X164412181Y-119425049D01*
X164412184Y-119425051D01*
X164601588Y-119521557D01*
X164803757Y-119587246D01*
X165013713Y-119620500D01*
X165013714Y-119620500D01*
X165226286Y-119620500D01*
X165226287Y-119620500D01*
X165436243Y-119587246D01*
X165638412Y-119521557D01*
X165827816Y-119425051D01*
X165999792Y-119300104D01*
X166113329Y-119186566D01*
X166174648Y-119153084D01*
X166244340Y-119158068D01*
X166300274Y-119199939D01*
X166317189Y-119230917D01*
X166366202Y-119362328D01*
X166366206Y-119362335D01*
X166452452Y-119477544D01*
X166452455Y-119477547D01*
X166567664Y-119563793D01*
X166567671Y-119563797D01*
X166702517Y-119614091D01*
X166702516Y-119614091D01*
X166709444Y-119614835D01*
X166762127Y-119620500D01*
X168557872Y-119620499D01*
X168617483Y-119614091D01*
X168752331Y-119563796D01*
X168867546Y-119477546D01*
X168953796Y-119362331D01*
X169004091Y-119227483D01*
X169010500Y-119167873D01*
X169010499Y-117372128D01*
X169004091Y-117312517D01*
X169002810Y-117309083D01*
X168953797Y-117177671D01*
X168953793Y-117177664D01*
X168867547Y-117062455D01*
X168867544Y-117062452D01*
X168752335Y-116976206D01*
X168752328Y-116976202D01*
X168617482Y-116925908D01*
X168617483Y-116925908D01*
X168557883Y-116919501D01*
X168557881Y-116919500D01*
X168557873Y-116919500D01*
X168557864Y-116919500D01*
X166762129Y-116919500D01*
X166762123Y-116919501D01*
X166702516Y-116925908D01*
X166567671Y-116976202D01*
X166567664Y-116976206D01*
X166452455Y-117062452D01*
X166452452Y-117062455D01*
X166366206Y-117177664D01*
X166366203Y-117177669D01*
X166317189Y-117309083D01*
X166275317Y-117365016D01*
X166209853Y-117389433D01*
X166141580Y-117374581D01*
X166113326Y-117353430D01*
X165999786Y-117239890D01*
X165827820Y-117114951D01*
X165638414Y-117018444D01*
X165638413Y-117018443D01*
X165638412Y-117018443D01*
X165436243Y-116952754D01*
X165436241Y-116952753D01*
X165436240Y-116952753D01*
X165269157Y-116926290D01*
X165226287Y-116919500D01*
X165013713Y-116919500D01*
X164970843Y-116926290D01*
X164803760Y-116952753D01*
X164601585Y-117018444D01*
X164412179Y-117114951D01*
X164240213Y-117239890D01*
X164089890Y-117390213D01*
X163964949Y-117562182D01*
X163960484Y-117570946D01*
X163912509Y-117621742D01*
X163844688Y-117638536D01*
X163778553Y-117615998D01*
X163739516Y-117570946D01*
X163735050Y-117562182D01*
X163610109Y-117390213D01*
X163459786Y-117239890D01*
X163287820Y-117114951D01*
X163098414Y-117018444D01*
X163098413Y-117018443D01*
X163098412Y-117018443D01*
X162927829Y-116963017D01*
X162870155Y-116923580D01*
X162842957Y-116859222D01*
X162854872Y-116790375D01*
X162902116Y-116738900D01*
X162966149Y-116721087D01*
X163253473Y-116721087D01*
X163253501Y-116721085D01*
X163351553Y-116721085D01*
X163351553Y-116721084D01*
X163721668Y-116688705D01*
X164087553Y-116624190D01*
X164446424Y-116528032D01*
X164795548Y-116400961D01*
X164892443Y-116355778D01*
X176378500Y-116355778D01*
X176378500Y-116644221D01*
X176378501Y-116644238D01*
X176416149Y-116930206D01*
X176416150Y-116930211D01*
X176416151Y-116930217D01*
X176482456Y-117177671D01*
X176490809Y-117208844D01*
X176490814Y-117208860D01*
X176601191Y-117475336D01*
X176601199Y-117475352D01*
X176745420Y-117725148D01*
X176745431Y-117725164D01*
X176921024Y-117954002D01*
X176921030Y-117954009D01*
X177124990Y-118157969D01*
X177124997Y-118157975D01*
X177264375Y-118264923D01*
X177353844Y-118333575D01*
X177353851Y-118333579D01*
X177603647Y-118477800D01*
X177603663Y-118477808D01*
X177870139Y-118588185D01*
X177870145Y-118588186D01*
X177870155Y-118588191D01*
X178148783Y-118662849D01*
X178434772Y-118700500D01*
X178434779Y-118700500D01*
X178723221Y-118700500D01*
X178723228Y-118700500D01*
X179009217Y-118662849D01*
X179287845Y-118588191D01*
X179287857Y-118588185D01*
X179287860Y-118588185D01*
X179554336Y-118477808D01*
X179554339Y-118477806D01*
X179554345Y-118477804D01*
X179804156Y-118333575D01*
X180033004Y-118157974D01*
X180236974Y-117954004D01*
X180412575Y-117725156D01*
X180556804Y-117475345D01*
X180598542Y-117374581D01*
X180667185Y-117208860D01*
X180667185Y-117208857D01*
X180667191Y-117208845D01*
X180741849Y-116930217D01*
X180779500Y-116644228D01*
X180779500Y-116355772D01*
X180741849Y-116069783D01*
X180667191Y-115791155D01*
X180667186Y-115791145D01*
X180667185Y-115791139D01*
X180556808Y-115524663D01*
X180556800Y-115524647D01*
X180412579Y-115274851D01*
X180412575Y-115274844D01*
X180330491Y-115167870D01*
X180236975Y-115045997D01*
X180236969Y-115045990D01*
X180033009Y-114842030D01*
X180033002Y-114842024D01*
X179804164Y-114666431D01*
X179804162Y-114666429D01*
X179804156Y-114666425D01*
X179804151Y-114666422D01*
X179804148Y-114666420D01*
X179554352Y-114522199D01*
X179554336Y-114522191D01*
X179287860Y-114411814D01*
X179287848Y-114411810D01*
X179287845Y-114411809D01*
X179009217Y-114337151D01*
X179009211Y-114337150D01*
X179009206Y-114337149D01*
X178723238Y-114299501D01*
X178723233Y-114299500D01*
X178723228Y-114299500D01*
X178434772Y-114299500D01*
X178434766Y-114299500D01*
X178434761Y-114299501D01*
X178148793Y-114337149D01*
X178148786Y-114337150D01*
X178148783Y-114337151D01*
X177988499Y-114380099D01*
X177870155Y-114411809D01*
X177870139Y-114411814D01*
X177603663Y-114522191D01*
X177603647Y-114522199D01*
X177353851Y-114666420D01*
X177353835Y-114666431D01*
X177124997Y-114842024D01*
X177124990Y-114842030D01*
X176921030Y-115045990D01*
X176921024Y-115045997D01*
X176745431Y-115274835D01*
X176745420Y-115274851D01*
X176601199Y-115524647D01*
X176601191Y-115524663D01*
X176490814Y-115791139D01*
X176490809Y-115791155D01*
X176455865Y-115921570D01*
X176416152Y-116069780D01*
X176416149Y-116069793D01*
X176378501Y-116355761D01*
X176378500Y-116355778D01*
X164892443Y-116355778D01*
X165132268Y-116243946D01*
X165454022Y-116058181D01*
X165758361Y-115845080D01*
X166042969Y-115606265D01*
X166118418Y-115530815D01*
X166118422Y-115530813D01*
X166137627Y-115511607D01*
X166155908Y-115496532D01*
X166167542Y-115488679D01*
X166235282Y-115427240D01*
X166244037Y-115420003D01*
X166282002Y-115391447D01*
X166293363Y-115383846D01*
X166296055Y-115382252D01*
X166331562Y-115368087D01*
X166347876Y-115364357D01*
X166371968Y-115361289D01*
X166507884Y-115357402D01*
X166509404Y-115357368D01*
X166719478Y-115354226D01*
X166738393Y-115353589D01*
X166739270Y-115353543D01*
X166758262Y-115352188D01*
X166820296Y-115346585D01*
X166885278Y-115340717D01*
X166885310Y-115340713D01*
X166885327Y-115340712D01*
X166903085Y-115338791D01*
X166903902Y-115338688D01*
X166921433Y-115336165D01*
X167054626Y-115314609D01*
X167064185Y-115312968D01*
X167064587Y-115312895D01*
X167108752Y-115302039D01*
X167118912Y-115299990D01*
X167136243Y-115297246D01*
X167338412Y-115231557D01*
X167527816Y-115135051D01*
X167614138Y-115072335D01*
X167699786Y-115010109D01*
X167699788Y-115010106D01*
X167699792Y-115010104D01*
X167850104Y-114859792D01*
X167850106Y-114859788D01*
X167850109Y-114859786D01*
X167975048Y-114687820D01*
X167975047Y-114687820D01*
X167975051Y-114687816D01*
X167979514Y-114679054D01*
X168027488Y-114628259D01*
X168095308Y-114611463D01*
X168161444Y-114633999D01*
X168200486Y-114679056D01*
X168204951Y-114687820D01*
X168329890Y-114859786D01*
X168480213Y-115010109D01*
X168652179Y-115135048D01*
X168652181Y-115135049D01*
X168652184Y-115135051D01*
X168841588Y-115231557D01*
X169043757Y-115297246D01*
X169253713Y-115330500D01*
X169253714Y-115330500D01*
X169466286Y-115330500D01*
X169466287Y-115330500D01*
X169676243Y-115297246D01*
X169878412Y-115231557D01*
X170067816Y-115135051D01*
X170204002Y-115036107D01*
X170239784Y-115010110D01*
X170239784Y-115010109D01*
X170239792Y-115010104D01*
X170353329Y-114896566D01*
X170414648Y-114863084D01*
X170484340Y-114868068D01*
X170540274Y-114909939D01*
X170557189Y-114940917D01*
X170606202Y-115072328D01*
X170606206Y-115072335D01*
X170692452Y-115187544D01*
X170692455Y-115187547D01*
X170807664Y-115273793D01*
X170807671Y-115273797D01*
X170942517Y-115324091D01*
X170942516Y-115324091D01*
X170949444Y-115324835D01*
X171002127Y-115330500D01*
X172797872Y-115330499D01*
X172857483Y-115324091D01*
X172992331Y-115273796D01*
X173107546Y-115187546D01*
X173193796Y-115072331D01*
X173244091Y-114937483D01*
X173250500Y-114877873D01*
X173250499Y-113082128D01*
X173244091Y-113022517D01*
X173242810Y-113019083D01*
X173193797Y-112887671D01*
X173193793Y-112887664D01*
X173107547Y-112772455D01*
X173107544Y-112772452D01*
X172992335Y-112686206D01*
X172992328Y-112686202D01*
X172857482Y-112635908D01*
X172857483Y-112635908D01*
X172797883Y-112629501D01*
X172797881Y-112629500D01*
X172797873Y-112629500D01*
X172797864Y-112629500D01*
X171002129Y-112629500D01*
X171002123Y-112629501D01*
X170942516Y-112635908D01*
X170807671Y-112686202D01*
X170807664Y-112686206D01*
X170692455Y-112772452D01*
X170692452Y-112772455D01*
X170606206Y-112887664D01*
X170606203Y-112887669D01*
X170557189Y-113019083D01*
X170515317Y-113075016D01*
X170449853Y-113099433D01*
X170381580Y-113084581D01*
X170353326Y-113063430D01*
X170239786Y-112949890D01*
X170067820Y-112824951D01*
X169878414Y-112728444D01*
X169878413Y-112728443D01*
X169878412Y-112728443D01*
X169676243Y-112662754D01*
X169676241Y-112662753D01*
X169676240Y-112662753D01*
X169514957Y-112637208D01*
X169466287Y-112629500D01*
X169253713Y-112629500D01*
X169205042Y-112637208D01*
X169043760Y-112662753D01*
X168841585Y-112728444D01*
X168652179Y-112824951D01*
X168480213Y-112949890D01*
X168329890Y-113100213D01*
X168204949Y-113272182D01*
X168200484Y-113280946D01*
X168196771Y-113284876D01*
X168195328Y-113290087D01*
X168173035Y-113310008D01*
X168152509Y-113331742D01*
X168147261Y-113333041D01*
X168143230Y-113336644D01*
X168113706Y-113341350D01*
X168084688Y-113348536D01*
X168079570Y-113346791D01*
X168074232Y-113347643D01*
X168046853Y-113335642D01*
X168018553Y-113325998D01*
X168013871Y-113321185D01*
X168010240Y-113319594D01*
X168000927Y-113307879D01*
X167986722Y-113293277D01*
X167982761Y-113287316D01*
X167975051Y-113272184D01*
X167947599Y-113234400D01*
X167946164Y-113232240D01*
X167945842Y-113231203D01*
X167939528Y-113221014D01*
X167929883Y-113202546D01*
X167929882Y-113202544D01*
X167858205Y-113103009D01*
X167856113Y-113100213D01*
X167847132Y-113088209D01*
X167846602Y-113087527D01*
X167846595Y-113087518D01*
X167846580Y-113087499D01*
X167834729Y-113072824D01*
X167757573Y-112980845D01*
X167738555Y-112959436D01*
X167738541Y-112959420D01*
X167737627Y-112958448D01*
X167717152Y-112937889D01*
X167555682Y-112784808D01*
X167528966Y-112761212D01*
X167527694Y-112760166D01*
X167499447Y-112738557D01*
X167499432Y-112738546D01*
X167289483Y-112589345D01*
X167284520Y-112585863D01*
X167158750Y-112498680D01*
X167149178Y-112491331D01*
X167129165Y-112474354D01*
X167119347Y-112465059D01*
X167105201Y-112450122D01*
X167095155Y-112438071D01*
X167081995Y-112420082D01*
X167073483Y-112406734D01*
X167055154Y-112373487D01*
X167048957Y-112360522D01*
X167024437Y-112300510D01*
X167020403Y-112289067D01*
X166988215Y-112181205D01*
X166972060Y-112134523D01*
X166972325Y-112134430D01*
X166968087Y-112122349D01*
X166797642Y-111450746D01*
X166506311Y-110302812D01*
X166503303Y-110286390D01*
X166502776Y-110281780D01*
X166502783Y-110281541D01*
X166492528Y-110192111D01*
X166492530Y-110192100D01*
X166491771Y-110174707D01*
X166492670Y-110141332D01*
X166493494Y-110130023D01*
X166497873Y-110093303D01*
X166525356Y-110029068D01*
X166565771Y-110000286D01*
X166564548Y-109998046D01*
X166572325Y-109993797D01*
X166572331Y-109993796D01*
X166687546Y-109907546D01*
X166773796Y-109792331D01*
X166824091Y-109657483D01*
X166830500Y-109597873D01*
X166830499Y-107802128D01*
X166824091Y-107742517D01*
X166773796Y-107607669D01*
X166773795Y-107607668D01*
X166773793Y-107607664D01*
X166687547Y-107492455D01*
X166687544Y-107492452D01*
X166572335Y-107406206D01*
X166572328Y-107406202D01*
X166437482Y-107355908D01*
X166437483Y-107355908D01*
X166377883Y-107349501D01*
X166377881Y-107349500D01*
X166377873Y-107349500D01*
X166377864Y-107349500D01*
X164582129Y-107349500D01*
X164582123Y-107349501D01*
X164522516Y-107355908D01*
X164387667Y-107406204D01*
X164386021Y-107407103D01*
X164384190Y-107407501D01*
X164379359Y-107409303D01*
X164379099Y-107408608D01*
X164317747Y-107421949D01*
X164252284Y-107397528D01*
X164210417Y-107341591D01*
X164205438Y-107271899D01*
X164212570Y-107249556D01*
X164249175Y-107163864D01*
X166437637Y-102040639D01*
X166449283Y-102019401D01*
X166456282Y-102009243D01*
X166456435Y-102008933D01*
X166459001Y-102005179D01*
X166466924Y-101998695D01*
X166489220Y-101974298D01*
X166492091Y-101972243D01*
X166584241Y-101904713D01*
X166615994Y-101879423D01*
X166617409Y-101878200D01*
X166646817Y-101850660D01*
X166695821Y-101800958D01*
X166718069Y-101776880D01*
X166719067Y-101775727D01*
X166739937Y-101749953D01*
X166785055Y-101690337D01*
X166793266Y-101679172D01*
X166793644Y-101678643D01*
X166829498Y-101620534D01*
X166830778Y-101616940D01*
X166835957Y-101608304D01*
X166836641Y-101607672D01*
X166839207Y-101603174D01*
X166849391Y-101587933D01*
X166849394Y-101587929D01*
X166909737Y-101442247D01*
X166940500Y-101287592D01*
X166940500Y-101129908D01*
X166926274Y-101058393D01*
X166924620Y-101047612D01*
X166920827Y-101012704D01*
X166916893Y-100997366D01*
X166903319Y-100944444D01*
X166894814Y-100915021D01*
X166894381Y-100913677D01*
X166884183Y-100885008D01*
X166859867Y-100822663D01*
X166843967Y-100786204D01*
X166843162Y-100784540D01*
X166824268Y-100749142D01*
X166820182Y-100742168D01*
X166764308Y-100646801D01*
X166762256Y-100643378D01*
X166758722Y-100632817D01*
X166753988Y-100626927D01*
X166747426Y-100599059D01*
X166745304Y-100592718D01*
X166745080Y-100590614D01*
X166744992Y-100589373D01*
X166741193Y-100554003D01*
X166741199Y-100553969D01*
X166740500Y-100540910D01*
X166740500Y-95868385D01*
X169249500Y-95868385D01*
X169249500Y-97664120D01*
X169249501Y-97664126D01*
X169255908Y-97723733D01*
X169306202Y-97858578D01*
X169306206Y-97858585D01*
X169392452Y-97973794D01*
X169392455Y-97973797D01*
X169507664Y-98060043D01*
X169507671Y-98060047D01*
X169639082Y-98109060D01*
X169695016Y-98150931D01*
X169719433Y-98216395D01*
X169704582Y-98284668D01*
X169683431Y-98312923D01*
X169569889Y-98426465D01*
X169444951Y-98598429D01*
X169348444Y-98787835D01*
X169282753Y-98990010D01*
X169249500Y-99199963D01*
X169249500Y-99412536D01*
X169280625Y-99609056D01*
X169282754Y-99622493D01*
X169345298Y-99814984D01*
X169348444Y-99824664D01*
X169444951Y-100014070D01*
X169569890Y-100186036D01*
X169720213Y-100336359D01*
X169892179Y-100461298D01*
X169892181Y-100461299D01*
X169892184Y-100461301D01*
X169901493Y-100466044D01*
X169952290Y-100514016D01*
X169969087Y-100581837D01*
X169946552Y-100647972D01*
X169901505Y-100687010D01*
X169892446Y-100691626D01*
X169892440Y-100691630D01*
X169838282Y-100730977D01*
X169838282Y-100730978D01*
X170470591Y-101363287D01*
X170407007Y-101380325D01*
X170292993Y-101446151D01*
X170199901Y-101539243D01*
X170134075Y-101653257D01*
X170117037Y-101716841D01*
X169484728Y-101084532D01*
X169484727Y-101084532D01*
X169445380Y-101138689D01*
X169348904Y-101328032D01*
X169283242Y-101530119D01*
X169283242Y-101530122D01*
X169250000Y-101740003D01*
X169250000Y-101952496D01*
X169283242Y-102162377D01*
X169283242Y-102162380D01*
X169348904Y-102364467D01*
X169445375Y-102553800D01*
X169484728Y-102607966D01*
X170117037Y-101975658D01*
X170134075Y-102039243D01*
X170199901Y-102153257D01*
X170292993Y-102246349D01*
X170407007Y-102312175D01*
X170470590Y-102329212D01*
X169838282Y-102961519D01*
X169838282Y-102961520D01*
X169892452Y-103000876D01*
X169892451Y-103000876D01*
X169901495Y-103005484D01*
X169952292Y-103053458D01*
X169969087Y-103121279D01*
X169946550Y-103187414D01*
X169901499Y-103226452D01*
X169892182Y-103231199D01*
X169720213Y-103356140D01*
X169569890Y-103506463D01*
X169444951Y-103678429D01*
X169348444Y-103867835D01*
X169282753Y-104070010D01*
X169249500Y-104279963D01*
X169249500Y-104492536D01*
X169282753Y-104702489D01*
X169348444Y-104904664D01*
X169444951Y-105094070D01*
X169569890Y-105266036D01*
X169720213Y-105416359D01*
X169892179Y-105541298D01*
X169892181Y-105541299D01*
X169892184Y-105541301D01*
X170081588Y-105637807D01*
X170283757Y-105703496D01*
X170493713Y-105736750D01*
X170493714Y-105736750D01*
X170706286Y-105736750D01*
X170706287Y-105736750D01*
X170916243Y-105703496D01*
X171118412Y-105637807D01*
X171307816Y-105541301D01*
X171385826Y-105484624D01*
X171479786Y-105416359D01*
X171479788Y-105416356D01*
X171479792Y-105416354D01*
X171630104Y-105266042D01*
X171630106Y-105266038D01*
X171630109Y-105266036D01*
X171755048Y-105094070D01*
X171755047Y-105094070D01*
X171755051Y-105094066D01*
X171851557Y-104904662D01*
X171917246Y-104702493D01*
X171950500Y-104492537D01*
X171950500Y-104279963D01*
X171917246Y-104070007D01*
X171851557Y-103867838D01*
X171755051Y-103678434D01*
X171755049Y-103678431D01*
X171755048Y-103678429D01*
X171630109Y-103506463D01*
X171479786Y-103356140D01*
X171307817Y-103231199D01*
X171298504Y-103226454D01*
X171247707Y-103178480D01*
X171230912Y-103110659D01*
X171253449Y-103044524D01*
X171298507Y-103005482D01*
X171307555Y-103000872D01*
X171361716Y-102961520D01*
X171361717Y-102961520D01*
X170729408Y-102329212D01*
X170792993Y-102312175D01*
X170907007Y-102246349D01*
X171000099Y-102153257D01*
X171065925Y-102039243D01*
X171082962Y-101975659D01*
X171715270Y-102607967D01*
X171715270Y-102607966D01*
X171754622Y-102553804D01*
X171851095Y-102364467D01*
X171916757Y-102162380D01*
X171916757Y-102162377D01*
X171950000Y-101952496D01*
X171950000Y-101740003D01*
X171916757Y-101530122D01*
X171916757Y-101530119D01*
X171851095Y-101328032D01*
X171754624Y-101138699D01*
X171715270Y-101084532D01*
X171715269Y-101084532D01*
X171082962Y-101716840D01*
X171065925Y-101653257D01*
X171000099Y-101539243D01*
X170907007Y-101446151D01*
X170792993Y-101380325D01*
X170729409Y-101363287D01*
X171361716Y-100730978D01*
X171307547Y-100691623D01*
X171307547Y-100691622D01*
X171298500Y-100687013D01*
X171247706Y-100639038D01*
X171230912Y-100571216D01*
X171253451Y-100505082D01*
X171298508Y-100466043D01*
X171307816Y-100461301D01*
X171387007Y-100403765D01*
X171479786Y-100336359D01*
X171479788Y-100336356D01*
X171479792Y-100336354D01*
X171630104Y-100186042D01*
X171630106Y-100186038D01*
X171630109Y-100186036D01*
X171755048Y-100014070D01*
X171755047Y-100014070D01*
X171755051Y-100014066D01*
X171851557Y-99824662D01*
X171917246Y-99622493D01*
X171950500Y-99412537D01*
X171950500Y-99199963D01*
X171917246Y-98990007D01*
X171851557Y-98787838D01*
X171755051Y-98598434D01*
X171755049Y-98598431D01*
X171755048Y-98598429D01*
X171630109Y-98426463D01*
X171516569Y-98312923D01*
X171483084Y-98251600D01*
X171488068Y-98181908D01*
X171529940Y-98125975D01*
X171560915Y-98109060D01*
X171692331Y-98060046D01*
X171807546Y-97973796D01*
X171893796Y-97858581D01*
X171944091Y-97723733D01*
X171950500Y-97664123D01*
X171950499Y-95868378D01*
X171944091Y-95808767D01*
X171893796Y-95673919D01*
X171893795Y-95673918D01*
X171893793Y-95673914D01*
X171807547Y-95558705D01*
X171807544Y-95558702D01*
X171692335Y-95472456D01*
X171692328Y-95472452D01*
X171557482Y-95422158D01*
X171557483Y-95422158D01*
X171497883Y-95415751D01*
X171497881Y-95415750D01*
X171497873Y-95415750D01*
X171497864Y-95415750D01*
X169702129Y-95415750D01*
X169702123Y-95415751D01*
X169642516Y-95422158D01*
X169507671Y-95472452D01*
X169507664Y-95472456D01*
X169392455Y-95558702D01*
X169392452Y-95558705D01*
X169306206Y-95673914D01*
X169306202Y-95673921D01*
X169255908Y-95808767D01*
X169254612Y-95820827D01*
X169249501Y-95868373D01*
X169249500Y-95868385D01*
X166740500Y-95868385D01*
X166740500Y-93299819D01*
X166740480Y-93299512D01*
X166740480Y-93159592D01*
X166740480Y-93159585D01*
X166704825Y-92706529D01*
X166633734Y-92257667D01*
X166554101Y-91925968D01*
X166527648Y-91815778D01*
X166527641Y-91815755D01*
X166454113Y-91589455D01*
X166387212Y-91383552D01*
X166213300Y-90963688D01*
X166213290Y-90963668D01*
X166006993Y-90558782D01*
X166006981Y-90558760D01*
X165950092Y-90465925D01*
X165769532Y-90171274D01*
X165502412Y-89803609D01*
X165289612Y-89554449D01*
X165207271Y-89458038D01*
X165112704Y-89363471D01*
X165102493Y-89353260D01*
X165102493Y-89353258D01*
X165024198Y-89274963D01*
X164995037Y-89245801D01*
X164995036Y-89245800D01*
X164990706Y-89241470D01*
X164990696Y-89241461D01*
X164335395Y-88586160D01*
X164328327Y-88579092D01*
X164328327Y-88579091D01*
X164315210Y-88565974D01*
X164315201Y-88565958D01*
X164272430Y-88523187D01*
X164272431Y-88523187D01*
X164163347Y-88414102D01*
X164163341Y-88414097D01*
X164161304Y-88412060D01*
X164161134Y-88411898D01*
X162847680Y-87098445D01*
X162847678Y-87098442D01*
X162231448Y-86482213D01*
X162231446Y-86482210D01*
X160792275Y-85043040D01*
X160789845Y-85040610D01*
X160789841Y-85040605D01*
X160711286Y-84962051D01*
X160624857Y-84875622D01*
X159432992Y-83683757D01*
X159418409Y-83669173D01*
X159418408Y-83669173D01*
X159400970Y-83651734D01*
X159400967Y-83651732D01*
X159356665Y-83607430D01*
X159356538Y-83607319D01*
X159265813Y-83516594D01*
X158957775Y-83249678D01*
X158939641Y-83233965D01*
X158594147Y-82975331D01*
X158594123Y-82975315D01*
X158231082Y-82742003D01*
X158231069Y-82741995D01*
X157852276Y-82535159D01*
X157459705Y-82355877D01*
X157459702Y-82355876D01*
X157459698Y-82355874D01*
X157055327Y-82205050D01*
X156641226Y-82083457D01*
X156641216Y-82083454D01*
X156219514Y-81991717D01*
X155792315Y-81930293D01*
X155361832Y-81899501D01*
X155225095Y-81899500D01*
X155225094Y-81899500D01*
X152641171Y-81899500D01*
X152633566Y-81899499D01*
X152633564Y-81899499D01*
X152618191Y-81899499D01*
X152612053Y-81899499D01*
X152611899Y-81899454D01*
X152403162Y-81899457D01*
X152401447Y-81899500D01*
X150439392Y-81899500D01*
X150366478Y-81899494D01*
X150366454Y-81899500D01*
X149641172Y-81899500D01*
X149641057Y-81899493D01*
X149612033Y-81899495D01*
X149611557Y-81899355D01*
X149460569Y-81899499D01*
X149460568Y-81899494D01*
X149460440Y-81899500D01*
X147439348Y-81899500D01*
X147366434Y-81899499D01*
X147366430Y-81899500D01*
X145005333Y-81899500D01*
X145005292Y-81899488D01*
X144953959Y-81899488D01*
X144919175Y-81899488D01*
X144738166Y-81899489D01*
X144307681Y-81930281D01*
X143880485Y-81991704D01*
X143458772Y-82083444D01*
X143044671Y-82205038D01*
X142640288Y-82355866D01*
X142247716Y-82535149D01*
X141868927Y-82741984D01*
X141505849Y-82975319D01*
X141505844Y-82975322D01*
X141160355Y-83233951D01*
X140834189Y-83516576D01*
X140834163Y-83516600D01*
X140720051Y-83630709D01*
X140720047Y-83630715D01*
X139356969Y-84993793D01*
X139338637Y-85012126D01*
X139338634Y-85012127D01*
X139338634Y-85012128D01*
X139338556Y-85012170D01*
X139195202Y-85155529D01*
X139003089Y-85389626D01*
X139003082Y-85389635D01*
X138834834Y-85641444D01*
X138834825Y-85641461D01*
X138692065Y-85908551D01*
X138692064Y-85908555D01*
X138576175Y-86188344D01*
X138576172Y-86188352D01*
X138488260Y-86478171D01*
X138475026Y-86544703D01*
X138471592Y-86558045D01*
X138469241Y-86565444D01*
X138460708Y-86583934D01*
X138420095Y-86720193D01*
X138419747Y-86721291D01*
X138419622Y-86721476D01*
X138417565Y-86727572D01*
X138384892Y-86814075D01*
X138380611Y-86824062D01*
X138357774Y-86871483D01*
X138352255Y-86881691D01*
X138337111Y-86906817D01*
X138328510Y-86919293D01*
X138236446Y-87036771D01*
X138232442Y-87041622D01*
X138212007Y-87065135D01*
X138212008Y-87065136D01*
X138210137Y-87067299D01*
X138206853Y-87071156D01*
X138072046Y-87231156D01*
X138060869Y-87244904D01*
X138060365Y-87245546D01*
X138049543Y-87259861D01*
X137891831Y-87476339D01*
X137885350Y-87485445D01*
X137885113Y-87485786D01*
X137861430Y-87524823D01*
X137855739Y-87533383D01*
X137844950Y-87548234D01*
X137844948Y-87548236D01*
X137748444Y-87737636D01*
X137682753Y-87939811D01*
X137649500Y-88149764D01*
X137649500Y-88362337D01*
X137674976Y-88523190D01*
X137682754Y-88572294D01*
X137684963Y-88579093D01*
X137685794Y-88581650D01*
X137687786Y-88651491D01*
X137651703Y-88711323D01*
X137589000Y-88742148D01*
X137529548Y-88737896D01*
X137520192Y-88734856D01*
X137520190Y-88734855D01*
X137520188Y-88734855D01*
X137371612Y-88711323D01*
X137310236Y-88701602D01*
X137097662Y-88701602D01*
X137048991Y-88709310D01*
X136887709Y-88734855D01*
X136685534Y-88800546D01*
X136496128Y-88897053D01*
X136324162Y-89021992D01*
X136173839Y-89172315D01*
X136048900Y-89344281D01*
X135952393Y-89533687D01*
X135886702Y-89735862D01*
X135858978Y-89910904D01*
X135853449Y-89945815D01*
X123704835Y-89945815D01*
X134584896Y-71101534D01*
X134586317Y-71099137D01*
X135014903Y-70395180D01*
X135018009Y-70390337D01*
X135478008Y-69708378D01*
X135481308Y-69703724D01*
X135972556Y-69043880D01*
X135976068Y-69039386D01*
X136497474Y-68403124D01*
X136501191Y-68398797D01*
X137051628Y-67787491D01*
X137055580Y-67783302D01*
X137129179Y-67708844D01*
X137633859Y-67198270D01*
X137637983Y-67194289D01*
X138005261Y-66855778D01*
X147799500Y-66855778D01*
X147799500Y-67144221D01*
X147799501Y-67144238D01*
X147837149Y-67430206D01*
X147837150Y-67430211D01*
X147837151Y-67430217D01*
X147911809Y-67708844D01*
X147911814Y-67708860D01*
X148022191Y-67975336D01*
X148022199Y-67975352D01*
X148166420Y-68225148D01*
X148166431Y-68225164D01*
X148342024Y-68454002D01*
X148342030Y-68454009D01*
X148545990Y-68657969D01*
X148545997Y-68657975D01*
X148685375Y-68764923D01*
X148774844Y-68833575D01*
X148774851Y-68833579D01*
X149024647Y-68977800D01*
X149024663Y-68977808D01*
X149291139Y-69088185D01*
X149291145Y-69088186D01*
X149291155Y-69088191D01*
X149569783Y-69162849D01*
X149855772Y-69200500D01*
X149855779Y-69200500D01*
X150144221Y-69200500D01*
X150144228Y-69200500D01*
X150430217Y-69162849D01*
X150708845Y-69088191D01*
X150708857Y-69088185D01*
X150708860Y-69088185D01*
X150975336Y-68977808D01*
X150975339Y-68977806D01*
X150975345Y-68977804D01*
X151225156Y-68833575D01*
X151454004Y-68657974D01*
X151657974Y-68454004D01*
X151833575Y-68225156D01*
X151977804Y-67975345D01*
X152017237Y-67880146D01*
X152088185Y-67708860D01*
X152088185Y-67708857D01*
X152088191Y-67708845D01*
X152162849Y-67430217D01*
X152200500Y-67144228D01*
X152200500Y-66855772D01*
X152162849Y-66569783D01*
X152088191Y-66291155D01*
X152088186Y-66291145D01*
X152088185Y-66291139D01*
X151977808Y-66024663D01*
X151977800Y-66024647D01*
X151833579Y-65774851D01*
X151833575Y-65774844D01*
X151735526Y-65647064D01*
X151657975Y-65545997D01*
X151657969Y-65545990D01*
X151454009Y-65342030D01*
X151454002Y-65342024D01*
X151225164Y-65166431D01*
X151225162Y-65166429D01*
X151225156Y-65166425D01*
X151225151Y-65166422D01*
X151225148Y-65166420D01*
X150975352Y-65022199D01*
X150975336Y-65022191D01*
X150708860Y-64911814D01*
X150708848Y-64911810D01*
X150708845Y-64911809D01*
X150430217Y-64837151D01*
X150430211Y-64837150D01*
X150430206Y-64837149D01*
X150144238Y-64799501D01*
X150144233Y-64799500D01*
X150144228Y-64799500D01*
X149855772Y-64799500D01*
X149855766Y-64799500D01*
X149855761Y-64799501D01*
X149569793Y-64837149D01*
X149569786Y-64837150D01*
X149569783Y-64837151D01*
X149291155Y-64911809D01*
X149291139Y-64911814D01*
X149024663Y-65022191D01*
X149024647Y-65022199D01*
X148774851Y-65166420D01*
X148774835Y-65166431D01*
X148545997Y-65342024D01*
X148545990Y-65342030D01*
X148342030Y-65545990D01*
X148342024Y-65545997D01*
X148166431Y-65774835D01*
X148166420Y-65774851D01*
X148022199Y-66024647D01*
X148022191Y-66024663D01*
X147911814Y-66291139D01*
X147911809Y-66291155D01*
X147876865Y-66421570D01*
X147837152Y-66569780D01*
X147837149Y-66569793D01*
X147799501Y-66855761D01*
X147799500Y-66855778D01*
X138005261Y-66855778D01*
X138242870Y-66636780D01*
X138247130Y-66633033D01*
X138877310Y-66104264D01*
X138881779Y-66100688D01*
X139535888Y-65601802D01*
X139540468Y-65598475D01*
X140217065Y-65130571D01*
X140221856Y-65127420D01*
X140919485Y-64691506D01*
X140924395Y-64688595D01*
X141641528Y-64285622D01*
X141646601Y-64282925D01*
X142381712Y-63913750D01*
X142386882Y-63911303D01*
X143138378Y-63576727D01*
X143143644Y-63574528D01*
X143909917Y-63275268D01*
X143915257Y-63273325D01*
X144694640Y-63010036D01*
X144700078Y-63008338D01*
X145490816Y-62781610D01*
X145496378Y-62780154D01*
X146296805Y-62590461D01*
X146302397Y-62589272D01*
X147110805Y-62437019D01*
X147116475Y-62436088D01*
X147931071Y-62321615D01*
X147936715Y-62320956D01*
X148755764Y-62244506D01*
X148761497Y-62244104D01*
X149583197Y-62205844D01*
X149588962Y-62205711D01*
X150411555Y-62205721D01*
G37*
%TD.AperFunction*%
%TD*%
%TA.AperFunction,Conductor*%
%TO.N,5V*%
G36*
X139130899Y-86766314D02*
G01*
X139138003Y-86771765D01*
X139139324Y-86780004D01*
X139115374Y-86894814D01*
X139108709Y-87000626D01*
X139108709Y-87000630D01*
X139119609Y-87090159D01*
X139119610Y-87090161D01*
X139146107Y-87166961D01*
X139186221Y-87234573D01*
X139186221Y-87234574D01*
X139229448Y-87286333D01*
X139237980Y-87296548D01*
X139368536Y-87417774D01*
X139404930Y-87449714D01*
X139405346Y-87450098D01*
X139568767Y-87608138D01*
X139569838Y-87609326D01*
X139698960Y-87773889D01*
X139701371Y-87782513D01*
X139696977Y-87790316D01*
X139696263Y-87790834D01*
X139006252Y-88252658D01*
X138997470Y-88254412D01*
X138993233Y-88252656D01*
X138303363Y-87790589D01*
X138298396Y-87783138D01*
X138300153Y-87774357D01*
X138300404Y-87773996D01*
X138458120Y-87557511D01*
X138458629Y-87556862D01*
X138593333Y-87396983D01*
X138593450Y-87396847D01*
X138624472Y-87361153D01*
X138750165Y-87200761D01*
X138800421Y-87117377D01*
X138848026Y-87018525D01*
X138854786Y-87000630D01*
X138898403Y-86885156D01*
X138898411Y-86885135D01*
X138945149Y-86728319D01*
X138950797Y-86721370D01*
X138959387Y-86720361D01*
X139130899Y-86766314D01*
G37*
%TD.AperFunction*%
%TD*%
%TA.AperFunction,Conductor*%
%TO.N,SERVO_B_PWM*%
G36*
X133619632Y-96256078D02*
G01*
X133627061Y-96261078D01*
X133628780Y-96269866D01*
X133628638Y-96270481D01*
X133610138Y-96341875D01*
X133609678Y-96343279D01*
X133584035Y-96407495D01*
X133583238Y-96409115D01*
X133525669Y-96506384D01*
X133525414Y-96506795D01*
X133499520Y-96546690D01*
X133455163Y-96645480D01*
X133455162Y-96645481D01*
X133442208Y-96711005D01*
X133442208Y-96711010D01*
X133438124Y-96783197D01*
X133434236Y-96791263D01*
X133426443Y-96794236D01*
X133248394Y-96794236D01*
X133240121Y-96790809D01*
X133236724Y-96783369D01*
X133230300Y-96693426D01*
X133230300Y-96693425D01*
X133210964Y-96618223D01*
X133182883Y-96559116D01*
X133182882Y-96559115D01*
X133182881Y-96559112D01*
X133149577Y-96506787D01*
X133149352Y-96506420D01*
X133089384Y-96404068D01*
X133088579Y-96402404D01*
X133064260Y-96340047D01*
X133063834Y-96338727D01*
X133046324Y-96270457D01*
X133047588Y-96261594D01*
X133054750Y-96256219D01*
X133055318Y-96256088D01*
X133335182Y-96199469D01*
X133339818Y-96199469D01*
X133619632Y-96256078D01*
G37*
%TD.AperFunction*%
%TD*%
%TA.AperFunction,Conductor*%
%TO.N,5V*%
G36*
X149776471Y-83435350D02*
G01*
X149797655Y-83443915D01*
X149832347Y-83457941D01*
X149836077Y-83460360D01*
X149860005Y-83483399D01*
X149862142Y-83486189D01*
X149877898Y-83514843D01*
X149879102Y-83518105D01*
X149888025Y-83561189D01*
X149888255Y-83564115D01*
X149885880Y-83614264D01*
X149885540Y-83616561D01*
X149867395Y-83688798D01*
X149866828Y-83690495D01*
X149833794Y-83768820D01*
X149833186Y-83770055D01*
X149779966Y-83863683D01*
X149779348Y-83864654D01*
X149713563Y-83957729D01*
X149712641Y-83958874D01*
X149602464Y-84079278D01*
X149602463Y-84079278D01*
X149592409Y-84090266D01*
X149562545Y-84122902D01*
X149561044Y-84124279D01*
X149427714Y-84226788D01*
X149425362Y-84228192D01*
X149327264Y-84272093D01*
X149323041Y-84273101D01*
X149256154Y-84276285D01*
X149251354Y-84275501D01*
X149227104Y-84266061D01*
X149223861Y-84264147D01*
X149202762Y-84246556D01*
X149200332Y-84243768D01*
X149181257Y-84213212D01*
X149179995Y-84210442D01*
X149166839Y-84167480D01*
X149166326Y-84164099D01*
X149166045Y-84090262D01*
X149166906Y-84085817D01*
X149193514Y-84020401D01*
X149195359Y-84017326D01*
X149244440Y-83958403D01*
X149246164Y-83956723D01*
X149312665Y-83904203D01*
X149314397Y-83903070D01*
X149478797Y-83815407D01*
X149479939Y-83814877D01*
X149609490Y-83763126D01*
X149646966Y-83748157D01*
X149646972Y-83748154D01*
X149646983Y-83748150D01*
X149793585Y-83684780D01*
X149810053Y-83662896D01*
X149810052Y-83662895D01*
X149788726Y-83644019D01*
X149788724Y-83644018D01*
X149734826Y-83629107D01*
X149727768Y-83623600D01*
X149726472Y-83615550D01*
X149760614Y-83443913D01*
X149765588Y-83436470D01*
X149774371Y-83434723D01*
X149776471Y-83435350D01*
G37*
%TD.AperFunction*%
%TD*%
%TA.AperFunction,Conductor*%
%TO.N,5V*%
G36*
X163519871Y-107116802D02*
G01*
X163682943Y-107186461D01*
X163689205Y-107192862D01*
X163689246Y-107201474D01*
X163634172Y-107342560D01*
X163594980Y-107473075D01*
X163573496Y-107587159D01*
X163571183Y-107626065D01*
X163567406Y-107689578D01*
X163571639Y-107747340D01*
X163574404Y-107785058D01*
X163574405Y-107785064D01*
X163592179Y-107878345D01*
X163592182Y-107878356D01*
X163650829Y-108077278D01*
X163696204Y-108222701D01*
X163696389Y-108223363D01*
X163770709Y-108522279D01*
X163769380Y-108531135D01*
X163762178Y-108536456D01*
X163761649Y-108536575D01*
X162947291Y-108699382D01*
X162938506Y-108697643D01*
X162935262Y-108694400D01*
X162620967Y-108223023D01*
X162474553Y-108003432D01*
X162472816Y-107994649D01*
X162477798Y-107987208D01*
X162478214Y-107986944D01*
X162708553Y-107847920D01*
X162709277Y-107847518D01*
X162906849Y-107747293D01*
X162957226Y-107722664D01*
X163132303Y-107626061D01*
X163259921Y-107521801D01*
X163319854Y-107453163D01*
X163378418Y-107369429D01*
X163443386Y-107254428D01*
X163504668Y-107122627D01*
X163511262Y-107116572D01*
X163519871Y-107116802D01*
G37*
%TD.AperFunction*%
%TD*%
%TA.AperFunction,Conductor*%
%TO.N,5V*%
G36*
X166237379Y-100617941D02*
G01*
X166240776Y-100625381D01*
X166247199Y-100715322D01*
X166266534Y-100790520D01*
X166266534Y-100790522D01*
X166294618Y-100849636D01*
X166327922Y-100901961D01*
X166328147Y-100902328D01*
X166388114Y-101004680D01*
X166388919Y-101006344D01*
X166413235Y-101068689D01*
X166413668Y-101070033D01*
X166431175Y-101138290D01*
X166429911Y-101147155D01*
X166422749Y-101152530D01*
X166422162Y-101152665D01*
X166142320Y-101209280D01*
X166137680Y-101209280D01*
X165857867Y-101152671D01*
X165850438Y-101147671D01*
X165848719Y-101138883D01*
X165848856Y-101138290D01*
X165867366Y-101066855D01*
X165867814Y-101065487D01*
X165893467Y-101001246D01*
X165894257Y-100999639D01*
X165951852Y-100902328D01*
X165952069Y-100901977D01*
X165977978Y-100862060D01*
X165983557Y-100849636D01*
X166022336Y-100763268D01*
X166022337Y-100763267D01*
X166031816Y-100715324D01*
X166035292Y-100697739D01*
X166039376Y-100625553D01*
X166043264Y-100617487D01*
X166051057Y-100614514D01*
X166229106Y-100614514D01*
X166237379Y-100617941D01*
G37*
%TD.AperFunction*%
%TD*%
M02*
