M48
; DRILL file {KiCad 9.0.6} date 2026-02-04T04:17:55+0100
; FORMAT={-:-/ absolute / metric / decimal}
; #@! TF.CreationDate,2026-02-04T04:17:55+01:00
; #@! TF.GenerationSoftware,Kicad,Pcbnew,9.0.6
; #@! TF.FileFunction,Plated,1,2,PTH
FMAT,2
METRIC
; #@! TA.AperFunction,Plated,PTH,ViaDrill
T1C0.300
; #@! TA.AperFunction,Plated,PTH,ComponentDrill
T2C0.800
; #@! TA.AperFunction,Plated,PTH,ComponentDrill
T3C1.000
%
G90
G05
T1
X129.082Y-115.944
X132.537Y-96.2
X132.537Y-115.6
X133.338Y-96.2
X133.338Y-115.6
X134.137Y-96.2
X134.137Y-115.6
X137.8Y-96.137
X145.379Y-116.121
X145.7Y-98.624
X145.938Y-113.563
X147.633Y-103.8
X149.0Y-91.7
X150.596Y-99.75
X151.023Y-110.252
X166.13Y-103.064
X166.14Y-101.209
T2
X163.1Y-95.748
X163.1Y-97.748
T3
X126.26Y-98.91
X128.8Y-98.91
X131.34Y-98.91
X137.204Y-90.052
X139.0Y-88.256
X140.796Y-86.46
X147.46Y-84.0
X150.0Y-84.0
X152.54Y-84.0
X155.32Y-108.7
X157.02Y-96.71
X157.02Y-99.25
X157.02Y-101.79
X157.02Y-104.33
X157.5Y-118.27
X157.86Y-108.7
X159.204Y-86.408
X160.04Y-118.27
X160.4Y-108.7
X161.0Y-88.204
X162.58Y-118.27
X162.796Y-90.0
X162.94Y-108.7
X164.28Y-113.98
X165.12Y-118.27
X165.48Y-108.7
X166.82Y-113.98
X167.66Y-118.27
X169.36Y-113.98
X170.6Y-96.766
X170.6Y-99.306
X170.6Y-101.846
X170.6Y-104.386
X171.9Y-113.98
M30
