%TF.GenerationSoftware,KiCad,Pcbnew,9.0.6*%
%TF.CreationDate,2026-02-04T04:17:41+01:00*%
%TF.ProjectId,lidar,6c696461-722e-46b6-9963-61645f706362,rev?*%
%TF.SameCoordinates,Original*%
%TF.FileFunction,Soldermask,Top*%
%TF.FilePolarity,Negative*%
%FSLAX46Y46*%
G04 Gerber Fmt 4.6, Leading zero omitted, Abs format (unit mm)*
G04 Created by KiCad (PCBNEW 9.0.6) date 2026-02-04 04:17:41*
%MOMM*%
%LPD*%
G01*
G04 APERTURE LIST*
G04 Aperture macros list*
%AMRoundRect*
0 Rectangle with rounded corners*
0 $1 Rounding radius*
0 $2 $3 $4 $5 $6 $7 $8 $9 X,Y pos of 4 corners*
0 Add a 4 corners polygon primitive as box body*
4,1,4,$2,$3,$4,$5,$6,$7,$8,$9,$2,$3,0*
0 Add four circle primitives for the rounded corners*
1,1,$1+$1,$2,$3*
1,1,$1+$1,$4,$5*
1,1,$1+$1,$6,$7*
1,1,$1+$1,$8,$9*
0 Add four rect primitives between the rounded corners*
20,1,$1+$1,$2,$3,$4,$5,0*
20,1,$1+$1,$4,$5,$6,$7,0*
20,1,$1+$1,$6,$7,$8,$9,0*
20,1,$1+$1,$8,$9,$2,$3,0*%
%AMRotRect*
0 Rectangle, with rotation*
0 The origin of the aperture is its center*
0 $1 length*
0 $2 width*
0 $3 Rotation angle, in degrees counterclockwise*
0 Add horizontal line*
21,1,$1,$2,0,0,$3*%
G04 Aperture macros list end*
%ADD10R,0.254000X1.175000*%
%ADD11R,0.950000X0.254000*%
%ADD12RoundRect,0.237500X0.300000X0.237500X-0.300000X0.237500X-0.300000X-0.237500X0.300000X-0.237500X0*%
%ADD13R,1.000000X1.800000*%
%ADD14RoundRect,0.237500X-0.250000X-0.237500X0.250000X-0.237500X0.250000X0.237500X-0.250000X0.237500X0*%
%ADD15RoundRect,0.237500X-0.237500X0.300000X-0.237500X-0.300000X0.237500X-0.300000X0.237500X0.300000X0*%
%ADD16RoundRect,0.137500X0.137500X-0.600000X0.137500X0.600000X-0.137500X0.600000X-0.137500X-0.600000X0*%
%ADD17RoundRect,0.137500X0.600000X-0.137500X0.600000X0.137500X-0.600000X0.137500X-0.600000X-0.137500X0*%
%ADD18RoundRect,0.237500X0.237500X-0.250000X0.237500X0.250000X-0.237500X0.250000X-0.237500X-0.250000X0*%
%ADD19RoundRect,0.237500X0.237500X-0.300000X0.237500X0.300000X-0.237500X0.300000X-0.237500X-0.300000X0*%
%ADD20R,1.700000X1.700000*%
%ADD21C,1.700000*%
%ADD22RoundRect,0.200000X0.750000X0.200000X-0.750000X0.200000X-0.750000X-0.200000X0.750000X-0.200000X0*%
%ADD23RoundRect,0.237500X-0.300000X-0.237500X0.300000X-0.237500X0.300000X0.237500X-0.300000X0.237500X0*%
%ADD24RoundRect,0.237500X0.380070X-0.044194X-0.044194X0.380070X-0.380070X0.044194X0.044194X-0.380070X0*%
%ADD25RoundRect,0.237500X-0.287500X-0.237500X0.287500X-0.237500X0.287500X0.237500X-0.287500X0.237500X0*%
%ADD26RoundRect,0.180000X-0.420000X0.520000X-0.420000X-0.520000X0.420000X-0.520000X0.420000X0.520000X0*%
%ADD27RoundRect,0.250000X-0.550000X0.550000X-0.550000X-0.550000X0.550000X-0.550000X0.550000X0.550000X0*%
%ADD28C,1.600000*%
%ADD29RotRect,1.700000X1.700000X315.000000*%
%ADD30RoundRect,0.237500X-0.237500X0.250000X-0.237500X-0.250000X0.237500X-0.250000X0.237500X0.250000X0*%
%ADD31RotRect,1.700000X1.700000X225.000000*%
%ADD32RoundRect,0.237500X0.250000X0.237500X-0.250000X0.237500X-0.250000X-0.237500X0.250000X-0.237500X0*%
%ADD33RoundRect,0.165000X0.385000X0.735000X-0.385000X0.735000X-0.385000X-0.735000X0.385000X-0.735000X0*%
G04 APERTURE END LIST*
D10*
%TO.C,U2*%
X147750000Y-98087500D03*
D11*
X147475000Y-99250000D03*
X147475000Y-99750000D03*
X147475000Y-100250000D03*
X147475000Y-100750000D03*
D10*
X147750000Y-101912500D03*
X148250000Y-101912500D03*
X148750000Y-101912500D03*
X149250000Y-101912500D03*
X149750000Y-101912500D03*
X150250000Y-101912500D03*
X150750000Y-101912500D03*
X151250000Y-101912500D03*
X151750000Y-101912500D03*
X152250000Y-101912500D03*
D11*
X152525000Y-100750000D03*
X152525000Y-100250000D03*
X152525000Y-99750000D03*
X152525000Y-99250000D03*
D10*
X152250000Y-98087500D03*
X151750000Y-98087500D03*
X151250000Y-98087500D03*
X150750000Y-98087500D03*
X150250000Y-98087500D03*
X149750000Y-98087500D03*
X149250000Y-98087500D03*
X148750000Y-98087500D03*
X148250000Y-98087500D03*
%TD*%
D12*
%TO.C,C9*%
X151762500Y-91700000D03*
X150037500Y-91700000D03*
%TD*%
D13*
%TO.C,Y2*%
X147750000Y-94000000D03*
X150250000Y-94000000D03*
%TD*%
D14*
%TO.C,R3*%
X135075000Y-97037500D03*
X136900000Y-97037500D03*
%TD*%
D15*
%TO.C,C8*%
X144000000Y-98025000D03*
X144000000Y-99750000D03*
%TD*%
D16*
%TO.C,U1*%
X129337500Y-119062500D03*
X130137500Y-119062500D03*
X130937500Y-119062500D03*
X131737500Y-119062500D03*
X132537500Y-119062500D03*
X133337500Y-119062500D03*
X134137500Y-119062500D03*
X134937500Y-119062500D03*
X135737500Y-119062500D03*
X136537500Y-119062500D03*
X137337500Y-119062500D03*
X138137500Y-119062500D03*
X138937500Y-119062500D03*
X139737500Y-119062500D03*
X140537500Y-119062500D03*
X141337500Y-119062500D03*
D17*
X143000000Y-117400000D03*
X143000000Y-116600000D03*
X143000000Y-115800000D03*
X143000000Y-115000000D03*
X143000000Y-114200000D03*
X143000000Y-113400000D03*
X143000000Y-112600000D03*
X143000000Y-111800000D03*
X143000000Y-111000000D03*
X143000000Y-110200000D03*
X143000000Y-109400000D03*
X143000000Y-108600000D03*
X143000000Y-107800000D03*
X143000000Y-107000000D03*
X143000000Y-106200000D03*
X143000000Y-105400000D03*
D16*
X141337500Y-103737500D03*
X140537500Y-103737500D03*
X139737500Y-103737500D03*
X138937500Y-103737500D03*
X138137500Y-103737500D03*
X137337500Y-103737500D03*
X136537500Y-103737500D03*
X135737500Y-103737500D03*
X134937500Y-103737500D03*
X134137500Y-103737500D03*
X133337500Y-103737500D03*
X132537500Y-103737500D03*
X131737500Y-103737500D03*
X130937500Y-103737500D03*
X130137500Y-103737500D03*
X129337500Y-103737500D03*
D17*
X127675000Y-105400000D03*
X127675000Y-106200000D03*
X127675000Y-107000000D03*
X127675000Y-107800000D03*
X127675000Y-108600000D03*
X127675000Y-109400000D03*
X127675000Y-110200000D03*
X127675000Y-111000000D03*
X127675000Y-111800000D03*
X127675000Y-112600000D03*
X127675000Y-113400000D03*
X127675000Y-114200000D03*
X127675000Y-115000000D03*
X127675000Y-115800000D03*
X127675000Y-116600000D03*
X127675000Y-117400000D03*
%TD*%
D18*
%TO.C,R4*%
X167100000Y-103048750D03*
X167100000Y-101223750D03*
%TD*%
D19*
%TO.C,C3*%
X152087500Y-113050000D03*
X152087500Y-111325000D03*
%TD*%
D20*
%TO.C,J8*%
X157020000Y-96710000D03*
D21*
X157020000Y-99250000D03*
X157020000Y-101790000D03*
X157020000Y-104330000D03*
%TD*%
D22*
%TO.C,Q1*%
X164700000Y-103086250D03*
X164700000Y-101186250D03*
X161700000Y-102136250D03*
%TD*%
D23*
%TO.C,C10*%
X146237500Y-91700000D03*
X147962500Y-91700000D03*
%TD*%
D24*
%TO.C,C4*%
X131909880Y-123239880D03*
X130690120Y-122020120D03*
%TD*%
D25*
%TO.C,D2*%
X135162500Y-99937500D03*
X136912500Y-99937500D03*
%TD*%
D18*
%TO.C,R6*%
X174100000Y-101518750D03*
X174100000Y-99693750D03*
%TD*%
D26*
%TO.C,Y1*%
X148187500Y-111487500D03*
X148187500Y-113687500D03*
X149887500Y-113687500D03*
X149887500Y-111487500D03*
%TD*%
D20*
%TO.C,G1*%
X165480000Y-108700000D03*
D21*
X162940000Y-108700000D03*
X160400000Y-108700000D03*
X157860000Y-108700000D03*
X155320000Y-108700000D03*
%TD*%
D27*
%TO.C,C5*%
X163100000Y-95747500D03*
D28*
X163100000Y-97747500D03*
%TD*%
D29*
%TO.C,J4*%
X140796051Y-86460000D03*
D21*
X139000000Y-88256051D03*
X137203949Y-90052102D03*
%TD*%
D20*
%TO.C,J2*%
X170600000Y-96766250D03*
D21*
X170600000Y-99306250D03*
X170600000Y-101846250D03*
X170600000Y-104386250D03*
%TD*%
D20*
%TO.C,J7*%
X167660000Y-118270000D03*
D21*
X165120000Y-118270000D03*
X162580000Y-118270000D03*
X160040000Y-118270000D03*
X157500000Y-118270000D03*
%TD*%
D15*
%TO.C,C1*%
X154162500Y-117437500D03*
X154162500Y-119162500D03*
%TD*%
%TO.C,C6*%
X167100000Y-95885000D03*
X167100000Y-97610000D03*
%TD*%
D14*
%TO.C,R2*%
X138825000Y-97037500D03*
X140650000Y-97037500D03*
%TD*%
D30*
%TO.C,R1*%
X146462500Y-117387500D03*
X146462500Y-119212500D03*
%TD*%
D23*
%TO.C,C2*%
X148252500Y-109197500D03*
X149977500Y-109197500D03*
%TD*%
D20*
%TO.C,J3*%
X126260000Y-98910000D03*
D21*
X128800000Y-98910000D03*
X131340000Y-98910000D03*
%TD*%
D12*
%TO.C,C7*%
X149252500Y-105500000D03*
X147527500Y-105500000D03*
%TD*%
D31*
%TO.C,J6*%
X162796051Y-90000000D03*
D21*
X161000000Y-88203949D03*
X159203949Y-86407898D03*
%TD*%
D20*
%TO.C,J5*%
X152540000Y-84000000D03*
D21*
X150000000Y-84000000D03*
X147460000Y-84000000D03*
%TD*%
D20*
%TO.C,J1*%
X171900000Y-113980000D03*
D21*
X169360000Y-113980000D03*
X166820000Y-113980000D03*
X164280000Y-113980000D03*
%TD*%
D32*
%TO.C,R5*%
X166525000Y-105098750D03*
X164700000Y-105098750D03*
%TD*%
D33*
%TO.C,SW1*%
X152150000Y-118300000D03*
X148450000Y-118300000D03*
%TD*%
D25*
%TO.C,D1*%
X138862500Y-99937500D03*
X140612500Y-99937500D03*
%TD*%
M02*
