%TF.GenerationSoftware,KiCad,Pcbnew,9.0.6*%
%TF.CreationDate,2026-02-04T04:17:41+01:00*%
%TF.ProjectId,lidar,6c696461-722e-46b6-9963-61645f706362,rev?*%
%TF.SameCoordinates,Original*%
%TF.FileFunction,Legend,Top*%
%TF.FilePolarity,Positive*%
%FSLAX46Y46*%
G04 Gerber Fmt 4.6, Leading zero omitted, Abs format (unit mm)*
G04 Created by KiCad (PCBNEW 9.0.6) date 2026-02-04 04:17:41*
%MOMM*%
%LPD*%
G01*
G04 APERTURE LIST*
%ADD10C,0.153000*%
%ADD11C,0.120000*%
%ADD12C,0.100000*%
G04 APERTURE END LIST*
D10*
X156686666Y-93784663D02*
X156686666Y-94498948D01*
X156686666Y-94498948D02*
X156639047Y-94641805D01*
X156639047Y-94641805D02*
X156543809Y-94737044D01*
X156543809Y-94737044D02*
X156400952Y-94784663D01*
X156400952Y-94784663D02*
X156305714Y-94784663D01*
X157305714Y-94213234D02*
X157210476Y-94165615D01*
X157210476Y-94165615D02*
X157162857Y-94117996D01*
X157162857Y-94117996D02*
X157115238Y-94022758D01*
X157115238Y-94022758D02*
X157115238Y-93975139D01*
X157115238Y-93975139D02*
X157162857Y-93879901D01*
X157162857Y-93879901D02*
X157210476Y-93832282D01*
X157210476Y-93832282D02*
X157305714Y-93784663D01*
X157305714Y-93784663D02*
X157496190Y-93784663D01*
X157496190Y-93784663D02*
X157591428Y-93832282D01*
X157591428Y-93832282D02*
X157639047Y-93879901D01*
X157639047Y-93879901D02*
X157686666Y-93975139D01*
X157686666Y-93975139D02*
X157686666Y-94022758D01*
X157686666Y-94022758D02*
X157639047Y-94117996D01*
X157639047Y-94117996D02*
X157591428Y-94165615D01*
X157591428Y-94165615D02*
X157496190Y-94213234D01*
X157496190Y-94213234D02*
X157305714Y-94213234D01*
X157305714Y-94213234D02*
X157210476Y-94260853D01*
X157210476Y-94260853D02*
X157162857Y-94308472D01*
X157162857Y-94308472D02*
X157115238Y-94403710D01*
X157115238Y-94403710D02*
X157115238Y-94594186D01*
X157115238Y-94594186D02*
X157162857Y-94689424D01*
X157162857Y-94689424D02*
X157210476Y-94737044D01*
X157210476Y-94737044D02*
X157305714Y-94784663D01*
X157305714Y-94784663D02*
X157496190Y-94784663D01*
X157496190Y-94784663D02*
X157591428Y-94737044D01*
X157591428Y-94737044D02*
X157639047Y-94689424D01*
X157639047Y-94689424D02*
X157686666Y-94594186D01*
X157686666Y-94594186D02*
X157686666Y-94403710D01*
X157686666Y-94403710D02*
X157639047Y-94308472D01*
X157639047Y-94308472D02*
X157591428Y-94260853D01*
X157591428Y-94260853D02*
X157496190Y-94213234D01*
X135299405Y-98892163D02*
X135299405Y-97892163D01*
X135299405Y-97892163D02*
X135537500Y-97892163D01*
X135537500Y-97892163D02*
X135680357Y-97939782D01*
X135680357Y-97939782D02*
X135775595Y-98035020D01*
X135775595Y-98035020D02*
X135823214Y-98130258D01*
X135823214Y-98130258D02*
X135870833Y-98320734D01*
X135870833Y-98320734D02*
X135870833Y-98463591D01*
X135870833Y-98463591D02*
X135823214Y-98654067D01*
X135823214Y-98654067D02*
X135775595Y-98749305D01*
X135775595Y-98749305D02*
X135680357Y-98844544D01*
X135680357Y-98844544D02*
X135537500Y-98892163D01*
X135537500Y-98892163D02*
X135299405Y-98892163D01*
X136251786Y-97987401D02*
X136299405Y-97939782D01*
X136299405Y-97939782D02*
X136394643Y-97892163D01*
X136394643Y-97892163D02*
X136632738Y-97892163D01*
X136632738Y-97892163D02*
X136727976Y-97939782D01*
X136727976Y-97939782D02*
X136775595Y-97987401D01*
X136775595Y-97987401D02*
X136823214Y-98082639D01*
X136823214Y-98082639D02*
X136823214Y-98177877D01*
X136823214Y-98177877D02*
X136775595Y-98320734D01*
X136775595Y-98320734D02*
X136204167Y-98892163D01*
X136204167Y-98892163D02*
X136823214Y-98892163D01*
X167645714Y-108202282D02*
X167550476Y-108154663D01*
X167550476Y-108154663D02*
X167407619Y-108154663D01*
X167407619Y-108154663D02*
X167264762Y-108202282D01*
X167264762Y-108202282D02*
X167169524Y-108297520D01*
X167169524Y-108297520D02*
X167121905Y-108392758D01*
X167121905Y-108392758D02*
X167074286Y-108583234D01*
X167074286Y-108583234D02*
X167074286Y-108726091D01*
X167074286Y-108726091D02*
X167121905Y-108916567D01*
X167121905Y-108916567D02*
X167169524Y-109011805D01*
X167169524Y-109011805D02*
X167264762Y-109107044D01*
X167264762Y-109107044D02*
X167407619Y-109154663D01*
X167407619Y-109154663D02*
X167502857Y-109154663D01*
X167502857Y-109154663D02*
X167645714Y-109107044D01*
X167645714Y-109107044D02*
X167693333Y-109059424D01*
X167693333Y-109059424D02*
X167693333Y-108726091D01*
X167693333Y-108726091D02*
X167502857Y-108726091D01*
X168645714Y-109154663D02*
X168074286Y-109154663D01*
X168360000Y-109154663D02*
X168360000Y-108154663D01*
X168360000Y-108154663D02*
X168264762Y-108297520D01*
X168264762Y-108297520D02*
X168169524Y-108392758D01*
X168169524Y-108392758D02*
X168074286Y-108440377D01*
X142145631Y-84231749D02*
X142145631Y-84946034D01*
X142145631Y-84946034D02*
X142098012Y-85088891D01*
X142098012Y-85088891D02*
X142002774Y-85184130D01*
X142002774Y-85184130D02*
X141859917Y-85231749D01*
X141859917Y-85231749D02*
X141764679Y-85231749D01*
X143050393Y-84565082D02*
X143050393Y-85231749D01*
X142812298Y-84184130D02*
X142574203Y-84898415D01*
X142574203Y-84898415D02*
X143193250Y-84898415D01*
X170266666Y-93840913D02*
X170266666Y-94555198D01*
X170266666Y-94555198D02*
X170219047Y-94698055D01*
X170219047Y-94698055D02*
X170123809Y-94793294D01*
X170123809Y-94793294D02*
X169980952Y-94840913D01*
X169980952Y-94840913D02*
X169885714Y-94840913D01*
X170695238Y-93936151D02*
X170742857Y-93888532D01*
X170742857Y-93888532D02*
X170838095Y-93840913D01*
X170838095Y-93840913D02*
X171076190Y-93840913D01*
X171076190Y-93840913D02*
X171171428Y-93888532D01*
X171171428Y-93888532D02*
X171219047Y-93936151D01*
X171219047Y-93936151D02*
X171266666Y-94031389D01*
X171266666Y-94031389D02*
X171266666Y-94126627D01*
X171266666Y-94126627D02*
X171219047Y-94269484D01*
X171219047Y-94269484D02*
X170647619Y-94840913D01*
X170647619Y-94840913D02*
X171266666Y-94840913D01*
X169706666Y-117724663D02*
X169706666Y-118438948D01*
X169706666Y-118438948D02*
X169659047Y-118581805D01*
X169659047Y-118581805D02*
X169563809Y-118677044D01*
X169563809Y-118677044D02*
X169420952Y-118724663D01*
X169420952Y-118724663D02*
X169325714Y-118724663D01*
X170087619Y-117724663D02*
X170754285Y-117724663D01*
X170754285Y-117724663D02*
X170325714Y-118724663D01*
X123286666Y-98464663D02*
X123286666Y-99178948D01*
X123286666Y-99178948D02*
X123239047Y-99321805D01*
X123239047Y-99321805D02*
X123143809Y-99417044D01*
X123143809Y-99417044D02*
X123000952Y-99464663D01*
X123000952Y-99464663D02*
X122905714Y-99464663D01*
X123667619Y-98464663D02*
X124286666Y-98464663D01*
X124286666Y-98464663D02*
X123953333Y-98845615D01*
X123953333Y-98845615D02*
X124096190Y-98845615D01*
X124096190Y-98845615D02*
X124191428Y-98893234D01*
X124191428Y-98893234D02*
X124239047Y-98940853D01*
X124239047Y-98940853D02*
X124286666Y-99036091D01*
X124286666Y-99036091D02*
X124286666Y-99274186D01*
X124286666Y-99274186D02*
X124239047Y-99369424D01*
X124239047Y-99369424D02*
X124191428Y-99417044D01*
X124191428Y-99417044D02*
X124096190Y-99464663D01*
X124096190Y-99464663D02*
X123810476Y-99464663D01*
X123810476Y-99464663D02*
X123715238Y-99417044D01*
X123715238Y-99417044D02*
X123667619Y-99369424D01*
X164145631Y-91137577D02*
X164145631Y-91851862D01*
X164145631Y-91851862D02*
X164098012Y-91994719D01*
X164098012Y-91994719D02*
X164002774Y-92089958D01*
X164002774Y-92089958D02*
X163859917Y-92137577D01*
X163859917Y-92137577D02*
X163764679Y-92137577D01*
X165050393Y-91137577D02*
X164859917Y-91137577D01*
X164859917Y-91137577D02*
X164764679Y-91185196D01*
X164764679Y-91185196D02*
X164717060Y-91232815D01*
X164717060Y-91232815D02*
X164621822Y-91375672D01*
X164621822Y-91375672D02*
X164574203Y-91566148D01*
X164574203Y-91566148D02*
X164574203Y-91947100D01*
X164574203Y-91947100D02*
X164621822Y-92042338D01*
X164621822Y-92042338D02*
X164669441Y-92089958D01*
X164669441Y-92089958D02*
X164764679Y-92137577D01*
X164764679Y-92137577D02*
X164955155Y-92137577D01*
X164955155Y-92137577D02*
X165050393Y-92089958D01*
X165050393Y-92089958D02*
X165098012Y-92042338D01*
X165098012Y-92042338D02*
X165145631Y-91947100D01*
X165145631Y-91947100D02*
X165145631Y-91709005D01*
X165145631Y-91709005D02*
X165098012Y-91613767D01*
X165098012Y-91613767D02*
X165050393Y-91566148D01*
X165050393Y-91566148D02*
X164955155Y-91518529D01*
X164955155Y-91518529D02*
X164764679Y-91518529D01*
X164764679Y-91518529D02*
X164669441Y-91566148D01*
X164669441Y-91566148D02*
X164621822Y-91613767D01*
X164621822Y-91613767D02*
X164574203Y-91709005D01*
X154586666Y-83454663D02*
X154586666Y-84168948D01*
X154586666Y-84168948D02*
X154539047Y-84311805D01*
X154539047Y-84311805D02*
X154443809Y-84407044D01*
X154443809Y-84407044D02*
X154300952Y-84454663D01*
X154300952Y-84454663D02*
X154205714Y-84454663D01*
X155539047Y-83454663D02*
X155062857Y-83454663D01*
X155062857Y-83454663D02*
X155015238Y-83930853D01*
X155015238Y-83930853D02*
X155062857Y-83883234D01*
X155062857Y-83883234D02*
X155158095Y-83835615D01*
X155158095Y-83835615D02*
X155396190Y-83835615D01*
X155396190Y-83835615D02*
X155491428Y-83883234D01*
X155491428Y-83883234D02*
X155539047Y-83930853D01*
X155539047Y-83930853D02*
X155586666Y-84026091D01*
X155586666Y-84026091D02*
X155586666Y-84264186D01*
X155586666Y-84264186D02*
X155539047Y-84359424D01*
X155539047Y-84359424D02*
X155491428Y-84407044D01*
X155491428Y-84407044D02*
X155396190Y-84454663D01*
X155396190Y-84454663D02*
X155158095Y-84454663D01*
X155158095Y-84454663D02*
X155062857Y-84407044D01*
X155062857Y-84407044D02*
X155015238Y-84359424D01*
X173946666Y-113434663D02*
X173946666Y-114148948D01*
X173946666Y-114148948D02*
X173899047Y-114291805D01*
X173899047Y-114291805D02*
X173803809Y-114387044D01*
X173803809Y-114387044D02*
X173660952Y-114434663D01*
X173660952Y-114434663D02*
X173565714Y-114434663D01*
X174946666Y-114434663D02*
X174375238Y-114434663D01*
X174660952Y-114434663D02*
X174660952Y-113434663D01*
X174660952Y-113434663D02*
X174565714Y-113577520D01*
X174565714Y-113577520D02*
X174470476Y-113672758D01*
X174470476Y-113672758D02*
X174375238Y-113720377D01*
X138999405Y-98892163D02*
X138999405Y-97892163D01*
X138999405Y-97892163D02*
X139237500Y-97892163D01*
X139237500Y-97892163D02*
X139380357Y-97939782D01*
X139380357Y-97939782D02*
X139475595Y-98035020D01*
X139475595Y-98035020D02*
X139523214Y-98130258D01*
X139523214Y-98130258D02*
X139570833Y-98320734D01*
X139570833Y-98320734D02*
X139570833Y-98463591D01*
X139570833Y-98463591D02*
X139523214Y-98654067D01*
X139523214Y-98654067D02*
X139475595Y-98749305D01*
X139475595Y-98749305D02*
X139380357Y-98844544D01*
X139380357Y-98844544D02*
X139237500Y-98892163D01*
X139237500Y-98892163D02*
X138999405Y-98892163D01*
X140523214Y-98892163D02*
X139951786Y-98892163D01*
X140237500Y-98892163D02*
X140237500Y-97892163D01*
X140237500Y-97892163D02*
X140142262Y-98035020D01*
X140142262Y-98035020D02*
X140047024Y-98130258D01*
X140047024Y-98130258D02*
X139951786Y-98177877D01*
D11*
%TO.C,U2*%
X147290000Y-102010000D02*
X147290000Y-101750000D01*
X147290000Y-102010000D02*
X147550000Y-102010000D01*
X152710000Y-97990000D02*
X152450000Y-97990000D01*
X152710000Y-97990000D02*
X152710000Y-98250000D01*
X152710000Y-102010000D02*
X152450000Y-102010000D01*
X152710000Y-102010000D02*
X152710000Y-101750000D01*
D12*
X147290000Y-97990000D02*
X146930000Y-97990000D01*
X147290000Y-97630000D01*
X147290000Y-97990000D01*
G36*
X147290000Y-97990000D02*
G01*
X146930000Y-97990000D01*
X147290000Y-97630000D01*
X147290000Y-97990000D01*
G37*
D11*
%TO.C,C9*%
X151046267Y-91190000D02*
X150753733Y-91190000D01*
X151046267Y-92210000D02*
X150753733Y-92210000D01*
%TO.C,Y2*%
X149675000Y-93125000D02*
X148325000Y-93125000D01*
X149675000Y-94875000D02*
X148325000Y-94875000D01*
%TO.C,R3*%
X135732776Y-96515000D02*
X136242224Y-96515000D01*
X135732776Y-97560000D02*
X136242224Y-97560000D01*
%TO.C,C8*%
X143490000Y-98741233D02*
X143490000Y-99033767D01*
X144510000Y-98741233D02*
X144510000Y-99033767D01*
%TO.C,U1*%
X128227500Y-104290000D02*
X128802500Y-104290000D01*
X128227500Y-104865000D02*
X128227500Y-104290000D01*
X128227500Y-118510000D02*
X128227500Y-117935000D01*
X128802500Y-118510000D02*
X128227500Y-118510000D01*
X141872500Y-104290000D02*
X142447500Y-104290000D01*
X142447500Y-104290000D02*
X142447500Y-104865000D01*
X142447500Y-117935000D02*
X142447500Y-118510000D01*
X142447500Y-118510000D02*
X141872500Y-118510000D01*
X128797500Y-119150000D02*
X128327500Y-119490000D01*
X128327500Y-118810000D01*
X128797500Y-119150000D01*
G36*
X128797500Y-119150000D02*
G01*
X128327500Y-119490000D01*
X128327500Y-118810000D01*
X128797500Y-119150000D01*
G37*
%TO.C,R4*%
X166577500Y-102390974D02*
X166577500Y-101881526D01*
X167622500Y-102390974D02*
X167622500Y-101881526D01*
%TO.C,C3*%
X151577500Y-112333767D02*
X151577500Y-112041233D01*
X152597500Y-112333767D02*
X152597500Y-112041233D01*
%TO.C,J8*%
X155640000Y-95330000D02*
X157020000Y-95330000D01*
X155640000Y-96710000D02*
X155640000Y-95330000D01*
X155640000Y-97980000D02*
X155640000Y-105710000D01*
X155640000Y-97980000D02*
X158400000Y-97980000D01*
X155640000Y-105710000D02*
X158400000Y-105710000D01*
X158400000Y-97980000D02*
X158400000Y-105710000D01*
%TO.C,Q1*%
X162440000Y-100556250D02*
X162440000Y-101486250D01*
X162440000Y-100556250D02*
X163900000Y-100556250D01*
X162440000Y-103716250D02*
X162440000Y-102786250D01*
X163240000Y-103716250D02*
X162440000Y-103716250D01*
X163240000Y-103716250D02*
X164040000Y-103716250D01*
X164780000Y-104076250D02*
X164300000Y-104076250D01*
X164540000Y-103746250D01*
X164780000Y-104076250D01*
G36*
X164780000Y-104076250D02*
G01*
X164300000Y-104076250D01*
X164540000Y-103746250D01*
X164780000Y-104076250D01*
G37*
%TO.C,C10*%
X146953733Y-91190000D02*
X147246267Y-91190000D01*
X146953733Y-92210000D02*
X147246267Y-92210000D01*
%TO.C,C4*%
X131042802Y-123094051D02*
X130835949Y-122887198D01*
X131764051Y-122372802D02*
X131557198Y-122165949D01*
%TO.C,D2*%
X134377500Y-99202500D02*
X134377500Y-100672500D01*
X134377500Y-100672500D02*
X136837500Y-100672500D01*
X136837500Y-99202500D02*
X134377500Y-99202500D01*
%TO.C,R6*%
X173577500Y-100860974D02*
X173577500Y-100351526D01*
X174622500Y-100860974D02*
X174622500Y-100351526D01*
%TO.C,G1*%
X153940000Y-107320000D02*
X153940000Y-110080000D01*
X164210000Y-107320000D02*
X153940000Y-107320000D01*
X164210000Y-107320000D02*
X164210000Y-110080000D01*
X164210000Y-110080000D02*
X153940000Y-110080000D01*
X165480000Y-107320000D02*
X166860000Y-107320000D01*
X166860000Y-107320000D02*
X166860000Y-108700000D01*
%TO.C,C5*%
X162060000Y-96747500D02*
X160520000Y-96747500D01*
X162060000Y-96787500D02*
X160520000Y-96787500D01*
X162060000Y-96827500D02*
X160521000Y-96827500D01*
X162060000Y-96867500D02*
X160523000Y-96867500D01*
X162060000Y-96907500D02*
X160525000Y-96907500D01*
X162060000Y-96947500D02*
X160528000Y-96947500D01*
X162060000Y-96987500D02*
X160531000Y-96987500D01*
X162060000Y-97027500D02*
X160535000Y-97027500D01*
X162060000Y-97067500D02*
X160540000Y-97067500D01*
X162060000Y-97107500D02*
X160545000Y-97107500D01*
X162060000Y-97147500D02*
X160551000Y-97147500D01*
X162060000Y-97187500D02*
X160557000Y-97187500D01*
X162060000Y-97227500D02*
X160564000Y-97227500D01*
X162060000Y-97267500D02*
X160572000Y-97267500D01*
X162060000Y-97307500D02*
X160581000Y-97307500D01*
X162060000Y-97347500D02*
X160590000Y-97347500D01*
X162060000Y-97387500D02*
X160599000Y-97387500D01*
X162060000Y-97427500D02*
X160610000Y-97427500D01*
X162060000Y-97467500D02*
X160621000Y-97467500D01*
X162060000Y-97507500D02*
X160633000Y-97507500D01*
X162060000Y-97547500D02*
X160645000Y-97547500D01*
X162060000Y-97587500D02*
X160658000Y-97587500D01*
X162060000Y-97627500D02*
X160672000Y-97627500D01*
X162060000Y-97667500D02*
X160687000Y-97667500D01*
X162060000Y-97707500D02*
X160702000Y-97707500D01*
X162060000Y-97747500D02*
X160718000Y-97747500D01*
X162060000Y-97787500D02*
X160735000Y-97787500D01*
X162060000Y-97827500D02*
X160753000Y-97827500D01*
X162060000Y-97867500D02*
X160771000Y-97867500D01*
X162060000Y-97907500D02*
X160791000Y-97907500D01*
X162060000Y-97947500D02*
X160811000Y-97947500D01*
X162060000Y-97987500D02*
X160832000Y-97987500D01*
X162060000Y-98027500D02*
X160854000Y-98027500D01*
X162060000Y-98067500D02*
X160877000Y-98067500D01*
X162060000Y-98107500D02*
X160901000Y-98107500D01*
X162060000Y-98147500D02*
X160925000Y-98147500D01*
X162060000Y-98187500D02*
X160951000Y-98187500D01*
X162060000Y-98227500D02*
X160978000Y-98227500D01*
X162060000Y-98267500D02*
X161006000Y-98267500D01*
X162060000Y-98307500D02*
X161035000Y-98307500D01*
X162060000Y-98347500D02*
X161065000Y-98347500D01*
X162060000Y-98387500D02*
X161097000Y-98387500D01*
X162060000Y-98427500D02*
X161130000Y-98427500D01*
X162060000Y-98467500D02*
X161164000Y-98467500D01*
X162060000Y-98507500D02*
X161199000Y-98507500D01*
X162060000Y-98547500D02*
X161236000Y-98547500D01*
X162060000Y-98587500D02*
X161275000Y-98587500D01*
X162060000Y-98627500D02*
X161315000Y-98627500D01*
X162060000Y-98667500D02*
X161357000Y-98667500D01*
X162060000Y-98707500D02*
X161401000Y-98707500D01*
X162060000Y-98747500D02*
X161448000Y-98747500D01*
X163383000Y-99347500D02*
X162817000Y-99347500D01*
X163617000Y-99307500D02*
X162583000Y-99307500D01*
X163777000Y-99267500D02*
X162423000Y-99267500D01*
X163905000Y-99227500D02*
X162295000Y-99227500D01*
X164014000Y-99187500D02*
X162186000Y-99187500D01*
X164111000Y-99147500D02*
X162089000Y-99147500D01*
X164198000Y-99107500D02*
X162002000Y-99107500D01*
X164277000Y-99067500D02*
X161923000Y-99067500D01*
X164351000Y-99027500D02*
X161849000Y-99027500D01*
X164419000Y-98987500D02*
X161781000Y-98987500D01*
X164483000Y-98947500D02*
X161717000Y-98947500D01*
X164543000Y-98907500D02*
X161657000Y-98907500D01*
X164575000Y-93942725D02*
X164575000Y-94442725D01*
X164599000Y-98867500D02*
X161601000Y-98867500D01*
X164653000Y-98827500D02*
X161547000Y-98827500D01*
X164704000Y-98787500D02*
X161496000Y-98787500D01*
X164752000Y-98747500D02*
X164140000Y-98747500D01*
X164799000Y-98707500D02*
X164140000Y-98707500D01*
X164825000Y-94192725D02*
X164325000Y-94192725D01*
X164843000Y-98667500D02*
X164140000Y-98667500D01*
X164885000Y-98627500D02*
X164140000Y-98627500D01*
X164925000Y-98587500D02*
X164140000Y-98587500D01*
X164964000Y-98547500D02*
X164140000Y-98547500D01*
X165001000Y-98507500D02*
X164140000Y-98507500D01*
X165036000Y-98467500D02*
X164140000Y-98467500D01*
X165070000Y-98427500D02*
X164140000Y-98427500D01*
X165103000Y-98387500D02*
X164140000Y-98387500D01*
X165135000Y-98347500D02*
X164140000Y-98347500D01*
X165165000Y-98307500D02*
X164140000Y-98307500D01*
X165194000Y-98267500D02*
X164140000Y-98267500D01*
X165222000Y-98227500D02*
X164140000Y-98227500D01*
X165249000Y-98187500D02*
X164140000Y-98187500D01*
X165275000Y-98147500D02*
X164140000Y-98147500D01*
X165299000Y-98107500D02*
X164140000Y-98107500D01*
X165323000Y-98067500D02*
X164140000Y-98067500D01*
X165346000Y-98027500D02*
X164140000Y-98027500D01*
X165368000Y-97987500D02*
X164140000Y-97987500D01*
X165389000Y-97947500D02*
X164140000Y-97947500D01*
X165409000Y-97907500D02*
X164140000Y-97907500D01*
X165429000Y-97867500D02*
X164140000Y-97867500D01*
X165447000Y-97827500D02*
X164140000Y-97827500D01*
X165465000Y-97787500D02*
X164140000Y-97787500D01*
X165482000Y-97747500D02*
X164140000Y-97747500D01*
X165498000Y-97707500D02*
X164140000Y-97707500D01*
X165513000Y-97667500D02*
X164140000Y-97667500D01*
X165528000Y-97627500D02*
X164140000Y-97627500D01*
X165542000Y-97587500D02*
X164140000Y-97587500D01*
X165555000Y-97547500D02*
X164140000Y-97547500D01*
X165567000Y-97507500D02*
X164140000Y-97507500D01*
X165579000Y-97467500D02*
X164140000Y-97467500D01*
X165590000Y-97427500D02*
X164140000Y-97427500D01*
X165601000Y-97387500D02*
X164140000Y-97387500D01*
X165610000Y-97347500D02*
X164140000Y-97347500D01*
X165619000Y-97307500D02*
X164140000Y-97307500D01*
X165628000Y-97267500D02*
X164140000Y-97267500D01*
X165636000Y-97227500D02*
X164140000Y-97227500D01*
X165643000Y-97187500D02*
X164140000Y-97187500D01*
X165649000Y-97147500D02*
X164140000Y-97147500D01*
X165655000Y-97107500D02*
X164140000Y-97107500D01*
X165660000Y-97067500D02*
X164140000Y-97067500D01*
X165665000Y-97027500D02*
X164140000Y-97027500D01*
X165669000Y-96987500D02*
X164140000Y-96987500D01*
X165672000Y-96947500D02*
X164140000Y-96947500D01*
X165675000Y-96907500D02*
X164140000Y-96907500D01*
X165677000Y-96867500D02*
X164140000Y-96867500D01*
X165679000Y-96827500D02*
X164140000Y-96827500D01*
X165680000Y-96747500D02*
X164140000Y-96747500D01*
X165680000Y-96787500D02*
X164140000Y-96787500D01*
X165720000Y-96747500D02*
G75*
G02*
X160480000Y-96747500I-2620000J0D01*
G01*
X160480000Y-96747500D02*
G75*
G02*
X165720000Y-96747500I2620000J0D01*
G01*
%TO.C,J4*%
X135252334Y-90052102D02*
X137203949Y-92003717D01*
X138922218Y-86382218D02*
X135252334Y-90052102D01*
X138922218Y-86382218D02*
X140873833Y-88333833D01*
X139820244Y-85484193D02*
X140796051Y-84508385D01*
X140796051Y-84508385D02*
X141771858Y-85484193D01*
X140873833Y-88333833D02*
X137203949Y-92003717D01*
%TO.C,J2*%
X169220000Y-95386250D02*
X170600000Y-95386250D01*
X169220000Y-96766250D02*
X169220000Y-95386250D01*
X169220000Y-98036250D02*
X169220000Y-105766250D01*
X169220000Y-98036250D02*
X171980000Y-98036250D01*
X169220000Y-105766250D02*
X171980000Y-105766250D01*
X171980000Y-98036250D02*
X171980000Y-105766250D01*
%TO.C,J7*%
X156120000Y-116890000D02*
X156120000Y-119650000D01*
X166390000Y-116890000D02*
X156120000Y-116890000D01*
X166390000Y-116890000D02*
X166390000Y-119650000D01*
X166390000Y-119650000D02*
X156120000Y-119650000D01*
X167660000Y-116890000D02*
X169040000Y-116890000D01*
X169040000Y-116890000D02*
X169040000Y-118270000D01*
%TO.C,C1*%
X153652500Y-118153733D02*
X153652500Y-118446267D01*
X154672500Y-118153733D02*
X154672500Y-118446267D01*
%TO.C,C6*%
X166590000Y-96601233D02*
X166590000Y-96893767D01*
X167610000Y-96601233D02*
X167610000Y-96893767D01*
%TO.C,R2*%
X139482776Y-96515000D02*
X139992224Y-96515000D01*
X139482776Y-97560000D02*
X139992224Y-97560000D01*
%TO.C,R1*%
X145940000Y-118045276D02*
X145940000Y-118554724D01*
X146985000Y-118045276D02*
X146985000Y-118554724D01*
%TO.C,C2*%
X148968733Y-108687500D02*
X149261267Y-108687500D01*
X148968733Y-109707500D02*
X149261267Y-109707500D01*
%TO.C,J3*%
X124880000Y-100290000D02*
X124880000Y-98910000D01*
X126260000Y-100290000D02*
X124880000Y-100290000D01*
X127530000Y-97530000D02*
X132720000Y-97530000D01*
X127530000Y-100290000D02*
X127530000Y-97530000D01*
X127530000Y-100290000D02*
X132720000Y-100290000D01*
X132720000Y-100290000D02*
X132720000Y-97530000D01*
%TO.C,C7*%
X148536267Y-104990000D02*
X148243733Y-104990000D01*
X148536267Y-106010000D02*
X148243733Y-106010000D01*
%TO.C,J6*%
X159203949Y-84456283D02*
X157252334Y-86407898D01*
X160922218Y-90077782D02*
X157252334Y-86407898D01*
X162873833Y-88126167D02*
X159203949Y-84456283D01*
X162873833Y-88126167D02*
X160922218Y-90077782D01*
X163771858Y-89024193D02*
X164747666Y-90000000D01*
X164747666Y-90000000D02*
X163771858Y-90975807D01*
%TO.C,J5*%
X146080000Y-82620000D02*
X146080000Y-85380000D01*
X151270000Y-82620000D02*
X146080000Y-82620000D01*
X151270000Y-82620000D02*
X151270000Y-85380000D01*
X151270000Y-85380000D02*
X146080000Y-85380000D01*
X152540000Y-82620000D02*
X153920000Y-82620000D01*
X153920000Y-82620000D02*
X153920000Y-84000000D01*
%TO.C,J1*%
X162900000Y-112600000D02*
X162900000Y-115360000D01*
X170630000Y-112600000D02*
X162900000Y-112600000D01*
X170630000Y-112600000D02*
X170630000Y-115360000D01*
X170630000Y-115360000D02*
X162900000Y-115360000D01*
X171900000Y-112600000D02*
X173280000Y-112600000D01*
X173280000Y-112600000D02*
X173280000Y-113980000D01*
%TO.C,R5*%
X165867224Y-104576250D02*
X165357776Y-104576250D01*
X165867224Y-105621250D02*
X165357776Y-105621250D01*
D12*
%TO.C,SW1*%
X148700000Y-116950000D02*
X148700000Y-117150000D01*
X148700000Y-116950000D02*
X151900000Y-116950000D01*
X148700000Y-119650000D02*
X148700000Y-119450000D01*
X151900000Y-116950000D02*
X151900000Y-117150000D01*
X151900000Y-119650000D02*
X148700000Y-119650000D01*
X151900000Y-119650000D02*
X151900000Y-119450000D01*
D11*
%TO.C,D1*%
X138077500Y-99202500D02*
X138077500Y-100672500D01*
X138077500Y-100672500D02*
X140537500Y-100672500D01*
X140537500Y-99202500D02*
X138077500Y-99202500D01*
%TD*%
M02*
