%TF.GenerationSoftware,KiCad,Pcbnew,9.0.7-1.fc42*%
%TF.CreationDate,2026-02-03T17:14:12+01:00*%
%TF.ProjectId,air_sensor,6169725f-7365-46e7-936f-722e6b696361,rev?*%
%TF.SameCoordinates,Original*%
%TF.FileFunction,Paste,Top*%
%TF.FilePolarity,Positive*%
%FSLAX46Y46*%
G04 Gerber Fmt 4.6, Leading zero omitted, Abs format (unit mm)*
G04 Created by KiCad (PCBNEW 9.0.7-1.fc42) date 2026-02-03 17:14:12*
%MOMM*%
%LPD*%
G01*
G04 APERTURE LIST*
G04 Aperture macros list*
%AMRoundRect*
0 Rectangle with rounded corners*
0 $1 Rounding radius*
0 $2 $3 $4 $5 $6 $7 $8 $9 X,Y pos of 4 corners*
0 Add a 4 corners polygon primitive as box body*
4,1,4,$2,$3,$4,$5,$6,$7,$8,$9,$2,$3,0*
0 Add four circle primitives for the rounded corners*
1,1,$1+$1,$2,$3*
1,1,$1+$1,$4,$5*
1,1,$1+$1,$6,$7*
1,1,$1+$1,$8,$9*
0 Add four rect primitives between the rounded corners*
20,1,$1+$1,$2,$3,$4,$5,0*
20,1,$1+$1,$4,$5,$6,$7,0*
20,1,$1+$1,$6,$7,$8,$9,0*
20,1,$1+$1,$8,$9,$2,$3,0*%
G04 Aperture macros list end*
%ADD10RoundRect,0.142500X0.357500X-0.332500X0.357500X0.332500X-0.357500X0.332500X-0.357500X-0.332500X0*%
%ADD11RoundRect,0.090000X-0.947500X-0.210000X0.947500X-0.210000X0.947500X0.210000X-0.947500X0.210000X0*%
%ADD12RoundRect,0.088500X-0.949000X-0.206500X0.949000X-0.206500X0.949000X0.206500X-0.949000X0.206500X0*%
%ADD13RoundRect,0.091500X-0.946000X-0.213500X0.946000X-0.213500X0.946000X0.213500X-0.946000X0.213500X0*%
%ADD14RoundRect,0.082500X-0.192500X-0.667500X0.192500X-0.667500X0.192500X0.667500X-0.192500X0.667500X0*%
%ADD15R,0.350000X0.350000*%
%ADD16RoundRect,0.142500X0.332500X0.357500X-0.332500X0.357500X-0.332500X-0.357500X0.332500X-0.357500X0*%
%ADD17RoundRect,0.142500X-0.332500X-0.357500X0.332500X-0.357500X0.332500X0.357500X-0.332500X0.357500X0*%
%ADD18C,6.000000*%
G04 APERTURE END LIST*
D10*
%TO.C,C31*%
X116000000Y-78600000D03*
X116000000Y-77000000D03*
%TD*%
D11*
%TO.C,U7*%
X118800000Y-116050000D03*
X118800000Y-117320000D03*
X118800000Y-118590000D03*
D12*
X118800000Y-119855000D03*
D11*
X118800000Y-121120000D03*
X118800000Y-122390000D03*
D12*
X118800000Y-123655000D03*
D11*
X124725000Y-123660000D03*
X124725000Y-122390000D03*
X124725000Y-121120000D03*
X124725000Y-119850000D03*
X124725000Y-118580000D03*
X124725000Y-117310000D03*
D13*
X124725000Y-116045000D03*
%TD*%
D10*
%TO.C,C21*%
X120000000Y-113300000D03*
X120000000Y-111700000D03*
%TD*%
D14*
%TO.C,U8*%
X118190000Y-95200000D03*
X119460000Y-95200000D03*
X120730000Y-95200000D03*
X122000000Y-95200000D03*
X123270000Y-95200000D03*
X124540000Y-95200000D03*
X125810000Y-95200000D03*
X125800000Y-89800000D03*
X124530000Y-89800000D03*
X123260000Y-89800000D03*
X121990000Y-89800000D03*
X120730000Y-89800000D03*
X119460000Y-89800000D03*
X118190000Y-89800000D03*
%TD*%
D15*
%TO.C,S3*%
X202040000Y-86000000D03*
X202690000Y-86000000D03*
X203340000Y-86000000D03*
X204000000Y-86000000D03*
X204000000Y-87960000D03*
X203350000Y-87960000D03*
X202700000Y-87960000D03*
X202040000Y-87960000D03*
%TD*%
D10*
%TO.C,C22*%
X122000000Y-113300000D03*
X122000000Y-111700000D03*
%TD*%
D16*
%TO.C,C19*%
X203000000Y-83000000D03*
X201400000Y-83000000D03*
%TD*%
D17*
%TO.C,C20*%
X201400000Y-80500000D03*
X203000000Y-80500000D03*
%TD*%
D18*
%TO.C,REF\u002A\u002A*%
X194000000Y-79000000D03*
X134000000Y-79000000D03*
X153000000Y-134000000D03*
%TD*%
D17*
%TO.C,R1*%
X202700000Y-111000000D03*
X204300000Y-111000000D03*
%TD*%
M02*
