%TF.GenerationSoftware,KiCad,Pcbnew,9.0.7-1.fc42*%
%TF.CreationDate,2026-02-03T17:14:13+01:00*%
%TF.ProjectId,air_sensor,6169725f-7365-46e7-936f-722e6b696361,rev?*%
%TF.SameCoordinates,Original*%
%TF.FileFunction,Legend,Top*%
%TF.FilePolarity,Positive*%
%FSLAX46Y46*%
G04 Gerber Fmt 4.6, Leading zero omitted, Abs format (unit mm)*
G04 Created by KiCad (PCBNEW 9.0.7-1.fc42) date 2026-02-03 17:14:13*
%MOMM*%
%LPD*%
G01*
G04 APERTURE LIST*
%ADD10C,0.100000*%
%ADD11C,0.150000*%
G04 APERTURE END LIST*
D10*
X114862180Y-78442857D02*
X114909800Y-78490476D01*
X114909800Y-78490476D02*
X114957419Y-78633333D01*
X114957419Y-78633333D02*
X114957419Y-78728571D01*
X114957419Y-78728571D02*
X114909800Y-78871428D01*
X114909800Y-78871428D02*
X114814561Y-78966666D01*
X114814561Y-78966666D02*
X114719323Y-79014285D01*
X114719323Y-79014285D02*
X114528847Y-79061904D01*
X114528847Y-79061904D02*
X114385990Y-79061904D01*
X114385990Y-79061904D02*
X114195514Y-79014285D01*
X114195514Y-79014285D02*
X114100276Y-78966666D01*
X114100276Y-78966666D02*
X114005038Y-78871428D01*
X114005038Y-78871428D02*
X113957419Y-78728571D01*
X113957419Y-78728571D02*
X113957419Y-78633333D01*
X113957419Y-78633333D02*
X114005038Y-78490476D01*
X114005038Y-78490476D02*
X114052657Y-78442857D01*
X113957419Y-78109523D02*
X113957419Y-77490476D01*
X113957419Y-77490476D02*
X114338371Y-77823809D01*
X114338371Y-77823809D02*
X114338371Y-77680952D01*
X114338371Y-77680952D02*
X114385990Y-77585714D01*
X114385990Y-77585714D02*
X114433609Y-77538095D01*
X114433609Y-77538095D02*
X114528847Y-77490476D01*
X114528847Y-77490476D02*
X114766942Y-77490476D01*
X114766942Y-77490476D02*
X114862180Y-77538095D01*
X114862180Y-77538095D02*
X114909800Y-77585714D01*
X114909800Y-77585714D02*
X114957419Y-77680952D01*
X114957419Y-77680952D02*
X114957419Y-77966666D01*
X114957419Y-77966666D02*
X114909800Y-78061904D01*
X114909800Y-78061904D02*
X114862180Y-78109523D01*
X114957419Y-76538095D02*
X114957419Y-77109523D01*
X114957419Y-76823809D02*
X113957419Y-76823809D01*
X113957419Y-76823809D02*
X114100276Y-76919047D01*
X114100276Y-76919047D02*
X114195514Y-77014285D01*
X114195514Y-77014285D02*
X114243133Y-77109523D01*
X117502580Y-127666666D02*
X116788295Y-127666666D01*
X116788295Y-127666666D02*
X116645438Y-127619047D01*
X116645438Y-127619047D02*
X116550200Y-127523809D01*
X116550200Y-127523809D02*
X116502580Y-127380952D01*
X116502580Y-127380952D02*
X116502580Y-127285714D01*
X117169247Y-128571428D02*
X116502580Y-128571428D01*
X117550200Y-128333333D02*
X116835914Y-128095238D01*
X116835914Y-128095238D02*
X116835914Y-128714285D01*
D11*
X121742561Y-130060588D02*
X121790180Y-129965350D01*
X121790180Y-129965350D02*
X121790180Y-129822493D01*
X121790180Y-129822493D02*
X121742561Y-129679636D01*
X121742561Y-129679636D02*
X121647323Y-129584398D01*
X121647323Y-129584398D02*
X121552085Y-129536779D01*
X121552085Y-129536779D02*
X121361609Y-129489160D01*
X121361609Y-129489160D02*
X121218752Y-129489160D01*
X121218752Y-129489160D02*
X121028276Y-129536779D01*
X121028276Y-129536779D02*
X120933038Y-129584398D01*
X120933038Y-129584398D02*
X120837800Y-129679636D01*
X120837800Y-129679636D02*
X120790180Y-129822493D01*
X120790180Y-129822493D02*
X120790180Y-129917731D01*
X120790180Y-129917731D02*
X120837800Y-130060588D01*
X120837800Y-130060588D02*
X120885419Y-130108207D01*
X120885419Y-130108207D02*
X121218752Y-130108207D01*
X121218752Y-130108207D02*
X121218752Y-129917731D01*
X120790180Y-130536779D02*
X121790180Y-130536779D01*
X121790180Y-130536779D02*
X120790180Y-131108207D01*
X120790180Y-131108207D02*
X121790180Y-131108207D01*
X120790180Y-131584398D02*
X121790180Y-131584398D01*
X121790180Y-131584398D02*
X121790180Y-131822493D01*
X121790180Y-131822493D02*
X121742561Y-131965350D01*
X121742561Y-131965350D02*
X121647323Y-132060588D01*
X121647323Y-132060588D02*
X121552085Y-132108207D01*
X121552085Y-132108207D02*
X121361609Y-132155826D01*
X121361609Y-132155826D02*
X121218752Y-132155826D01*
X121218752Y-132155826D02*
X121028276Y-132108207D01*
X121028276Y-132108207D02*
X120933038Y-132060588D01*
X120933038Y-132060588D02*
X120837800Y-131965350D01*
X120837800Y-131965350D02*
X120790180Y-131822493D01*
X120790180Y-131822493D02*
X120790180Y-131584398D01*
X119390180Y-129393922D02*
X118390180Y-129727255D01*
X118390180Y-129727255D02*
X119390180Y-130060588D01*
X118485419Y-130965350D02*
X118437800Y-130917731D01*
X118437800Y-130917731D02*
X118390180Y-130774874D01*
X118390180Y-130774874D02*
X118390180Y-130679636D01*
X118390180Y-130679636D02*
X118437800Y-130536779D01*
X118437800Y-130536779D02*
X118533038Y-130441541D01*
X118533038Y-130441541D02*
X118628276Y-130393922D01*
X118628276Y-130393922D02*
X118818752Y-130346303D01*
X118818752Y-130346303D02*
X118961609Y-130346303D01*
X118961609Y-130346303D02*
X119152085Y-130393922D01*
X119152085Y-130393922D02*
X119247323Y-130441541D01*
X119247323Y-130441541D02*
X119342561Y-130536779D01*
X119342561Y-130536779D02*
X119390180Y-130679636D01*
X119390180Y-130679636D02*
X119390180Y-130774874D01*
X119390180Y-130774874D02*
X119342561Y-130917731D01*
X119342561Y-130917731D02*
X119294942Y-130965350D01*
X118485419Y-131965350D02*
X118437800Y-131917731D01*
X118437800Y-131917731D02*
X118390180Y-131774874D01*
X118390180Y-131774874D02*
X118390180Y-131679636D01*
X118390180Y-131679636D02*
X118437800Y-131536779D01*
X118437800Y-131536779D02*
X118533038Y-131441541D01*
X118533038Y-131441541D02*
X118628276Y-131393922D01*
X118628276Y-131393922D02*
X118818752Y-131346303D01*
X118818752Y-131346303D02*
X118961609Y-131346303D01*
X118961609Y-131346303D02*
X119152085Y-131393922D01*
X119152085Y-131393922D02*
X119247323Y-131441541D01*
X119247323Y-131441541D02*
X119342561Y-131536779D01*
X119342561Y-131536779D02*
X119390180Y-131679636D01*
X119390180Y-131679636D02*
X119390180Y-131774874D01*
X119390180Y-131774874D02*
X119342561Y-131917731D01*
X119342561Y-131917731D02*
X119294942Y-131965350D01*
X124590180Y-129536779D02*
X123780657Y-129536779D01*
X123780657Y-129536779D02*
X123685419Y-129584398D01*
X123685419Y-129584398D02*
X123637800Y-129632017D01*
X123637800Y-129632017D02*
X123590180Y-129727255D01*
X123590180Y-129727255D02*
X123590180Y-129917731D01*
X123590180Y-129917731D02*
X123637800Y-130012969D01*
X123637800Y-130012969D02*
X123685419Y-130060588D01*
X123685419Y-130060588D02*
X123780657Y-130108207D01*
X123780657Y-130108207D02*
X124590180Y-130108207D01*
X123590180Y-130584398D02*
X124590180Y-130584398D01*
X124590180Y-130584398D02*
X124590180Y-130965350D01*
X124590180Y-130965350D02*
X124542561Y-131060588D01*
X124542561Y-131060588D02*
X124494942Y-131108207D01*
X124494942Y-131108207D02*
X124399704Y-131155826D01*
X124399704Y-131155826D02*
X124256847Y-131155826D01*
X124256847Y-131155826D02*
X124161609Y-131108207D01*
X124161609Y-131108207D02*
X124113990Y-131060588D01*
X124113990Y-131060588D02*
X124066371Y-130965350D01*
X124066371Y-130965350D02*
X124066371Y-130584398D01*
X123590180Y-131584398D02*
X124590180Y-131584398D01*
X124590180Y-131584398D02*
X124590180Y-131822493D01*
X124590180Y-131822493D02*
X124542561Y-131965350D01*
X124542561Y-131965350D02*
X124447323Y-132060588D01*
X124447323Y-132060588D02*
X124352085Y-132108207D01*
X124352085Y-132108207D02*
X124161609Y-132155826D01*
X124161609Y-132155826D02*
X124018752Y-132155826D01*
X124018752Y-132155826D02*
X123828276Y-132108207D01*
X123828276Y-132108207D02*
X123733038Y-132060588D01*
X123733038Y-132060588D02*
X123637800Y-131965350D01*
X123637800Y-131965350D02*
X123590180Y-131822493D01*
X123590180Y-131822493D02*
X123590180Y-131584398D01*
X123590180Y-132584398D02*
X124590180Y-132584398D01*
X117107680Y-120088095D02*
X116298157Y-120088095D01*
X116298157Y-120088095D02*
X116202919Y-120135714D01*
X116202919Y-120135714D02*
X116155300Y-120183333D01*
X116155300Y-120183333D02*
X116107680Y-120278571D01*
X116107680Y-120278571D02*
X116107680Y-120469047D01*
X116107680Y-120469047D02*
X116155300Y-120564285D01*
X116155300Y-120564285D02*
X116202919Y-120611904D01*
X116202919Y-120611904D02*
X116298157Y-120659523D01*
X116298157Y-120659523D02*
X117107680Y-120659523D01*
X117107680Y-121040476D02*
X117107680Y-121707142D01*
X117107680Y-121707142D02*
X116107680Y-121278571D01*
X118859580Y-113142857D02*
X118907200Y-113190476D01*
X118907200Y-113190476D02*
X118954819Y-113333333D01*
X118954819Y-113333333D02*
X118954819Y-113428571D01*
X118954819Y-113428571D02*
X118907200Y-113571428D01*
X118907200Y-113571428D02*
X118811961Y-113666666D01*
X118811961Y-113666666D02*
X118716723Y-113714285D01*
X118716723Y-113714285D02*
X118526247Y-113761904D01*
X118526247Y-113761904D02*
X118383390Y-113761904D01*
X118383390Y-113761904D02*
X118192914Y-113714285D01*
X118192914Y-113714285D02*
X118097676Y-113666666D01*
X118097676Y-113666666D02*
X118002438Y-113571428D01*
X118002438Y-113571428D02*
X117954819Y-113428571D01*
X117954819Y-113428571D02*
X117954819Y-113333333D01*
X117954819Y-113333333D02*
X118002438Y-113190476D01*
X118002438Y-113190476D02*
X118050057Y-113142857D01*
X118050057Y-112761904D02*
X118002438Y-112714285D01*
X118002438Y-112714285D02*
X117954819Y-112619047D01*
X117954819Y-112619047D02*
X117954819Y-112380952D01*
X117954819Y-112380952D02*
X118002438Y-112285714D01*
X118002438Y-112285714D02*
X118050057Y-112238095D01*
X118050057Y-112238095D02*
X118145295Y-112190476D01*
X118145295Y-112190476D02*
X118240533Y-112190476D01*
X118240533Y-112190476D02*
X118383390Y-112238095D01*
X118383390Y-112238095D02*
X118954819Y-112809523D01*
X118954819Y-112809523D02*
X118954819Y-112190476D01*
X118954819Y-111238095D02*
X118954819Y-111809523D01*
X118954819Y-111523809D02*
X117954819Y-111523809D01*
X117954819Y-111523809D02*
X118097676Y-111619047D01*
X118097676Y-111619047D02*
X118192914Y-111714285D01*
X118192914Y-111714285D02*
X118240533Y-111809523D01*
D10*
X121238095Y-97757419D02*
X121238095Y-98566942D01*
X121238095Y-98566942D02*
X121285714Y-98662180D01*
X121285714Y-98662180D02*
X121333333Y-98709800D01*
X121333333Y-98709800D02*
X121428571Y-98757419D01*
X121428571Y-98757419D02*
X121619047Y-98757419D01*
X121619047Y-98757419D02*
X121714285Y-98709800D01*
X121714285Y-98709800D02*
X121761904Y-98662180D01*
X121761904Y-98662180D02*
X121809523Y-98566942D01*
X121809523Y-98566942D02*
X121809523Y-97757419D01*
X122428571Y-98185990D02*
X122333333Y-98138371D01*
X122333333Y-98138371D02*
X122285714Y-98090752D01*
X122285714Y-98090752D02*
X122238095Y-97995514D01*
X122238095Y-97995514D02*
X122238095Y-97947895D01*
X122238095Y-97947895D02*
X122285714Y-97852657D01*
X122285714Y-97852657D02*
X122333333Y-97805038D01*
X122333333Y-97805038D02*
X122428571Y-97757419D01*
X122428571Y-97757419D02*
X122619047Y-97757419D01*
X122619047Y-97757419D02*
X122714285Y-97805038D01*
X122714285Y-97805038D02*
X122761904Y-97852657D01*
X122761904Y-97852657D02*
X122809523Y-97947895D01*
X122809523Y-97947895D02*
X122809523Y-97995514D01*
X122809523Y-97995514D02*
X122761904Y-98090752D01*
X122761904Y-98090752D02*
X122714285Y-98138371D01*
X122714285Y-98138371D02*
X122619047Y-98185990D01*
X122619047Y-98185990D02*
X122428571Y-98185990D01*
X122428571Y-98185990D02*
X122333333Y-98233609D01*
X122333333Y-98233609D02*
X122285714Y-98281228D01*
X122285714Y-98281228D02*
X122238095Y-98376466D01*
X122238095Y-98376466D02*
X122238095Y-98566942D01*
X122238095Y-98566942D02*
X122285714Y-98662180D01*
X122285714Y-98662180D02*
X122333333Y-98709800D01*
X122333333Y-98709800D02*
X122428571Y-98757419D01*
X122428571Y-98757419D02*
X122619047Y-98757419D01*
X122619047Y-98757419D02*
X122714285Y-98709800D01*
X122714285Y-98709800D02*
X122761904Y-98662180D01*
X122761904Y-98662180D02*
X122809523Y-98566942D01*
X122809523Y-98566942D02*
X122809523Y-98376466D01*
X122809523Y-98376466D02*
X122761904Y-98281228D01*
X122761904Y-98281228D02*
X122714285Y-98233609D01*
X122714285Y-98233609D02*
X122619047Y-98185990D01*
X202558095Y-90789800D02*
X202700952Y-90837419D01*
X202700952Y-90837419D02*
X202939047Y-90837419D01*
X202939047Y-90837419D02*
X203034285Y-90789800D01*
X203034285Y-90789800D02*
X203081904Y-90742180D01*
X203081904Y-90742180D02*
X203129523Y-90646942D01*
X203129523Y-90646942D02*
X203129523Y-90551704D01*
X203129523Y-90551704D02*
X203081904Y-90456466D01*
X203081904Y-90456466D02*
X203034285Y-90408847D01*
X203034285Y-90408847D02*
X202939047Y-90361228D01*
X202939047Y-90361228D02*
X202748571Y-90313609D01*
X202748571Y-90313609D02*
X202653333Y-90265990D01*
X202653333Y-90265990D02*
X202605714Y-90218371D01*
X202605714Y-90218371D02*
X202558095Y-90123133D01*
X202558095Y-90123133D02*
X202558095Y-90027895D01*
X202558095Y-90027895D02*
X202605714Y-89932657D01*
X202605714Y-89932657D02*
X202653333Y-89885038D01*
X202653333Y-89885038D02*
X202748571Y-89837419D01*
X202748571Y-89837419D02*
X202986666Y-89837419D01*
X202986666Y-89837419D02*
X203129523Y-89885038D01*
X203462857Y-89837419D02*
X204081904Y-89837419D01*
X204081904Y-89837419D02*
X203748571Y-90218371D01*
X203748571Y-90218371D02*
X203891428Y-90218371D01*
X203891428Y-90218371D02*
X203986666Y-90265990D01*
X203986666Y-90265990D02*
X204034285Y-90313609D01*
X204034285Y-90313609D02*
X204081904Y-90408847D01*
X204081904Y-90408847D02*
X204081904Y-90646942D01*
X204081904Y-90646942D02*
X204034285Y-90742180D01*
X204034285Y-90742180D02*
X203986666Y-90789800D01*
X203986666Y-90789800D02*
X203891428Y-90837419D01*
X203891428Y-90837419D02*
X203605714Y-90837419D01*
X203605714Y-90837419D02*
X203510476Y-90789800D01*
X203510476Y-90789800D02*
X203462857Y-90742180D01*
D11*
X116741541Y-97869819D02*
X117360588Y-97869819D01*
X117360588Y-97869819D02*
X117027255Y-98250771D01*
X117027255Y-98250771D02*
X117170112Y-98250771D01*
X117170112Y-98250771D02*
X117265350Y-98298390D01*
X117265350Y-98298390D02*
X117312969Y-98346009D01*
X117312969Y-98346009D02*
X117360588Y-98441247D01*
X117360588Y-98441247D02*
X117360588Y-98679342D01*
X117360588Y-98679342D02*
X117312969Y-98774580D01*
X117312969Y-98774580D02*
X117265350Y-98822200D01*
X117265350Y-98822200D02*
X117170112Y-98869819D01*
X117170112Y-98869819D02*
X116884398Y-98869819D01*
X116884398Y-98869819D02*
X116789160Y-98822200D01*
X116789160Y-98822200D02*
X116741541Y-98774580D01*
X117646303Y-97869819D02*
X117979636Y-98869819D01*
X117979636Y-98869819D02*
X118312969Y-97869819D01*
X118551065Y-97869819D02*
X119170112Y-97869819D01*
X119170112Y-97869819D02*
X118836779Y-98250771D01*
X118836779Y-98250771D02*
X118979636Y-98250771D01*
X118979636Y-98250771D02*
X119074874Y-98298390D01*
X119074874Y-98298390D02*
X119122493Y-98346009D01*
X119122493Y-98346009D02*
X119170112Y-98441247D01*
X119170112Y-98441247D02*
X119170112Y-98679342D01*
X119170112Y-98679342D02*
X119122493Y-98774580D01*
X119122493Y-98774580D02*
X119074874Y-98822200D01*
X119074874Y-98822200D02*
X118979636Y-98869819D01*
X118979636Y-98869819D02*
X118693922Y-98869819D01*
X118693922Y-98869819D02*
X118598684Y-98822200D01*
X118598684Y-98822200D02*
X118551065Y-98774580D01*
X117360588Y-102917438D02*
X117265350Y-102869819D01*
X117265350Y-102869819D02*
X117122493Y-102869819D01*
X117122493Y-102869819D02*
X116979636Y-102917438D01*
X116979636Y-102917438D02*
X116884398Y-103012676D01*
X116884398Y-103012676D02*
X116836779Y-103107914D01*
X116836779Y-103107914D02*
X116789160Y-103298390D01*
X116789160Y-103298390D02*
X116789160Y-103441247D01*
X116789160Y-103441247D02*
X116836779Y-103631723D01*
X116836779Y-103631723D02*
X116884398Y-103726961D01*
X116884398Y-103726961D02*
X116979636Y-103822200D01*
X116979636Y-103822200D02*
X117122493Y-103869819D01*
X117122493Y-103869819D02*
X117217731Y-103869819D01*
X117217731Y-103869819D02*
X117360588Y-103822200D01*
X117360588Y-103822200D02*
X117408207Y-103774580D01*
X117408207Y-103774580D02*
X117408207Y-103441247D01*
X117408207Y-103441247D02*
X117217731Y-103441247D01*
X117836779Y-103869819D02*
X117836779Y-102869819D01*
X117836779Y-102869819D02*
X118408207Y-103869819D01*
X118408207Y-103869819D02*
X118408207Y-102869819D01*
X118884398Y-103869819D02*
X118884398Y-102869819D01*
X118884398Y-102869819D02*
X119122493Y-102869819D01*
X119122493Y-102869819D02*
X119265350Y-102917438D01*
X119265350Y-102917438D02*
X119360588Y-103012676D01*
X119360588Y-103012676D02*
X119408207Y-103107914D01*
X119408207Y-103107914D02*
X119455826Y-103298390D01*
X119455826Y-103298390D02*
X119455826Y-103441247D01*
X119455826Y-103441247D02*
X119408207Y-103631723D01*
X119408207Y-103631723D02*
X119360588Y-103726961D01*
X119360588Y-103726961D02*
X119265350Y-103822200D01*
X119265350Y-103822200D02*
X119122493Y-103869819D01*
X119122493Y-103869819D02*
X118884398Y-103869819D01*
X116789160Y-106322200D02*
X116932017Y-106369819D01*
X116932017Y-106369819D02*
X117170112Y-106369819D01*
X117170112Y-106369819D02*
X117265350Y-106322200D01*
X117265350Y-106322200D02*
X117312969Y-106274580D01*
X117312969Y-106274580D02*
X117360588Y-106179342D01*
X117360588Y-106179342D02*
X117360588Y-106084104D01*
X117360588Y-106084104D02*
X117312969Y-105988866D01*
X117312969Y-105988866D02*
X117265350Y-105941247D01*
X117265350Y-105941247D02*
X117170112Y-105893628D01*
X117170112Y-105893628D02*
X116979636Y-105846009D01*
X116979636Y-105846009D02*
X116884398Y-105798390D01*
X116884398Y-105798390D02*
X116836779Y-105750771D01*
X116836779Y-105750771D02*
X116789160Y-105655533D01*
X116789160Y-105655533D02*
X116789160Y-105560295D01*
X116789160Y-105560295D02*
X116836779Y-105465057D01*
X116836779Y-105465057D02*
X116884398Y-105417438D01*
X116884398Y-105417438D02*
X116979636Y-105369819D01*
X116979636Y-105369819D02*
X117217731Y-105369819D01*
X117217731Y-105369819D02*
X117360588Y-105417438D01*
X117789160Y-106369819D02*
X117789160Y-105369819D01*
X117789160Y-105369819D02*
X118027255Y-105369819D01*
X118027255Y-105369819D02*
X118170112Y-105417438D01*
X118170112Y-105417438D02*
X118265350Y-105512676D01*
X118265350Y-105512676D02*
X118312969Y-105607914D01*
X118312969Y-105607914D02*
X118360588Y-105798390D01*
X118360588Y-105798390D02*
X118360588Y-105941247D01*
X118360588Y-105941247D02*
X118312969Y-106131723D01*
X118312969Y-106131723D02*
X118265350Y-106226961D01*
X118265350Y-106226961D02*
X118170112Y-106322200D01*
X118170112Y-106322200D02*
X118027255Y-106369819D01*
X118027255Y-106369819D02*
X117789160Y-106369819D01*
X118741541Y-106084104D02*
X119217731Y-106084104D01*
X118646303Y-106369819D02*
X118979636Y-105369819D01*
X118979636Y-105369819D02*
X119312969Y-106369819D01*
X117312969Y-100369819D02*
X116836779Y-100369819D01*
X116836779Y-100369819D02*
X116789160Y-100846009D01*
X116789160Y-100846009D02*
X116836779Y-100798390D01*
X116836779Y-100798390D02*
X116932017Y-100750771D01*
X116932017Y-100750771D02*
X117170112Y-100750771D01*
X117170112Y-100750771D02*
X117265350Y-100798390D01*
X117265350Y-100798390D02*
X117312969Y-100846009D01*
X117312969Y-100846009D02*
X117360588Y-100941247D01*
X117360588Y-100941247D02*
X117360588Y-101179342D01*
X117360588Y-101179342D02*
X117312969Y-101274580D01*
X117312969Y-101274580D02*
X117265350Y-101322200D01*
X117265350Y-101322200D02*
X117170112Y-101369819D01*
X117170112Y-101369819D02*
X116932017Y-101369819D01*
X116932017Y-101369819D02*
X116836779Y-101322200D01*
X116836779Y-101322200D02*
X116789160Y-101274580D01*
X117646303Y-100369819D02*
X117979636Y-101369819D01*
X117979636Y-101369819D02*
X118312969Y-100369819D01*
X116789160Y-108822200D02*
X116932017Y-108869819D01*
X116932017Y-108869819D02*
X117170112Y-108869819D01*
X117170112Y-108869819D02*
X117265350Y-108822200D01*
X117265350Y-108822200D02*
X117312969Y-108774580D01*
X117312969Y-108774580D02*
X117360588Y-108679342D01*
X117360588Y-108679342D02*
X117360588Y-108584104D01*
X117360588Y-108584104D02*
X117312969Y-108488866D01*
X117312969Y-108488866D02*
X117265350Y-108441247D01*
X117265350Y-108441247D02*
X117170112Y-108393628D01*
X117170112Y-108393628D02*
X116979636Y-108346009D01*
X116979636Y-108346009D02*
X116884398Y-108298390D01*
X116884398Y-108298390D02*
X116836779Y-108250771D01*
X116836779Y-108250771D02*
X116789160Y-108155533D01*
X116789160Y-108155533D02*
X116789160Y-108060295D01*
X116789160Y-108060295D02*
X116836779Y-107965057D01*
X116836779Y-107965057D02*
X116884398Y-107917438D01*
X116884398Y-107917438D02*
X116979636Y-107869819D01*
X116979636Y-107869819D02*
X117217731Y-107869819D01*
X117217731Y-107869819D02*
X117360588Y-107917438D01*
X118360588Y-108774580D02*
X118312969Y-108822200D01*
X118312969Y-108822200D02*
X118170112Y-108869819D01*
X118170112Y-108869819D02*
X118074874Y-108869819D01*
X118074874Y-108869819D02*
X117932017Y-108822200D01*
X117932017Y-108822200D02*
X117836779Y-108726961D01*
X117836779Y-108726961D02*
X117789160Y-108631723D01*
X117789160Y-108631723D02*
X117741541Y-108441247D01*
X117741541Y-108441247D02*
X117741541Y-108298390D01*
X117741541Y-108298390D02*
X117789160Y-108107914D01*
X117789160Y-108107914D02*
X117836779Y-108012676D01*
X117836779Y-108012676D02*
X117932017Y-107917438D01*
X117932017Y-107917438D02*
X118074874Y-107869819D01*
X118074874Y-107869819D02*
X118170112Y-107869819D01*
X118170112Y-107869819D02*
X118312969Y-107917438D01*
X118312969Y-107917438D02*
X118360588Y-107965057D01*
X119265350Y-108869819D02*
X118789160Y-108869819D01*
X118789160Y-108869819D02*
X118789160Y-107869819D01*
X123640419Y-111857142D02*
X123592800Y-111809523D01*
X123592800Y-111809523D02*
X123545180Y-111666666D01*
X123545180Y-111666666D02*
X123545180Y-111571428D01*
X123545180Y-111571428D02*
X123592800Y-111428571D01*
X123592800Y-111428571D02*
X123688038Y-111333333D01*
X123688038Y-111333333D02*
X123783276Y-111285714D01*
X123783276Y-111285714D02*
X123973752Y-111238095D01*
X123973752Y-111238095D02*
X124116609Y-111238095D01*
X124116609Y-111238095D02*
X124307085Y-111285714D01*
X124307085Y-111285714D02*
X124402323Y-111333333D01*
X124402323Y-111333333D02*
X124497561Y-111428571D01*
X124497561Y-111428571D02*
X124545180Y-111571428D01*
X124545180Y-111571428D02*
X124545180Y-111666666D01*
X124545180Y-111666666D02*
X124497561Y-111809523D01*
X124497561Y-111809523D02*
X124449942Y-111857142D01*
X124449942Y-112238095D02*
X124497561Y-112285714D01*
X124497561Y-112285714D02*
X124545180Y-112380952D01*
X124545180Y-112380952D02*
X124545180Y-112619047D01*
X124545180Y-112619047D02*
X124497561Y-112714285D01*
X124497561Y-112714285D02*
X124449942Y-112761904D01*
X124449942Y-112761904D02*
X124354704Y-112809523D01*
X124354704Y-112809523D02*
X124259466Y-112809523D01*
X124259466Y-112809523D02*
X124116609Y-112761904D01*
X124116609Y-112761904D02*
X123545180Y-112190476D01*
X123545180Y-112190476D02*
X123545180Y-112809523D01*
X124449942Y-113190476D02*
X124497561Y-113238095D01*
X124497561Y-113238095D02*
X124545180Y-113333333D01*
X124545180Y-113333333D02*
X124545180Y-113571428D01*
X124545180Y-113571428D02*
X124497561Y-113666666D01*
X124497561Y-113666666D02*
X124449942Y-113714285D01*
X124449942Y-113714285D02*
X124354704Y-113761904D01*
X124354704Y-113761904D02*
X124259466Y-113761904D01*
X124259466Y-113761904D02*
X124116609Y-113714285D01*
X124116609Y-113714285D02*
X123545180Y-113142857D01*
X123545180Y-113142857D02*
X123545180Y-113761904D01*
X201557142Y-84859580D02*
X201509523Y-84907200D01*
X201509523Y-84907200D02*
X201366666Y-84954819D01*
X201366666Y-84954819D02*
X201271428Y-84954819D01*
X201271428Y-84954819D02*
X201128571Y-84907200D01*
X201128571Y-84907200D02*
X201033333Y-84811961D01*
X201033333Y-84811961D02*
X200985714Y-84716723D01*
X200985714Y-84716723D02*
X200938095Y-84526247D01*
X200938095Y-84526247D02*
X200938095Y-84383390D01*
X200938095Y-84383390D02*
X200985714Y-84192914D01*
X200985714Y-84192914D02*
X201033333Y-84097676D01*
X201033333Y-84097676D02*
X201128571Y-84002438D01*
X201128571Y-84002438D02*
X201271428Y-83954819D01*
X201271428Y-83954819D02*
X201366666Y-83954819D01*
X201366666Y-83954819D02*
X201509523Y-84002438D01*
X201509523Y-84002438D02*
X201557142Y-84050057D01*
X202509523Y-84954819D02*
X201938095Y-84954819D01*
X202223809Y-84954819D02*
X202223809Y-83954819D01*
X202223809Y-83954819D02*
X202128571Y-84097676D01*
X202128571Y-84097676D02*
X202033333Y-84192914D01*
X202033333Y-84192914D02*
X201938095Y-84240533D01*
X202985714Y-84954819D02*
X203176190Y-84954819D01*
X203176190Y-84954819D02*
X203271428Y-84907200D01*
X203271428Y-84907200D02*
X203319047Y-84859580D01*
X203319047Y-84859580D02*
X203414285Y-84716723D01*
X203414285Y-84716723D02*
X203461904Y-84526247D01*
X203461904Y-84526247D02*
X203461904Y-84145295D01*
X203461904Y-84145295D02*
X203414285Y-84050057D01*
X203414285Y-84050057D02*
X203366666Y-84002438D01*
X203366666Y-84002438D02*
X203271428Y-83954819D01*
X203271428Y-83954819D02*
X203080952Y-83954819D01*
X203080952Y-83954819D02*
X202985714Y-84002438D01*
X202985714Y-84002438D02*
X202938095Y-84050057D01*
X202938095Y-84050057D02*
X202890476Y-84145295D01*
X202890476Y-84145295D02*
X202890476Y-84383390D01*
X202890476Y-84383390D02*
X202938095Y-84478628D01*
X202938095Y-84478628D02*
X202985714Y-84526247D01*
X202985714Y-84526247D02*
X203080952Y-84573866D01*
X203080952Y-84573866D02*
X203271428Y-84573866D01*
X203271428Y-84573866D02*
X203366666Y-84526247D01*
X203366666Y-84526247D02*
X203414285Y-84478628D01*
X203414285Y-84478628D02*
X203461904Y-84383390D01*
X119860588Y-72369819D02*
X119289160Y-72369819D01*
X119574874Y-72369819D02*
X119574874Y-71369819D01*
X119574874Y-71369819D02*
X119479636Y-71512676D01*
X119479636Y-71512676D02*
X119384398Y-71607914D01*
X119384398Y-71607914D02*
X119289160Y-71655533D01*
X120289160Y-71369819D02*
X120289160Y-72179342D01*
X120289160Y-72179342D02*
X120336779Y-72274580D01*
X120336779Y-72274580D02*
X120384398Y-72322200D01*
X120384398Y-72322200D02*
X120479636Y-72369819D01*
X120479636Y-72369819D02*
X120670112Y-72369819D01*
X120670112Y-72369819D02*
X120765350Y-72322200D01*
X120765350Y-72322200D02*
X120812969Y-72274580D01*
X120812969Y-72274580D02*
X120860588Y-72179342D01*
X120860588Y-72179342D02*
X120860588Y-71369819D01*
X121336779Y-72369819D02*
X121336779Y-71369819D01*
X121336779Y-71369819D02*
X121670112Y-72084104D01*
X121670112Y-72084104D02*
X122003445Y-71369819D01*
X122003445Y-71369819D02*
X122003445Y-72369819D01*
X120336779Y-69869819D02*
X120336779Y-68869819D01*
X120336779Y-68869819D02*
X120908207Y-69869819D01*
X120908207Y-69869819D02*
X120908207Y-68869819D01*
X121955826Y-69774580D02*
X121908207Y-69822200D01*
X121908207Y-69822200D02*
X121765350Y-69869819D01*
X121765350Y-69869819D02*
X121670112Y-69869819D01*
X121670112Y-69869819D02*
X121527255Y-69822200D01*
X121527255Y-69822200D02*
X121432017Y-69726961D01*
X121432017Y-69726961D02*
X121384398Y-69631723D01*
X121384398Y-69631723D02*
X121336779Y-69441247D01*
X121336779Y-69441247D02*
X121336779Y-69298390D01*
X121336779Y-69298390D02*
X121384398Y-69107914D01*
X121384398Y-69107914D02*
X121432017Y-69012676D01*
X121432017Y-69012676D02*
X121527255Y-68917438D01*
X121527255Y-68917438D02*
X121670112Y-68869819D01*
X121670112Y-68869819D02*
X121765350Y-68869819D01*
X121765350Y-68869819D02*
X121908207Y-68917438D01*
X121908207Y-68917438D02*
X121955826Y-68965057D01*
X119860588Y-78917438D02*
X119765350Y-78869819D01*
X119765350Y-78869819D02*
X119622493Y-78869819D01*
X119622493Y-78869819D02*
X119479636Y-78917438D01*
X119479636Y-78917438D02*
X119384398Y-79012676D01*
X119384398Y-79012676D02*
X119336779Y-79107914D01*
X119336779Y-79107914D02*
X119289160Y-79298390D01*
X119289160Y-79298390D02*
X119289160Y-79441247D01*
X119289160Y-79441247D02*
X119336779Y-79631723D01*
X119336779Y-79631723D02*
X119384398Y-79726961D01*
X119384398Y-79726961D02*
X119479636Y-79822200D01*
X119479636Y-79822200D02*
X119622493Y-79869819D01*
X119622493Y-79869819D02*
X119717731Y-79869819D01*
X119717731Y-79869819D02*
X119860588Y-79822200D01*
X119860588Y-79822200D02*
X119908207Y-79774580D01*
X119908207Y-79774580D02*
X119908207Y-79441247D01*
X119908207Y-79441247D02*
X119717731Y-79441247D01*
X120336779Y-79869819D02*
X120336779Y-78869819D01*
X120336779Y-78869819D02*
X120908207Y-79869819D01*
X120908207Y-79869819D02*
X120908207Y-78869819D01*
X121384398Y-79869819D02*
X121384398Y-78869819D01*
X121384398Y-78869819D02*
X121622493Y-78869819D01*
X121622493Y-78869819D02*
X121765350Y-78917438D01*
X121765350Y-78917438D02*
X121860588Y-79012676D01*
X121860588Y-79012676D02*
X121908207Y-79107914D01*
X121908207Y-79107914D02*
X121955826Y-79298390D01*
X121955826Y-79298390D02*
X121955826Y-79441247D01*
X121955826Y-79441247D02*
X121908207Y-79631723D01*
X121908207Y-79631723D02*
X121860588Y-79726961D01*
X121860588Y-79726961D02*
X121765350Y-79822200D01*
X121765350Y-79822200D02*
X121622493Y-79869819D01*
X121622493Y-79869819D02*
X121384398Y-79869819D01*
X117789160Y-76465057D02*
X117836779Y-76417438D01*
X117836779Y-76417438D02*
X117932017Y-76369819D01*
X117932017Y-76369819D02*
X118170112Y-76369819D01*
X118170112Y-76369819D02*
X118265350Y-76417438D01*
X118265350Y-76417438D02*
X118312969Y-76465057D01*
X118312969Y-76465057D02*
X118360588Y-76560295D01*
X118360588Y-76560295D02*
X118360588Y-76655533D01*
X118360588Y-76655533D02*
X118312969Y-76798390D01*
X118312969Y-76798390D02*
X117741541Y-77369819D01*
X117741541Y-77369819D02*
X118360588Y-77369819D01*
X118789160Y-77274580D02*
X118836779Y-77322200D01*
X118836779Y-77322200D02*
X118789160Y-77369819D01*
X118789160Y-77369819D02*
X118741541Y-77322200D01*
X118741541Y-77322200D02*
X118789160Y-77274580D01*
X118789160Y-77274580D02*
X118789160Y-77369819D01*
X119741540Y-76369819D02*
X119265350Y-76369819D01*
X119265350Y-76369819D02*
X119217731Y-76846009D01*
X119217731Y-76846009D02*
X119265350Y-76798390D01*
X119265350Y-76798390D02*
X119360588Y-76750771D01*
X119360588Y-76750771D02*
X119598683Y-76750771D01*
X119598683Y-76750771D02*
X119693921Y-76798390D01*
X119693921Y-76798390D02*
X119741540Y-76846009D01*
X119741540Y-76846009D02*
X119789159Y-76941247D01*
X119789159Y-76941247D02*
X119789159Y-77179342D01*
X119789159Y-77179342D02*
X119741540Y-77274580D01*
X119741540Y-77274580D02*
X119693921Y-77322200D01*
X119693921Y-77322200D02*
X119598683Y-77369819D01*
X119598683Y-77369819D02*
X119360588Y-77369819D01*
X119360588Y-77369819D02*
X119265350Y-77322200D01*
X119265350Y-77322200D02*
X119217731Y-77274580D01*
X120217731Y-76369819D02*
X120217731Y-77179342D01*
X120217731Y-77179342D02*
X120265350Y-77274580D01*
X120265350Y-77274580D02*
X120312969Y-77322200D01*
X120312969Y-77322200D02*
X120408207Y-77369819D01*
X120408207Y-77369819D02*
X120598683Y-77369819D01*
X120598683Y-77369819D02*
X120693921Y-77322200D01*
X120693921Y-77322200D02*
X120741540Y-77274580D01*
X120741540Y-77274580D02*
X120789159Y-77179342D01*
X120789159Y-77179342D02*
X120789159Y-76369819D01*
X121265350Y-77369819D02*
X121265350Y-76369819D01*
X121265350Y-76369819D02*
X121598683Y-77084104D01*
X121598683Y-77084104D02*
X121932016Y-76369819D01*
X121932016Y-76369819D02*
X121932016Y-77369819D01*
X120812969Y-73869819D02*
X120336779Y-73869819D01*
X120336779Y-73869819D02*
X120289160Y-74346009D01*
X120289160Y-74346009D02*
X120336779Y-74298390D01*
X120336779Y-74298390D02*
X120432017Y-74250771D01*
X120432017Y-74250771D02*
X120670112Y-74250771D01*
X120670112Y-74250771D02*
X120765350Y-74298390D01*
X120765350Y-74298390D02*
X120812969Y-74346009D01*
X120812969Y-74346009D02*
X120860588Y-74441247D01*
X120860588Y-74441247D02*
X120860588Y-74679342D01*
X120860588Y-74679342D02*
X120812969Y-74774580D01*
X120812969Y-74774580D02*
X120765350Y-74822200D01*
X120765350Y-74822200D02*
X120670112Y-74869819D01*
X120670112Y-74869819D02*
X120432017Y-74869819D01*
X120432017Y-74869819D02*
X120336779Y-74822200D01*
X120336779Y-74822200D02*
X120289160Y-74774580D01*
X121146303Y-73869819D02*
X121479636Y-74869819D01*
X121479636Y-74869819D02*
X121812969Y-73869819D01*
X120908207Y-82869819D02*
X120574874Y-82393628D01*
X120336779Y-82869819D02*
X120336779Y-81869819D01*
X120336779Y-81869819D02*
X120717731Y-81869819D01*
X120717731Y-81869819D02*
X120812969Y-81917438D01*
X120812969Y-81917438D02*
X120860588Y-81965057D01*
X120860588Y-81965057D02*
X120908207Y-82060295D01*
X120908207Y-82060295D02*
X120908207Y-82203152D01*
X120908207Y-82203152D02*
X120860588Y-82298390D01*
X120860588Y-82298390D02*
X120812969Y-82346009D01*
X120812969Y-82346009D02*
X120717731Y-82393628D01*
X120717731Y-82393628D02*
X120336779Y-82393628D01*
X121241541Y-81869819D02*
X121908207Y-82869819D01*
X121908207Y-81869819D02*
X121241541Y-82869819D01*
X120693922Y-84369819D02*
X121265350Y-84369819D01*
X120979636Y-85369819D02*
X120979636Y-84369819D01*
X121503446Y-84369819D02*
X122170112Y-85369819D01*
X122170112Y-84369819D02*
X121503446Y-85369819D01*
X201557142Y-79359580D02*
X201509523Y-79407200D01*
X201509523Y-79407200D02*
X201366666Y-79454819D01*
X201366666Y-79454819D02*
X201271428Y-79454819D01*
X201271428Y-79454819D02*
X201128571Y-79407200D01*
X201128571Y-79407200D02*
X201033333Y-79311961D01*
X201033333Y-79311961D02*
X200985714Y-79216723D01*
X200985714Y-79216723D02*
X200938095Y-79026247D01*
X200938095Y-79026247D02*
X200938095Y-78883390D01*
X200938095Y-78883390D02*
X200985714Y-78692914D01*
X200985714Y-78692914D02*
X201033333Y-78597676D01*
X201033333Y-78597676D02*
X201128571Y-78502438D01*
X201128571Y-78502438D02*
X201271428Y-78454819D01*
X201271428Y-78454819D02*
X201366666Y-78454819D01*
X201366666Y-78454819D02*
X201509523Y-78502438D01*
X201509523Y-78502438D02*
X201557142Y-78550057D01*
X201938095Y-78550057D02*
X201985714Y-78502438D01*
X201985714Y-78502438D02*
X202080952Y-78454819D01*
X202080952Y-78454819D02*
X202319047Y-78454819D01*
X202319047Y-78454819D02*
X202414285Y-78502438D01*
X202414285Y-78502438D02*
X202461904Y-78550057D01*
X202461904Y-78550057D02*
X202509523Y-78645295D01*
X202509523Y-78645295D02*
X202509523Y-78740533D01*
X202509523Y-78740533D02*
X202461904Y-78883390D01*
X202461904Y-78883390D02*
X201890476Y-79454819D01*
X201890476Y-79454819D02*
X202509523Y-79454819D01*
X203128571Y-78454819D02*
X203223809Y-78454819D01*
X203223809Y-78454819D02*
X203319047Y-78502438D01*
X203319047Y-78502438D02*
X203366666Y-78550057D01*
X203366666Y-78550057D02*
X203414285Y-78645295D01*
X203414285Y-78645295D02*
X203461904Y-78835771D01*
X203461904Y-78835771D02*
X203461904Y-79073866D01*
X203461904Y-79073866D02*
X203414285Y-79264342D01*
X203414285Y-79264342D02*
X203366666Y-79359580D01*
X203366666Y-79359580D02*
X203319047Y-79407200D01*
X203319047Y-79407200D02*
X203223809Y-79454819D01*
X203223809Y-79454819D02*
X203128571Y-79454819D01*
X203128571Y-79454819D02*
X203033333Y-79407200D01*
X203033333Y-79407200D02*
X202985714Y-79359580D01*
X202985714Y-79359580D02*
X202938095Y-79264342D01*
X202938095Y-79264342D02*
X202890476Y-79073866D01*
X202890476Y-79073866D02*
X202890476Y-78835771D01*
X202890476Y-78835771D02*
X202938095Y-78645295D01*
X202938095Y-78645295D02*
X202985714Y-78550057D01*
X202985714Y-78550057D02*
X203033333Y-78502438D01*
X203033333Y-78502438D02*
X203128571Y-78454819D01*
X202761905Y-107454819D02*
X202761905Y-106454819D01*
X202761905Y-106454819D02*
X203000000Y-106454819D01*
X203000000Y-106454819D02*
X203142857Y-106502438D01*
X203142857Y-106502438D02*
X203238095Y-106597676D01*
X203238095Y-106597676D02*
X203285714Y-106692914D01*
X203285714Y-106692914D02*
X203333333Y-106883390D01*
X203333333Y-106883390D02*
X203333333Y-107026247D01*
X203333333Y-107026247D02*
X203285714Y-107216723D01*
X203285714Y-107216723D02*
X203238095Y-107311961D01*
X203238095Y-107311961D02*
X203142857Y-107407200D01*
X203142857Y-107407200D02*
X203000000Y-107454819D01*
X203000000Y-107454819D02*
X202761905Y-107454819D01*
X204285714Y-107454819D02*
X203714286Y-107454819D01*
X204000000Y-107454819D02*
X204000000Y-106454819D01*
X204000000Y-106454819D02*
X203904762Y-106597676D01*
X203904762Y-106597676D02*
X203809524Y-106692914D01*
X203809524Y-106692914D02*
X203714286Y-106740533D01*
X203333333Y-112954819D02*
X203000000Y-112478628D01*
X202761905Y-112954819D02*
X202761905Y-111954819D01*
X202761905Y-111954819D02*
X203142857Y-111954819D01*
X203142857Y-111954819D02*
X203238095Y-112002438D01*
X203238095Y-112002438D02*
X203285714Y-112050057D01*
X203285714Y-112050057D02*
X203333333Y-112145295D01*
X203333333Y-112145295D02*
X203333333Y-112288152D01*
X203333333Y-112288152D02*
X203285714Y-112383390D01*
X203285714Y-112383390D02*
X203238095Y-112431009D01*
X203238095Y-112431009D02*
X203142857Y-112478628D01*
X203142857Y-112478628D02*
X202761905Y-112478628D01*
X204285714Y-112954819D02*
X203714286Y-112954819D01*
X204000000Y-112954819D02*
X204000000Y-111954819D01*
X204000000Y-111954819D02*
X203904762Y-112097676D01*
X203904762Y-112097676D02*
X203809524Y-112192914D01*
X203809524Y-112192914D02*
X203714286Y-112240533D01*
D10*
%TO.C,C31*%
X115500000Y-78000000D02*
X115500000Y-77600000D01*
X116500000Y-78000000D02*
X116500000Y-77600000D01*
%TO.C,U7*%
X120703921Y-116150000D02*
G75*
G02*
X120421079Y-116150000I-141421J0D01*
G01*
X120421079Y-116150000D02*
G75*
G02*
X120703921Y-116150000I141421J0D01*
G01*
%TO.C,C21*%
X119500000Y-112700000D02*
X119500000Y-112300000D01*
X120500000Y-112700000D02*
X120500000Y-112300000D01*
%TO.C,U8*%
X117800000Y-88900000D02*
X118300000Y-88900000D01*
X117800000Y-89400000D02*
X117800000Y-88900000D01*
X117800000Y-96100000D02*
X117800000Y-95600000D01*
X118300000Y-96100000D02*
X117800000Y-96100000D01*
X125700000Y-88900000D02*
X126200000Y-88900000D01*
X126200000Y-88900000D02*
X126200000Y-89400000D01*
X126300000Y-95600000D02*
X126300000Y-96100000D01*
X126300000Y-96100000D02*
X125800000Y-96100000D01*
X118341421Y-94100000D02*
G75*
G02*
X118058579Y-94100000I-141421J0D01*
G01*
X118058579Y-94100000D02*
G75*
G02*
X118341421Y-94100000I141421J0D01*
G01*
%TO.C,S3*%
X202220000Y-86380000D02*
G75*
G02*
X202020000Y-86380000I-100000J0D01*
G01*
X202020000Y-86380000D02*
G75*
G02*
X202220000Y-86380000I100000J0D01*
G01*
%TO.C,C22*%
X121500000Y-112700000D02*
X121500000Y-112300000D01*
X122500000Y-112700000D02*
X122500000Y-112300000D01*
%TO.C,C19*%
X202400000Y-82500000D02*
X202000000Y-82500000D01*
X202400000Y-83500000D02*
X202000000Y-83500000D01*
%TO.C,C20*%
X202000000Y-80000000D02*
X202400000Y-80000000D01*
X202000000Y-81000000D02*
X202400000Y-81000000D01*
%TO.C,REF\u002A\u002A*%
X129000000Y-134300000D02*
X129000000Y-138000000D01*
X129050000Y-71700000D02*
X129050000Y-68000000D01*
X132700000Y-138000000D02*
X129000000Y-138000000D01*
X132750000Y-68000000D02*
X129050000Y-68000000D01*
X195300000Y-68000000D02*
X199000000Y-68000000D01*
X195300000Y-138000000D02*
X199000000Y-138000000D01*
X199000000Y-71700000D02*
X199000000Y-68000000D01*
X199000000Y-134300000D02*
X199000000Y-138000000D01*
%TO.C,R1*%
X203300000Y-110500000D02*
X203700000Y-110500000D01*
X203300000Y-111500000D02*
X203700000Y-111500000D01*
%TD*%
M02*
