%TF.GenerationSoftware,KiCad,Pcbnew,9.0.7-1.fc42*%
%TF.CreationDate,2026-02-03T17:14:12+01:00*%
%TF.ProjectId,air_sensor,6169725f-7365-46e7-936f-722e6b696361,rev?*%
%TF.SameCoordinates,Original*%
%TF.FileFunction,Copper,L1,Top*%
%TF.FilePolarity,Positive*%
%FSLAX46Y46*%
G04 Gerber Fmt 4.6, Leading zero omitted, Abs format (unit mm)*
G04 Created by KiCad (PCBNEW 9.0.7-1.fc42) date 2026-02-03 17:14:12*
%MOMM*%
%LPD*%
G01*
G04 APERTURE LIST*
G04 Aperture macros list*
%AMRoundRect*
0 Rectangle with rounded corners*
0 $1 Rounding radius*
0 $2 $3 $4 $5 $6 $7 $8 $9 X,Y pos of 4 corners*
0 Add a 4 corners polygon primitive as box body*
4,1,4,$2,$3,$4,$5,$6,$7,$8,$9,$2,$3,0*
0 Add four circle primitives for the rounded corners*
1,1,$1+$1,$2,$3*
1,1,$1+$1,$4,$5*
1,1,$1+$1,$6,$7*
1,1,$1+$1,$8,$9*
0 Add four rect primitives between the rounded corners*
20,1,$1+$1,$2,$3,$4,$5,0*
20,1,$1+$1,$4,$5,$6,$7,0*
20,1,$1+$1,$6,$7,$8,$9,0*
20,1,$1+$1,$8,$9,$2,$3,0*%
G04 Aperture macros list end*
%TA.AperFunction,ComponentPad*%
%ADD10C,4.500000*%
%TD*%
%TA.AperFunction,SMDPad,CuDef*%
%ADD11RoundRect,0.142500X0.357500X-0.332500X0.357500X0.332500X-0.357500X0.332500X-0.357500X-0.332500X0*%
%TD*%
%TA.AperFunction,ComponentPad*%
%ADD12C,1.600000*%
%TD*%
%TA.AperFunction,SMDPad,CuDef*%
%ADD13RoundRect,0.090000X-0.947500X-0.210000X0.947500X-0.210000X0.947500X0.210000X-0.947500X0.210000X0*%
%TD*%
%TA.AperFunction,SMDPad,CuDef*%
%ADD14RoundRect,0.088500X-0.949000X-0.206500X0.949000X-0.206500X0.949000X0.206500X-0.949000X0.206500X0*%
%TD*%
%TA.AperFunction,SMDPad,CuDef*%
%ADD15RoundRect,0.091500X-0.946000X-0.213500X0.946000X-0.213500X0.946000X0.213500X-0.946000X0.213500X0*%
%TD*%
%TA.AperFunction,SMDPad,CuDef*%
%ADD16RoundRect,0.082500X-0.192500X-0.667500X0.192500X-0.667500X0.192500X0.667500X-0.192500X0.667500X0*%
%TD*%
%TA.AperFunction,SMDPad,CuDef*%
%ADD17R,0.350000X0.350000*%
%TD*%
%TA.AperFunction,ComponentPad*%
%ADD18C,1.905000*%
%TD*%
%TA.AperFunction,SMDPad,CuDef*%
%ADD19RoundRect,0.142500X0.332500X0.357500X-0.332500X0.357500X-0.332500X-0.357500X0.332500X-0.357500X0*%
%TD*%
%TA.AperFunction,SMDPad,CuDef*%
%ADD20RoundRect,0.142500X-0.332500X-0.357500X0.332500X-0.357500X0.332500X0.357500X-0.332500X0.357500X0*%
%TD*%
%TA.AperFunction,ComponentPad*%
%ADD21RoundRect,0.250000X-0.500000X-0.500000X0.500000X-0.500000X0.500000X0.500000X-0.500000X0.500000X0*%
%TD*%
%TA.AperFunction,ComponentPad*%
%ADD22C,1.500000*%
%TD*%
%TA.AperFunction,SMDPad,CuDef*%
%ADD23C,6.000000*%
%TD*%
%TA.AperFunction,ComponentPad*%
%ADD24C,9.000000*%
%TD*%
%TA.AperFunction,ViaPad*%
%ADD25C,0.600000*%
%TD*%
%TA.AperFunction,Conductor*%
%ADD26C,0.200000*%
%TD*%
G04 APERTURE END LIST*
D10*
%TO.P,REF\u002A\u002A,*%
%TO.N,*%
X117000000Y-136000000D03*
%TD*%
D11*
%TO.P,C31,1*%
%TO.N,GND*%
X116000000Y-78600000D03*
%TO.P,C31,2*%
%TO.N,5V*%
X116000000Y-77000000D03*
%TD*%
D12*
%TO.P,J4,1,VCC*%
%TO.N,3V3*%
X118920000Y-127500000D03*
%TO.P,J4,2,GND*%
%TO.N,GND*%
X121460000Y-127500000D03*
%TO.P,J4,3,UPDI*%
%TO.N,UPDI*%
X124000000Y-127500000D03*
%TD*%
D10*
%TO.P,REF\u002A\u002A,*%
%TO.N,*%
X202000000Y-71000000D03*
%TD*%
D13*
%TO.P,U7,1,VDD*%
%TO.N,3V3*%
X118800000Y-116050000D03*
%TO.P,U7,2,PA4*%
%TO.N,unconnected-(U7-PA4-Pad2)*%
X118800000Y-117320000D03*
%TO.P,U7,3,PA5*%
%TO.N,unconnected-(U7-PA5-Pad3)*%
X118800000Y-118590000D03*
D14*
%TO.P,U7,4,PA6*%
%TO.N,unconnected-(U7-PA6-Pad4)*%
X118800000Y-119855000D03*
D13*
%TO.P,U7,5,PA7*%
%TO.N,unconnected-(U7-PA7-Pad5)*%
X118800000Y-121120000D03*
%TO.P,U7,6,TOSC1/PB3*%
%TO.N,unconnected-(U7-TOSC1{slash}PB3-Pad6)*%
X118800000Y-122390000D03*
D14*
%TO.P,U7,7,TOSC2/PB2*%
%TO.N,STATUS_LED*%
X118800000Y-123655000D03*
D13*
%TO.P,U7,8,PB1*%
%TO.N,SDA*%
X124725000Y-123660000D03*
%TO.P,U7,9,PB0*%
%TO.N,SCL*%
X124725000Y-122390000D03*
%TO.P,U7,10,PA0/RST/UPDI*%
%TO.N,UPDI*%
X124725000Y-121120000D03*
%TO.P,U7,11,PA1*%
%TO.N,AT_CLIM_TX*%
X124725000Y-119850000D03*
%TO.P,U7,12,PA2*%
%TO.N,AT_CLIM_RX*%
X124725000Y-118580000D03*
%TO.P,U7,13,PA3/EXTCLK*%
%TO.N,unconnected-(U7-PA3{slash}EXTCLK-Pad13)*%
X124725000Y-117310000D03*
D15*
%TO.P,U7,14,GND*%
%TO.N,GND*%
X124725000Y-116045000D03*
%TD*%
D11*
%TO.P,C21,1*%
%TO.N,GND*%
X120000000Y-113300000D03*
%TO.P,C21,2*%
%TO.N,3V3*%
X120000000Y-111700000D03*
%TD*%
D16*
%TO.P,U8,1,1OE*%
%TO.N,GND*%
X118190000Y-95200000D03*
%TO.P,U8,2,1A*%
%TO.N,PM_TX*%
X119460000Y-95200000D03*
%TO.P,U8,3,1Y*%
%TO.N,AT_CLIM_RX*%
X120730000Y-95200000D03*
%TO.P,U8,4,2OE*%
%TO.N,GND*%
X122000000Y-95200000D03*
%TO.P,U8,5,2A*%
%TO.N,AT_CLIM_TX*%
X123270000Y-95200000D03*
%TO.P,U8,6,2Y*%
%TO.N,PM_RX*%
X124540000Y-95200000D03*
%TO.P,U8,7,GND*%
%TO.N,GND*%
X125810000Y-95200000D03*
%TO.P,U8,8,3Y*%
%TO.N,unconnected-(U8-3Y-Pad8)*%
X125800000Y-89800000D03*
%TO.P,U8,9,3A*%
%TO.N,unconnected-(U8-3A-Pad9)*%
X124530000Y-89800000D03*
%TO.P,U8,10,3OE*%
%TO.N,unconnected-(U8-3OE-Pad10)*%
X123260000Y-89800000D03*
%TO.P,U8,11,4Y*%
%TO.N,unconnected-(U8-4Y-Pad11)*%
X121990000Y-89800000D03*
%TO.P,U8,12,4A*%
%TO.N,unconnected-(U8-4A-Pad12)*%
X120730000Y-89800000D03*
%TO.P,U8,13,4OE*%
%TO.N,unconnected-(U8-4OE-Pad13)*%
X119460000Y-89800000D03*
%TO.P,U8,14,VCC*%
%TO.N,3V3*%
X118190000Y-89800000D03*
%TD*%
D17*
%TO.P,S3,1,GND*%
%TO.N,GND*%
X202040000Y-86000000D03*
%TO.P,S3,2,CSB*%
%TO.N,3V3*%
X202690000Y-86000000D03*
%TO.P,S3,3,SDI*%
%TO.N,SDA*%
X203340000Y-86000000D03*
%TO.P,S3,4,SCK*%
%TO.N,SCL*%
X204000000Y-86000000D03*
%TO.P,S3,5,SDO*%
%TO.N,GND*%
X204000000Y-87960000D03*
%TO.P,S3,6,VDDIO*%
%TO.N,3V3*%
X203350000Y-87960000D03*
%TO.P,S3,7,GND*%
%TO.N,GND*%
X202700000Y-87960000D03*
%TO.P,S3,8,VDD*%
%TO.N,3V3*%
X202040000Y-87960000D03*
%TD*%
D18*
%TO.P,G1,1,3V3*%
%TO.N,3V3*%
X115000000Y-98460000D03*
%TO.P,G1,2,5V*%
%TO.N,5V*%
X115000000Y-101000000D03*
%TO.P,G1,3,GND*%
%TO.N,GND*%
X115000000Y-103500000D03*
%TO.P,G1,4,SDA*%
%TO.N,SDA*%
X115000000Y-106040000D03*
%TO.P,G1,5,SCL*%
%TO.N,SCL*%
X115000000Y-108580000D03*
%TD*%
D10*
%TO.P,REF\u002A\u002A,*%
%TO.N,*%
X117000000Y-71000000D03*
%TD*%
D11*
%TO.P,C22,1*%
%TO.N,GND*%
X122000000Y-113300000D03*
%TO.P,C22,2*%
%TO.N,3V3*%
X122000000Y-111700000D03*
%TD*%
D19*
%TO.P,C19,1*%
%TO.N,3V3*%
X203000000Y-83000000D03*
%TO.P,C19,2*%
%TO.N,GND*%
X201400000Y-83000000D03*
%TD*%
D18*
%TO.P,S4,1,NC*%
%TO.N,unconnected-(S4-NC-Pad1)*%
X123500000Y-69460000D03*
%TO.P,S4,2,1UM*%
%TO.N,unconnected-(S4-1UM-Pad2)*%
X123500000Y-72000000D03*
%TO.P,S4,3,5V*%
%TO.N,5V*%
X123500000Y-74500000D03*
%TO.P,S4,4,2.5UM*%
%TO.N,unconnected-(S4-2.5UM-Pad4)*%
X123500000Y-77040000D03*
%TO.P,S4,5,GND*%
%TO.N,GND*%
X123500000Y-79580000D03*
%TO.P,S4,6,RX*%
%TO.N,PM_RX*%
X123500000Y-82120000D03*
%TO.P,S4,7,TX*%
%TO.N,PM_TX*%
X123500000Y-84660000D03*
%TD*%
D10*
%TO.P,REF\u002A\u002A,*%
%TO.N,*%
X202000000Y-136000000D03*
%TD*%
D20*
%TO.P,C20,1*%
%TO.N,GND*%
X201400000Y-80500000D03*
%TO.P,C20,2*%
%TO.N,3V3*%
X203000000Y-80500000D03*
%TD*%
D21*
%TO.P,D1,1,K*%
%TO.N,GND*%
X202110000Y-108980000D03*
D22*
%TO.P,D1,2,A*%
%TO.N,Net-(D1-A)*%
X204650000Y-108980000D03*
%TD*%
D23*
%TO.P,REF\u002A\u002A,1*%
%TO.N,N/C*%
X194000000Y-79000000D03*
%TO.P,REF\u002A\u002A,2*%
X134000000Y-79000000D03*
%TO.P,REF\u002A\u002A,3*%
X153000000Y-134000000D03*
D24*
%TO.P,REF\u002A\u002A,4*%
X159000000Y-72000000D03*
%TD*%
D20*
%TO.P,R1,1*%
%TO.N,STATUS_LED*%
X202700000Y-111000000D03*
%TO.P,R1,2*%
%TO.N,Net-(D1-A)*%
X204300000Y-111000000D03*
%TD*%
D25*
%TO.N,3V3*%
X112806400Y-110729800D03*
%TO.N,GND*%
X202138900Y-90025700D03*
X121521000Y-97646300D03*
X121694200Y-114421900D03*
X201870000Y-84662700D03*
%TO.N,SCL*%
X121092500Y-121889100D03*
%TO.N,SDA*%
X116372600Y-122245400D03*
%TO.N,PM_RX*%
X123056400Y-92808200D03*
%TO.N,AT_CLIM_RX*%
X124776500Y-97038700D03*
X126354100Y-115942000D03*
%TO.N,AT_CLIM_TX*%
X123305100Y-93852100D03*
X122740700Y-119866700D03*
%TD*%
D26*
%TO.N,3V3*%
X120000000Y-111700000D02*
X122000000Y-111700000D01*
X114976600Y-112900000D02*
X112806400Y-110729800D01*
X203000000Y-83000000D02*
X202690000Y-83310000D01*
X118800000Y-116050000D02*
X118800000Y-112900000D01*
X192016700Y-98460000D02*
X202040000Y-88436700D01*
X118800000Y-112900000D02*
X120000000Y-111700000D01*
X203350000Y-88436700D02*
X202040000Y-88436700D01*
X115000000Y-98460000D02*
X192016700Y-98460000D01*
X202040000Y-87960000D02*
X202040000Y-88436700D01*
X202690000Y-86000000D02*
X202690000Y-86823300D01*
X202690000Y-83310000D02*
X202690000Y-86000000D01*
X203350000Y-87960000D02*
X203350000Y-88436700D01*
X203350000Y-87960000D02*
X203350000Y-87483300D01*
X202690000Y-86823300D02*
X203350000Y-87483300D01*
X203000000Y-80500000D02*
X203000000Y-83000000D01*
X115000000Y-92990000D02*
X115000000Y-98460000D01*
X118800000Y-112900000D02*
X114976600Y-112900000D01*
X118190000Y-89800000D02*
X115000000Y-92990000D01*
%TO.N,GND*%
X122000000Y-95353200D02*
X122908500Y-96261700D01*
X204000000Y-87960000D02*
X204000000Y-88436700D01*
X201400000Y-80500000D02*
X201400000Y-83000000D01*
X202411000Y-90025700D02*
X202138900Y-90025700D01*
X201870000Y-84662700D02*
X201870000Y-83470000D01*
X122000000Y-114342600D02*
X121773500Y-114342600D01*
X122908500Y-96261700D02*
X125422500Y-96261700D01*
X202700000Y-87960000D02*
X202700000Y-87483300D01*
X120485400Y-97646300D02*
X118190000Y-95350900D01*
X202040000Y-86000000D02*
X202040000Y-86823300D01*
X122520000Y-78600000D02*
X123500000Y-79580000D01*
X118190000Y-95350900D02*
X118190000Y-95200000D01*
X197126900Y-113963100D02*
X126806900Y-113963100D01*
X204000000Y-88436700D02*
X202411000Y-90025700D01*
X202040000Y-86823300D02*
X202700000Y-87483300D01*
X202040000Y-84832700D02*
X201870000Y-84662700D01*
X125810000Y-95200000D02*
X125810000Y-96261700D01*
X202110000Y-108980000D02*
X197126900Y-113963100D01*
X125035100Y-97646300D02*
X121521000Y-97646300D01*
X121521000Y-97646300D02*
X120485400Y-97646300D01*
X126806900Y-113963100D02*
X124725000Y-116045000D01*
X125422500Y-96261700D02*
X125810000Y-96261700D01*
X201870000Y-83470000D02*
X201400000Y-83000000D01*
X122000000Y-95200000D02*
X122000000Y-95353200D01*
X121773500Y-114342600D02*
X121694200Y-114421900D01*
X124725000Y-116045000D02*
X123022600Y-114342600D01*
X120000000Y-113300000D02*
X122000000Y-113300000D01*
X116000000Y-78600000D02*
X122520000Y-78600000D01*
X122000000Y-114342600D02*
X122000000Y-113300000D01*
X123022600Y-114342600D02*
X122000000Y-114342600D01*
X125422500Y-97258900D02*
X125035100Y-97646300D01*
X202040000Y-86000000D02*
X202040000Y-84832700D01*
X125422500Y-96261700D02*
X125422500Y-97258900D01*
%TO.N,5V*%
X118500000Y-74500000D02*
X116000000Y-77000000D01*
X123500000Y-74500000D02*
X118500000Y-74500000D01*
%TO.N,SCL*%
X204000000Y-86000000D02*
X204000000Y-86476700D01*
X185026400Y-108580000D02*
X204966800Y-88639600D01*
X204966800Y-87443500D02*
X204000000Y-86476700D01*
X115000000Y-108580000D02*
X185026400Y-108580000D01*
X121092500Y-121889100D02*
X124224100Y-121889100D01*
X204966800Y-88639600D02*
X204966800Y-87443500D01*
X124224100Y-121889100D02*
X124725000Y-122390000D01*
%TO.N,SDA*%
X203340000Y-86000000D02*
X203340000Y-86476700D01*
X116372600Y-122973000D02*
X116372600Y-122245400D01*
X117675100Y-124275500D02*
X116372600Y-122973000D01*
X204530700Y-87667400D02*
X203340000Y-86476700D01*
X115000000Y-106040000D02*
X186975500Y-106040000D01*
X204530700Y-88484800D02*
X204530700Y-87667400D01*
X186975500Y-106040000D02*
X204530700Y-88484800D01*
X124725000Y-123660000D02*
X124109500Y-124275500D01*
X124109500Y-124275500D02*
X117675100Y-124275500D01*
%TO.N,UPDI*%
X124725000Y-121120000D02*
X125223400Y-121120000D01*
X126095700Y-125404300D02*
X124000000Y-127500000D01*
X126095700Y-121992300D02*
X126095700Y-125404300D01*
X125223400Y-121120000D02*
X126095700Y-121992300D01*
%TO.N,PM_TX*%
X121360000Y-90582300D02*
X119460000Y-92482300D01*
X123500000Y-84660000D02*
X121360000Y-86800000D01*
X121360000Y-86800000D02*
X121360000Y-90582300D01*
X119460000Y-92482300D02*
X119460000Y-95200000D01*
%TO.N,PM_RX*%
X124540000Y-94291800D02*
X124000000Y-93751800D01*
X124000000Y-93751800D02*
X124000000Y-93500000D01*
X124540000Y-95200000D02*
X124540000Y-94291800D01*
X123500000Y-93000000D02*
X124000000Y-93500000D01*
X123248200Y-93000000D02*
X123500000Y-93000000D01*
X123056400Y-92808200D02*
X123248200Y-93000000D01*
%TO.N,AT_CLIM_RX*%
X120730000Y-95368900D02*
X120730000Y-95200000D01*
X124725000Y-118580000D02*
X125226800Y-118580000D01*
X122399800Y-97038700D02*
X120730000Y-95368900D01*
X124776500Y-97038700D02*
X122399800Y-97038700D01*
X126354100Y-117452700D02*
X126354100Y-115942000D01*
X125226800Y-118580000D02*
X126354100Y-117452700D01*
%TO.N,AT_CLIM_TX*%
X123270000Y-93887200D02*
X123270000Y-95200000D01*
X123305100Y-93852100D02*
X123270000Y-93887200D01*
X124708300Y-119866700D02*
X124725000Y-119850000D01*
X122740700Y-119866700D02*
X124708300Y-119866700D01*
%TO.N,Net-(D1-A)*%
X204650000Y-110650000D02*
X204650000Y-108980000D01*
X204300000Y-111000000D02*
X204650000Y-110650000D01*
%TO.N,STATUS_LED*%
X202700000Y-111000000D02*
X193221600Y-120478400D01*
X193221600Y-120478400D02*
X121608200Y-120478400D01*
X120432300Y-121654300D02*
X120432300Y-122506600D01*
X119283900Y-123655000D02*
X118800000Y-123655000D01*
X120432300Y-122506600D02*
X119283900Y-123655000D01*
X121608200Y-120478400D02*
X120432300Y-121654300D01*
%TD*%
M02*
