%TF.GenerationSoftware,KiCad,Pcbnew,9.0.7-1.fc42*%
%TF.CreationDate,2026-02-03T17:14:12+01:00*%
%TF.ProjectId,air_sensor,6169725f-7365-46e7-936f-722e6b696361,rev?*%
%TF.SameCoordinates,Original*%
%TF.FileFunction,Copper,L2,Bot*%
%TF.FilePolarity,Positive*%
%FSLAX46Y46*%
G04 Gerber Fmt 4.6, Leading zero omitted, Abs format (unit mm)*
G04 Created by KiCad (PCBNEW 9.0.7-1.fc42) date 2026-02-03 17:14:12*
%MOMM*%
%LPD*%
G01*
G04 APERTURE LIST*
G04 Aperture macros list*
%AMRoundRect*
0 Rectangle with rounded corners*
0 $1 Rounding radius*
0 $2 $3 $4 $5 $6 $7 $8 $9 X,Y pos of 4 corners*
0 Add a 4 corners polygon primitive as box body*
4,1,4,$2,$3,$4,$5,$6,$7,$8,$9,$2,$3,0*
0 Add four circle primitives for the rounded corners*
1,1,$1+$1,$2,$3*
1,1,$1+$1,$4,$5*
1,1,$1+$1,$6,$7*
1,1,$1+$1,$8,$9*
0 Add four rect primitives between the rounded corners*
20,1,$1+$1,$2,$3,$4,$5,0*
20,1,$1+$1,$4,$5,$6,$7,0*
20,1,$1+$1,$6,$7,$8,$9,0*
20,1,$1+$1,$8,$9,$2,$3,0*%
G04 Aperture macros list end*
%TA.AperFunction,ComponentPad*%
%ADD10C,4.500000*%
%TD*%
%TA.AperFunction,ComponentPad*%
%ADD11C,1.600000*%
%TD*%
%TA.AperFunction,ComponentPad*%
%ADD12C,1.905000*%
%TD*%
%TA.AperFunction,ComponentPad*%
%ADD13RoundRect,0.250000X-0.500000X-0.500000X0.500000X-0.500000X0.500000X0.500000X-0.500000X0.500000X0*%
%TD*%
%TA.AperFunction,ComponentPad*%
%ADD14C,1.500000*%
%TD*%
%TA.AperFunction,ComponentPad*%
%ADD15C,9.000000*%
%TD*%
%TA.AperFunction,ViaPad*%
%ADD16C,0.600000*%
%TD*%
%TA.AperFunction,Conductor*%
%ADD17C,0.200000*%
%TD*%
G04 APERTURE END LIST*
D10*
%TO.P,REF\u002A\u002A,*%
%TO.N,*%
X117000000Y-136000000D03*
%TD*%
D11*
%TO.P,J4,1,VCC*%
%TO.N,3V3*%
X118920000Y-127500000D03*
%TO.P,J4,2,GND*%
%TO.N,GND*%
X121460000Y-127500000D03*
%TO.P,J4,3,UPDI*%
%TO.N,UPDI*%
X124000000Y-127500000D03*
%TD*%
D10*
%TO.P,REF\u002A\u002A,*%
%TO.N,*%
X202000000Y-71000000D03*
%TD*%
D12*
%TO.P,G1,1,3V3*%
%TO.N,3V3*%
X115000000Y-98460000D03*
%TO.P,G1,2,5V*%
%TO.N,5V*%
X115000000Y-101000000D03*
%TO.P,G1,3,GND*%
%TO.N,GND*%
X115000000Y-103500000D03*
%TO.P,G1,4,SDA*%
%TO.N,SDA*%
X115000000Y-106040000D03*
%TO.P,G1,5,SCL*%
%TO.N,SCL*%
X115000000Y-108580000D03*
%TD*%
D10*
%TO.P,REF\u002A\u002A,*%
%TO.N,*%
X117000000Y-71000000D03*
%TD*%
D12*
%TO.P,S4,1,NC*%
%TO.N,unconnected-(S4-NC-Pad1)*%
X123500000Y-69460000D03*
%TO.P,S4,2,1UM*%
%TO.N,unconnected-(S4-1UM-Pad2)*%
X123500000Y-72000000D03*
%TO.P,S4,3,5V*%
%TO.N,5V*%
X123500000Y-74500000D03*
%TO.P,S4,4,2.5UM*%
%TO.N,unconnected-(S4-2.5UM-Pad4)*%
X123500000Y-77040000D03*
%TO.P,S4,5,GND*%
%TO.N,GND*%
X123500000Y-79580000D03*
%TO.P,S4,6,RX*%
%TO.N,PM_RX*%
X123500000Y-82120000D03*
%TO.P,S4,7,TX*%
%TO.N,PM_TX*%
X123500000Y-84660000D03*
%TD*%
D10*
%TO.P,REF\u002A\u002A,*%
%TO.N,*%
X202000000Y-136000000D03*
%TD*%
D13*
%TO.P,D1,1,K*%
%TO.N,GND*%
X202110000Y-108980000D03*
D14*
%TO.P,D1,2,A*%
%TO.N,Net-(D1-A)*%
X204650000Y-108980000D03*
%TD*%
D15*
%TO.P,REF\u002A\u002A,4*%
%TO.N,N/C*%
X159000000Y-72000000D03*
%TD*%
D16*
%TO.N,3V3*%
X112806400Y-110729800D03*
%TO.N,GND*%
X202138900Y-90025700D03*
X121521000Y-97646300D03*
X121694200Y-114421900D03*
X201870000Y-84662700D03*
%TO.N,SCL*%
X121092500Y-121889100D03*
%TO.N,SDA*%
X116372600Y-122245400D03*
%TO.N,PM_RX*%
X123056400Y-92808200D03*
%TO.N,AT_CLIM_RX*%
X124776500Y-97038700D03*
X126354100Y-115942000D03*
%TO.N,AT_CLIM_TX*%
X123305100Y-93852100D03*
X122740700Y-119866700D03*
%TD*%
D17*
%TO.N,3V3*%
X115000000Y-98460000D02*
X113301100Y-100158900D01*
X113301100Y-110729800D02*
X113301100Y-121881100D01*
X113301100Y-121881100D02*
X118920000Y-127500000D01*
X113301100Y-100158900D02*
X113301100Y-110729800D01*
X112806400Y-110729800D02*
X113301100Y-110729800D01*
%TO.N,GND*%
X202110000Y-90054600D02*
X202110000Y-108980000D01*
X123500000Y-79580000D02*
X122245800Y-80834200D01*
X122245800Y-80834200D02*
X122245800Y-82059300D01*
X121911000Y-94454900D02*
X121911000Y-97256300D01*
X121811000Y-82494100D02*
X121811000Y-94354900D01*
X120853700Y-97646300D02*
X115000000Y-103500000D01*
X202138900Y-90025700D02*
X202110000Y-90054600D01*
X121460000Y-127500000D02*
X121694200Y-127265800D01*
X121694200Y-114421900D02*
X121694200Y-110194200D01*
X121521000Y-97646300D02*
X120853700Y-97646300D01*
X201870000Y-84662700D02*
X202138900Y-84931600D01*
X121811000Y-94354900D02*
X121911000Y-94454900D01*
X121694200Y-127265800D02*
X121694200Y-114421900D01*
X202138900Y-84931600D02*
X202138900Y-90025700D01*
X122245800Y-82059300D02*
X121811000Y-82494100D01*
X121694200Y-110194200D02*
X115000000Y-103500000D01*
X121911000Y-97256300D02*
X121521000Y-97646300D01*
%TO.N,5V*%
X121409300Y-94521300D02*
X121444000Y-94556000D01*
X121644700Y-81890800D02*
X121409300Y-82126200D01*
X121409300Y-82126200D02*
X121409300Y-94521300D01*
X121811000Y-81890800D02*
X121644700Y-81890800D01*
X121811000Y-76189000D02*
X121811000Y-81890800D01*
X121444000Y-94556000D02*
X115000000Y-101000000D01*
X123500000Y-74500000D02*
X121811000Y-76189000D01*
%TO.N,SCL*%
X121092500Y-114672500D02*
X115000000Y-108580000D01*
X121092500Y-121889100D02*
X121092500Y-114672500D01*
%TO.N,SDA*%
X113702800Y-119575600D02*
X113702800Y-107337200D01*
X113702800Y-107337200D02*
X115000000Y-106040000D01*
X116372600Y-122245400D02*
X113702800Y-119575600D01*
%TO.N,PM_RX*%
X122212700Y-83407300D02*
X122212700Y-91964500D01*
X123500000Y-82120000D02*
X122212700Y-83407300D01*
X122212700Y-91964500D02*
X123056400Y-92808200D01*
%TO.N,AT_CLIM_RX*%
X126354100Y-98616300D02*
X124776500Y-97038700D01*
X126354100Y-115942000D02*
X126354100Y-98616300D01*
%TO.N,AT_CLIM_TX*%
X122740700Y-94416500D02*
X123305100Y-93852100D01*
X122740700Y-119866700D02*
X122740700Y-94416500D01*
%TD*%
M02*
