M48
; DRILL file {KiCad 9.0.6} date 2026-02-02T09:25:03+0100
; FORMAT={-:-/ absolute / metric / decimal}
; #@! TF.CreationDate,2026-02-02T09:25:03+01:00
; #@! TF.GenerationSoftware,Kicad,Pcbnew,9.0.6
; #@! TF.FileFunction,Plated,1,2,PTH
FMAT,2
METRIC
; #@! TA.AperFunction,Plated,PTH,ViaDrill
T1C0.300
; #@! TA.AperFunction,Plated,PTH,ComponentDrill
T2C0.889
; #@! TA.AperFunction,Plated,PTH,ComponentDrill
T3C0.900
; #@! TA.AperFunction,Plated,PTH,ComponentDrill
T4C1.000
; #@! TA.AperFunction,Plated,PTH,ComponentDrill
T5C1.020
; #@! TA.AperFunction,Plated,PTH,ComponentDrill
T6C1.200
; #@! TA.AperFunction,Plated,PTH,ComponentDrill
T7C1.397
; #@! TA.AperFunction,Plated,PTH,ComponentDrill
T8C1.500
; #@! TA.AperFunction,Plated,PTH,ComponentDrill
T9C1.700
%
G90
G05
T1
X83.5Y-101.5
X89.0Y-48.75
X89.0Y-51.5
X89.25Y-58.25
X89.75Y-46.25
X90.0Y-54.75
X90.25Y-56.5
X90.25Y-60.75
X90.5Y-49.75
X90.5Y-51.5
X90.75Y-53.25
X91.0Y-48.0
X91.25Y-63.0
X91.75Y-45.0
X91.75Y-55.0
X92.0Y-57.25
X92.0Y-59.25
X92.0Y-65.25
X92.25Y-46.5
X92.5Y-61.0
X93.0Y-56.0
X93.0Y-58.25
X94.0Y-45.25
X94.25Y-59.25
X94.4Y-60.9
X94.75Y-50.75
X95.0Y-66.0
X95.75Y-48.8
X96.3Y-58.1
X96.75Y-44.75
X97.4Y-55.1
X97.75Y-51.9
X99.25Y-45.0
X101.0Y-53.3
X101.0Y-100.5
X101.5Y-45.0
X101.6Y-64.9
X103.0Y-48.8
X103.25Y-51.5
X103.25Y-52.75
X104.0Y-45.25
X104.75Y-48.75
X104.75Y-51.5
X105.0Y-99.25
X106.0Y-45.25
X106.5Y-48.75
X107.75Y-45.25
X108.0Y-48.75
X109.2Y-58.1
X109.25Y-60.5
X109.5Y-48.75
X110.0Y-45.25
X110.75Y-56.5
X111.0Y-48.75
X111.25Y-58.0
X111.25Y-62.5
X111.25Y-63.75
X111.75Y-45.25
X112.2Y-55.38
X112.25Y-65.5
X112.5Y-48.75
X113.0Y-52.5
X113.25Y-62.5
X113.25Y-63.75
X114.0Y-45.25
X114.0Y-65.5
X114.25Y-48.75
X114.869Y-55.662
X116.4Y-58.25
X116.75Y-45.25
X117.0Y-52.1
X117.5Y-54.25
X118.4Y-61.5
X118.5Y-59.0
X118.5Y-64.5
X119.0Y-53.25
X119.25Y-45.25
X120.25Y-59.0
X121.0Y-46.75
X121.25Y-57.5
X121.25Y-65.25
X121.5Y-45.25
X121.5Y-59.25
X122.0Y-54.25
X122.25Y-63.5
X122.5Y-49.0
X123.0Y-54.25
X123.25Y-45.75
X123.25Y-47.25
X123.5Y-58.25
X123.5Y-65.5
X124.0Y-50.5
X124.0Y-54.25
X124.25Y-49.0
X124.25Y-63.75
X125.0Y-47.25
X125.0Y-54.25
X125.25Y-45.75
X125.5Y-52.0
X125.75Y-49.0
X125.75Y-50.5
X125.75Y-65.25
X126.25Y-54.25
X126.25Y-63.5
X126.75Y-45.5
X126.75Y-47.0
X127.0Y-49.0
X127.0Y-50.5
X127.0Y-52.0
X127.5Y-53.5
X128.0Y-65.25
X128.5Y-60.75
X128.5Y-63.5
X129.25Y-53.75
X130.25Y-65.25
X130.451Y-61.549
X130.5Y-64.0
X131.0Y-53.75
X132.0Y-62.25
X132.25Y-64.75
X133.375Y-106.625
X134.0Y-54.0
X134.0Y-57.5
X134.75Y-55.75
X134.75Y-63.0
X135.0Y-64.25
X135.5Y-54.0
X136.25Y-55.75
X136.5Y-57.5
X138.0Y-54.25
X138.25Y-51.5
X138.25Y-56.25
X138.5Y-45.75
X138.75Y-47.25
X139.5Y-52.5
X139.75Y-54.25
X140.0Y-50.75
X140.75Y-47.25
X152.0Y-58.75
X153.121Y-61.379
X154.5Y-63.75
X155.75Y-66.75
X155.75Y-78.7
X156.4Y-76.2
X157.0Y-67.75
X157.75Y-62.25
X157.75Y-64.5
X164.0Y-49.5
X164.0Y-83.75
X164.25Y-68.5
X164.25Y-73.5
X164.25Y-76.25
X164.25Y-78.75
X164.35Y-70.65
X166.5Y-88.0
X169.4Y-49.7
X175.25Y-98.5
X176.0Y-100.5
X176.55Y-94.7
X176.75Y-86.0
X179.325Y-87.425
X180.675Y-85.575
X180.75Y-84.0
X182.5Y-85.7
X183.3Y-88.2
X183.3Y-101.0
X183.3Y-105.0
X187.0Y-102.0
X188.0Y-109.0
X188.5Y-75.5
X188.951Y-93.1
X189.25Y-94.75
X189.25Y-110.25
X189.944Y-96.346
X191.4Y-97.5
X192.6Y-87.15
X195.0Y-66.0
X197.25Y-93.1
X200.4Y-62.775
X201.0Y-73.75
X204.275Y-107.1
X205.75Y-90.75
X211.5Y-106.75
T2
X89.835Y-133.865
X92.36Y-133.88
X94.9Y-133.88
X101.25Y-122.42
X101.25Y-127.5
X101.27Y-124.96
X212.085Y-134.945
X214.61Y-134.96
X217.15Y-134.96
X223.5Y-123.5
X223.5Y-128.58
X223.52Y-126.04
T3
X81.56Y-128.15
X81.58Y-121.8
X86.5Y-128.15
X86.52Y-121.79
X185.0Y-46.9
X191.8Y-46.9
X203.81Y-129.23
X203.83Y-122.88
X208.75Y-129.23
X208.77Y-122.87
T5
X86.88Y-112.25
X89.42Y-112.25
X91.96Y-112.25
X94.5Y-112.25
X97.04Y-112.25
X103.75Y-83.65
X103.75Y-86.19
X103.75Y-88.73
X103.75Y-91.27
X103.75Y-93.81
X103.75Y-96.35
X108.2Y-63.5
X108.2Y-66.04
X108.2Y-68.58
X108.2Y-71.12
X108.2Y-73.66
X108.2Y-76.2
X108.2Y-78.74
X108.2Y-81.28
X108.2Y-83.82
X108.2Y-86.36
X108.2Y-88.9
X108.2Y-91.44
X108.2Y-93.98
X108.2Y-96.52
X132.92Y-121.5
X135.46Y-121.5
X138.0Y-121.5
X144.8Y-121.5
X147.34Y-121.5
X149.38Y-46.96
X149.38Y-49.5
X149.88Y-121.5
X151.92Y-46.96
X151.92Y-49.5
X152.42Y-121.5
X154.46Y-46.96
X154.46Y-49.5
X154.48Y-83.75
X154.96Y-121.5
X157.0Y-46.96
X157.0Y-49.5
X157.02Y-83.75
X157.5Y-121.5
X176.66Y-50.1
X179.2Y-50.1
X192.3Y-76.2
X192.3Y-78.74
X192.3Y-81.28
X192.3Y-83.82
X205.09Y-113.75
X207.63Y-113.75
X208.4Y-54.16
X208.4Y-56.7
X208.4Y-59.24
X210.17Y-113.75
X212.71Y-113.75
X215.25Y-113.75
T6
X120.35Y-112.0
X120.35Y-115.5
X178.85Y-112.0
T7
X87.295Y-118.625
X87.31Y-131.325
X97.44Y-131.325
X97.455Y-118.625
X209.545Y-119.705
X209.56Y-132.405
X219.69Y-132.405
X219.705Y-119.705
T8
X132.46Y-48.16
T9
X124.5Y-118.0
X125.7Y-109.5
X129.92Y-45.62
X129.92Y-50.7
X135.0Y-45.62
X135.0Y-50.7
X173.5Y-109.5
X174.7Y-118.0
T4
X89.2Y-91.3G85X87.8Y-91.3
G05
X89.2Y-100.7G85X87.8Y-100.7
G05
T6
X89.1Y-96.0G85X87.9Y-96.0
G05
M30
