%TF.GenerationSoftware,KiCad,Pcbnew,9.0.6*%
%TF.CreationDate,2026-02-02T09:23:09+01:00*%
%TF.ProjectId,controller,636f6e74-726f-46c6-9c65-722e6b696361,rev?*%
%TF.SameCoordinates,Original*%
%TF.FileFunction,Soldermask,Top*%
%TF.FilePolarity,Negative*%
%FSLAX46Y46*%
G04 Gerber Fmt 4.6, Leading zero omitted, Abs format (unit mm)*
G04 Created by KiCad (PCBNEW 9.0.6) date 2026-02-02 09:23:09*
%MOMM*%
%LPD*%
G01*
G04 APERTURE LIST*
G04 Aperture macros list*
%AMRoundRect*
0 Rectangle with rounded corners*
0 $1 Rounding radius*
0 $2 $3 $4 $5 $6 $7 $8 $9 X,Y pos of 4 corners*
0 Add a 4 corners polygon primitive as box body*
4,1,4,$2,$3,$4,$5,$6,$7,$8,$9,$2,$3,0*
0 Add four circle primitives for the rounded corners*
1,1,$1+$1,$2,$3*
1,1,$1+$1,$4,$5*
1,1,$1+$1,$6,$7*
1,1,$1+$1,$8,$9*
0 Add four rect primitives between the rounded corners*
20,1,$1+$1,$2,$3,$4,$5,0*
20,1,$1+$1,$4,$5,$6,$7,0*
20,1,$1+$1,$6,$7,$8,$9,0*
20,1,$1+$1,$8,$9,$2,$3,0*%
G04 Aperture macros list end*
%ADD10RoundRect,0.240000X-0.560000X1.510000X-0.560000X-1.510000X0.560000X-1.510000X0.560000X1.510000X0*%
%ADD11RoundRect,0.142500X-0.332500X-0.357500X0.332500X-0.357500X0.332500X0.357500X-0.332500X0.357500X0*%
%ADD12RoundRect,0.142500X0.357500X-0.332500X0.357500X0.332500X-0.357500X0.332500X-0.357500X-0.332500X0*%
%ADD13RoundRect,0.142500X-0.357500X0.332500X-0.357500X-0.332500X0.357500X-0.332500X0.357500X0.332500X0*%
%ADD14RoundRect,0.142500X0.332500X0.357500X-0.332500X0.357500X-0.332500X-0.357500X0.332500X-0.357500X0*%
%ADD15R,1.800000X1.800000*%
%ADD16C,1.800000*%
%ADD17RoundRect,0.225000X-0.775000X-0.525000X0.775000X-0.525000X0.775000X0.525000X-0.775000X0.525000X0*%
%ADD18C,1.778000*%
%ADD19C,2.286000*%
%ADD20RoundRect,0.165000X0.735000X-0.385000X0.735000X0.385000X-0.735000X0.385000X-0.735000X-0.385000X0*%
%ADD21RoundRect,0.210000X-0.490000X0.590000X-0.490000X-0.590000X0.490000X-0.590000X0.490000X0.590000X0*%
%ADD22RoundRect,0.250000X0.550000X-0.250000X0.550000X0.250000X-0.550000X0.250000X-0.550000X-0.250000X0*%
%ADD23RoundRect,0.270000X0.630000X-1.380000X0.630000X1.380000X-0.630000X1.380000X-0.630000X-1.380000X0*%
%ADD24RoundRect,0.250000X-0.650000X0.650000X-0.650000X-0.650000X0.650000X-0.650000X0.650000X0.650000X0*%
%ADD25RoundRect,0.240000X0.560000X-1.510000X0.560000X1.510000X-0.560000X1.510000X-0.560000X-1.510000X0*%
%ADD26C,2.200000*%
%ADD27C,2.400000*%
%ADD28RoundRect,0.210000X-0.590000X-0.490000X0.590000X-0.490000X0.590000X0.490000X-0.590000X0.490000X0*%
%ADD29R,3.200000X2.000000*%
%ADD30O,3.200000X2.000000*%
%ADD31O,0.800000X0.300000*%
%ADD32O,0.300000X0.800000*%
%ADD33R,2.700000X2.700000*%
%ADD34O,0.650000X0.250000*%
%ADD35O,0.250000X0.650000*%
%ADD36R,1.700000X1.700000*%
%ADD37RoundRect,0.142500X0.357500X0.332500X-0.357500X0.332500X-0.357500X-0.332500X0.357500X-0.332500X0*%
%ADD38RoundRect,0.250000X-0.650000X-0.650000X0.650000X-0.650000X0.650000X0.650000X-0.650000X0.650000X0*%
%ADD39C,2.500000*%
%ADD40RoundRect,0.082500X0.692500X0.192500X-0.692500X0.192500X-0.692500X-0.192500X0.692500X-0.192500X0*%
%ADD41RoundRect,0.082500X-0.192500X0.692500X-0.192500X-0.692500X0.192500X-0.692500X0.192500X0.692500X0*%
%ADD42RoundRect,0.082500X-0.692500X-0.192500X0.692500X-0.192500X0.692500X0.192500X-0.692500X0.192500X0*%
%ADD43RoundRect,0.082500X0.192500X-0.692500X0.192500X0.692500X-0.192500X0.692500X-0.192500X-0.692500X0*%
%ADD44RoundRect,0.180000X-0.420000X-0.920000X0.420000X-0.920000X0.420000X0.920000X-0.420000X0.920000X0*%
%ADD45C,1.500000*%
G04 APERTURE END LIST*
D10*
%TO.C,C4*%
X200400000Y-54925000D03*
X200400000Y-60225000D03*
%TD*%
D11*
%TO.C,C31*%
X106150000Y-58250000D03*
X107750000Y-58250000D03*
%TD*%
%TO.C,C30*%
X106200000Y-60500000D03*
X107800000Y-60500000D03*
%TD*%
%TO.C,C35*%
X114200000Y-52100000D03*
X115800000Y-52100000D03*
%TD*%
D12*
%TO.C,C36*%
X118093750Y-57500000D03*
X118093750Y-55900000D03*
%TD*%
D13*
%TO.C,C25*%
X100100000Y-48800000D03*
X100100000Y-50400000D03*
%TD*%
D14*
%TO.C,R11*%
X162500000Y-68500000D03*
X160900000Y-68500000D03*
%TD*%
D11*
%TO.C,R16*%
X200425000Y-103350000D03*
X202025000Y-103350000D03*
%TD*%
D13*
%TO.C,C26*%
X101700000Y-48800000D03*
X101700000Y-50400000D03*
%TD*%
D14*
%TO.C,R27*%
X116400000Y-61500000D03*
X114800000Y-61500000D03*
%TD*%
D15*
%TO.C,J1*%
X179200000Y-50100000D03*
D16*
X176660000Y-50100000D03*
%TD*%
D12*
%TO.C,R20*%
X205250000Y-87300000D03*
X205250000Y-85700000D03*
%TD*%
%TO.C,C27*%
X96900000Y-50400000D03*
X96900000Y-48800000D03*
%TD*%
D13*
%TO.C,D1*%
X172400000Y-46700000D03*
X172400000Y-48300000D03*
%TD*%
D14*
%TO.C,R10*%
X147350000Y-78700000D03*
X145750000Y-78700000D03*
%TD*%
D11*
%TO.C,R1*%
X98000000Y-59400000D03*
X99600000Y-59400000D03*
%TD*%
D12*
%TO.C,C39*%
X126893750Y-57500000D03*
X126893750Y-55900000D03*
%TD*%
D14*
%TO.C,R12*%
X162500000Y-70650000D03*
X160900000Y-70650000D03*
%TD*%
D17*
%TO.C,SW5*%
X214250000Y-101750000D03*
X228750000Y-101750000D03*
X214250000Y-106750000D03*
X228750000Y-106750000D03*
%TD*%
D13*
%TO.C,L6*%
X102200000Y-54500000D03*
X102200000Y-56100000D03*
%TD*%
D14*
%TO.C,R13*%
X162500000Y-73500000D03*
X160900000Y-73500000D03*
%TD*%
D15*
%TO.C,J10*%
X215250000Y-113750000D03*
D16*
X212710000Y-113750000D03*
X210170000Y-113750000D03*
X207630000Y-113750000D03*
X205090000Y-113750000D03*
%TD*%
D18*
%TO.C,U9*%
X203810000Y-129230000D03*
X203829800Y-122880000D03*
X208750000Y-129230000D03*
X208770000Y-122870000D03*
X223500000Y-128580000D03*
X223520000Y-126040000D03*
X223500000Y-123500000D03*
D19*
X209560000Y-132405000D03*
X219690000Y-132405000D03*
X219704800Y-119705000D03*
X209544800Y-119705000D03*
D18*
X212084800Y-134945000D03*
X214610000Y-134960000D03*
X217150000Y-134960000D03*
%TD*%
D13*
%TO.C,D2*%
X166800000Y-46700000D03*
X166800000Y-48300000D03*
%TD*%
D20*
%TO.C,SW1*%
X197750000Y-107100000D03*
X197750000Y-103400000D03*
%TD*%
D11*
%TO.C,L10*%
X128893750Y-55912500D03*
X130493750Y-55912500D03*
%TD*%
D13*
%TO.C,R24*%
X98500000Y-48800000D03*
X98500000Y-50400000D03*
%TD*%
D14*
%TO.C,C33*%
X111600000Y-52700000D03*
X110000000Y-52700000D03*
%TD*%
D21*
%TO.C,Y1*%
X191000000Y-91100000D03*
X191000000Y-93500000D03*
X193000000Y-93500000D03*
X193000000Y-91100000D03*
%TD*%
D22*
%TO.C,U2*%
X193300000Y-72200000D03*
X193300000Y-69900000D03*
X193300000Y-67600000D03*
D23*
X187000000Y-69900000D03*
%TD*%
D15*
%TO.C,J9*%
X97040000Y-112250000D03*
D16*
X94500000Y-112250000D03*
X91960000Y-112250000D03*
X89420000Y-112250000D03*
X86880000Y-112250000D03*
%TD*%
D11*
%TO.C,C32*%
X106400000Y-52700000D03*
X108000000Y-52700000D03*
%TD*%
D24*
%TO.C,U4*%
X108200000Y-63500000D03*
D16*
X108200000Y-66040000D03*
X108200000Y-68580000D03*
X108200000Y-71120000D03*
X108200000Y-73660000D03*
X108200000Y-76200000D03*
X108200000Y-78740000D03*
X108200000Y-81280000D03*
X108200000Y-83820000D03*
X108200000Y-86360000D03*
X108200000Y-88900000D03*
X108200000Y-91440000D03*
X108200000Y-93980000D03*
X108200000Y-96520000D03*
X192300000Y-76200000D03*
X192300000Y-78740000D03*
X192300000Y-81280000D03*
X192300000Y-83820000D03*
%TD*%
D11*
%TO.C,L9*%
X121693750Y-55912500D03*
X123293750Y-55912500D03*
%TD*%
D15*
%TO.C,J8*%
X208400000Y-54160000D03*
D16*
X208400000Y-56700000D03*
X208400000Y-59240000D03*
%TD*%
D14*
%TO.C,R9*%
X147350000Y-76200000D03*
X145750000Y-76200000D03*
%TD*%
D15*
%TO.C,J4*%
X154480000Y-83750000D03*
D16*
X157020000Y-83750000D03*
%TD*%
D17*
%TO.C,SW4*%
X208500000Y-85750000D03*
X223000000Y-85750000D03*
X208500000Y-90750000D03*
X223000000Y-90750000D03*
%TD*%
D25*
%TO.C,C5*%
X200400000Y-81825000D03*
X200400000Y-76525000D03*
%TD*%
D26*
%TO.C,J6*%
X132460000Y-48160000D03*
D27*
X129920000Y-45620000D03*
X129920000Y-50700000D03*
X135000000Y-50700000D03*
X135000000Y-45620000D03*
%TD*%
D15*
%TO.C,J11*%
X138000000Y-121500000D03*
D16*
X135460000Y-121500000D03*
X132920000Y-121500000D03*
%TD*%
D15*
%TO.C,J2*%
X157500000Y-121500000D03*
D16*
X154960000Y-121500000D03*
X152420000Y-121500000D03*
X149880000Y-121500000D03*
X147340000Y-121500000D03*
X144800000Y-121500000D03*
%TD*%
D14*
%TO.C,R14*%
X162500000Y-76250000D03*
X160900000Y-76250000D03*
%TD*%
D28*
%TO.C,Y3*%
X96800000Y-63700000D03*
X99200000Y-63700000D03*
X99200000Y-61700000D03*
X96800000Y-61700000D03*
%TD*%
D22*
%TO.C,U3*%
X193200000Y-63800000D03*
X193200000Y-61500000D03*
X193200000Y-59200000D03*
D23*
X186900000Y-61500000D03*
%TD*%
D29*
%TO.C,SW3*%
X88500000Y-91300000D03*
D30*
X88500000Y-96000000D03*
X88500000Y-100700000D03*
%TD*%
D14*
%TO.C,R6*%
X147350000Y-68500000D03*
X145750000Y-68500000D03*
%TD*%
D31*
%TO.C,U7*%
X95400000Y-54100000D03*
X95400000Y-54600000D03*
X95400000Y-55100000D03*
X95400000Y-55600000D03*
X95400000Y-56100000D03*
D32*
X96400000Y-57100000D03*
X96900000Y-57100000D03*
X97400000Y-57100000D03*
X97900000Y-57100000D03*
X98400000Y-57100000D03*
D31*
X99400000Y-56100000D03*
X99400000Y-55600000D03*
X99400000Y-55100000D03*
X99400000Y-54600000D03*
X99400000Y-54100000D03*
D32*
X98400000Y-53100000D03*
X97900000Y-53100000D03*
X97400000Y-53100000D03*
X96900000Y-53100000D03*
X96400000Y-53100000D03*
D33*
X97400000Y-55100000D03*
%TD*%
D12*
%TO.C,R22*%
X164000000Y-48300000D03*
X164000000Y-46700000D03*
%TD*%
D34*
%TO.C,U8*%
X113443750Y-54912500D03*
X113443750Y-55412500D03*
X113443750Y-55912500D03*
X113443750Y-56412500D03*
D35*
X114118750Y-57087500D03*
X114618750Y-57087500D03*
X115118750Y-57087500D03*
X115618750Y-57087500D03*
D34*
X116293750Y-56412500D03*
X116293750Y-55912500D03*
X116293750Y-55412500D03*
X116293750Y-54912500D03*
D35*
X115618750Y-54237500D03*
X115118750Y-54237500D03*
X114618750Y-54237500D03*
X114118750Y-54237500D03*
D36*
X114868750Y-55662500D03*
%TD*%
D12*
%TO.C,R17*%
X169400000Y-48300000D03*
X169400000Y-46700000D03*
%TD*%
D14*
%TO.C,C2*%
X192600000Y-88300000D03*
X191000000Y-88300000D03*
%TD*%
D12*
%TO.C,C37*%
X119681250Y-57500000D03*
X119681250Y-55900000D03*
%TD*%
D37*
%TO.C,D3*%
X200450000Y-50975000D03*
X197250000Y-50975000D03*
%TD*%
D11*
%TO.C,C34*%
X114200000Y-50300000D03*
X115800000Y-50300000D03*
%TD*%
D25*
%TO.C,C6*%
X200300000Y-70775000D03*
X200300000Y-65475000D03*
%TD*%
D18*
%TO.C,U10*%
X81560000Y-128150000D03*
X81579800Y-121800000D03*
X86500000Y-128150000D03*
X86520000Y-121790000D03*
X101250000Y-127500000D03*
X101270000Y-124960000D03*
X101250000Y-122420000D03*
D19*
X87310000Y-131325000D03*
X97440000Y-131325000D03*
X97454800Y-118625000D03*
X87294800Y-118625000D03*
D18*
X89834800Y-133865000D03*
X92360000Y-133880000D03*
X94900000Y-133880000D03*
%TD*%
D11*
%TO.C,L8*%
X104650000Y-54500000D03*
X106250000Y-54500000D03*
%TD*%
D12*
%TO.C,C29*%
X101600000Y-63300000D03*
X101600000Y-61700000D03*
%TD*%
D15*
%TO.C,J3*%
X103750000Y-83650000D03*
D16*
X103750000Y-86190000D03*
X103750000Y-88730000D03*
X103750000Y-91270000D03*
X103750000Y-93810000D03*
X103750000Y-96350000D03*
%TD*%
D14*
%TO.C,R7*%
X147350000Y-70750000D03*
X145750000Y-70750000D03*
%TD*%
%TO.C,R15*%
X162500000Y-78750000D03*
X160900000Y-78750000D03*
%TD*%
%TO.C,R8*%
X147350000Y-73500000D03*
X145750000Y-73500000D03*
%TD*%
D38*
%TO.C,RV1*%
X120350000Y-112000000D03*
D16*
X120350000Y-115500000D03*
X178850000Y-112000000D03*
D39*
X125700000Y-109500000D03*
X173500000Y-109500000D03*
X124500000Y-118000000D03*
X174700000Y-118000000D03*
%TD*%
D13*
%TO.C,C1*%
X174900000Y-92300000D03*
X174900000Y-93900000D03*
%TD*%
D14*
%TO.C,R18*%
X89500000Y-87750000D03*
X87900000Y-87750000D03*
%TD*%
%TO.C,R19*%
X89500000Y-104250000D03*
X87900000Y-104250000D03*
%TD*%
D11*
%TO.C,C3*%
X191400000Y-96100000D03*
X193000000Y-96100000D03*
%TD*%
D13*
%TO.C,C28*%
X94400000Y-62100000D03*
X94400000Y-63700000D03*
%TD*%
D11*
%TO.C,R26*%
X111400000Y-59700000D03*
X113000000Y-59700000D03*
%TD*%
D14*
%TO.C,C24*%
X202075000Y-107100000D03*
X200475000Y-107100000D03*
%TD*%
D15*
%TO.C,J7*%
X149380000Y-49500000D03*
D16*
X151920000Y-49500000D03*
X154460000Y-49500000D03*
X157000000Y-49500000D03*
X157000000Y-46960000D03*
X154460000Y-46960000D03*
X151920000Y-46960000D03*
X149380000Y-46960000D03*
%TD*%
D13*
%TO.C,R21*%
X210250000Y-101700000D03*
X210250000Y-103300000D03*
%TD*%
D11*
%TO.C,L7*%
X104650000Y-56100000D03*
X106250000Y-56100000D03*
%TD*%
D14*
%TO.C,R28*%
X116400000Y-59700000D03*
X114800000Y-59700000D03*
%TD*%
D12*
%TO.C,C38*%
X125200000Y-57500000D03*
X125200000Y-55900000D03*
%TD*%
D40*
%TO.C,U1*%
X187100000Y-97100000D03*
X187100000Y-96300000D03*
X187100000Y-95500000D03*
X187100000Y-94700000D03*
X187100000Y-93900000D03*
X187100000Y-93100000D03*
X187100000Y-92300000D03*
X187100000Y-91500000D03*
D41*
X185700000Y-90100000D03*
X184900000Y-90100000D03*
X184100000Y-90100000D03*
X183300000Y-90100000D03*
X182500000Y-90100000D03*
X181700000Y-90100000D03*
X180900000Y-90100000D03*
X180100000Y-90100000D03*
D42*
X178700000Y-91500000D03*
X178700000Y-92300000D03*
X178700000Y-93100000D03*
X178700000Y-93900000D03*
X178700000Y-94700000D03*
X178700000Y-95500000D03*
X178700000Y-96300000D03*
X178700000Y-97100000D03*
D43*
X180100000Y-98500000D03*
X180900000Y-98500000D03*
X181700000Y-98500000D03*
X182500000Y-98500000D03*
X183300000Y-98500000D03*
X184100000Y-98500000D03*
X184900000Y-98500000D03*
X185700000Y-98500000D03*
%TD*%
D12*
%TO.C,C40*%
X132493750Y-57500000D03*
X132493750Y-55900000D03*
%TD*%
D44*
%TO.C,SW2*%
X185900000Y-50100000D03*
X188400000Y-50100000D03*
X190900000Y-50100000D03*
D45*
X185000000Y-46900000D03*
X191800000Y-46900000D03*
%TD*%
M02*
