%TF.GenerationSoftware,KiCad,Pcbnew,9.0.6*%
%TF.CreationDate,2026-02-02T09:23:09+01:00*%
%TF.ProjectId,controller,636f6e74-726f-46c6-9c65-722e6b696361,rev?*%
%TF.SameCoordinates,Original*%
%TF.FileFunction,Soldermask,Bot*%
%TF.FilePolarity,Negative*%
%FSLAX46Y46*%
G04 Gerber Fmt 4.6, Leading zero omitted, Abs format (unit mm)*
G04 Created by KiCad (PCBNEW 9.0.6) date 2026-02-02 09:23:09*
%MOMM*%
%LPD*%
G01*
G04 APERTURE LIST*
G04 Aperture macros list*
%AMRoundRect*
0 Rectangle with rounded corners*
0 $1 Rounding radius*
0 $2 $3 $4 $5 $6 $7 $8 $9 X,Y pos of 4 corners*
0 Add a 4 corners polygon primitive as box body*
4,1,4,$2,$3,$4,$5,$6,$7,$8,$9,$2,$3,0*
0 Add four circle primitives for the rounded corners*
1,1,$1+$1,$2,$3*
1,1,$1+$1,$4,$5*
1,1,$1+$1,$6,$7*
1,1,$1+$1,$8,$9*
0 Add four rect primitives between the rounded corners*
20,1,$1+$1,$2,$3,$4,$5,0*
20,1,$1+$1,$4,$5,$6,$7,0*
20,1,$1+$1,$6,$7,$8,$9,0*
20,1,$1+$1,$8,$9,$2,$3,0*%
G04 Aperture macros list end*
%ADD10R,1.800000X1.800000*%
%ADD11C,1.800000*%
%ADD12C,1.778000*%
%ADD13C,2.286000*%
%ADD14RoundRect,0.250000X-0.650000X0.650000X-0.650000X-0.650000X0.650000X-0.650000X0.650000X0.650000X0*%
%ADD15C,2.200000*%
%ADD16C,2.400000*%
%ADD17R,3.200000X2.000000*%
%ADD18O,3.200000X2.000000*%
%ADD19RoundRect,0.250000X-0.650000X-0.650000X0.650000X-0.650000X0.650000X0.650000X-0.650000X0.650000X0*%
%ADD20C,2.500000*%
%ADD21C,1.500000*%
G04 APERTURE END LIST*
D10*
%TO.C,J1*%
X179200000Y-50100000D03*
D11*
X176660000Y-50100000D03*
%TD*%
D10*
%TO.C,J10*%
X215250000Y-113750000D03*
D11*
X212710000Y-113750000D03*
X210170000Y-113750000D03*
X207630000Y-113750000D03*
X205090000Y-113750000D03*
%TD*%
D12*
%TO.C,U9*%
X203810000Y-129230000D03*
X203829800Y-122880000D03*
X208750000Y-129230000D03*
X208770000Y-122870000D03*
X223500000Y-128580000D03*
X223520000Y-126040000D03*
X223500000Y-123500000D03*
D13*
X209560000Y-132405000D03*
X219690000Y-132405000D03*
X219704800Y-119705000D03*
X209544800Y-119705000D03*
D12*
X212084800Y-134945000D03*
X214610000Y-134960000D03*
X217150000Y-134960000D03*
%TD*%
D10*
%TO.C,J9*%
X97040000Y-112250000D03*
D11*
X94500000Y-112250000D03*
X91960000Y-112250000D03*
X89420000Y-112250000D03*
X86880000Y-112250000D03*
%TD*%
D14*
%TO.C,U4*%
X108200000Y-63500000D03*
D11*
X108200000Y-66040000D03*
X108200000Y-68580000D03*
X108200000Y-71120000D03*
X108200000Y-73660000D03*
X108200000Y-76200000D03*
X108200000Y-78740000D03*
X108200000Y-81280000D03*
X108200000Y-83820000D03*
X108200000Y-86360000D03*
X108200000Y-88900000D03*
X108200000Y-91440000D03*
X108200000Y-93980000D03*
X108200000Y-96520000D03*
X192300000Y-76200000D03*
X192300000Y-78740000D03*
X192300000Y-81280000D03*
X192300000Y-83820000D03*
%TD*%
D10*
%TO.C,J8*%
X208400000Y-54160000D03*
D11*
X208400000Y-56700000D03*
X208400000Y-59240000D03*
%TD*%
D10*
%TO.C,J4*%
X154480000Y-83750000D03*
D11*
X157020000Y-83750000D03*
%TD*%
D15*
%TO.C,J6*%
X132460000Y-48160000D03*
D16*
X129920000Y-45620000D03*
X129920000Y-50700000D03*
X135000000Y-50700000D03*
X135000000Y-45620000D03*
%TD*%
D10*
%TO.C,J11*%
X138000000Y-121500000D03*
D11*
X135460000Y-121500000D03*
X132920000Y-121500000D03*
%TD*%
D10*
%TO.C,J2*%
X157500000Y-121500000D03*
D11*
X154960000Y-121500000D03*
X152420000Y-121500000D03*
X149880000Y-121500000D03*
X147340000Y-121500000D03*
X144800000Y-121500000D03*
%TD*%
D17*
%TO.C,SW3*%
X88500000Y-91300000D03*
D18*
X88500000Y-96000000D03*
X88500000Y-100700000D03*
%TD*%
D12*
%TO.C,U10*%
X81560000Y-128150000D03*
X81579800Y-121800000D03*
X86500000Y-128150000D03*
X86520000Y-121790000D03*
X101250000Y-127500000D03*
X101270000Y-124960000D03*
X101250000Y-122420000D03*
D13*
X87310000Y-131325000D03*
X97440000Y-131325000D03*
X97454800Y-118625000D03*
X87294800Y-118625000D03*
D12*
X89834800Y-133865000D03*
X92360000Y-133880000D03*
X94900000Y-133880000D03*
%TD*%
D10*
%TO.C,J3*%
X103750000Y-83650000D03*
D11*
X103750000Y-86190000D03*
X103750000Y-88730000D03*
X103750000Y-91270000D03*
X103750000Y-93810000D03*
X103750000Y-96350000D03*
%TD*%
D19*
%TO.C,RV1*%
X120350000Y-112000000D03*
D11*
X120350000Y-115500000D03*
X178850000Y-112000000D03*
D20*
X125700000Y-109500000D03*
X173500000Y-109500000D03*
X124500000Y-118000000D03*
X174700000Y-118000000D03*
%TD*%
D10*
%TO.C,J7*%
X149380000Y-49500000D03*
D11*
X151920000Y-49500000D03*
X154460000Y-49500000D03*
X157000000Y-49500000D03*
X157000000Y-46960000D03*
X154460000Y-46960000D03*
X151920000Y-46960000D03*
X149380000Y-46960000D03*
%TD*%
D21*
%TO.C,SW2*%
X185000000Y-46900000D03*
X191800000Y-46900000D03*
%TD*%
M02*
